<?xml version="1.0" encoding="UTF-8" standalone="no"?>
<!-- Created with Inkscape (http://www.inkscape.org/) -->

<svg
   xmlns:dc="http://purl.org/dc/elements/1.1/"
   xmlns:cc="http://creativecommons.org/ns#"
   xmlns:rdf="http://www.w3.org/1999/02/22-rdf-syntax-ns#"
   xmlns:svg="http://www.w3.org/2000/svg"
   xmlns="http://www.w3.org/2000/svg"
   xmlns:sodipodi="http://sodipodi.sourceforge.net/DTD/sodipodi-0.dtd"
   xmlns:inkscape="http://www.inkscape.org/namespaces/inkscape"
   width="210mm"
   height="297mm"
   id="svg4153"
   version="1.1"
   inkscape:version="0.48.4 r9939"
   sodipodi:docname="bois.svg">
  <defs
     id="defs4155" />
  <sodipodi:namedview
     id="base"
     pagecolor="#ffffff"
     bordercolor="#666666"
     borderopacity="1.0"
     inkscape:pageopacity="0.0"
     inkscape:pageshadow="2"
     inkscape:zoom="0.5"
     inkscape:cx="60.516265"
     inkscape:cy="474.71616"
     inkscape:document-units="px"
     inkscape:current-layer="layer1"
     showgrid="false"
     inkscape:window-width="1366"
     inkscape:window-height="705"
     inkscape:window-x="-8"
     inkscape:window-y="-8"
     inkscape:window-maximized="1" />
  <metadata
     id="metadata4158">
    <rdf:RDF>
      <cc:Work
         rdf:about="">
        <dc:format>image/svg+xml</dc:format>
        <dc:type
           rdf:resource="http://purl.org/dc/dcmitype/StillImage" />
        <dc:title />
      </cc:Work>
    </rdf:RDF>
  </metadata>
  <g
     inkscape:label="Calque 1"
     inkscape:groupmode="layer"
     id="layer1">
    <path
       style="fill:#000000"
       d="m 281.00702,544.34251 c -11.97049,-2.22988 -20.66002,-10.27749 -22.24501,-20.60163 -0.34785,-2.26582 -0.46772,-17.26062 -0.36899,-46.16011 0.1456,-42.61987 0.15067,-42.81592 1.18677,-45.5465 2.71081,-7.14437 8.76841,-12.49324 17.83966,-15.75254 l 3.10923,-1.11715 41.44337,-0.137 c 46.47424,-0.15363 45.23189,-0.23046 52.47855,3.24531 7.2279,3.46677 12.70393,10.02079 13.9437,16.68864 0.67819,3.64722 0.64595,86.03438 -0.0349,89.71833 -0.82567,4.46652 -2.67432,7.80532 -6.39698,11.55341 -2.46055,2.47736 -4.34388,3.86199 -6.9608,5.11756 -7.52439,3.6101 -4.65634,3.40829 -49.98686,3.51748 -31.73482,0.0765 -41.3941,-0.0389 -44.00757,-0.5258 z m 6.49466,-5.84711 c 3.79216,-4.05897 7.03734,-9.42889 8.55062,-14.14899 0.58492,-1.82451 0.8958,-1.99557 2.73177,-1.50308 1.03327,0.27717 1.03361,0.28182 0.18574,2.74609 -1.42972,4.15553 -3.66511,8.14602 -6.709,11.97644 l -2.90636,3.65732 13.25733,-0.12717 13.25732,-0.12718 1.06805,-2.75796 c 1.72357,-4.45058 3.8939,-13.43133 5.17127,-21.39837 4.14164,-25.83196 2.07644,-52.65769 -4.9254,-63.97754 -1.42025,-2.29612 -1.56399,-2.32453 -6.54948,-1.29475 -7.47325,1.54363 -9.85095,3.17697 -13.67655,9.39491 -4.4517,7.23551 -6.6936,8.84436 -15.71079,11.27455 -3.84971,1.03752 -5.62264,1.23144 -11.59968,1.26874 l -7.05542,0.0441 -1.4e-4,19.71969 -1.5e-4,19.7197 1.55462,-0.2945 c 5.3518,-1.01381 11.24207,-3.18307 13.99153,-5.15282 0.8504,-0.60923 1.08876,-0.57718 2.14537,0.28848 l 1.18864,0.97386 -1.18864,0.98124 c -2.16105,1.78397 -7.81239,4.07348 -12.83877,5.20135 l -4.9533,1.11146 0.17776,4.80147 c 0.15134,4.08864 0.37961,5.21413 1.53763,7.58105 0.74799,1.52877 1.66282,2.8958 2.03301,3.03786 0.88751,0.34058 8.78659,-4.39952 13.27402,-7.9655 3.11267,-2.47353 6.61458,-6.28857 7.09479,-7.72924 0.2406,-0.72183 2.77056,0.37427 2.77056,1.20033 0,1.17631 -3.68477,5.41604 -7.3011,8.40074 -1.9039,1.57134 -5.69424,4.20369 -8.42295,5.84967 l -4.96137,2.99269 1.61297,1.35674 c 3.49626,2.94089 12.74976,6.13608 14.76736,5.0991 0.39463,-0.20282 1.4876,-1.19301 2.42874,-2.20042 z m 70.75777,2.43051 c 0,-0.15516 -1.03332,-1.44147 -2.29629,-2.85847 -2.62515,-2.94538 -5.34434,-7.61181 -6.86384,-11.77917 -0.88183,-2.41847 -0.9388,-2.93005 -0.36665,-3.29221 1.5218,-0.96324 2.27868,-0.45473 3.27105,2.19759 1.63924,4.38124 3.20815,7.12673 6.19263,10.83669 3.7009,4.60047 4.49973,5.02163 8.21464,4.33077 3.09995,-0.57649 8.94564,-3.22985 11.13487,-5.05408 l 1.34854,-1.12372 -5.26512,-3.26377 c -6.43199,-3.98707 -11.65139,-8.30952 -13.77623,-11.40879 -0.87647,-1.2784 -1.5936,-2.48156 -1.5936,-2.6737 0,-0.19213 0.57626,-0.61188 1.28057,-0.93279 1.10669,-0.50425 1.34543,-0.46596 1.75853,0.28197 0.92167,1.66879 6.31643,6.97389 9.15865,9.00645 1.57853,1.12886 4.57975,3.06242 6.66934,4.29679 4.27189,2.5235 4.00637,2.58559 6.14021,-1.4359 0.80041,-1.50849 1.05656,-2.99679 1.21054,-7.03336 l 0.19536,-5.11998 -1.36763,-0.28003 c -7.44288,-1.52402 -12.95215,-3.54431 -15.4911,-5.68068 l -1.36371,-1.14748 1.16137,-1.09104 c 1.059,-0.99485 1.23566,-1.02566 2.00349,-0.34939 2.02244,1.78118 7.44862,3.85445 13.87698,5.30219 l 1.07627,0.24239 10e-5,-19.68687 9e-5,-19.68687 -7.05566,-0.008 c -5.62943,-0.007 -7.8785,-0.21688 -11.1264,-1.04005 -9.60155,-2.43351 -12.14064,-4.18908 -16.64338,-11.50766 -3.79398,-6.16653 -5.64579,-7.51912 -12.63218,-9.22667 -2.48715,-0.60789 -6.52077,-1.08034 -10.82457,-1.26784 l -6.86011,-0.29887 1.66267,3.3037 c 2.6924,5.34968 4.42879,12.07822 5.48181,21.24157 l 0.35728,3.10923 5.79044,0.24709 c 5.38982,0.23001 5.95183,0.34687 8.12284,1.68909 2.56813,1.58777 4.23759,3.72878 4.97362,6.37855 0.6406,2.30616 0.61658,17.50463 -0.0311,19.83801 -0.67576,2.43361 -3.8421,5.80773 -6.34829,6.76485 -1.36337,0.52069 -3.83746,0.79711 -7.71749,0.86226 l -5.71079,0.0959 -0.33905,1.67421 c -0.18651,0.92081 -0.70676,3.71911 -1.15616,6.21846 -0.94458,5.25335 -2.62347,11.92128 -4.02349,15.97979 -0.53603,1.55395 -0.97462,3.00691 -0.97462,3.22882 0,0.2219 8.7178,0.40346 19.3729,0.40346 10.65509,0 19.37289,-0.12695 19.37289,-0.2821 z m -19.13564,-31.34494 c 3.38796,-1.90414 3.78211,-3.29857 3.85999,-13.65534 0.0546,-7.26272 -0.0768,-9.38416 -0.64998,-10.49258 -1.70232,-3.29193 -4.47131,-4.44553 -10.74201,-4.47529 l -4.42467,-0.021 0,1.43503 0,1.43503 3.85052,0 c 4.44218,0 6.24501,0.71012 7.64909,3.01287 1.51773,2.48915 0.97577,6.14044 -1.12411,7.57364 -0.24347,0.16617 0.0292,0.94033 0.60587,1.72036 1.54438,2.08886 1.76054,4.8036 0.59272,7.44367 -1.27771,2.88846 -3.74486,4.20189 -8.2077,4.36952 -3.62613,0.1362 -4.32308,0.41651 -4.32308,1.7387 0,0.86575 0.37522,0.92846 5.55543,0.92846 4.77215,0 5.80953,-0.14283 7.35793,-1.01307 z m -4.81085,-5.18968 c 1.42183,-0.76096 2.55933,-3.22351 2.18536,-4.73107 -0.17249,-0.69516 -0.76563,-1.74825 -1.31817,-2.3402 -0.86255,-0.92407 -1.49319,-1.07627 -4.45973,-1.07627 l -3.45512,0 -0.20158,4.1855 c -0.11088,2.30203 -0.14087,4.31362 -0.0666,4.47021 0.22405,0.4726 6.26768,0.0528 7.31587,-0.50817 z m 0.79482,-11.86202 c 1.11234,-0.74273 1.63742,-2.41224 1.15654,-3.6771 -0.59726,-1.57084 -2.2033,-2.17528 -5.77992,-2.17528 l -2.83892,0 0,3.10923 0,3.10923 3.46799,-0.007 c 1.90739,-0.004 3.70482,-0.16547 3.99431,-0.35876 z m -56.91997,-22.60902 c 5.3331,-1.23338 9.87205,-3.07684 11.83919,-4.80839 1.09756,-0.96613 2.83767,-3.29277 3.86683,-5.1703 3.51104,-6.40504 7.85449,-9.52677 15.81378,-11.36556 3.05886,-0.70668 5.79446,-0.88408 13.63278,-0.88408 7.83837,0 10.57392,0.1774 13.63278,0.88408 7.9593,1.83879 12.3028,4.96052 15.81379,11.36556 2.51006,4.57904 5.07608,6.7634 9.69453,8.25259 6.96846,2.24695 12.08764,2.93884 18.06181,2.4412 l 4.02502,-0.33528 0,-2.33515 0,-2.33513 -4.66385,-0.008 c -5.2169,-0.009 -9.40944,-0.76463 -14.56358,-2.62383 -5.73816,-2.06986 -7.86277,-3.79907 -11.16516,-9.08725 -4.01612,-6.43115 -6.33522,-8.37501 -12.1988,-10.225 -4.53067,-1.42945 -9.59743,-1.97275 -18.39736,-1.97275 -11.57605,0 -18.54623,1.20621 -23.43882,4.05618 -2.52981,1.47364 -3.62503,2.70043 -7.13559,7.99273 -3.69109,5.56445 -6.22506,7.55824 -11.99814,9.44038 -6.01464,1.96089 -8.6923,2.42787 -13.9217,2.42787 l -4.54693,0 0.14579,2.27213 c 0.14408,2.24522 0.16848,2.27595 2.05918,2.59549 2.57477,0.43514 10.54713,0.0929 13.44445,-0.57716 z m -0.29002,-8.8404 c 4.91173,-1.5725 8.02541,-3.10285 9.38132,-4.61082 0.55569,-0.61799 2.12398,-2.87914 3.48506,-5.02477 4.09854,-6.46082 8.58856,-9.73054 15.3253,-11.16018 l 2.90063,-0.61555 0,-10.45819 0,-10.45818 -12.79568,0.007 c -14.41152,0.008 -16.59157,0.31638 -22.20005,3.14076 -4.24161,2.13607 -8.13858,5.94132 -9.87142,9.63912 l -1.29297,2.75919 -0.14096,13.59086 c -0.0775,7.47497 -0.0191,13.9086 0.13001,14.29697 0.46332,1.20734 10.04875,0.50408 15.07876,-1.10629 z m 106.09963,1.26887 c 0.49671,-0.31506 0.59486,-3.28163 0.47834,-14.46256 l -0.14661,-14.06619 -1.63469,-3.01482 c -2.96329,-5.46516 -8.92689,-9.6976 -15.96351,-11.32951 -2.5445,-0.59011 -5.8134,-0.71327 -16.23277,-0.61161 l -13.04666,0.1273 -0.13571,9.32769 c -0.0746,5.13023 -0.0277,9.76748 0.10385,10.30501 0.18651,0.76069 0.90034,1.1138 3.22064,1.59304 7.12683,1.47203 12.11739,5.15501 16.07199,11.86089 1.11225,1.88614 2.89288,4.17451 3.95686,5.08526 2.0871,1.78647 6.9763,3.77059 11.94513,4.84755 3.44699,0.74709 10.41196,0.95388 11.38314,0.33795 z m -69.2672,-33.55136 0,-10.0452 -1.19586,0 -1.19586,0 0,10.0452 0,10.04521 1.19586,0 1.19586,0 z m 19.61207,0 0,-10.0452 -1.19586,0 -1.19586,0 0,10.0452 0,10.04521 1.19586,0 1.19586,0 z m -12.94062,7.4449 c 0.42314,-0.5099 0.4339,-0.94139 0.0416,-1.6742 -0.58913,-1.10074 -0.59387,-1.10275 -1.65148,-0.69692 -0.75239,0.28873 -1.04667,2.13021 -0.43774,2.73916 0.52652,0.52651 1.44154,0.36202 2.04746,-0.36804 z m 6.14733,-0.55078 c 0.0785,-0.5492 -0.20143,-1.2841 -0.62194,-1.63311 -1.07049,-0.88841 -2.39009,0.40932 -1.92055,1.88869 0.4307,1.3569 2.33953,1.16502 2.54249,-0.25558 z m -3.51152,-3.51266 c 0.35379,-0.57239 -0.54607,-1.13953 -1.18323,-0.74575 -0.53498,0.33062 -0.18378,1.19104 0.48614,1.19104 0.23205,0 0.54575,-0.20039 0.69709,-0.44529 z m -2.58056,-2.95892 c 0.42816,-0.80009 0.38932,-1.16503 -0.18526,-1.73961 -0.97405,-0.97405 -2.23635,-0.41911 -2.23635,0.98316 0,2.00297 1.50319,2.47252 2.42161,0.75645 z m 5.94939,-0.66826 c 0,-1.08214 -0.21932,-1.42848 -0.90455,-1.42848 -1.32654,0 -2.07204,1.39879 -1.26426,2.37214 1.00663,1.21286 2.16881,0.70718 2.16881,-0.94366 z m -3.36883,-3.06963 c 0.35379,-0.57238 -0.54607,-1.13952 -1.18323,-0.74574 -0.53498,0.33062 -0.18378,1.19103 0.48614,1.19103 0.23205,0 0.54575,-0.20038 0.69709,-0.44529 z m -2.58056,-2.95891 c 0.42816,-0.8001 0.38932,-1.16503 -0.18526,-1.73962 -0.97405,-0.97405 -2.23635,-0.41911 -2.23635,0.98317 0,2.00297 1.50319,2.47252 2.42161,0.75645 z m 5.87176,-0.0272 c 0.65064,-1.03143 0.0581,-2.30868 -1.07097,-2.30868 -1.15816,0 -1.77675,1.6997 -0.97166,2.66978 0.68088,0.82042 1.37472,0.69777 2.04263,-0.3611 z"
       id="path4945"
       inkscape:connector-curvature="0"
       sodipodi:nodetypes="csssscssccsssccccssscccssssssscccssccsscsccssssscsscccsscsssscssssssssscsscscscccssssscsscssscssccsssscccssscccssscsssscsccsscsscscsccccssscsssssscccssssssssscsscsscscccssccscscscssscscsccsccccccccccccccccccccccccccccsccsscsscsscsccsscssccsc" />
    <path
       style="fill:#854d0a;stroke:#000000;stroke-width:1px;stroke-linecap:butt;stroke-linejoin:miter;stroke-opacity:1;fill-opacity:1"
       d="m 311.32093,553.38262 145.604,-85.40347 c 23.4715,-0.91867 40.36015,8.32364 49.299,29.83693 l 18.32369,-8.03371 25.50434,2.35221 18.94723,14.60182 -10.1776,15.37987 -181.14514,129.13656 c -14.34862,10.88072 -28.7218,15.33512 -43.12405,12.17723 l -12.55103,-25.34963 -43.4861,1.91796 c -13.48177,-9.60962 -16.57095,-21.88093 -7.26109,-37.32783 7.86388,-11.84083 26.14842,-1.04733 31.03564,-9.13745 -5.08944,-15.80706 -0.37556,-33.16487 9.03111,-40.15049 z"
       id="path4987"
       inkscape:connector-curvature="0"
       sodipodi:nodetypes="cccccccccccccc" />
    <path
       style="color:#000000;fill:#000000;fill-opacity:1;fill-rule:nonzero;stroke:#000000;stroke-width:5;stroke-linecap:square;stroke-linejoin:miter;stroke-miterlimit:4;stroke-opacity:1;stroke-dasharray:none;stroke-dashoffset:0;marker:none;visibility:visible;display:inline;overflow:visible;enable-background:accumulate"
       id="path4949"
       d="m 305.03303,598.96282 c -2.85745,-3.43357 -5.39173,-7.0989 -7.37815,-11.10048 -1.08521,-2.33911 -1.83113,-4.80732 -2.27689,-7.3423 -0.32244,-2.23924 -0.32299,-4.50744 -0.34055,-6.7648 -0.0596,-2.10794 0.3537,-4.15394 0.98555,-6.15122 0.6238,-1.89591 1.61216,-3.62869 2.6971,-5.29254 1.53227,-2.11518 3.32174,-4.0472 5.18585,-5.87286 1.63141,-1.5652 3.37393,-3.00959 5.19389,-4.34931 1.47557,-1.10093 3.17108,-1.62902 4.95713,-1.9484 2.292,-0.30841 4.60855,-0.37178 6.91618,-0.4846 2.38605,-0.11904 4.7745,-0.17224 7.16301,-0.20861 4.38708,-0.3036 8.40675,0.003 12.35606,1.72914 2.57131,1.20722 4.85131,2.91766 7.09643,4.63556 2.6334,2.01682 5.03252,4.30336 7.24295,6.77083 2.48124,2.7862 4.40176,5.96245 6.09082,9.27102 1.64306,3.27624 2.5803,6.81406 3.31641,10.38491 0.6034,2.93185 0.85461,5.91517 1.00934,8.89913 0.21179,2.07267 0.12463,3.86277 -1.0159,5.63757 -1.71424,2.02437 -4.00307,3.44467 -6.23207,4.83433 -2.26466,1.46088 -4.69442,2.58399 -7.27956,3.33009 -2.33733,0.59497 -4.75814,0.62322 -7.15428,0.66295 -4.7983,0.029 -9.60221,0.18735 -14.37629,-0.35385 -1.69402,-0.23991 -3.42612,-0.43953 -5.03546,-1.04989 -1.68319,-1.07118 1.37267,-2.04514 2.10727,-2.44085 0,0 0.3337,-0.001 0.3337,-0.001 l 0,0 c 1.28523,0.63852 2.61786,1.14856 3.96253,1.63943 1.62063,0.47371 3.2951,0.72283 4.96959,0.9179 0.75847,0.0767 7.18989,0.19872 3.89596,0.28018 -9.77443,0.24174 -4.28403,-0.0618 -2.13222,0.0225 2.41181,-0.0219 4.8459,-0.0154 7.22019,-0.49587 2.62441,-0.64022 5.09639,-1.70604 7.39421,-3.13369 2.21577,-1.35698 4.48984,-2.7152 6.32451,-4.57754 1.21073,-1.59811 1.3114,-3.27707 1.1399,-5.24593 -0.1112,-2.95368 -0.35175,-5.90591 -0.94485,-8.807 -0.72833,-3.51854 -1.62181,-7.01721 -3.28159,-10.23027 -1.68616,-3.29983 -3.58648,-6.51285 -6.0626,-9.29063 -2.23033,-2.41632 -4.61731,-4.67825 -7.24189,-6.66722 -2.19987,-1.68299 -4.45423,-3.32955 -6.97687,-4.50223 -1.11382,-0.46648 -2.20199,-0.88452 -3.39351,-1.11374 -0.37429,-0.072 -1.51236,-0.15806 -1.1313,-0.16628 1.06534,-0.023 6.7433,0.15282 3.19575,0.08 -2.42553,0.0139 -4.85132,0.0494 -7.27439,0.1669 -2.32895,0.11065 -4.66333,0.17741 -6.9837,0.4138 -1.78244,0.24385 -3.50122,0.65182 -5.00627,1.69395 -1.85796,1.29468 -3.63588,2.7041 -5.28743,4.25557 -1.8312,1.76999 -3.69458,3.51901 -5.1695,5.61287 -1.09153,1.61413 -2.07419,3.30701 -2.7256,5.1518 -0.63773,1.93805 -1.04405,3.93767 -1.00032,5.98925 0.0172,2.22996 0.0235,4.46938 0.3272,6.68292 0.41571,2.47314 1.07739,4.90009 2.0596,7.2123 1.85189,3.99537 4.29586,7.65201 7.16874,10.99254 0,0 -4.60868,0.32373 -4.60868,0.32373 z"
       inkscape:connector-curvature="0" />
    <path
       style="color:#000000;fill:#000000;fill-opacity:1;fill-rule:nonzero;stroke:#000000;stroke-width:5;stroke-linecap:square;stroke-linejoin:miter;stroke-miterlimit:4;stroke-opacity:1;stroke-dasharray:none;stroke-dashoffset:0;marker:none;visibility:visible;display:inline;overflow:visible;enable-background:accumulate"
       id="path4955"
       d="m 358.48314,600.6418 c 3.27571,-3.27451 6.79461,-6.24675 10.49188,-9.02969 5.29161,-3.80642 10.65804,-7.5084 16.02003,-11.21477 6.28956,-4.23891 12.44734,-8.6585 18.46003,-13.28059 6.13101,-4.86191 12.11033,-9.90734 18.28036,-14.72012 7.75944,-5.91333 15.69621,-11.59135 23.63687,-17.25774 9.96664,-7.17481 20.20789,-13.94806 30.60961,-20.47165 6.35815,-3.96118 12.86073,-7.69286 19.13734,-11.78435 1.1824,-0.81378 2.33508,-1.45208 3.77893,-1.4384 0,0 0.19394,0.0508 0.19394,0.0508 l 0,0 c 1.24442,0.94148 -0.57879,1.5698 -1.34885,2.20975 -6.42808,3.95896 -12.976,7.71693 -19.41357,11.66047 -10.44252,6.47473 -20.69802,13.24218 -30.65837,20.44123 -7.90342,5.67666 -15.80489,11.35957 -23.53035,17.27782 -6.14582,4.80573 -12.15129,9.78313 -18.2472,14.65127 -6.0101,4.62433 -12.17119,9.04025 -18.44745,13.297 -5.35435,3.70337 -10.70773,7.40927 -15.99265,11.21143 -3.71584,2.78826 -7.38422,5.67178 -10.69088,8.94363 0,0 -2.27967,-0.5461 -2.27967,-0.5461 z"
       inkscape:connector-curvature="0" />
    <path
       style="color:#000000;fill:#000000;fill-opacity:1;fill-rule:nonzero;stroke:#000000;stroke-width:5;stroke-linecap:square;stroke-linejoin:miter;stroke-miterlimit:4;stroke-opacity:1;stroke-dasharray:none;stroke-dashoffset:0;marker:none;visibility:visible;display:inline;overflow:visible;enable-background:accumulate"
       id="path4957"
       d="m 317.63604,546.18572 c 4.00144,-2.86878 8.08958,-5.62288 12.24222,-8.26767 5.45607,-3.39733 10.98218,-6.68 16.47366,-10.01923 6.33366,-3.85467 12.71691,-7.62508 19.13554,-11.3362 5.75285,-3.37273 11.56094,-6.64767 17.30811,-10.03014 4.56961,-2.7033 9.06802,-5.52691 13.68312,-8.15254 3.65895,-1.98234 7.34866,-3.90463 10.90912,-6.06093 4.15751,-2.6706 8.24492,-5.44573 12.42048,-8.08874 4.40722,-2.74551 8.93249,-5.29598 13.48413,-7.79261 3.18164,-1.74082 6.42222,-3.37028 9.7161,-4.8873 1.94929,-0.90114 3.94162,-1.70563 5.94061,-2.48894 1.16402,-0.45287 2.32667,-0.90922 3.48716,-1.37106 0.54426,-0.18283 1.05545,-0.45578 1.60822,-0.6014 0.11679,0.0141 0.19112,-0.0694 0.28586,-0.10383 0.29321,-0.026 0.58884,-0.0161 0.88291,-0.016 1.22577,0.003 2.45156,0.003 3.67732,-0.002 2.40123,0.0765 4.80411,0.0204 7.20192,0.20762 3.60245,0.39914 7.11689,1.32632 10.63347,2.17018 5.75374,1.3771 11.39973,3.01781 16.57652,5.90701 3.75711,2.12699 6.60309,5.407 9.27007,8.73102 2.53667,3.29231 4.67483,6.88072 6.43823,10.63973 1.14929,2.8362 2.63573,5.83222 2.13275,8.95369 -0.80877,1.82244 -2.15885,2.64012 -3.79554,3.6572 0,0 -0.48967,-0.10875 -0.48967,-0.10875 l 0,0 c 0.0219,-1.42695 0.17215,-2.86667 -0.29113,-4.24627 -0.81839,-2.98884 -1.45832,-6.04156 -2.81122,-8.85499 -1.73827,-3.76446 -3.64138,-7.44366 -6.2084,-10.72758 -2.61752,-3.32312 -5.47466,-6.42458 -9.10745,-8.67109 -1.88831,-1.02832 -3.76436,-1.92535 -5.78877,-2.66078 -2.69208,-0.97797 -4.38679,-1.33624 -4.09993,-1.31953 0.88628,0.0516 1.72091,0.43713 2.58137,0.65569 -3.50802,-0.99581 -7.06575,-1.84978 -10.67949,-2.36218 -2.43294,-0.23093 -4.86262,-0.22845 -7.30188,-0.12733 -1.2307,-0.005 -2.46142,-0.005 -3.69214,-0.004 -0.3393,-9.4e-4 -0.6799,0.006 -1.01802,-0.027 -0.12281,-0.0226 -0.23333,-0.0857 -0.36703,-0.0363 -0.53935,0.0834 -1.07095,0.10847 -1.57283,0.37593 -1.18272,0.46062 -2.37603,0.89302 -3.56045,1.34915 -2.0261,0.76147 -4.0447,1.54507 -6.0189,2.4346 -3.32016,1.49494 -6.59315,3.09135 -9.79357,4.82965 -4.56825,2.47817 -9.10962,5.01015 -13.52665,7.75145 -4.18332,2.63168 -8.25317,5.43252 -12.41148,8.10229 -3.59231,2.16205 -7.3049,4.099 -11.02034,6.03943 -4.75479,2.55682 -9.45538,5.20748 -14.06932,8.01253 -5.77567,3.38962 -11.61682,6.66263 -17.53349,9.79987 -6.47465,3.65802 -12.87881,7.43597 -19.23256,11.30042 -5.51046,3.32463 -11.02293,6.6463 -16.51372,10.00324 -4.28436,2.63982 -8.60835,5.22101 -12.65792,8.2207 0,0 -2.52699,-0.77741 -2.52699,-0.77741 z"
       inkscape:connector-curvature="0" />
    <path
       style="color:#000000;fill:#000000;fill-opacity:1;fill-rule:nonzero;stroke:#000000;stroke-width:1;stroke-linecap:square;stroke-linejoin:miter;stroke-miterlimit:4;stroke-opacity:1;stroke-dasharray:none;stroke-dashoffset:0;marker:none;visibility:visible;display:inline;overflow:visible;enable-background:accumulate"
       id="path4961"
       d="m 331.7128,561.23924 c -2.82554,-0.68597 -5.68209,-1.23992 -8.56769,-1.59797 6.34292,0.37483 1.29142,0.39897 -0.52622,1.33771 -1.29667,0.70566 -2.38493,1.69668 -3.34621,2.80451 -1.16222,1.44849 -1.94496,3.13846 -2.68401,4.82846 -0.91605,2.0852 -1.61162,4.25301 -2.1664,6.45905 -0.45872,1.95114 -0.55528,3.95448 -0.61224,5.94973 -0.0981,2.18029 0.0274,4.34692 0.34595,6.50349 0.32824,1.9715 0.70979,3.93695 1.18782,5.87781 0.41419,1.73965 1.28031,3.27762 2.29285,4.72948 1.13248,1.49907 2.60854,2.64898 4.12858,3.72478 1.60299,1.14739 3.45197,1.65411 5.37379,1.92545 0.46333,0.0432 7.48765,0.69161 -2.62111,-0.16541 -0.29857,-0.0253 0.59893,0.0326 0.89852,0.0271 0.99012,-0.0184 1.8394,-0.25271 2.77062,-0.56577 2.22582,-0.97576 3.91355,-2.73143 5.44659,-4.56267 1.54383,-1.9516 2.66517,-4.16962 3.54705,-6.48431 0.71139,-1.91141 0.90035,-3.92782 1.01973,-5.9448 0.0658,-1.80226 0.0453,-3.6053 0.0367,-5.40808 0.0675,-1.50891 -0.24151,-2.9695 -0.68644,-4.39951 -0.38993,-1.26413 -1.01197,-2.41483 -1.83388,-3.44513 -0.71749,-0.84055 -1.70185,-1.32045 -2.6959,-1.75083 -0.94838,-0.43859 -1.94954,-0.66838 -2.98261,-0.7785 8.19143,0.72334 3.0486,0.44331 1.13997,0.42748 -1.36368,-0.0245 -2.57038,0.50185 -3.72683,1.16673 -0.90488,0.53797 -1.62698,1.2353 -2.0424,2.20563 -0.34527,1.20676 -0.31104,2.48862 -0.32656,3.73356 0.007,1.75023 -0.0164,3.50051 0.0404,5.25012 0.0963,1.33155 0.26866,2.66038 0.8882,3.8562 0.47356,0.8029 1.20494,1.29033 2.06893,1.58495 3.47279,0.43372 -4.91674,0.27348 -2.14394,-0.36866 1.00628,-1.20695 1.84619,-2.58317 2.83406,-3.83336 0.3177,-0.34614 0.6354,-0.69227 0.9531,-1.03841 0,0 1.29896,0.1893 1.29896,0.1893 l 0,0 c 0.046,0.40108 0.0921,0.80215 0.13816,1.20323 -0.0484,1.4892 -0.0525,3.1889 -0.95394,4.4494 -1.87089,1.25051 -4.56625,-0.0599 -6.67429,-0.5601 -0.90585,-0.41499 -1.66234,-1.02674 -2.1342,-1.92313 -0.594,-1.27509 -0.82997,-2.64661 -0.88704,-4.04926 -0.0845,-1.75553 -0.0271,-3.51627 -0.0409,-5.27339 0.008,-1.30724 -0.0344,-2.63972 0.3103,-3.91268 0.41313,-1.06488 1.13098,-1.88298 2.09483,-2.50343 1.17023,-0.72563 2.41565,-1.36095 3.82233,-1.40297 2.69086,-0.0117 5.30702,0.0817 7.98589,0.64097 1.02937,0.16501 2.02451,0.45935 2.96355,0.91997 0.98202,0.49432 1.90869,1.07048 2.57722,1.96827 0.80039,1.09143 1.40212,2.2999 1.78313,3.60223 0.44316,1.47753 0.71949,2.97815 0.67136,4.52955 0.004,1.81065 0.0156,3.62281 -0.0558,5.43229 -0.10323,2.01443 -0.34894,4.03096 -1.03833,5.93917 -0.89618,2.35864 -2.03145,4.62037 -3.5794,6.62634 -1.53953,1.8821 -3.20843,3.67139 -5.44692,4.72298 -3.18147,1.28596 -6.54336,0.69829 -9.9161,0.25557 -1.94596,-0.34009 -3.79517,-0.9495 -5.4064,-2.13464 -1.54689,-1.12636 -2.98565,-2.41661 -4.1368,-3.95444 -1.01987,-1.50126 -1.83087,-3.11705 -2.24737,-4.89547 -0.48282,-2.00156 -0.85148,-4.02822 -1.17141,-6.06202 -0.31109,-2.18155 -0.42764,-4.37494 -0.32433,-6.57858 0.0527,-2.0297 0.15045,-4.06769 0.64984,-6.04612 0.58357,-2.2227 1.33638,-4.39389 2.2149,-6.51746 0.75632,-1.7278 1.56169,-3.45796 2.71373,-4.96356 0.99472,-1.16607 2.10404,-2.20138 3.45696,-2.94835 2.96166,-1.60969 5.47738,-1.20101 8.95229,-0.54389 2.83667,0.39463 5.6395,0.98239 8.42502,1.64558 0,0 -4.05565,0.0959 -4.05565,0.0959 z"
       inkscape:connector-curvature="0" />
    <path
       style="color:#000000;fill:#000000;fill-opacity:1;fill-rule:nonzero;stroke:#000000;stroke-width:1;stroke-linecap:square;stroke-linejoin:miter;stroke-miterlimit:4;stroke-opacity:1;stroke-dasharray:none;stroke-dashoffset:0;marker:none;visibility:visible;display:inline;overflow:visible;enable-background:accumulate"
       id="path4963"
       d="m 363.11913,557.93571 c 2.24991,-3.20058 5.04079,-5.91729 8.04194,-8.40024 2.68466,-2.12998 5.51066,-4.07458 8.49751,-5.75414 1.94443,-1.1069 4.07943,-1.73886 6.23077,-2.29239 2.42743,-0.53553 4.86727,-1.00345 7.28152,-1.59793 3.23209,-0.78829 6.25004,-2.17991 9.18368,-3.71533 3.00354,-1.58729 5.72514,-3.62363 8.30397,-5.82004 1.55527,-1.34788 3.02088,-2.79479 3.85065,-4.70141 0.60082,-1.53627 -0.021,-2.59323 -1.17553,-3.60522 1.68439,-0.46608 -5.78079,-1.78399 -3.8348,-1.53163 4.30422,0.55817 2.54714,0.41687 1.09382,0.34386 -2.95294,0.0196 -5.79952,0.9067 -8.44066,2.17324 -1.62683,0.68208 -2.54657,1.9639 -3.51059,3.34916 0,0 -1.10482,-0.11944 -1.10482,-0.11944 l 0,0 c -1.03246,-1.74391 -0.37373,-2.99346 1.20901,-4.15214 2.52839,-1.43569 5.28148,-2.37496 8.21513,-2.44782 3.3708,0.22247 7.26364,0.38504 10.05953,2.49397 1.13648,1.21245 1.52485,2.41127 0.88136,4.01089 -0.84701,1.96751 -2.36501,3.44972 -3.96493,4.8395 -2.612,2.1976 -5.33179,4.27508 -8.35678,5.88212 -2.94836,1.57894 -5.94911,3.10612 -9.22155,3.8962 -2.45633,0.58821 -4.94279,1.01356 -7.40814,1.55873 -2.1633,0.51388 -4.31157,1.1187 -6.27429,2.19505 -3.00353,1.64013 -5.82706,3.5796 -8.5177,5.69332 -2.99074,2.44616 -5.81219,5.09235 -7.9712,8.32856 0,0 -3.0679,-0.62687 -3.0679,-0.62687 z"
       inkscape:connector-curvature="0" />
    <path
       style="color:#000000;fill:#000000;fill-opacity:1;fill-rule:nonzero;stroke:#000000;stroke-width:1;stroke-linecap:square;stroke-linejoin:miter;stroke-miterlimit:4;stroke-opacity:1;stroke-dasharray:none;stroke-dashoffset:0;marker:none;visibility:visible;display:inline;overflow:visible;enable-background:accumulate"
       id="path4965"
       d="m 482.62911,490.07909 c -3.51856,0.14164 -6.96187,0.78359 -10.30957,1.85141 -2.84359,0.93998 -5.31514,2.58461 -7.62413,4.44938 -2.35944,2.03945 -4.53194,4.28526 -6.74291,6.48238 -2.43768,2.44984 -5.09623,4.65173 -7.83237,6.75595 -2.6339,2.04079 -5.38004,3.92476 -8.35381,5.43204 -2.70634,1.29484 -5.65271,1.76931 -8.61134,2.03238 -2.93678,0.0516 -6.7446,0.68759 -9.05594,-1.42691 -1.09568,-1.51428 -0.62854,-3.00369 0.21805,-4.50334 2.17794,-3.13387 5.19978,-5.50426 8.35452,-7.58445 4.63101,-2.69645 5.37861,-2.73725 10.69058,-1.69614 0.55458,1.0837 0.18696,1.72413 -0.35297,2.724 0,0 -0.80327,-0.075 -0.80327,-0.075 l 0,0 c -0.73392,-0.90299 -1.36918,-1.92025 -2.28578,-2.64704 0.94449,0.0514 1.88887,0.10488 2.83348,0.15405 0.2851,0.0148 -0.57107,-0.0816 -0.85491,-0.0511 -1.984,0.21318 -3.75408,1.49819 -5.46675,2.38576 -3.08121,2.06161 -6.04384,4.37475 -8.21587,7.42207 -0.72775,1.31668 -1.28269,2.70282 -0.12535,3.9596 1.31511,0.98133 3.0915,0.71861 -2.02934,0.29284 -1.65897,-0.13794 4.20515,0.6145 3.40685,0.0701 2.98862,-0.22437 5.97685,-0.58316 8.72979,-1.86068 3.06399,-1.43053 5.87745,-3.27953 8.57862,-5.31015 2.72005,-2.10007 5.39853,-4.2654 7.81503,-6.71622 2.2609,-2.23043 4.46076,-4.52428 6.81442,-6.6591 2.34133,-1.93918 4.88296,-3.57768 7.79452,-4.53515 3.43202,-1.04774 6.95715,-1.64463 10.54197,-1.86026 0,0 2.88648,0.91354 2.88648,0.91354 z"
       inkscape:connector-curvature="0" />
    <path
       style="color:#000000;fill:#000000;fill-opacity:1;fill-rule:nonzero;stroke:#000000;stroke-width:1;stroke-linecap:square;stroke-linejoin:miter;stroke-miterlimit:4;stroke-opacity:1;stroke-dasharray:none;stroke-dashoffset:0;marker:none;visibility:visible;display:inline;overflow:visible;enable-background:accumulate"
       id="path4967"
       d="m 355.88591,541.54741 c 2.66988,-2.3779 5.65167,-4.25303 8.96555,-5.56663 0,0 0.76851,0.19077 0.76851,0.19077 l 0,0 c -2.20302,2.16558 -4.88038,3.7797 -7.06702,5.97499 0,0 -2.66704,-0.59913 -2.66704,-0.59913 z"
       inkscape:connector-curvature="0" />
    <path
       style="color:#000000;fill:#000000;fill-opacity:1;fill-rule:nonzero;stroke:#000000;stroke-width:5;stroke-linecap:square;stroke-linejoin:miter;stroke-miterlimit:4;stroke-opacity:1;stroke-dasharray:none;stroke-dashoffset:0;marker:none;visibility:visible;display:inline;overflow:visible;enable-background:accumulate"
       id="path4969"
       d="m 301.51279,601.16459 c -2.65746,-1.87394 -5.39905,-3.64039 -8.39459,-4.92079 -0.39383,-0.12841 -0.78278,-0.27291 -1.1815,-0.38523 -0.7085,-0.1996 -1.46739,-0.34212 -2.19738,-0.43701 -0.35473,-0.0461 -1.42319,-0.14756 -1.06794,-0.10563 4.30291,0.50793 5.75818,0.54969 3.20542,0.43472 -2.22563,-0.12681 -4.42202,0.0547 -6.60082,0.50181 -2.34096,0.47636 -4.4952,1.48742 -6.64038,2.49667 -2.29425,1.3191 -4.2274,3.10636 -5.95832,5.08754 -1.81713,2.08982 -3.04609,4.4974 -3.82655,7.13563 -0.69724,3.04693 -0.75908,6.20279 -0.69928,9.31479 0.17265,3.40656 1.08919,6.66875 2.59935,9.71031 1.33988,2.48874 3.32353,4.51675 5.43578,6.35854 2.38361,1.98297 5.26947,3.08838 8.17349,4.05619 2.82734,0.89691 5.74618,1.41015 8.69074,1.71089 2.22814,0.27949 12.39387,0.24909 2.68438,0.21973 3.10691,-0.001 6.00862,-0.97848 8.79604,-2.25908 2.6203,-1.25418 4.86268,-3.0845 6.94179,-5.08445 2.11801,-2.05458 3.8635,-4.43711 5.49965,-6.88071 1.54688,-2.2414 2.52836,-4.71098 3.04429,-7.36959 0.37621,-2.56738 0.49449,-5.16876 0.20781,-7.74821 -0.37185,-2.61095 -1.66521,-4.53926 -3.79549,-6.01702 -0.38732,-0.18613 -0.76766,-0.38756 -1.16197,-0.55839 -1.48689,-0.64415 -6.71263,-1.20007 -4.36354,-1.05138 0.97731,0.0619 2.0127,-0.0572 2.92171,0.30704 0.75759,0.30357 -1.63046,-0.0775 -2.44569,-0.11629 -0.76172,0.0721 -1.52343,0.14427 -2.28515,0.2164 0,0 -2.12818,-0.50151 -2.12818,-0.50151 l 0,0 c 0.42912,-0.16851 0.85823,-0.33702 1.28735,-0.50553 3.84023,-0.78994 10.21562,0.22017 14.04589,2.02114 2.07156,1.61645 3.39226,3.67885 3.76513,6.32188 0.27137,2.5785 0.17258,5.17909 -0.20725,7.74449 -0.53597,2.72946 -1.48645,5.28871 -3.07462,7.5984 -1.64016,2.48216 -3.40144,4.89334 -5.50896,7.00515 -2.10343,2.05109 -4.34877,3.95687 -7.00157,5.27023 -2.78924,1.34874 -5.70138,2.42906 -8.83979,2.50464 -4.68919,0.008 -9.40434,0.14289 -14.08308,-0.2778 -2.94164,-0.34601 -5.85783,-0.89963 -8.67302,-1.84054 -2.94147,-1.02743 -5.84285,-2.22563 -8.23722,-4.27849 -2.1734,-1.95681 -4.11216,-4.13045 -5.44999,-6.7585 -1.49629,-3.20283 -2.43983,-6.58802 -2.59232,-10.13959 -0.0704,-3.17456 -0.0206,-6.38149 0.69139,-9.49181 0.78326,-2.7196 2.00681,-5.22652 3.87824,-7.37909 1.74996,-2.04405 3.68827,-3.90018 6.01978,-5.27932 2.07881,-1.34827 4.38397,-2.25078 6.79305,-2.83209 2.25686,-0.49339 4.52805,-0.74565 6.84254,-0.58265 3.87279,0.11812 7.94558,0.29356 11.57996,1.76559 2.78206,1.4068 5.31901,3.22168 7.86375,5.01273 0,0 -4.55293,0.006 -4.55293,0.006 z"
       inkscape:connector-curvature="0" />
    <path
       style="color:#000000;fill:#000000;fill-opacity:1;fill-rule:nonzero;stroke:#000000;stroke-width:5;stroke-linecap:square;stroke-linejoin:miter;stroke-miterlimit:4;stroke-opacity:1;stroke-dasharray:none;stroke-dashoffset:0;marker:none;visibility:visible;display:inline;overflow:visible;enable-background:accumulate"
       id="path4971"
       d="m 346.96669,616.67226 c -3.0135,-1.09919 -6.11443,-1.91035 -9.28198,-2.40324 -0.40599,-0.0468 -1.62429,-0.18422 -1.21798,-0.14034 9.27262,1.00153 3.0453,0.13585 0.64666,0.75839 -2.16731,0.69481 -3.90038,2.13728 -5.50019,3.70106 -2.11939,2.18599 -3.24794,4.93972 -4.21574,7.77036 -1.16983,3.66697 -1.46876,7.50107 -1.64725,11.3204 -0.44925,4.76667 0.73356,9.1858 2.71466,13.46693 2.14281,4.34804 5.24441,7.9065 9.20286,10.65745 2.06271,1.19536 4.31831,1.99878 6.6697,2.39956 0.86381,0.14723 3.3499,-0.18608 2.61297,0.28802 -0.83376,0.5364 -3.02073,0.93433 -2.97367,-0.056 0.0477,-1.00407 1.99574,-0.2424 2.99361,-0.3636 6.89235,-1.31058 13.17541,-4.50587 19.22719,-7.92839 5.36519,-3.11228 10.10592,-7.02447 13.79555,-12.01053 2.97564,-4.41873 3.35758,-9.1436 2.44207,-14.24195 -1.38994,-5.70727 -4.34215,-10.71856 -8.39377,-14.91489 -2.19767,-2.60769 -5.4597,-3.14148 -8.30348,-4.58436 0.23572,0.0641 0.47144,0.12811 0.70717,0.19216 0,0 -1.07417,-0.22016 -1.07417,-0.22016 l 0,0 c 1.02438,-0.0676 2.04876,-0.1353 3.07314,-0.20295 4.35379,0.0523 8.37874,1.30488 11.60653,4.35927 4.02645,4.34616 6.93739,9.48808 8.38852,15.2656 0.92153,5.26662 0.52919,10.15579 -2.52495,14.72598 -3.75796,5.0439 -8.47887,9.10607 -13.94691,12.24154 -6.04924,3.47335 -12.33331,6.68381 -19.20736,8.15723 -7.10348,1.02921 -14.60824,1.20932 -20.93317,-2.54883 -3.95948,-2.88744 -7.05992,-6.541 -9.2251,-10.96598 -1.94173,-4.39149 -3.17756,-8.88637 -2.74697,-13.74387 0.18625,-3.92946 0.45605,-7.88351 1.62174,-11.66708 0.97465,-2.94298 2.10622,-5.89578 4.22228,-8.22709 1.60196,-1.66233 3.37643,-3.15684 5.55822,-3.99777 3.99519,-1.27994 8.10902,-0.41336 12.21137,0.24395 3.04369,0.56478 6.02216,1.41147 8.91363,2.52215 0,0 -5.41518,0.14694 -5.41518,0.14694 z"
       inkscape:connector-curvature="0" />
    <path
       style="color:#000000;fill:#000000;fill-opacity:1;fill-rule:nonzero;stroke:#000000;stroke-width:4;stroke-linecap:square;stroke-linejoin:miter;stroke-miterlimit:4;stroke-opacity:1;stroke-dasharray:none;stroke-dashoffset:0;marker:none;visibility:visible;display:inline;overflow:visible;enable-background:accumulate"
       id="path4977"
       d="m 377.6549,650.21937 c 3.44928,-2.87849 6.78491,-5.89061 10.25545,-8.7432 3.46073,-2.85833 7.10993,-5.48051 10.75273,-8.09966 5.56067,-3.95191 11.02763,-8.03137 16.51009,-12.09036 5.90409,-4.38153 11.95453,-8.55521 18.00666,-12.7274 4.65698,-3.1958 9.2406,-6.49715 13.82803,-9.79175 4.4116,-3.26613 8.81534,-6.53858 13.32741,-9.66621 4.34002,-2.9505 8.78553,-5.74068 13.16138,-8.63709 3.35805,-2.23244 6.63718,-4.58047 9.96067,-6.86387 2.91453,-1.94702 5.73725,-4.02452 8.53056,-6.14022 3.51599,-2.64792 7.06311,-5.25321 10.64424,-7.81225 3.13342,-2.22327 6.27296,-4.43598 9.33254,-6.7602 3.11086,-2.43094 6.23663,-4.84194 9.43106,-7.16226 3.36446,-2.4171 6.80671,-4.72372 10.25859,-7.01343 2.45037,-1.63785 4.94956,-3.20154 7.34427,-4.92088 2.1639,-1.63221 4.29299,-3.31041 6.43038,-4.97719 1.97936,-1.54272 3.8748,-3.18814 5.77538,-4.8256 1.33467,-1.20535 2.74788,-2.32186 4.09389,-3.51155 0.9165,-0.78851 1.78654,-1.6281 2.69089,-2.4302 0.96511,-0.88832 1.9695,-1.73217 2.91267,-2.64405 0.56028,-0.53042 1.07705,-1.10508 1.56724,-1.70027 0.37822,-0.51637 0.57048,-1.1298 0.73498,-1.74024 0.2516,-1.07052 0.29964,-2.1672 0.33411,-3.26127 0.0345,-1.04036 0.10035,-2.0653 -0.20074,-3.07066 -0.40162,-1.05936 -1.19279,-1.91065 -1.88159,-2.79215 -0.7679,-1.02319 -1.52446,-2.05547 -2.31285,-3.06304 -0.79454,-0.99624 -1.75027,-1.83442 -2.72031,-2.65214 -0.94611,-0.75929 -1.99015,-1.37064 -3.08183,-1.89256 -0.99612,-0.49526 -1.99497,-0.97581 -3.03443,-1.37321 -1.09582,-0.3978 -2.20329,-0.76174 -3.29707,-1.16517 -2.2755,-0.80517 -7.78581,-2.08248 2.36646,0.46572 -1.18761,-0.26979 -2.39999,-0.38933 -3.60895,-0.51514 -1.26932,-0.14682 -2.54715,-0.19475 -3.82387,-0.21621 -1.05928,-0.0113 -2.11839,-0.0356 -3.17689,-0.0781 -0.92391,-0.0429 -1.84865,-0.0619 -2.77342,-0.0733 -0.83451,0.0103 -1.66192,-0.0502 -2.4958,-0.0511 -1.1135,-0.001 -2.22699,-0.001 -3.34048,-0.001 -1.07931,-0.004 -2.15861,-8.4e-4 -3.23792,3.1e-4 -0.7661,-0.0182 -1.52645,0.061 -2.28083,0.18542 -0.70912,0.1437 -1.39794,0.3658 -2.07513,0.61742 -0.88835,0.25512 -1.7049,0.66229 -2.50651,1.12688 -0.57351,0.44652 -1.17973,0.66395 -1.8865,0.77358 -0.77379,-0.0726 -1.47397,0.13197 -2.19903,0.36492 0,0 -0.9557,-0.16431 -0.9557,-0.16431 l 0,0 c -0.64019,-0.47196 -1.3159,-0.91278 -1.88135,-1.4762 -0.0979,-0.67267 0.38985,-0.86043 0.92643,-1.19106 0.83959,-0.51707 1.72053,-0.96806 2.59291,-1.41776 0.68488,-0.28383 1.38257,-0.54297 2.10419,-0.71753 0.76317,-0.19548 1.54732,-0.29627 2.33573,-0.3031 1.07955,0.001 2.15909,0.005 3.23863,4e-5 1.10988,-4e-4 2.21976,-0.001 3.32964,-0.003 0.8471,-0.001 1.68856,-0.0639 2.53623,-0.0397 0.93866,0.009 1.87739,0.0222 2.81516,0.0669 1.06903,0.0537 2.13868,0.10113 3.20924,0.10836 1.29477,0.0275 2.5909,0.0527 3.88068,0.18052 1.23756,0.13837 2.4812,0.24382 3.7048,0.48216 3.06543,0.75288 6.19355,1.36037 9.16551,2.45444 1.07998,0.38523 2.16947,0.74622 3.23102,1.18097 0.99091,0.42592 1.95121,0.91637 2.90854,1.41256 1.04164,0.57447 2.04349,1.22018 2.93724,2.01025 0.93621,0.83291 1.81609,1.72907 2.55618,2.74424 0.75573,1.01254 1.48684,2.04333 2.24754,3.05219 0.71849,0.95625 1.46195,1.90161 1.76747,3.08413 0.23236,1.06293 0.18876,2.13838 0.12343,3.2201 -0.0767,1.06792 -0.19594,2.13644 -0.42619,3.18325 -0.19175,0.68565 -0.42712,1.35046 -0.84894,1.93312 -0.48587,0.61079 -1.06597,1.12642 -1.62254,1.67148 -0.95961,0.90796 -1.95254,1.77663 -2.94526,2.64773 -0.89036,0.83461 -1.81545,1.62937 -2.73964,2.42626 -1.39525,1.21843 -2.74901,2.48598 -4.19456,3.64858 -1.92137,1.64758 -3.86784,3.2674 -5.86416,4.82366 -2.16774,1.67088 -4.33966,3.33671 -6.54124,4.96287 -2.43601,1.71128 -4.96498,3.28146 -7.46455,4.89733 -3.45295,2.29339 -6.92706,4.55777 -10.28818,6.98564 -3.20242,2.32722 -6.32371,4.75939 -9.48751,7.13823 -3.16351,2.26122 -6.38336,4.4429 -9.55172,6.69755 -3.60001,2.53799 -7.15877,5.13312 -10.67151,7.79078 -2.82469,2.11151 -5.66298,4.20582 -8.61732,6.13462 -3.40231,2.26782 -6.79097,4.55589 -10.21807,6.78632 -4.42826,2.85906 -8.90398,5.64563 -13.27746,8.58865 -4.51127,3.10369 -8.91484,6.35906 -13.38628,9.51936 -4.61339,3.28933 -9.28848,6.48477 -14.00068,9.63095 -6.07527,4.11195 -12.14035,8.24511 -18.04846,12.59513 -5.43844,4.05801 -10.83679,8.17872 -16.44589,12.0002 -3.81223,2.59276 -7.68536,5.10265 -11.30084,7.97277 -3.5257,2.83692 -7.0936,5.62363 -10.49966,8.60616 0,0 -2.64839,-0.39608 -2.64839,-0.39608 z"
       inkscape:connector-curvature="0" />
    <path
       style="color:#000000;fill:#000000;fill-opacity:1;fill-rule:nonzero;stroke:#000000;stroke-width:1;stroke-linecap:square;stroke-linejoin:miter;stroke-miterlimit:4;stroke-opacity:1;stroke-dasharray:none;stroke-dashoffset:0;marker:none;visibility:visible;display:inline;overflow:visible;enable-background:accumulate"
       id="path4979"
       d="m 386.5522,620.25376 c 2.25879,-3.74738 5.19339,-6.99896 8.21783,-10.13388 2.13969,-2.24723 4.61947,-4.10632 7.21246,-5.79078 1.63335,-1.04223 3.30451,-2.02569 4.97054,-3.01502 1.43744,-0.9212 2.91083,-1.77834 4.4906,-2.42976 1.57196,-0.62894 3.24786,-0.81513 4.92237,-0.92173 2.04051,-0.0151 4.05838,-0.26334 6.06975,-0.58401 2.67337,-0.45481 5.13557,-1.59414 7.54513,-2.78788 2.42253,-1.24852 4.69145,-2.75671 6.78847,-4.4932 1.85536,-1.57992 3.54782,-3.34051 5.08487,-5.22896 1.58593,-2.06247 2.90314,-4.31839 4.10616,-6.62087 0.74391,-1.43511 1.16013,-2.95969 1.2863,-4.56207 0.0811,-1.14447 0.0414,-2.29262 -0.005,-3.43795 -0.0293,-1.03182 -0.42775,-1.79652 -1.2851,-2.35248 -4.13421,-0.9876 7.34462,0.89214 1.44411,0.56096 -1.47474,-0.0459 -2.94862,-0.0613 -4.41444,0.11893 -1.68878,0.26414 -3.25347,0.94277 -4.76179,1.71836 -1.22303,0.63911 -2.34276,1.43389 -3.33289,2.39263 -0.69071,0.68103 -1.0956,1.55597 -1.50481,2.41879 -0.44439,0.94535 -0.8342,1.91387 -1.12146,2.91831 -0.20463,0.73269 -0.28341,1.48722 -0.33451,2.24288 -0.0101,0.73949 0.63945,0.90428 1.24705,1.04371 -7.82835,-1.36888 -1.52347,-0.54085 0.75144,-1.18522 1.86473,-0.73098 3.5589,-1.82953 5.27032,-2.85568 0,0 1.24252,0.33646 1.24252,0.33646 l 0,0 c -0.65291,1.51966 -1.42122,2.79789 -2.88701,3.67173 -2.9616,1.5478 -5.74587,0.44395 -8.92856,-0.3881 -0.7972,-0.30483 -1.44922,-0.75075 -1.40767,-1.69357 0.0164,-0.79848 0.0939,-1.59562 0.30266,-2.36912 0.2986,-1.02771 0.67922,-2.02055 1.12918,-2.99184 0.41007,-0.92524 0.82583,-1.85597 1.54279,-2.59254 1.00047,-1.00728 2.1406,-1.84821 3.3895,-2.52689 1.52418,-0.81684 3.10656,-1.54426 4.81551,-1.87631 1.4844,-0.24567 2.97707,-0.24447 4.47875,-0.19223 2.63076,0.085 5.46151,0.44316 7.71218,1.851 0.77236,0.74029 1.09384,1.64019 1.0033,2.71633 -0.0333,1.15284 -0.0384,2.30904 -0.16753,3.45628 -0.27113,1.62369 -0.76697,3.19193 -1.54784,4.64768 -1.17285,2.3097 -2.5316,4.5217 -4.11783,6.573 -1.55541,1.91997 -3.24531,3.72255 -5.15797,5.29535 -2.17053,1.72293 -4.48313,3.25939 -6.94764,4.53363 -2.4395,1.24973 -4.96052,2.40334 -7.68359,2.8672 -2.17873,0.33313 -4.37424,0.4076 -6.57623,0.44353 -1.66614,0.0895 -3.34212,0.22208 -4.9199,0.81247 -1.59604,0.63674 -3.08478,1.47031 -4.55052,2.36444 -1.73282,0.9924 -3.49223,1.9378 -5.25494,2.87584 -2.71354,1.60255 -5.23554,3.50393 -7.55692,5.63691 -3.13325,2.98264 -6.06072,6.21447 -8.2228,9.98766 0,0 -2.33725,-0.45399 -2.33725,-0.45399 z"
       inkscape:connector-curvature="0" />
    <path
       style="color:#000000;fill:#000000;fill-opacity:1;fill-rule:nonzero;stroke:#000000;stroke-width:1;stroke-linecap:square;stroke-linejoin:miter;stroke-miterlimit:4;stroke-opacity:1;stroke-dasharray:none;stroke-dashoffset:0;marker:none;visibility:visible;display:inline;overflow:visible;enable-background:accumulate"
       id="path4981"
       d="m 474.96475,565.30422 c -1.10593,-3.70751 0.0141,-6.76109 2.35912,-9.6455 3.03184,-3.12612 6.79957,-5.39819 10.53677,-7.57607 2.60375,-1.47535 5.27412,-2.83298 8.02326,-4.01597 2.07191,-0.80521 4.11817,-1.66756 6.13074,-2.61107 3.6537,-1.77507 7.22626,-3.71686 10.74576,-5.74449 3.02983,-1.75229 5.83144,-3.84882 8.33568,-6.28986 1.16218,-1.12092 1.92538,-2.44016 2.12323,-4.03915 0.132,-1.09138 -0.004,-2.12582 -0.34554,-3.1615 -0.24365,-0.86592 -0.49528,-1.73349 -0.40569,-2.63714 1.04563,-2.3692 3.5298,-3.90875 5.52264,-5.42922 5.04643,-3.72431 10.2575,-7.22068 15.6542,-10.41518 3.07226,-1.93734 6.38688,-3.30011 9.78033,-4.53846 0,0 0.46634,0.14309 0.46634,0.14309 l 0,0 c -2.48358,1.82583 -5.04303,3.52756 -7.65608,5.16469 -5.12606,3.43602 -10.29238,6.8189 -15.24294,10.50762 -1.91595,1.46881 -4.28132,2.91007 -5.36941,5.14695 -0.0835,0.88489 0.12145,1.70049 0.45308,2.51993 0.29088,1.10261 0.45454,2.2009 0.20759,3.33515 -0.35819,1.66747 -1.1086,3.07223 -2.34375,4.27959 -2.53389,2.46894 -5.396,4.55839 -8.46087,6.32627 -3.54732,2.04282 -7.13166,4.02509 -10.85404,5.73464 -2.03964,0.92308 -4.08169,1.83737 -6.18805,2.60033 -2.76116,1.14618 -5.43605,2.49172 -8.03116,3.97573 -3.65494,2.17023 -7.2769,4.47473 -10.23892,7.56284 -2.25779,2.83369 -3.44486,5.77105 -2.14874,9.3719 0,0 -3.05355,-0.56512 -3.05355,-0.56512 z"
       inkscape:connector-curvature="0" />
    <path
       style="color:#000000;fill:#000000;fill-opacity:1;fill-rule:nonzero;stroke:#000000;stroke-width:1;stroke-linecap:square;stroke-linejoin:miter;stroke-miterlimit:4;stroke-opacity:1;stroke-dasharray:none;stroke-dashoffset:0;marker:none;visibility:visible;display:inline;overflow:visible;enable-background:accumulate"
       id="path4983"
       d="m 299.58818,605.96658 c -0.63735,-0.18942 -1.28649,-0.32696 -1.93698,-0.46041 -0.15707,-0.0322 0.57581,-0.0316 0.47234,0.0909 -0.10748,0.12725 -0.33046,-0.0422 -0.49569,-0.0633 -1.06924,-0.11374 -2.14604,-0.11816 -3.22009,-0.12519 -1.18932,-0.0347 -2.35954,0.14309 -3.50796,0.43592 -1.41121,0.38366 -2.65109,1.14917 -3.84016,1.97527 -1.68917,1.22996 -3.07237,2.79442 -4.34052,4.44019 -1.43273,1.84413 -2.36034,3.92581 -2.89906,6.18281 -0.50762,2.28103 -0.0397,4.46447 0.80642,6.58977 0.98774,2.16745 2.34467,3.47094 4.33693,4.69995 1.36627,0.73505 2.85982,1.20706 4.39615,1.42168 1.10731,0.15468 0.83718,0.20775 1.3484,0.0768 2.45619,-0.13884 4.68428,-1.07587 6.75482,-2.34267 1.50642,-0.97386 2.68726,-2.24478 3.40596,-3.88564 0.49871,-1.26369 0.43469,-2.47288 -0.12117,-3.68934 -0.61763,-1.14385 -1.59679,-1.9114 -2.73337,-2.4899 -1.44658,-0.63149 -2.62204,-0.59343 -2.71405,-0.59749 -1.09127,-0.0435 -2.16914,0.10906 -3.23549,0.32111 -0.52396,0.0985 -0.93648,0.23379 -1.13056,0.75341 0,0 -0.37078,-0.0235 -0.37078,-0.0235 l 0,0 c -0.28931,-0.48302 -0.3492,-0.82428 0.27061,-0.9966 1.05298,-0.26277 2.13616,-0.37761 3.22173,-0.35824 1.76128,0.0671 3.5897,0.13944 5.23176,0.8406 1.12628,0.60153 2.12248,1.37854 2.72186,2.53568 0.53357,1.25366 0.55609,2.47469 0.038,3.75347 -0.74549,1.65916 -1.92562,2.95986 -3.4581,3.95176 -2.07797,1.27735 -4.31242,2.23623 -6.7786,2.40073 -0.78043,-0.003 -1.56137,0.0203 -2.34128,-0.008 -1.96594,-0.0718 -3.89908,-0.6725 -5.62929,-1.58309 -1.89764,-1.19463 -3.44746,-2.72476 -4.33397,-4.82489 -0.86245,-2.15928 -1.31785,-4.37693 -0.81298,-6.69486 0.54847,-2.2835 1.46068,-4.40025 2.91664,-6.26615 1.27424,-1.65641 2.64534,-3.24808 4.34038,-4.49276 1.18775,-0.83823 2.43057,-1.61747 3.84276,-2.01732 1.1613,-0.30296 2.34571,-0.48653 3.55021,-0.45373 1.09659,0.009 2.19582,0.0142 3.28726,0.13361 1.26046,0.16337 2.51732,0.38577 3.72468,0.79089 0,0 -0.76683,-0.0213 -0.76683,-0.0213 z"
       inkscape:connector-curvature="0" />
    <path
       style="color:#000000;fill:#000000;fill-opacity:1;fill-rule:nonzero;stroke:#000000;stroke-width:1;stroke-linecap:square;stroke-linejoin:miter;stroke-miterlimit:4;stroke-opacity:1;stroke-dasharray:none;stroke-dashoffset:0;marker:none;visibility:visible;display:inline;overflow:visible;enable-background:accumulate"
       id="path4985"
       d="m 369.19716,619.69921 c -1.12987,-0.27729 -2.234,-0.6467 -3.34767,-0.9812 -1.18678,-0.35104 -2.38748,-0.65143 -3.58612,-0.95848 -1.57852,-0.3648 -1.03635,-0.28105 -3.14388,-0.44559 -1.83349,-0.16446 -3.60157,0.21851 -5.34137,0.74959 -1.87722,0.59609 -3.53474,1.62809 -5.10587,2.79013 -1.72014,1.30688 -2.99291,3.0005 -4.05827,4.85634 -1.20064,2.20173 -1.78813,4.62301 -1.99565,7.10411 -0.10816,2.6647 0.80897,5.08333 2.07879,7.37135 1.34236,2.24272 3.20769,3.9998 5.43256,5.33502 1.4197,0.75502 2.97444,1.0762 4.54919,1.30128 0.37714,0.0539 0.76134,-0.0308 1.14218,-0.0407 2.22931,-0.13375 4.21401,-1.02294 6.07776,-2.18913 1.70115,-1.15578 3.11717,-2.64886 4.4074,-4.23619 1.02335,-1.2226 1.6925,-2.60962 2.06014,-4.15029 0.34428,-1.53045 0.17202,-3.00294 -0.39852,-4.44523 -0.61814,-1.33689 -1.72253,-2.1502 -3.01502,-2.76509 -1.1301,-0.37924 -2.34944,-0.82754 -3.56145,-0.83644 -0.21795,-0.002 0.43249,0.0546 0.64873,0.0818 -1.12109,-0.0986 -2.24105,-0.0941 -3.34274,0.14381 -0.87712,0.21023 -1.59489,0.72066 -2.26586,1.29898 -0.64624,0.59281 -1.24545,1.23484 -1.83606,1.8824 -0.55171,0.60418 -1.06538,1.24201 -1.47766,1.9496 -0.27969,0.56447 -0.52081,1.18167 -0.47874,1.82052 0.18096,0.60399 0.71827,0.98805 1.21268,1.33342 0.41735,0.28124 0.87071,0.4992 1.34638,0.66048 0.2856,0.0953 0.57952,0.15912 0.87554,0.21126 1.19281,0.124 -1.51371,-0.0718 -0.84273,-0.0477 0.45089,0.0383 0.86741,-0.1551 1.29122,-0.27995 0.18551,-0.0481 0.37103,-0.0962 0.55654,-0.14436 0,0 0.44475,0.075 0.44475,0.075 l 0,0 c -0.0324,0.0746 -0.0647,0.14916 -0.0971,0.22374 -0.21283,0.27125 -0.48236,0.45878 -0.83955,0.43015 -0.63414,-0.01 -1.27221,-0.0357 -1.89668,-0.14974 -0.29588,-0.058 -0.58836,-0.13217 -0.87266,-0.23359 -0.4721,-0.17754 -0.92157,-0.4085 -1.33475,-0.69934 -0.51842,-0.38023 -1.06075,-0.80094 -1.21883,-1.45629 -0.0303,-0.66464 0.19736,-1.30934 0.48855,-1.89961 0.4155,-0.7257 0.91686,-1.38864 1.48785,-2.00066 0.59033,-0.66162 1.18939,-1.31743 1.8399,-1.92098 0.67527,-0.5918 1.39105,-1.13227 2.27522,-1.36632 1.10861,-0.26162 2.23569,-0.27912 3.369,-0.17928 1.88544,0.18365 3.81237,0.26721 5.57398,1.03565 1.29563,0.64811 2.40134,1.49986 2.99909,2.86503 0.55796,1.46981 0.70805,2.97483 0.35375,4.52218 -0.37764,1.56285 -1.06323,2.96424 -2.10425,4.20298 -1.30951,1.59261 -2.73489,3.10025 -4.44574,4.27066 -1.86177,1.19091 -3.85477,2.09186 -6.09201,2.2525 -2.77851,0.0982 -5.59807,-0.16708 -8.08635,-1.49123 -2.22019,-1.36279 -4.07704,-3.13857 -5.414,-5.39647 -1.28019,-2.32444 -2.1913,-4.7762 -2.06946,-7.47746 0.21197,-2.52553 0.82059,-4.97659 2.01338,-7.23055 1.06607,-1.87516 2.33649,-3.60106 4.06921,-4.92168 1.56896,-1.20179 3.2564,-2.24433 5.13932,-2.88297 1.73554,-0.54593 3.5291,-0.88513 5.35748,-0.75241 1.81544,0.13688 3.59782,0.45428 5.35208,0.95165 1.15924,0.30214 2.32123,0.59617 3.46485,0.95434 1.03408,0.32964 2.06443,0.67371 3.11592,0.94494 0,0 -0.75446,-0.04 -0.75446,-0.04 z"
       inkscape:connector-curvature="0" />
  </g>
</svg>
