<?xml version="1.0" encoding="UTF-8" standalone="no"?>
<!-- Created with Inkscape (http://www.inkscape.org/) -->

<svg
   xmlns:dc="http://purl.org/dc/elements/1.1/"
   xmlns:cc="http://creativecommons.org/ns#"
   xmlns:rdf="http://www.w3.org/1999/02/22-rdf-syntax-ns#"
   xmlns:svg="http://www.w3.org/2000/svg"
   xmlns="http://www.w3.org/2000/svg"
   xmlns:xlink="http://www.w3.org/1999/xlink"
   xmlns:sodipodi="http://sodipodi.sourceforge.net/DTD/sodipodi-0.dtd"
   xmlns:inkscape="http://www.inkscape.org/namespaces/inkscape"
   width="210mm"
   height="297mm"
   id="svg4153"
   version="1.1"
   inkscape:version="0.48.4 r9939"
   sodipodi:docname="outils.svg">
  <defs
     id="defs4155">
    <linearGradient
       id="linearGradient5640">
      <stop
         style="stop-color:#f19051;stop-opacity:1;"
         offset="0"
         id="stop5642" />
      <stop
         style="stop-color:#e4cc12;stop-opacity:1;"
         offset="1"
         id="stop5644" />
    </linearGradient>
    <linearGradient
       id="linearGradient5622">
      <stop
         style="stop-color:#0da157;stop-opacity:1;"
         offset="0"
         id="stop5624" />
      <stop
         style="stop-color:#867f1d;stop-opacity:1;"
         offset="1"
         id="stop5626" />
    </linearGradient>
    <inkscape:perspective
       sodipodi:type="inkscape:persp3d"
       inkscape:vp_x="-76.114981 : 739.47902 : 1"
       inkscape:vp_y="0 : 1000 : 0"
       inkscape:vp_z="651.1968 : 816.14282 : 1"
       inkscape:persp3d-origin="292.34816 : 384.86194 : 1"
       id="perspective4989" />
    <inkscape:perspective
       sodipodi:type="inkscape:persp3d"
       inkscape:vp_x="241.4131 : 654.81258 : 1"
       inkscape:vp_y="0 : 535.49132 : 0"
       inkscape:vp_z="617.549 : 695.86538 : 1"
       inkscape:persp3d-origin="431.96716 : 464.91822 : 1"
       id="perspective4989-0" />
    <radialGradient
       inkscape:collect="always"
       xlink:href="#linearGradient5622"
       id="radialGradient5628"
       cx="544.26091"
       cy="372.89135"
       fx="544.26091"
       fy="372.89135"
       r="167.40616"
       gradientTransform="matrix(1,0,0,0.53303406,0,174.12756)"
       gradientUnits="userSpaceOnUse" />
    <filter
       inkscape:collect="always"
       id="filter5634">
      <feGaussianBlur
         inkscape:collect="always"
         stdDeviation="6.3909836"
         id="feGaussianBlur5636" />
    </filter>
    <linearGradient
       inkscape:collect="always"
       xlink:href="#linearGradient5640"
       id="linearGradient5646"
       x1="590.67854"
       y1="293.33404"
       x2="643.33455"
       y2="293.33404"
       gradientUnits="userSpaceOnUse" />
    <filter
       inkscape:collect="always"
       id="filter5662">
      <feGaussianBlur
         inkscape:collect="always"
         stdDeviation="0.12785942"
         id="feGaussianBlur5664" />
    </filter>
    <filter
       color-interpolation-filters="sRGB"
       inkscape:collect="always"
       id="filter5662-5">
      <feGaussianBlur
         inkscape:collect="always"
         stdDeviation="0.12785942"
         id="feGaussianBlur5664-2" />
    </filter>
    <filter
       color-interpolation-filters="sRGB"
       inkscape:collect="always"
       id="filter5662-7">
      <feGaussianBlur
         inkscape:collect="always"
         stdDeviation="0.12785942"
         id="feGaussianBlur5664-1" />
    </filter>
    <filter
       color-interpolation-filters="sRGB"
       inkscape:collect="always"
       id="filter5662-2">
      <feGaussianBlur
         inkscape:collect="always"
         stdDeviation="0.12785942"
         id="feGaussianBlur5664-6" />
    </filter>
    <filter
       inkscape:collect="always"
       id="filter5741">
      <feGaussianBlur
         inkscape:collect="always"
         stdDeviation="0.2597425"
         id="feGaussianBlur5743" />
    </filter>
  </defs>
  <sodipodi:namedview
     id="base"
     pagecolor="#ffffff"
     bordercolor="#666666"
     borderopacity="1.0"
     inkscape:pageopacity="0.0"
     inkscape:pageshadow="2"
     inkscape:zoom="2"
     inkscape:cx="461.29557"
     inkscape:cy="793.09088"
     inkscape:document-units="px"
     inkscape:current-layer="layer1"
     showgrid="false"
     inkscape:window-width="1366"
     inkscape:window-height="705"
     inkscape:window-x="-8"
     inkscape:window-y="-8"
     inkscape:window-maximized="1" />
  <metadata
     id="metadata4158">
    <rdf:RDF>
      <cc:Work
         rdf:about="">
        <dc:format>image/svg+xml</dc:format>
        <dc:type
           rdf:resource="http://purl.org/dc/dcmitype/StillImage" />
        <dc:title></dc:title>
      </cc:Work>
    </rdf:RDF>
  </metadata>
  <g
     inkscape:label="Calque 1"
     inkscape:groupmode="layer"
     id="layer1">
    <path
       style="fill:#000000"
       d="m 370.91216,391.32799 c -5.02384,-1.42866 -9.43594,-3.93762 -15.84963,-9.01295 l -4.24304,-3.35764 -10.00875,5.08291 -10.00875,5.0829 -10.6702,0 c -9.88649,0 -11.15666,-0.2305 -17.29357,-3.13821 -19.65959,-9.31486 -25.08845,-25.735 -13.82477,-41.81443 2.17148,-3.09989 3.94378,-5.95369 3.93844,-6.34177 -0.005,-0.38807 -1.62352,-2.73059 -3.59596,-5.20559 -5.55776,-6.97382 -11.07937,-16.799 -14.64392,-26.05748 l -3.25041,-8.44252 0,-27.5 0,-27.5 3.86072,-11.43755 c 9.99304,-29.60486 20.12214,-44.145 35.95349,-51.61064 14.14732,-6.6715 29.89334,-9.34734 59.68579,-10.14288 59.37019,-1.58533 97.54746,7.47036 111.46428,26.43945 7.67812,10.46554 9.52309,24.09416 9.51029,70.25162 -0.0101,36.33152 -0.61753,42.16918 -5.49785,52.83479 -1.42574,3.11587 -3.91626,7.72961 -5.53449,10.25276 -1.61823,2.52315 -2.94223,5.14207 -2.94223,5.81982 0,0.67775 1.36822,3.22092 3.04048,5.65147 1.67227,2.43056 3.72969,6.33663 4.57205,8.68018 2.18971,6.09205 2.09684,16.45601 -0.19103,21.31868 -2.69609,5.7303 -10.11512,12.51525 -18.02131,16.48108 -6.75674,3.38926 -7.19433,3.46792 -21.04868,3.78333 -16.04601,0.36531 -17.97036,-0.19515 -26.50496,-7.7195 -2.5594,-2.25643 -4.97767,-4.10261 -5.37393,-4.10261 -0.39626,0 -2.46615,1.98319 -4.59975,4.40709 -2.53564,2.88064 -5.52339,4.98693 -8.62607,6.08118 -6.30983,2.22533 -24.21985,2.94449 -30.29624,1.21651 z m 24.99078,-6.28 c 6.98653,-2.07478 14.12743,-9.04879 16.36563,-15.98314 2.25326,-6.98101 3.01645,-12.01688 2.2712,-14.98622 -0.59645,-2.37644 -0.99986,-2.53638 -5.69159,-2.25657 l -5.04965,0.30115 -1.88182,5.35757 c -4.49346,12.79288 -13.37253,18.23417 -21.5839,13.2271 -2.35406,-1.43544 -3.80087,-3.66667 -5.843,-9.01085 -2.8059,-7.34295 -4.52807,-9.07382 -9.02821,-9.07382 -6.30752,0 -9.5,4.98026 -9.5,14.82 0,7.31109 2.58035,11.57358 9.00884,14.88169 8.34939,4.29662 21.68163,5.4703 30.9325,2.72309 z m 60.99561,0.0214 c 8.64906,-1.96719 16.63306,-6.73026 20.47803,-12.21672 5.6781,-8.10222 4.314,-23.91391 -2.56227,-29.69991 -3.64472,-3.06683 -10.55011,-3.40179 -18.92121,-0.91782 -12.22025,3.62614 -16.80538,11.5298 -12.25352,21.12213 1.86839,3.93732 8.77665,7.75678 11.97738,6.62209 3.10966,-1.10241 6.23082,-4.481 7.39317,-8.00297 0.74503,-2.25746 1.73468,-3.35295 3.02902,-3.35295 4.98826,0 0.20299,11.25221 -6.19154,14.55895 -6.31123,3.26366 -18.21845,0.64776 -22.64045,-4.9739 -2.25609,-2.86819 -4.24556,-10.48191 -4.24556,-16.24784 l 0,-3.56433 -4.75,0.71224 c -8.51829,1.27728 -8.57291,1.36204 -8.0378,12.47449 0.5196,10.79069 3.04665,17.85341 7.41118,20.71316 6.84285,4.48361 17.40191,5.4826 29.31357,2.77335 z m -124.05886,-3.00262 c 9.62225,-2.8575 15.19092,-10.118 18.17726,-23.69972 0.69612,-3.16589 1.08094,-5.93254 0.85516,-6.14812 -0.22578,-0.21557 -2.66051,-0.5503 -5.41051,-0.74384 l -5,-0.35188 -5.49369,8.20282 c -6.25172,9.33468 -10.39068,12.29718 -17.18058,12.29718 -5.22028,0 -13.17477,-3.6844 -13.66429,-6.32909 -0.5882,-3.17787 0.78211,-6.67209 2.60761,-6.64927 0.96177,0.012 2.3975,1.45622 3.23095,3.25 1.98556,4.2734 5.9646,4.85467 9.44021,1.37906 3.2983,-3.2983 4.23733,-7.33622 2.46075,-10.58141 -1.71279,-3.12865 -10.08379,-7.51919 -17.5007,-9.17902 -5.00751,-1.12064 -5.70282,-1.05488 -8.14776,0.77053 -6.54293,4.88501 -9.16142,16.70773 -5.34408,24.12904 6.21793,12.0883 25.07697,18.37335 40.96967,13.65372 z m 58.90512,-16.00426 c 2.74852,-1.92515 4.7279,-5.71706 5.65575,-10.83479 l 0.70625,-3.89548 -8.62521,0.5381 c -12.75362,0.79567 -15.88172,4.85448 -9.41641,12.21807 3.48717,3.97167 7.78948,4.69885 11.67962,1.9741 z m -58.21727,-9.56681 c 2.25408,-4.35891 1.85047,-5.87249 -1.56594,-5.87249 -2.97762,0 -3,0.042 -3,5.62244 0,4.98957 0.17627,5.47616 1.56594,4.32284 0.86126,-0.71479 2.21126,-2.54754 3,-4.07279 z m 87.43406,-12.75062 c 19.64769,-3.08085 42.53446,-8.659 47.52368,-11.58288 13.36903,-7.83477 19.92295,-28.55497 19.9396,-63.03899 0.008,-17.31113 -1.89878,-41.10984 -4.0417,-50.43539 -2.91986,-12.70666 -10.76776,-24.87451 -20.30702,-31.48522 -8.07577,-5.59651 -16.12131,-7.6604 -34.11456,-8.75127 -9.075,-0.55018 -19.65,-1.73473 -23.5,-2.63231 -8.63434,-2.01301 -45.86187,-2.17949 -57.5,-0.25713 -20.72707,3.42364 -32.14798,7.38136 -44,15.24745 l -7.5,4.97769 -8.18112,17.66809 c -8.94515,19.31812 -9.91746,22.00494 -10.91724,30.16809 -0.37049,3.025 -1.28742,6.71515 -2.03763,8.20034 -1.93679,3.83429 -1.83818,25.64951 0.14841,32.83173 0.83184,3.00736 1.91585,9.29293 2.40892,13.96793 1.21364,11.50694 4.13284,18.80395 10.16151,25.40028 6.22477,6.81088 12.5291,10.87003 22.54288,14.51461 17.69126,6.43885 31.58134,8.01161 67.37427,7.62871 22.98588,-0.24589 31.11195,-0.71444 42,-2.42173 z m -58.5,-16.76415 c -31.04981,-4.50295 -52.51374,-16.22461 -60.11588,-32.82987 -4.92909,-10.76655 -5.3645,-24.42326 -1.18055,-37.02785 1.09614,-3.30223 2.33072,-10.72109 2.74579,-16.5 0.91656,-12.76112 3.20715,-18.28346 10.59921,-25.55349 9.36295,-9.20839 24.53808,-14.98392 47.17216,-17.95333 16.70554,-2.19164 52.06978,-3.06723 61.20288,-1.51533 14.78627,2.51248 33.672,14.91536 39.0215,25.62669 1.86117,3.72664 2.5268,6.899 2.8094,13.38959 0.2037,4.67823 0.85378,9.49124 1.44464,10.69559 0.71507,1.45753 0.89406,8.98098 0.53528,22.5 -0.42332,15.9511 -0.97519,21.95308 -2.57128,27.96439 -4.77703,17.9916 -10.94835,24.40367 -27.97143,29.06263 -6.95376,1.90314 -10.71391,2.1277 -39.19172,2.34058 -17.325,0.12951 -32.85,0.0397 -34.5,-0.1996 z m 51.85485,-5.73262 c 6.15768,-2.57285 13.64515,-10.85478 13.64515,-15.09298 0,-0.29267 -2.3625,-0.54312 -5.25,-0.55657 -7.02619,-0.0327 -13.40594,-1.59437 -17.01658,-4.16537 -7.97604,-5.67944 -8.93925,-20.89121 -1.97074,-31.12341 4.04605,-5.941 9.5877,-8.61524 20.76046,-10.01839 6.48624,-0.81459 9.9085,-1.69474 10.45785,-2.6896 1.23756,-2.24123 -0.58106,-11.52687 -3.17662,-16.21934 -5.73666,-10.37125 -20.06755,-15.68519 -42.44738,-15.73963 -6.51527,-0.0159 -8.26435,0.29638 -8.75,1.56198 -0.33385,0.86998 -0.60699,7.7395 -0.60699,15.2656 0,11.40536 -0.30872,14.26399 -1.8541,17.16821 -2.38863,4.48894 -7.42998,7.29886 -16.78178,9.35377 -12.90709,2.83611 -15.66584,5.41356 -11.50168,10.74577 3.15572,4.04091 3.40988,6.48082 1.19635,11.48487 -1.15997,2.62229 -2.05879,6.78163 -2.05879,9.52711 0,4.17294 -0.28151,4.87288 -1.95986,4.87288 -1.40855,0 -2.28547,-1.08678 -3.11737,-3.86342 -1.03828,-3.46547 -0.87554,-4.49173 1.57984,-9.96306 l 2.73735,-6.09963 -2.61998,-3.11367 c -2.96905,-3.52852 -3.24907,-5.84301 -1.18891,-9.82692 1.61721,-3.12735 5.29825,-4.91403 17.61693,-8.55079 8.86974,-2.61856 11.96278,-4.8233 13.88539,-9.89761 1.45116,-3.83004 1.35053,-20.25773 -0.1495,-24.40601 l -1.21612,-3.36311 -6.03388,0.29211 -6.03389,0.29211 0.36486,8.77359 0.36487,8.7736 -3.59324,3.38885 c -6.90473,6.51201 -21.04485,8.50687 -29.45856,4.15597 -2.59862,-1.3438 -3.96104,-1.46861 -6.95481,-0.63717 -2.04772,0.5687 -6.55858,1.03652 -10.02415,1.03958 l -6.30102,0.006 -1.56826,3.75 c -0.89828,2.14797 -1.79215,8.1269 -2.09235,13.99536 -0.44489,8.69702 -0.16934,11.56545 1.82332,18.98035 1.99612,7.4278 2.97857,9.36615 6.56503,12.95262 7.3143,7.31429 26.91135,15.44427 45.20862,18.75511 10.79115,1.95263 52.96958,2.09317 57.52054,0.19166 z m 17.24593,-0.55119 c 1.59457,-0.50934 5.09478,-1.22062 7.77825,-1.58062 3.96878,-0.53242 5.80641,-1.52199 9.84981,-5.30411 6.13307,-5.73677 9.22663,-11.70185 12.49868,-24.10022 2.12741,-8.06117 2.5404,-11.89921 2.59205,-24.08896 0.0986,-23.25956 -2.45107,-34.56674 -10.47138,-46.43853 -4.74252,-7.01997 -5.77683,-7.92707 -14.28228,-12.52583 -5.04322,-2.72679 -11.82823,-5.65032 -15.0778,-6.49672 -6.3027,-1.64165 -25.00139,-2.13547 -25.89847,-0.68397 -0.29061,0.47023 -10.55467,1.11753 -22.80901,1.43845 -17.74795,0.46479 -23.98463,1.00593 -30.65676,2.66004 -18.23494,4.52068 -32.7771,15.45597 -36.56383,27.49498 -2.33158,7.4127 -1.6421,13.22408 1.93389,16.30002 4.74694,4.08314 6.25864,3.21075 16.65657,-9.61243 5.5899,-6.8937 13.32278,-11.58817 23.25946,-14.12032 6.95921,-1.77341 11.12342,-2.01569 34.64467,-2.01569 24.24997,0 27.36041,0.19326 33.46707,2.07942 8.82933,2.7271 15.56478,9.12833 17.93784,17.04774 1.94243,6.48233 3.85722,34.82062 2.96444,43.87284 -1.33948,13.58143 -6.28658,28.1513 -10.84238,31.93228 -1.66014,1.37779 -2.19227,5.06772 -0.73082,5.06772 0.46792,0 2.15542,-0.41674 3.75,-0.92609 z m -3.35078,-21.46596 c 2.34441,-1.77965 2.209,-2.82811 -0.72068,-5.58041 -2.09031,-1.96374 -2.71455,-2.1187 -4.0546,-1.00656 -2.92149,2.42462 -3.59975,4.71113 -1.90131,6.40957 1.89962,1.89962 4.32303,1.96401 6.67659,0.1774 z m -16.14801,-3.94293 c -3.11756,-5.04431 -4.91014,-6.32855 -5.75617,-4.12383 -0.48607,1.26669 0.38192,2.73763 3.06811,5.19934 4.48036,4.10594 5.61083,3.65363 2.68806,-1.07551 z m 8.49852,-4.05154 c 2.22938,-3.50445 2.30311,-3.21682 -2.30804,-9.00446 -2.61199,-3.27841 -5.3848,-2.89655 -7.15342,0.98514 -1.24293,2.72793 -1.1104,3.13448 2.65878,8.15584 3.03899,4.04859 4.15453,4.0262 6.80268,-0.13652 z m 13.38418,-5.19681 c 0.0199,-4.0104 -0.89251,-4.81007 -3.15354,-2.76386 -2.27788,2.06145 -2.3271,4.1417 -0.15477,6.54208 2.05009,2.26533 3.2853,0.85467 3.30831,-3.77822 z m -5.52116,-4.37638 c 2.15846,-2.38506 1.52222,-5.41877 -1.95712,-9.33196 -2.05804,-2.31466 -2.82206,-2.60977 -4.47137,-1.72708 -2.07426,1.1101 -4.03504,4.05091 -4.03504,6.0518 0,1.50893 5.83705,6.96695 7.45077,6.96695 0.68159,0 2.03733,-0.88187 3.01276,-1.95971 z m -18.59191,-2.3856 c 1.41356,-1.70324 2.64365,-7.65469 1.58212,-7.65469 -1.89331,0 -4.45374,3.53847 -4.45374,6.15499 0,3.07209 1.09294,3.64288 2.87162,1.4997 z m 25.16427,-7.72175 c 1.65016,-3.08335 -1.15888,-6.93294 -5.05894,-6.93294 -3.66191,0 -3.90378,2.00852 -0.72695,6.03651 2.69901,3.42214 4.30131,3.67039 5.78589,0.89643 z m -14.65751,-3.68294 c -0.36286,-1.5125 -0.724,-2.84007 -0.80255,-2.95016 -0.55395,-0.77637 -5.12433,2.59422 -5.3903,3.97528 -0.26474,1.37472 0.39709,1.72488 3.2602,1.72488 3.41222,0 3.55929,-0.13791 2.93265,-2.75 z m -78.57838,-18.45 c 0.66,-0.66 1.2,-1.48777 1.2,-1.83949 0,-0.71903 -4.57837,-2.96051 -6.04705,-2.96051 -1.65525,0 -1.03066,3.85536 0.79705,4.9199 2.27183,1.32322 2.6171,1.313 4.05,-0.1199 z m 12.1531,-2.98004 c 1.89343,-2.03235 1.91944,-2.30332 0.38397,-4 -2.17961,-2.40844 -2.97669,-2.2996 -4.92397,0.67232 -3.1293,4.77591 0.62624,7.52861 4.54,3.32768 z m -20.70301,-5.96987 c -0.75186,-0.75186 -1.58817,-0.26375 -2.85144,1.66424 -1.72924,2.63916 -1.72412,2.77477 0.15691,4.15794 1.79214,1.31781 2.01548,1.18746 2.85143,-1.66424 0.59641,-2.03452 0.54268,-3.45836 -0.1569,-4.15794 z m 12.92117,1.49492 c 2.2542,-2.04002 2.3254,-3.99121 0.22238,-6.09423 -1.74318,-1.74318 -3.88851,-0.99868 -5.78477,2.00751 -0.76498,1.21275 -0.55249,2.14653 0.83816,3.68317 2.2479,2.48391 2.41014,2.49777 4.72423,0.40355 z m 13.82874,-2.29796 c 0,-2.41184 -2.50111,-6.04705 -4.16052,-6.04705 -2.30031,0 -2.39756,2.72585 -0.18449,5.17126 1.75931,1.94402 4.34501,2.4652 4.34501,0.87579 z m -22.8125,-3.73016 c -0.72187,-0.28888 -1.58438,-0.25335 -1.91667,0.0789 -0.33229,0.33229 0.25834,0.56864 1.3125,0.52522 1.16495,-0.048 1.4019,-0.28494 0.60417,-0.60417 z m 13.87824,-2.35207 c 2.48776,-1.33141 2.57953,-4.96482 0.12539,-4.96482 -0.99488,0 -2.66539,0.6263 -3.71225,1.39179 -1.61719,1.18252 -1.7027,1.6336 -0.56869,3 1.57636,1.89939 1.65655,1.91045 4.15555,0.57303 z"
       id="path5756"
       inkscape:connector-curvature="0" />
    <path
       style="fill:url(#radialGradient5628);stroke:#ffb401;stroke-width:5;stroke-linecap:butt;stroke-linejoin:miter;stroke-opacity:1;fill-opacity:1;stroke-miterlimit:4;stroke-dasharray:none;filter:url(#filter5634)"
       d="m 377.35475,353.04172 c 2.47221,-0.37066 271.74704,-68.88356 271.74704,-68.88356 l 62.06528,102.32067 -144.99247,75.1457 -181.85865,-38.97745 z"
       id="path5620"
       inkscape:connector-curvature="0" />
    <path
       style="fill:url(#linearGradient5646);stroke:#000000;stroke-width:1px;stroke-linecap:butt;stroke-linejoin:miter;stroke-opacity:1;fill-opacity:1"
       d="m 594.82178,280.05869 8.86957,-8.25198 17.89093,-2.63361 17.26204,4.89656 3.99023,6.96444 -4.0336,8.68116 -3.66493,15.25544 -17.43553,12.52428 -19.4957,-12.66084 -7.02625,-14.53363 z"
       id="path5638"
       inkscape:connector-curvature="0" />
    <path
       style="fill:#72ddf4;fill-opacity:1;stroke:#efffff;stroke-width:1px;stroke-linecap:butt;stroke-linejoin:miter;stroke-opacity:1;filter:url(#filter5662)"
       d="m 594.06277,282.14607 c 10.5172,-5.39917 25.79869,-4.96677 43.35028,-1.75574 0,0 -1.79994,4.5064 -4.27214,4.35034 -2.47221,-0.15607 -32.20369,1.07295 -32.20369,1.07295 z"
       id="path5648"
       inkscape:connector-curvature="0"
       sodipodi:nodetypes="ccscc"
       transform="matrix(1.0478334,0,0,0.99734989,-28.390201,0.74711073)" />
    <path
       style="fill:#e8e8ea;fill-opacity:1;stroke:#000000;stroke-width:1px;stroke-linecap:butt;stroke-linejoin:miter;stroke-opacity:1"
       d="m 549.45471,344.41908 -0.41204,-7.49116 c 6.60808,-6.79631 20.29218,-5.6237 35.21804,-1.09246 l 8.43585,5.2087 27.82311,-2.41902 9.41172,8.09591 -4.53237,5.54034 c 0,0 9.19485,3.3164 6.50579,2.71164 -2.68906,-0.60475 10.30084,2.98476 10.30084,2.98476 l 16.56809,16.91364 -4.61911,9.22739 -9.21654,12.58281 -14.07421,4.07722 -5.35643,7.8228 -23.26906,9.14936 -17.24036,-3.0823 -11.05985,4.5064 -27.90986,3.53099 -14.31275,-0.97541 -2.49388,-5.50132 -8.63102,7.25706 -32.65909,-2.14591 -17.26205,-7.25706 5.81185,-11.21723 -15.96088,4.09673 -19.56076,-7.88133 7.24312,-19.6838 13.68385,-2.57509 13.70554,19.62528 39.18657,10.39789 42.3961,-0.50721 45.82248,-5.73542 25.78463,-17.59643 -14.03083,-17.85003 -6.9612,-6.49624 -31.68322,-14.47511 z"
       id="path5618"
       inkscape:connector-curvature="0"
       sodipodi:nodetypes="cccccccsccccccccccccccccccccccccccccc" />
    <path
       style="fill:#e8e8ea;stroke:#000000;stroke-width:1px;stroke-linecap:butt;stroke-linejoin:miter;stroke-opacity:1;fill-opacity:1"
       d="m 464.25048,373.6229 c -9.64632,1.6726 -10.96893,-6.99879 -15.59222,-11.56838 l 0,0 6.93952,-13.96789 26.65207,-7.17903 11.05985,8.50559 -3.92516,-9.7151 32.61571,-6.90591 20.99203,1.50213 3.51313,8.60313 -30.05677,5.55985 c -15.60843,-4.14656 -26.57362,5.1581 -39.05645,10.06624 z"
       id="path5616"
       inkscape:connector-curvature="0"
       sodipodi:nodetypes="ccccccccccccc" />
    <path
       style="fill:#62606d;stroke:#000000;stroke-width:1px;stroke-linecap:butt;stroke-linejoin:miter;stroke-opacity:1;fill-opacity:1"
       d="m 492.18203,380.84095 c 31.61367,-6.48142 63.22466,-12.97691 97.99895,-2.90673 15.69987,-1.69832 17.38007,9.45087 21.25226,18.59134 7.01799,-3.43946 14.98467,-5.45975 17.08856,-16.25035 -6.29802,-12.70206 -18.51157,-20.83651 -31.66154,-28.24792 -23.16521,-9.18389 -52.40051,-8.9393 -84.20666,-4.70148 -17.36235,-0.55068 -32.88817,5.03502 -45.8008,19.35216 -3.58497,8.97177 -2.61818,16.77595 0.47709,24.03414 l 26.86894,-9.30542 z"
       id="path5614"
       inkscape:connector-curvature="0"
       sodipodi:nodetypes="cccccccccc" />
    <path
       style="fill:#417fed;stroke:#000000;stroke-width:1px;stroke-linecap:butt;stroke-linejoin:miter;stroke-opacity:1;fill-opacity:1"
       d="m 472.94656,393.55483 c 12.17731,-27.90088 130.86728,-24.83095 131.24357,-9.36395 l 9.47677,12.50477 -70.47944,10.47592 c -30.08616,1.82577 -53.57105,-2.64518 -70.2409,-13.61674 z"
       id="path5612"
       inkscape:connector-curvature="0"
       sodipodi:nodetypes="ccccc" />
    <path
       style="color:#000000;fill:#3c3400;fill-opacity:1;fill-rule:nonzero;stroke:#000000;stroke-width:2;stroke-miterlimit:4;stroke-opacity:1;stroke-dasharray:none;marker:none;visibility:visible;display:inline;overflow:visible;enable-background:accumulate"
       d="m 525.6008,351.47369 c -4.59983,-7.61056 -14.13357,-1.85423 -21.01745,-2.44038 -15.27529,1.52926 -30.71762,9.44583 -38.68714,22.91538 -5.34955,9.18219 0.50539,20.99221 9.48244,25.2963 7.93977,3.45168 16.72612,4.50699 25.18166,6.14267 26.30992,3.90298 53.19555,3.36577 79.52006,-0.12366 14.14568,-2.10171 28.22889,-5.76552 40.91922,-12.5026 7.64166,-5.30669 4.8091,-16.44156 -1.91494,-21.13997 -12.2395,-14.27773 -30.54163,-23.18765 -49.37872,-23.64084 -14.16427,-1.36886 -28.58245,-0.70971 -42.45425,2.56217 11.63736,-5.95351 25.13618,-4.00102 37.71696,-4.21186 20.39966,1.19143 41.26675,8.77618 54.91712,24.52072 5.55735,4.64417 11.88208,13.73478 5.49271,20.26349 -6.67016,7.17486 -16.9667,8.4568 -25.88901,11.19353 -37.68321,9.1297 -77.38383,8.46859 -115.21235,0.55064 -9.75666,-2.36276 -20.70378,-8.39015 -22.29899,-19.27239 -1.18896,-11.39793 8.10432,-20.50591 17.2949,-25.62505 14.02208,-8.31965 31.35538,-11.50368 47.24014,-7.31027 1.33422,0.85121 1.32876,4.93734 -0.91236,2.82212 z"
       id="path5377"
       inkscape:connector-curvature="0" />
    <path
       style="color:#000000;fill:#3c3400;fill-opacity:1;fill-rule:nonzero;stroke:#000000;stroke-width:1;stroke-miterlimit:4;stroke-opacity:1;stroke-dasharray:none;marker:none;visibility:visible;display:inline;overflow:visible;enable-background:accumulate"
       id="path5379"
       d="m 472.01936,393.67065 c -0.0745,-0.98971 -0.18181,-1.977 -0.24735,-2.96735 -0.049,-0.60695 0.0831,-1.16769 0.35792,-1.70299 0.26918,-0.46106 0.63991,-0.84317 1.02704,-1.20501 0.56853,-0.47749 1.17953,-0.89886 1.79726,-1.30913 0.80515,-0.48997 1.58877,-1.01344 2.39805,-1.49669 0.99279,-0.57047 2.02081,-1.07179 3.08119,-1.50224 1.66986,-0.62645 3.35079,-1.22298 5.0236,-1.84176 1.84244,-0.69733 3.67321,-1.42438 5.52506,-2.09659 1.52854,-0.56175 3.11238,-0.94379 4.67892,-1.37949 1.87927,-0.52855 3.77351,-0.97524 5.69529,-1.31719 2.01166,-0.33743 4.05008,-0.46618 6.08178,-0.6239 2.36743,-0.18101 4.71031,-0.55464 7.04782,-0.95891 2.56852,-0.47605 5.14933,-0.87168 7.74243,-1.18509 2.25478,-0.24465 4.51757,-0.41957 6.78199,-0.54489 2.13655,-0.104 4.26969,-0.26095 6.40015,-0.45102 1.9555,-0.1947 3.91747,-0.29755 5.88116,-0.35739 1.7206,-0.0411 3.44179,-0.0457 5.1628,-0.051 1.84395,0.004 3.68743,0.0456 5.53053,0.0987 1.89103,0.0583 3.77894,0.18546 5.66697,0.30262 2.00863,0.10271 4.01412,0.228 6.0227,0.33158 1.98463,0.10225 3.96812,0.22462 5.95182,0.34337 1.67023,0.0917 3.33718,0.2264 5.00212,0.38632 1.42405,0.1417 2.83242,0.40174 4.24109,0.65543 1.59998,0.28916 3.20093,0.57421 4.80688,0.82933 1.51607,0.22738 3.03236,0.45278 4.54338,0.71197 1.28658,0.2141 2.56552,0.47045 3.83528,0.76802 1.06104,0.23344 2.07995,0.618 3.13278,0.87887 1.06056,0.34312 2.10789,0.72403 3.14331,1.13641 1.77353,0.67143 3.50884,1.38551 5.09974,2.41115 0.70975,0.47679 1.39923,0.98302 2.07147,1.51115 0.62078,0.44128 1.15181,0.9926 1.65182,1.5634 0.47536,0.56564 0.86993,1.19203 1.26625,1.81383 0.42808,0.57158 0.71265,1.24069 1.00586,1.88879 0.33821,0.78299 0.63568,1.58399 0.91147,2.39093 0.19868,0.55998 0.40803,1.113 0.6291,1.66467 0.14932,0.36478 0.33196,0.7143 0.4836,1.07813 0.0721,0.18954 0.17859,0.37225 0.11321,0.57054 -0.5122,0.41708 -1.54796,0.20779 -2.15096,0.19385 0,0 -0.96624,-0.37694 -0.96624,-0.37694 l 0,0 c 0.0397,-0.0404 0.63842,-0.64917 0.58444,-0.38185 -0.13462,-0.14915 -0.17852,-0.34398 -0.25378,-0.52975 -0.15832,-0.36269 -0.33401,-0.71772 -0.4769,-1.08707 -0.2165,-0.59106 -0.36931,-1.19596 -0.57424,-1.79083 -0.29002,-0.79521 -0.55854,-1.59973 -0.91813,-2.36752 -0.30659,-0.66 -0.64078,-1.30283 -0.99387,-1.93869 -0.38921,-0.61379 -0.78843,-1.22483 -1.27152,-1.77023 -0.50871,-0.56054 -1.06198,-1.07096 -1.64444,-1.55431 -0.671,-0.51778 -1.35218,-1.02367 -2.06488,-1.48312 -0.40725,-0.25408 -0.81721,-0.49865 -1.2456,-0.71613 -0.15329,-0.0778 -0.62475,-0.28617 -0.46417,-0.22477 1.11903,0.42794 2.82252,1.17323 1.44135,0.5727 -1.03109,-0.42515 -2.07865,-0.80892 -3.13898,-1.15502 -0.99756,-0.4151 -2.04422,-0.69766 -3.08744,-0.97415 -1.27338,-0.30862 -2.55707,-0.57115 -3.84817,-0.79481 -1.5148,-0.26045 -3.03337,-0.49742 -4.55388,-0.72208 -1.60267,-0.25074 -3.19974,-0.53094 -4.78903,-0.85571 -1.42918,-0.26293 -2.85794,-0.45487 -4.30596,-0.5786 -1.66909,-0.17419 -3.34178,-0.31265 -5.0174,-0.40709 -1.99045,-0.1255 -3.98144,-0.24258 -5.97245,-0.35862 -2.02283,-0.10461 -4.04623,-0.16029 -6.06673,-0.31104 -1.89353,-0.12016 -3.78684,-0.24711 -5.68288,-0.3217 -1.84753,-0.062 -3.69582,-0.10123 -5.54434,-0.11634 -1.73015,-0.004 -3.4605,-0.0102 -5.19039,0.0264 -1.96927,0.0486 -3.93714,0.1413 -5.89858,0.33001 -2.14931,0.18479 -4.3013,0.33146 -6.45661,0.42641 -2.26999,0.11779 -4.54169,0.22202 -6.8019,0.47686 -2.60713,0.29239 -5.20373,0.66693 -7.78337,1.14726 -2.33876,0.4047 -4.68473,0.81302 -7.05881,0.93744 -2.05627,0.15202 -4.11351,0.29812 -6.14983,0.63729 -1.92099,0.31808 -3.82952,0.71048 -5.71086,1.21498 -1.59311,0.37135 -3.18305,0.76919 -4.73484,1.29007 -1.87655,0.64963 -3.72824,1.36547 -5.58757,2.06229 -1.68078,0.61834 -3.36679,1.22187 -5.05441,1.82122 -1.05631,0.40815 -2.1011,0.84742 -3.08921,1.40452 -0.82652,0.47317 -1.63425,0.97735 -2.4526,1.46448 -0.6362,0.39327 -1.26941,0.79509 -1.8606,1.25443 -0.40511,0.32524 -0.76971,0.69654 -1.06012,1.12964 -0.29245,0.47238 -0.44249,0.97554 -0.41726,1.537 0.0212,0.97721 0.0495,1.95406 0.12944,2.92871 0,0 -1.36077,-0.38377 -1.36077,-0.38377 z"
       inkscape:connector-curvature="0" />
    <path
       style="fill:#72ddf4;fill-opacity:1;stroke:#efffff;color:#000000;fill-rule:nonzero;stroke-width:1.02228009999999990px;stroke-linecap:butt;stroke-linejoin:miter;stroke-miterlimit:4;stroke-opacity:1;stroke-dasharray:none;stroke-dashoffset:0;marker:none;visibility:visible;display:inline;overflow:visible;filter:url(#filter5662-2);enable-background:accumulate"
       d="m 532.43308,279.11132 3.42639,16.21134 c 1.08735,8.34167 2.67487,18.23043 -3.14447,15.62609 -4.29627,-0.16518 -8.64674,-3.13456 -10.47433,-8.15444 -2.59532,-14.38572 6.25132,-16.37751 10.19241,-23.68299 z"
       id="path5567-4"
       inkscape:connector-curvature="0"
       sodipodi:nodetypes="ccccc" />
    <path
       style="color:#000000;fill:#3c3400;fill-opacity:1;fill-rule:nonzero;stroke:#000000;stroke-width:1;marker:none;visibility:visible;display:inline;overflow:visible;enable-background:accumulate;stroke-linecap:butt;stroke-linejoin:miter;stroke-miterlimit:4;stroke-opacity:1;stroke-dasharray:none;stroke-dashoffset:0"
       id="path5383"
       d="m 531.52634,276.95483 c -0.0615,1.23261 -0.18166,2.46006 -0.37825,3.6783 -0.13387,0.81233 -0.39446,1.58944 -0.69914,2.35091 -0.28428,0.6529 -0.65048,1.26338 -1.03421,1.86146 -0.52501,0.83044 -1.10183,1.62629 -1.67705,2.42222 -0.73527,1.02306 -1.44607,2.06234 -2.08081,3.15088 -0.69251,1.18607 -1.22469,2.45277 -1.65964,3.75276 -0.40567,1.20563 -0.58751,2.46107 -0.6879,3.72368 -0.0874,1.29695 -0.091,2.59579 -0.009,3.89258 0.0932,1.42446 0.43086,2.80772 0.95421,4.1314 0.46799,1.04534 1.11775,1.96956 1.88805,2.81016 0.76421,0.81536 1.68955,1.4539 2.65142,2.01225 0.8991,0.53351 1.87022,0.86268 2.89617,1.03352 -3.25515,-0.42356 -0.15678,-0.14293 0.77579,-0.39211 0.93226,-0.3436 1.66223,-1.01135 2.32899,-1.72503 0.74794,-0.84415 1.2089,-1.86802 1.54677,-2.93182 0.32135,-1.17411 0.36438,-2.39872 0.39136,-3.60872 0.0313,-1.1398 -0.18886,-2.24958 -0.51974,-3.33327 -0.36426,-1.0291 -0.80308,-2.02911 -1.19203,-3.04894 -0.35421,-0.90994 -0.69255,-1.82704 -0.96531,-2.76492 -0.23972,-0.7578 -0.38564,-1.53932 -0.53994,-2.3175 -0.14581,-0.7278 -0.36104,-1.43867 -0.59149,-2.14337 -0.26781,-0.79893 -0.50547,-1.6061 -0.71439,-2.42232 -0.21053,-0.88653 -0.36406,-1.78454 -0.49887,-2.6852 -0.13163,-1.16371 -0.30481,-2.32139 -0.51075,-3.47412 -0.22749,-1.09592 -0.33033,-2.19082 -0.29932,-3.30686 0.17758,-0.55406 0.0192,-0.3084 0.51463,-0.70995 0,0 0.9264,0.27504 0.9264,0.27504 l 0,0 c 0.28584,0.59865 0.17248,0.29576 0.3468,0.90614 0.20865,1.10012 0.43096,2.19752 0.62135,3.30129 0.20485,1.14651 0.38254,2.2963 0.53633,3.4508 0.13329,0.89373 0.28889,1.7845 0.50338,2.6628 0.20735,0.79329 0.4852,1.56238 0.73059,2.34452 0.21507,0.71587 0.44083,1.43008 0.58031,2.16574 0.15054,0.7702 0.29386,1.5436 0.53639,2.2917 0.31549,0.894 0.61786,1.79268 0.95419,2.67923 0.40704,1.01665 0.82727,2.02965 1.18332,3.06542 0.32529,1.10461 0.53137,2.23881 0.47959,3.39614 -0.043,1.23019 -0.0926,2.46966 -0.43026,3.66203 -0.35567,1.09054 -0.81967,2.14296 -1.58216,3.01654 -0.68414,0.74437 -1.43908,1.43674 -2.38905,1.82356 -1.55986,0.4886 -3.14391,0.0741 -4.71873,-0.20978 -1.01639,-0.20347 -1.97758,-0.56381 -2.86775,-1.1023 -0.96333,-0.57647 -1.89442,-1.19858 -2.64874,-2.04348 -0.77083,-0.87591 -1.44882,-1.83564 -1.85363,-2.93983 -0.50669,-1.34981 -0.85063,-2.74412 -0.93694,-4.18909 -0.0772,-1.30582 -0.0707,-2.61502 0.0106,-3.92087 0.11426,-1.29766 0.3234,-2.58593 0.74917,-3.82201 0.45135,-1.31086 0.98994,-2.58747 1.69794,-3.78329 0.66168,-1.10542 1.35895,-2.18789 2.14399,-3.21088 0.5866,-0.78963 1.19054,-1.5674 1.72621,-2.39338 0.37539,-0.61566 0.75819,-1.22919 1.06124,-1.88492 0.34894,-0.74712 0.62309,-1.52587 0.77858,-2.33762 0.22667,-1.20415 0.36744,-2.42266 0.39786,-3.64853 0,0 1.57382,0.48904 1.57382,0.48904 z"
       inkscape:connector-curvature="0" />
    <path
       style="fill:#72ddf4;fill-opacity:1;stroke:#efffff;color:#000000;fill-rule:nonzero;stroke-width:1.02228009999999990px;stroke-linecap:butt;stroke-linejoin:miter;stroke-miterlimit:4;stroke-opacity:1;stroke-dasharray:none;stroke-dashoffset:0;marker:none;visibility:visible;display:inline;overflow:visible;filter:url(#filter5662-7);enable-background:accumulate"
       d="m 558.86952,236.88322 3.42639,16.21134 -3.75168,13.90937 c -4.29627,-0.16518 -8.03953,-1.41784 -9.86712,-6.43772 z"
       id="path5567-7"
       inkscape:connector-curvature="0"
       sodipodi:nodetypes="ccccc" />
    <path
       style="color:#000000;fill:#3c3400;fill-opacity:1;fill-rule:nonzero;stroke:#000000;stroke-width:1;marker:none;visibility:visible;display:inline;overflow:visible;enable-background:accumulate;stroke-linecap:butt;stroke-linejoin:miter;stroke-miterlimit:4;stroke-opacity:1;stroke-dasharray:none;stroke-dashoffset:0"
       id="path5385"
       d="m 558.43616,227.88805 c 0.44387,1.68601 0.71293,3.4051 0.8923,5.13679 0.24323,1.9367 0.17436,3.85342 -0.17284,5.76861 -0.50076,2.18747 -1.46,4.22513 -2.43068,6.2353 -0.93593,1.88117 -1.87027,3.76217 -2.71754,5.68525 -0.75748,1.71836 -1.35072,3.49822 -1.81193,5.31678 -0.43718,1.76019 -0.61137,3.56584 -0.70124,5.37246 -0.11958,1.46338 -0.0189,2.90174 0.43994,4.29668 0.40249,1.12501 1.21409,1.85106 2.21594,2.43751 0.15724,0.0747 0.63241,0.29125 0.47172,0.22425 -2.72297,-1.13536 -0.44077,-0.30709 0.46696,-0.21738 0.98786,0.11369 1.81032,-0.24164 2.59897,-0.79791 1.04283,-0.84994 1.78634,-1.97823 2.47362,-3.11833 0.75914,-1.24357 1.20115,-2.6099 1.45229,-4.03516 0.17388,-1.26103 0.21273,-2.53688 0.15487,-3.80728 -0.0804,-1.01888 -0.22118,-2.03243 -0.4012,-3.03821 -0.17421,-0.90249 -0.3839,-1.7973 -0.54891,-2.70162 -0.21771,-1.20292 -0.41735,-2.4085 -0.57232,-3.62116 -0.16533,-1.43316 -0.1745,-2.8771 -0.2048,-4.31752 -0.0549,-2.03195 -0.25069,-4.0566 -0.42989,-6.08039 0.0426,-1.68412 -0.63362,-3.73134 0.24856,-5.26392 0,0 0.77913,0.32083 0.77913,0.32083 l 0,0 c 0.75352,1.80347 0.67061,3.80801 0.91125,5.72637 0.16388,2.0215 0.37475,4.0405 0.45517,6.06763 0.0325,1.4352 0.0468,2.87459 0.22526,4.30113 0.15903,1.21027 0.35745,2.41465 0.58644,3.61371 0.17337,0.90353 0.37433,1.80102 0.54726,2.70455 0.16517,1.01188 0.30261,2.02992 0.36568,3.05377 0.0468,1.28281 0.002,2.57242 -0.1919,3.84288 -0.27885,1.44299 -0.74682,2.82562 -1.51057,4.09099 -0.69774,1.15566 -1.45487,2.29549 -2.5119,3.15762 -0.81252,0.59021 -1.66879,1.00473 -2.70286,0.90603 -1.62079,-0.14882 -3.12404,-0.67094 -4.54671,-1.50874 -0.98601,-0.6241 -1.78348,-1.40996 -2.17407,-2.53944 -0.43325,-1.42034 -0.51531,-2.87164 -0.38017,-4.3502 0.12382,-1.82338 0.29518,-3.65 0.73952,-5.42802 0.48373,-1.83288 1.08012,-3.63289 1.85019,-5.36745 0.85188,-1.92408 1.81443,-3.79342 2.75545,-5.67489 0.9657,-2.01376 1.94929,-4.04543 2.45285,-6.23395 0.35225,-1.90254 0.40332,-3.82155 0.22563,-5.74987 -0.16064,-1.73244 -0.40779,-3.45781 -0.88875,-5.13402 0,0 1.58928,0.72632 1.58928,0.72632 z"
       inkscape:connector-curvature="0" />
    <path
       style="fill:#72ddf4;fill-opacity:1;stroke:#efffff;color:#000000;fill-rule:nonzero;stroke-width:1.02228009999999990px;stroke-linecap:butt;stroke-linejoin:miter;stroke-miterlimit:4;stroke-opacity:1;stroke-dasharray:none;stroke-dashoffset:0;marker:none;visibility:visible;display:inline;overflow:visible;filter:url(#filter5662-5);enable-background:accumulate"
       d="m 510.89703,181.90801 3.42639,16.21134 -3.75168,13.90937 c -4.29627,-0.16518 -8.03953,-1.41784 -9.86712,-6.43772 z"
       id="path5567"
       inkscape:connector-curvature="0"
       sodipodi:nodetypes="ccccc" />
    <path
       style="color:#000000;fill:#3c3400;fill-opacity:1;fill-rule:nonzero;stroke:#000000;stroke-width:1;stroke-linecap:butt;stroke-linejoin:miter;stroke-miterlimit:4;stroke-opacity:1;stroke-dasharray:none;stroke-dashoffset:0;marker:none;visibility:visible;display:inline;overflow:visible;enable-background:accumulate"
       id="path5387"
       d="m 511.16512,178.34192 c -0.2829,1.69547 -0.62891,3.37566 -1.08096,5.03401 -0.58277,2.00459 -1.47293,3.89676 -2.38129,5.76964 -1.12894,2.22405 -2.22688,4.46205 -3.14379,6.78255 -0.75888,1.94266 -1.22189,3.97068 -1.47064,6.03625 -0.2432,1.83101 -0.18038,3.64165 0.25371,5.43351 0.41696,1.51214 1.32023,2.59366 2.65579,3.36632 0.20887,0.0861 0.82588,0.36456 0.62661,0.25816 -0.33838,-0.18067 -0.7517,-0.23457 -1.04514,-0.48162 -0.16607,-0.13982 0.42288,0.0993 0.63655,0.13763 0.61278,0.11002 1.19379,0.12838 1.81288,0.0975 1.19644,-0.14755 2.05525,-0.89606 2.84451,-1.74378 0.89452,-1.01435 1.44651,-2.22009 1.85167,-3.49579 0.44338,-1.65171 0.49552,-3.36982 0.54718,-5.06909 0.10977,-2.13716 -0.0397,-4.26121 -0.35066,-6.37432 -0.32927,-2.05425 -0.92858,-4.04949 -1.46179,-6.05643 -0.47426,-1.65916 -0.70723,-3.36244 -0.77231,-5.08271 -0.0131,-2.15823 0.78134,-4.14933 1.70615,-6.05838 0.47794,-1.09559 1.20603,-1.79125 2.14689,-2.47459 0,0 0.59667,0.2699 0.59667,0.2699 l 0,0 c -0.29808,0.99962 -0.69001,1.94383 -1.15286,2.88084 -0.76133,1.95079 -1.40574,3.97511 -1.38694,6.09327 0.0841,1.70399 0.31668,3.39308 0.78083,5.03893 0.53622,2.01041 1.11276,4.01495 1.43986,6.07347 0.30606,2.12421 0.4442,4.26019 0.3379,6.40724 -0.0526,1.71691 -0.0995,3.45503 -0.58101,5.11704 -0.43127,1.29546 -1.00443,2.5318 -1.93226,3.55427 -0.81938,0.88119 -1.72332,1.63676 -2.95565,1.81794 -1.94056,0.1474 -3.7356,-0.46822 -5.47013,-1.35081 -1.31038,-0.8325 -2.18248,-1.97019 -2.57743,-3.49335 -0.42107,-1.81282 -0.47684,-3.64506 -0.22734,-5.49263 0.28119,-2.08312 0.7538,-4.12915 1.54642,-6.08318 0.93818,-2.31674 2.03408,-4.55781 3.15414,-6.79137 0.90037,-1.86518 1.78873,-3.74671 2.3776,-5.73834 0.48312,-1.65442 0.85392,-3.33645 1.09662,-5.04376 0,0 1.57822,0.66169 1.57822,0.66169 z"
       inkscape:connector-curvature="0" />
    <path
       style="color:#000000;fill:#3c3400;fill-opacity:1;fill-rule:nonzero;stroke:#000000;stroke-width:1;marker:none;visibility:visible;display:inline;overflow:visible;enable-background:accumulate;stroke-linecap:butt;stroke-linejoin:miter;stroke-miterlimit:4;stroke-opacity:1;stroke-dasharray:none;stroke-dashoffset:0"
       id="path5389"
       d="m 459.8518,377.64603 c -1.3238,0.0664 -2.62896,0.28326 -3.92268,0.5608 -1.17409,0.27624 -2.34528,0.56483 -3.51639,0.85346 -0.80493,0.18132 -1.58941,0.43572 -2.36759,0.70707 -0.36077,0.13529 -0.72356,0.268 -1.0691,0.43935 -0.30165,0.14179 -0.54674,0.35664 -0.79457,0.57473 -0.37321,0.34488 -0.73753,0.6958 -1.07783,1.07385 -0.40478,0.4737 -0.76357,0.98405 -1.13664,1.48253 -0.28101,0.35349 -0.56066,0.69943 -0.78607,1.09157 -0.31438,0.56375 -0.46297,1.19737 -0.62304,1.81722 -0.35312,1.42574 -0.72332,2.8455 -1.14681,4.25206 -0.52341,1.67537 -1.18124,3.30348 -1.74139,4.96626 -0.37954,1.11158 -0.63084,2.25931 -0.77629,3.42339 -0.0358,0.31433 -0.0448,0.63046 -0.0357,0.9463 -3.1e-4,0.16326 0.1384,0.14967 0.27441,0.19751 0.64645,0.15408 1.26835,0.42876 1.88922,0.66759 1.12142,0.42821 2.21991,0.91152 3.30385,1.42645 0.78702,0.38334 1.5603,0.79437 2.31375,1.24001 0.38173,0.23608 0.75948,0.47748 1.15109,0.69695 0.41675,0.22647 0.84075,0.43922 1.27278,0.63493 0.64577,0.30563 1.34332,0.4403 2.04607,0.53281 1.32263,0.11776 -0.62129,-0.0544 -0.83556,-0.082 -0.17115,-0.0221 0.34474,0.0167 0.51719,0.0228 0.51956,0.0184 1.03964,0.0234 1.5594,0.0336 1.3816,0.0779 2.78133,0.11508 4.11792,0.49644 0.61774,0.19905 1.21676,0.44979 1.82803,0.66736 0.72023,0.24236 1.44444,0.47246 2.16485,0.7143 0.54245,0.20431 1.0945,0.37595 1.65982,0.50477 -0.71675,-0.009 1.47333,0.19506 0.8173,0.12519 -1.71158,-0.18229 -2.16392,-0.21435 -1.42031,-0.15816 0.474,0.0291 0.94926,0.0272 1.42397,0.0287 0.51296,-8e-5 1.02592,0.002 1.53888,0.003 0.65169,0.0255 1.24176,-0.20542 1.81936,-0.47854 0.6549,-0.32954 1.26934,-0.72345 1.87918,-1.12833 0.49781,-0.32155 1.0021,-0.63289 1.50324,-0.9492 0.34092,-0.23028 0.70532,-0.41603 1.0745,-0.5952 0.54626,-0.2618 1.15066,-0.32828 1.74064,-0.42689 0.16094,-0.0156 0.32188,-0.0312 0.48283,-0.0468 0,0 0.12426,0.0235 0.12426,0.0235 l 0,0 c -0.0179,0.0427 -0.0358,0.0854 -0.0538,0.12815 -0.26534,0.19277 -0.50893,0.41492 -0.80045,0.57286 -0.2843,0.19869 -0.53247,0.44698 -0.8322,0.62597 -0.48332,0.32452 -0.97998,0.62839 -1.46296,0.95346 -0.62014,0.4179 -1.23459,0.84705 -1.88767,1.21173 -0.57343,0.28902 -1.16833,0.55479 -1.82291,0.56218 -0.50476,0.001 -1.00953,0.005 -1.5143,0.004 -0.47421,-3.9e-4 -0.94854,-4.4e-4 -1.42254,-0.0166 -1.01672,-0.0523 -2.04076,-0.14649 -3.03642,-0.36636 -0.55947,-0.14193 -1.11096,-0.31369 -1.65975,-0.49166 -0.71926,-0.24501 -1.44574,-0.46819 -2.16345,-0.71783 -0.60971,-0.22092 -1.2101,-0.47 -1.83301,-0.65243 -0.26522,-0.0686 -1.68449,-0.23923 -0.98387,-0.20469 2.90077,0.14303 1.11454,0.11701 0.49492,0.0412 -1.61458,-0.0391 -3.22997,-0.0533 -4.83391,-0.28633 -0.72022,-0.10867 -1.42942,-0.26575 -2.08997,-0.58424 -0.43282,-0.20234 -0.86171,-0.41412 -1.27684,-0.65102 -0.38444,-0.22308 -0.75576,-0.46746 -1.13437,-0.70016 -0.74536,-0.43918 -1.511,-0.84373 -2.28782,-1.2243 -1.08551,-0.51553 -2.18911,-0.99016 -3.31479,-1.41175 -0.63558,-0.24193 -1.29351,-0.44775 -1.90744,-0.73429 -0.18168,-0.0951 -0.28075,-0.19563 -0.27057,-0.40929 -8.5e-4,-0.36273 0.025,-0.72482 0.0739,-1.08427 0.16349,-1.17405 0.4434,-2.32856 0.82356,-3.45164 0.58715,-1.66273 1.24148,-3.30097 1.79872,-4.97414 0.43508,-1.40027 0.81278,-2.81634 1.14546,-4.24449 0.16395,-0.63443 0.30742,-1.28422 0.6193,-1.8665 0.23783,-0.41296 0.51197,-0.80428 0.82608,-1.16327 0.39839,-0.49021 0.77195,-0.99965 1.17982,-1.4822 0.33622,-0.37463 0.68334,-0.7507 1.1017,-1.03518 0.27447,-0.22635 0.53717,-0.47126 0.84019,-0.65781 0.35892,-0.17659 0.72953,-0.32124 1.10964,-0.44667 0.80042,-0.2768 1.61507,-0.50859 2.44099,-0.69682 1.2062,-0.28535 2.41394,-0.56523 3.62743,-0.81798 1.36104,-0.26643 2.73514,-0.46963 4.124,-0.50664 0,0 1.13078,0.4399 1.13078,0.4399 z"
       inkscape:connector-curvature="0" />
    <path
       style="color:#000000;fill:#3c3400;fill-opacity:1;fill-rule:nonzero;stroke:#000000;stroke-width:1;marker:none;visibility:visible;display:inline;overflow:visible;enable-background:accumulate;stroke-linecap:butt;stroke-linejoin:miter;stroke-miterlimit:4;stroke-opacity:1;stroke-dasharray:none;stroke-dashoffset:0"
       id="path5391"
       d="m 482.33924,403.33855 c -0.98456,0.17647 -1.96867,0.35547 -2.94309,0.58209 -0.55912,0.12955 -1.11304,0.27964 -1.64265,0.50225 -0.49978,0.19241 -0.86748,0.54831 -1.20481,0.95087 -0.68423,0.87223 -1.13889,1.882 -1.56905,2.89517 -0.55137,1.39024 -0.90104,2.84562 -1.11931,4.32197 -0.0973,1.05147 -0.31169,2.14373 -0.0387,3.18278 0.26823,0.67277 0.90031,0.95245 1.5198,1.23018 0.76424,0.31183 1.53715,0.60182 2.30568,0.90305 0.9506,0.38866 1.91458,0.74244 2.88987,1.06373 1.62007,0.5081 3.26942,0.92173 4.91625,1.33486 1.94136,0.48345 3.88119,0.97303 5.82707,1.43806 1.69105,0.40848 3.39216,0.768 5.11652,1.00079 -0.52308,0.18759 2.2981,-0.0138 1.73824,0.14284 -0.29214,0.0817 -1.17557,0.0909 -0.90852,-0.053 0.1994,-0.10745 2.60154,0.0545 2.95557,0.0582 1.91444,0.0129 3.82894,0.007 5.7434,0.003 1.42903,0.0164 2.85988,-0.0442 4.28776,0.0234 1.03217,8e-5 2.06433,-0.003 3.09651,-0.003 0.66034,-6.4e-4 1.32069,-4.4e-4 1.98103,-0.002 0.4683,-3.9e-4 0.93659,-2.1e-4 1.40489,-0.001 0.33036,-2e-4 0.66072,-8e-4 0.99108,-0.001 0.77862,-0.004 1.55235,0.048 2.33344,0.0756 0.0527,0.002 0.21086,0.007 0.15815,0.005 -1.79568,-0.0625 -2.39876,-0.0794 -1.6246,-0.0572 0.51322,0.0145 1.02439,0.0157 1.5347,-0.0433 0.84777,-0.15543 1.66119,-0.45142 2.45731,-0.77473 0.89228,-0.36294 1.70282,-0.88249 2.50462,-1.40878 0.63671,-0.43963 1.2802,-0.86963 1.87998,-1.35923 0.71222,-0.58012 1.16542,-1.35948 1.54666,-2.17944 0.43071,-1.04463 0.6228,-2.15935 0.72506,-3.27843 0.0476,-1.20718 0.18131,-2.40368 0.3611,-3.59738 0.0682,-0.63389 0.21829,-1.2554 0.3041,-1.8862 0.0356,-0.27657 0.0736,-0.55243 0.13039,-0.82549 0.0512,-0.19052 0.16822,-0.30726 0.32938,-0.40627 1.22529,-0.56795 1.6486,0.0364 1.70761,0.84712 0.0642,0.84292 -0.0696,1.67942 -0.20109,2.50905 -0.19585,1.28435 -0.24593,2.58317 -0.28336,3.87977 -0.0974,1.29922 0.13218,2.5603 0.48397,3.80303 0.31541,0.94492 0.62575,1.89369 1.06728,2.78846 0.37865,0.7556 1.05591,1.09873 1.81846,1.36667 0.94802,0.26616 1.91934,0.44412 2.8884,0.61504 0.54,0.0858 1.08479,0.13584 1.6304,0.16761 0.2043,0.0119 0.81777,0.036 0.61326,0.0287 -1.65394,-0.0591 -1.63757,-0.0453 -0.59749,-0.067 1.53661,-0.0826 3.03751,-0.44279 4.52407,-0.81754 1.19792,-0.32492 2.4104,-0.58217 3.63903,-0.75631 1.1365,-0.1394 2.27756,-0.23874 3.41909,-0.32617 1.2692,-0.0745 2.53529,-0.18225 3.79872,-0.32338 1.51325,-0.18749 3.02268,-0.40386 4.52953,-0.63687 1.45154,-0.23237 2.90404,-0.45835 4.35518,-0.69312 1.34264,-0.22976 2.686,-0.45327 4.03616,-0.63428 1.16406,-0.14582 2.33502,-0.22185 3.5013,-0.34565 1.12263,-0.1259 2.22324,-0.3831 3.32326,-0.63181 0.7884,-0.17838 1.57796,-0.35213 2.37477,-0.48887 0.62422,-0.0887 1.24454,-0.19273 1.85567,-0.34853 0.63702,-0.1964 1.2689,-0.41716 1.86711,-0.71193 0.34333,-0.15799 0.65476,-0.34295 0.90492,-0.62778 0.38138,-0.59294 0.45499,-1.32179 0.5445,-2.00525 0.1213,-1.15607 0.14515,-2.32049 0.1402,-3.48208 0.0128,-1.08594 -0.22768,-2.13328 -0.59865,-3.14618 -0.24386,-0.64423 -0.59485,-1.23971 -0.92305,-1.8432 -0.16296,-0.35195 0.34052,-0.3282 0.55989,-0.35719 0,0 0.0706,-0.005 0.0706,-0.005 l 0,0 c 0.40911,0.0137 0.82353,-0.004 1.13771,0.29948 0.53507,0.54942 0.96396,1.17648 1.2444,1.8951 0.37306,1.03848 0.61656,2.11181 0.60256,3.22247 -0.0169,1.14843 -0.0302,2.2987 -0.14327,3.44273 -0.0901,0.72075 -0.16723,1.47373 -0.53191,2.11675 -0.23052,0.33876 -0.54173,0.55775 -0.91586,0.72354 -0.61778,0.30389 -1.22498,0.63434 -1.89427,0.81552 -0.608,0.1698 -1.22573,0.29579 -1.8532,0.36929 -0.80263,0.13001 -1.5987,0.29499 -2.39182,0.47391 -1.10279,0.24896 -2.20494,0.51305 -3.32812,0.65438 -1.16446,0.13643 -2.33566,0.2002 -3.49985,0.34003 -1.35453,0.16904 -2.70069,0.3926 -4.04549,0.62595 -1.45635,0.23612 -2.91516,0.45649 -4.37131,0.69382 -1.50957,0.23579 -3.02164,0.45608 -4.53809,0.64325 -1.26287,0.15386 -2.52968,0.26289 -3.80015,0.33165 -1.14973,0.0852 -2.29907,0.17993 -3.44474,0.30947 -1.24103,0.15828 -2.46696,0.39706 -3.67448,0.72772 -1.49669,0.37141 -3.00072,0.75477 -4.54533,0.85737 -1.83493,0.0615 -3.68783,-0.0112 -5.50537,-0.2814 -0.94501,-0.1742 -1.89426,-0.35528 -2.80801,-0.65762 -0.77378,-0.31006 -1.40656,-0.72081 -1.7631,-1.50811 -0.4193,-0.92699 -0.73843,-1.89385 -1.00401,-2.87558 -0.32549,-1.26094 -0.50977,-2.54285 -0.41847,-3.84961 0.0372,-1.30317 0.092,-2.60907 0.28861,-3.89966 0.11799,-0.8212 0.25638,-1.64309 0.23927,-2.47591 5.5e-4,-0.16407 -0.17388,-0.47282 -0.0109,-0.49208 2.35676,-0.2786 1.93613,0.0717 1.36781,0.0589 -0.15059,0.0352 -0.26843,0.0839 -0.30921,0.25249 -0.0461,0.27516 0.0421,0.54756 0.0315,0.82505 0.006,0.62086 -0.0344,1.23918 -0.10778,1.85593 -0.10766,1.1993 -0.17134,2.40101 -0.24468,3.60271 -0.12784,1.11521 -0.28792,2.23772 -0.73357,3.27821 -0.374,0.84765 -0.83393,1.65449 -1.5455,2.26751 -0.59629,0.50502 -1.2414,0.94388 -1.89022,1.37841 -0.7983,0.54313 -1.61912,1.05891 -2.50473,1.44954 -0.80041,0.33367 -1.61752,0.63703 -2.46682,0.82155 -0.50272,0.0882 -1.00496,0.093 -1.51444,0.0792 -7.22771,-0.0442 0.84646,-0.13674 -0.84879,-0.0237 -0.33446,-3.7e-4 -0.66892,-9.7e-4 -1.00337,-0.001 -0.47198,-8.2e-4 -0.94395,-6.6e-4 -1.41592,-0.001 -0.66642,-0.001 -1.33285,-0.001 -1.99927,-0.002 -1.03905,1.1e-4 -2.07809,-0.003 -3.11713,-0.003 -1.44093,0.0676 -2.88477,0.0109 -4.32685,0.0307 -1.9204,7.7e-4 -3.84082,0.005 -5.7612,-0.005 -2.47391,-0.0228 -4.95492,-0.0683 -7.41464,-0.35345 -1.7078,-0.24826 -3.39404,-0.61099 -5.06962,-1.02311 -1.93892,-0.46614 -3.87158,-0.95762 -5.80646,-1.44016 -1.65754,-0.41405 -3.31947,-0.8211 -4.927,-1.40543 -0.9392,-0.34673 -1.8803,-0.68934 -2.80416,-1.07581 -0.74721,-0.30029 -1.50181,-0.58378 -2.23527,-0.91704 -0.63389,-0.31322 -1.23141,-0.65812 -1.46913,-1.37029 -0.23601,-1.06756 -0.01,-2.16535 0.0907,-3.23879 0.23734,-1.48746 0.58788,-2.95181 1.14724,-4.3547 0.41686,-1.04536 0.88679,-2.0753 1.55162,-2.99011 0.33777,-0.42779 0.7036,-0.81546 1.22084,-1.02331 0.56196,-0.22764 1.14289,-0.3954 1.73937,-0.50723 1.01237,-0.19916 2.02831,-0.37982 3.0436,-0.56332 0,0 1.26082,0.30041 1.26082,0.30041 z"
       inkscape:connector-curvature="0" />
    <path
       style="color:#000000;fill:#3c3400;fill-opacity:1;fill-rule:nonzero;stroke:#000000;stroke-width:1;marker:none;visibility:visible;display:inline;overflow:visible;enable-background:accumulate;stroke-linecap:butt;stroke-linejoin:miter;stroke-miterlimit:4;stroke-opacity:1;stroke-dasharray:none;stroke-dashoffset:0"
       id="path5393"
       d="m 585.70572,410.96501 c -0.59041,1.17864 -0.79853,2.38652 -0.10221,3.54457 1.01957,1.10328 2.59454,1.12065 3.99473,1.22178 3.98441,0.1072 2.69306,0.0644 6.02673,0.0673 1.74763,6.8e-4 3.49095,0.13057 5.22931,0.29841 1.31352,0.14225 2.62745,0.2751 3.94674,0.34875 -1.81866,0.0121 4.46381,0.10946 2.63912,0.0562 -0.432,-0.0126 -0.86797,0.0362 -1.29639,-0.0208 -0.2389,-0.0318 0.48057,-0.0372 0.72086,-0.0557 1.47487,-0.13551 2.90314,-0.52888 4.30498,-0.98891 1.40396,-0.49375 2.76082,-1.10987 4.11968,-1.71411 1.33519,-0.58195 2.6526,-1.20207 3.9534,-1.85704 1.45607,-0.71292 2.86501,-1.51395 4.25245,-2.35107 1.20188,-0.71885 2.34584,-1.52546 3.36958,-2.48192 0.83841,-0.80143 1.26849,-1.83077 1.59099,-2.92062 0.28818,-1.30612 0.4348,-2.66121 0.26201,-3.99136 -0.31708,-1.40393 -1.42338,-2.22725 -2.57356,-2.95775 -1.16244,-0.64991 -2.3181,-1.3062 -3.4032,-2.08039 -0.36465,-0.31387 -1.12175,-0.89013 -0.62754,-1.37047 0.12506,-0.0308 0.25013,-0.0616 0.3752,-0.0924 0,0 0.51094,0.0998 0.51094,0.0998 l 0,0 c 0.0821,0.0432 0.16424,0.0863 0.24636,0.12945 0.58616,0.31762 0.94352,0.94134 1.54207,1.2574 1.12081,0.73314 2.33301,1.30494 3.47065,2.01167 1.17358,0.77078 2.31028,1.57393 2.59576,3.04199 0.13965,1.34468 -0.007,2.6929 -0.30078,4.0107 -0.31305,1.12594 -0.74966,2.19844 -1.6017,3.03197 -1.02328,0.98228 -2.18956,1.78868 -3.40063,2.52375 -1.38612,0.84185 -2.79064,1.65342 -4.24765,2.36788 -1.30544,0.65615 -2.62316,1.28717 -3.96505,1.86589 -1.37032,0.60545 -2.73679,1.2255 -4.14822,1.73071 -1.40473,0.47042 -2.83386,0.88052 -4.31272,1.03641 -2.02207,0.18323 -4.06183,0.0926 -6.08844,0.0251 -1.30371,-0.0819 -2.60203,-0.22007 -3.90027,-0.36328 -1.71394,-0.16583 -3.43275,-0.28953 -5.15577,-0.29132 0.30081,-0.001 1.20323,-0.004 0.90242,-0.004 -2.29479,-0.004 -4.59284,0.0345 -6.88572,-0.0839 -1.43356,-0.11599 -2.99198,-0.20578 -3.96514,-1.40805 -0.63888,-1.2525 -0.42852,-2.54754 0.21047,-3.77293 0,0 1.71054,0.13634 1.71054,0.13634 z"
       inkscape:connector-curvature="0" />
    <path
       style="color:#000000;fill:#3c3400;fill-opacity:1;fill-rule:nonzero;stroke:#000000;stroke-width:1;marker:none;visibility:visible;display:inline;overflow:visible;enable-background:accumulate;stroke-linecap:butt;stroke-linejoin:miter;stroke-miterlimit:4;stroke-opacity:1;stroke-dasharray:none;stroke-dashoffset:0"
       id="path5395"
       d="m 630.08414,400.20809 c 1.72679,0.0749 3.43145,-0.044 5.13948,-0.28184 1.80348,-0.28596 3.49748,-0.97949 5.17007,-1.68311 1.59307,-0.67591 3.13692,-1.45464 4.63908,-2.31204 0.87562,-0.50057 1.71092,-1.05707 2.35541,-1.83944 0.57808,-0.93515 1.03641,-1.94097 1.56367,-2.90638 0.82918,-1.51265 1.91847,-2.85175 3.05205,-4.14281 1.01703,-1.15456 2.13327,-2.21543 3.1795,-3.34305 0.70213,-0.79931 1.36079,-1.63632 1.94049,-2.52855 0.5534,-0.80275 0.86461,-1.6999 1.01456,-2.65472 0.16132,-0.85158 -0.0948,-1.62007 -0.48659,-2.36719 -0.61545,-1.0086 -1.28069,-1.9856 -1.90938,-2.98623 -0.65513,-1.09204 -1.28894,-2.19792 -1.87918,-3.32644 -0.55118,-1.11809 -1.07301,-2.24931 -1.69185,-3.33219 -0.69196,-1.19797 -1.70242,-2.12943 -2.7382,-3.02262 -1.1304,-0.9199 -2.27841,-1.81825 -3.46534,-2.66414 -1.09105,-0.77939 -2.29165,-1.36834 -3.53609,-1.85542 -0.74553,-0.31193 -4.70241,-1.22841 -1.09338,-0.41733 0.23354,0.0525 -0.47244,-0.0772 -0.70866,-0.1158 -1.66113,-0.23967 -3.34271,-0.26174 -5.01773,-0.28668 -1.87015,-0.0477 -3.7387,0.0324 -5.60551,0.1338 -1.40415,0.0869 -2.81135,0.0901 -4.21636,0.1554 -0.82815,0.0774 -1.64882,0.16165 -2.47981,0.20669 0,0 -0.7277,-0.25419 -0.7277,-0.25419 l 0,0 c 0.44992,-0.34175 0.89591,-0.47202 1.46537,-0.53116 1.2678,-0.15748 2.54257,-0.229 3.81812,-0.2935 1.85952,-0.10442 3.72067,-0.19955 5.58397,-0.1575 1.67151,0.0194 3.34929,0.0283 5.0093,0.24832 2.12053,0.32296 4.25887,0.69464 6.2797,1.43349 1.23516,0.50701 2.42536,1.11232 3.50237,1.90928 1.17231,0.85627 2.31738,1.75036 3.43066,2.68219 1.03241,0.90954 2.02367,1.87111 2.68802,3.09375 0.60373,1.08848 1.11811,2.2206 1.66855,3.33638 0.58842,1.13061 1.18243,2.25856 1.85509,3.34235 0.62507,1.00444 1.29903,1.97829 1.89195,3.0023 0.39093,0.77906 0.6641,1.51716 0.43988,2.40181 -0.21266,0.96827 -0.56335,1.88862 -1.11124,2.72125 -0.61371,0.89844 -1.27012,1.76824 -2.04118,2.53972 -1.06654,1.0938 -2.16259,2.15843 -3.21297,3.26806 -1.12897,1.2781 -2.22445,2.59639 -3.04305,4.10144 -0.51452,0.95593 -0.93874,1.9658 -1.56512,2.85601 -0.69329,0.80686 -1.58007,1.36932 -2.50661,1.88117 -1.52227,0.85857 -3.07663,1.66266 -4.68359,2.35223 -1.68875,0.72186 -3.40187,1.41939 -5.22588,1.71567 -1.69257,0.24339 -3.40384,0.23782 -5.11157,0.23177 0,0 -1.6303,-0.31075 -1.6303,-0.31075 z"
       inkscape:connector-curvature="0" />
    <path
       style="color:#000000;fill:#3c3400;fill-opacity:1;fill-rule:nonzero;stroke:#000000;stroke-width:1;marker:none;visibility:visible;display:inline;overflow:visible;enable-background:accumulate;stroke-linecap:butt;stroke-linejoin:miter;stroke-miterlimit:4;stroke-opacity:1;stroke-dasharray:none;stroke-dashoffset:0"
       id="path5397"
       d="m 465.31396,374.70226 c -2.30641,0.22108 -4.3705,-0.48816 -6.54493,-1.16842 -1.90284,-0.91664 -3.39411,-2.42781 -4.81428,-3.95342 -1.05416,-1.16093 -2.01215,-2.40395 -2.86928,-3.71619 -0.64077,-0.99426 -0.99192,-2.11457 -1.24542,-3.2592 -0.26291,-1.3963 -0.27007,-2.82205 -0.28968,-4.23763 -0.0657,-1.52134 0.093,-3.02331 0.59162,-4.4621 0.48573,-1.27455 1.40575,-2.2527 2.40057,-3.14984 1.66707,-1.46332 3.63236,-2.49877 5.6304,-3.42889 2.12621,-0.95646 4.34086,-1.69317 6.55385,-2.41814 1.60565,-0.50315 3.20788,-1.01804 4.83052,-1.4637 0.69578,-0.19167 1.40062,-0.35234 2.08669,-0.57778 0.11679,-0.0371 0.24314,-0.0826 0.35814,-0.10865 -0.0563,0.13653 0.0421,-0.0369 0.0839,-0.0771 0.35167,-0.27851 0.79964,-0.36258 1.22843,-0.44678 1.34826,-0.20067 2.6912,-0.4329 4.03424,-0.66552 1.53949,-0.30555 3.10557,-0.40187 4.66437,-0.54914 0.85822,-0.0287 1.71867,-0.094 2.57543,-0.0113 1.11436,0.25912 2.20467,0.58738 3.17768,1.18947 0.58343,0.39758 1.17962,0.76551 1.82872,1.0448 0.87539,0.3027 -0.19012,-0.0685 -0.47862,-0.14597 -0.40786,-0.10958 0.79694,0.28004 1.19224,0.42869 0,0 0.20038,0.1055 0.20038,0.1055 l 0,0 c -0.82597,-0.0475 -1.59187,-0.37378 -2.37499,-0.62938 -0.7381,-0.29693 -1.43116,-0.67528 -2.09484,-1.11448 -0.21164,-0.12176 -0.31916,-0.19009 -0.53869,-0.29177 -0.085,-0.0394 -0.34909,-0.13488 -0.25919,-0.10858 2.80102,0.81951 1.57289,0.4266 0.95829,0.36685 -0.86155,-0.11424 -1.73196,-0.0582 -2.59792,-0.0338 -1.56016,0.0118 -3.11268,0.20268 -4.6491,0.46731 -1.32919,0.23612 -2.65705,0.48039 -3.99187,0.68333 -0.40552,0.0744 -0.8233,0.13726 -1.17297,0.37246 -0.0387,0.0401 -0.0791,0.0294 -0.0981,0.12388 -0.11966,0.0445 -0.25558,0.0783 -0.38147,0.11869 -0.70414,0.21691 -1.42163,0.38428 -2.13571,0.56476 -1.62186,0.43633 -3.24619,0.863 -4.84169,1.39099 -2.22327,0.71926 -4.43595,1.48259 -6.58061,2.41423 -1.9551,0.91444 -3.89676,1.89998 -5.54483,3.3168 -0.9612,0.88862 -1.87227,1.82915 -2.35989,3.07112 -0.49658,1.42364 -0.67411,2.8922 -0.5844,4.40054 0.026,1.41478 0.0422,2.84058 0.31001,4.23485 0.25999,1.12812 0.61963,2.22538 1.26534,3.19921 0.83825,1.30064 1.78898,2.52528 2.82211,3.67736 1.40517,1.51406 2.89656,3.00101 4.80116,3.87334 -0.2503,-0.0349 -0.92504,-0.28779 -0.75091,-0.10463 0.43632,0.45895 3.33215,0.45013 4.0589,0.44308 0,0 1.54647,0.6351 1.54647,0.6351 z"
       inkscape:connector-curvature="0" />
    <path
       style="color:#000000;fill:#3c3400;fill-opacity:1;fill-rule:nonzero;stroke:#000000;stroke-width:1;marker:none;visibility:visible;display:inline;overflow:visible;enable-background:accumulate;stroke-linecap:butt;stroke-linejoin:miter;stroke-miterlimit:4;stroke-opacity:1;stroke-dasharray:none;stroke-dashoffset:0"
       id="path5399"
       d="m 491.29264,347.34714 c -0.65812,-1.38384 -1.40535,-2.7222 -2.08453,-4.09541 -0.3581,-0.74962 -0.78866,-1.47603 -1.01529,-2.28001 -0.0294,-0.7818 1.06684,-1.12817 1.62874,-1.43022 1.49992,-0.78745 3.01884,-1.5345 4.58117,-2.18961 1.27035,-0.53912 2.59097,-0.92347 3.93416,-1.22815 1.54011,-0.29931 3.07912,-0.60208 4.61474,-0.92402 1.99767,-0.38642 3.99544,-0.77175 5.98854,-1.1814 1.51808,-0.3326 3.03379,-0.66839 4.57637,-0.86446 1.39193,-0.15691 2.7943,-0.16144 4.19288,-0.13788 2.09897,0.0361 4.19612,0.01 6.29328,-0.0802 1.66399,-0.0794 3.3259,-0.19623 4.98975,-0.27801 0.73391,-0.0404 1.46824,-0.0558 2.20308,-0.0597 1.14747,-0.0159 2.2937,0.0311 3.43911,0.0937 1.27334,0.0754 2.53444,0.23968 3.7868,0.47742 1.46397,0.31484 2.84585,0.9389 4.16245,1.64179 0.7926,0.44307 1.47633,1.03242 2.07756,1.70749 0.66184,0.80707 1.00209,1.78089 1.19792,2.79182 0.13748,0.95727 0.20246,1.92792 0.1317,2.89331 -0.0154,0.60264 -0.25605,0.85457 -0.70866,1.18788 0,0 -0.47556,-0.1488 -0.47556,-0.1488 l 0,0 c -0.26252,-0.52144 -0.55774,-0.99822 -0.56789,-1.60568 -0.0938,-0.98555 -0.085,-1.98146 -0.25867,-2.95901 -0.20631,-1.00898 -0.49136,-1.96639 -1.20469,-2.74676 -0.61335,-0.65139 -1.30143,-1.22332 -2.09762,-1.64121 -0.77209,-0.38964 -0.62976,-0.30975 1.07571,0.44675 0.12114,0.0537 -0.24306,-0.10587 -0.36668,-0.1536 -0.42447,-0.16389 -0.86266,-0.29078 -1.3063,-0.39078 -1.23872,-0.25378 -2.49718,-0.40172 -3.76075,-0.45702 -1.13926,-0.0708 -2.27958,-0.14349 -3.42163,-0.13337 -0.74412,0.001 -1.48846,0.006 -2.23213,0.0334 -1.68247,0.0654 -3.3632,0.16519 -5.04497,0.24579 -2.0961,0.0936 -4.1925,0.11718 -6.2906,0.0916 -1.41061,0.0197 -2.82443,-0.007 -4.23083,0.12493 -1.55428,0.17193 -3.08254,0.48879 -4.60826,0.82798 -2.0108,0.4092 -4.03016,0.77461 -6.04742,1.15007 -1.57356,0.26485 -3.14999,0.51543 -4.71462,0.82993 -1.35135,0.28096 -2.69293,0.61567 -3.97032,1.14954 -1.54449,0.63685 -3.07399,1.31414 -4.54322,2.112 -0.44991,0.24819 -1.49338,0.58273 -1.50685,1.19748 0.22775,0.79543 0.61226,1.53241 0.98676,2.26653 0.72301,1.34112 1.4289,2.69299 2.10332,4.05902 0,0 -1.50655,-0.34324 -1.50655,-0.34324 z"
       inkscape:connector-curvature="0" />
    <path
       style="color:#000000;fill:#3c3400;fill-opacity:1;fill-rule:nonzero;stroke:#000000;stroke-width:1;marker:none;visibility:visible;display:inline;overflow:visible;enable-background:accumulate;stroke-opacity:1;stroke-miterlimit:4;stroke-dasharray:none;stroke-linecap:butt;stroke-linejoin:miter;stroke-dashoffset:0"
       id="path5401"
       d="m 547.86701,341.39739 c -0.38273,-1.20407 -0.31208,-2.38242 0.13309,-3.54741 0.37583,-0.83398 1.02736,-1.44672 1.74031,-1.99191 0.55748,-0.45859 1.20483,-0.77345 1.85891,-1.0667 0.70988,-0.30432 1.45365,-0.50525 2.20928,-0.65558 1.15666,-0.20893 2.33423,-0.24074 3.50487,-0.30945 1.66643,-0.11967 3.33539,-0.20529 5.00471,-0.27336 1.52262,-0.0505 3.04617,-0.066 4.56946,-0.0829 1.4363,-0.0532 2.87,0.0278 4.30473,0.063 1.30747,0.0218 2.61503,0.0364 3.92135,0.0983 1.00489,0.0524 2.0083,0.1266 3.00748,0.24627 0.84378,0.0905 1.65649,0.32538 2.45575,0.60015 0.94607,0.35545 1.92328,0.60851 2.90489,0.84241 1.48886,0.32892 2.97112,0.76333 4.2848,1.57033 0.48067,0.33347 0.72815,0.87049 1.06713,1.3274 0.43397,0.66798 0.87338,1.3271 1.22858,2.04118 0.50105,1.08622 0.61974,2.26996 0.69337,3.44811 0.0991,1.20676 0.0803,2.40991 -0.14048,3.60088 -0.1521,0.64 -0.35807,1.29223 -0.91309,1.68595 -0.27743,0.0652 -0.14128,0.0561 -0.40783,0.0352 0,0 -0.92809,-0.29783 -0.92809,-0.29783 l 0,0 c -0.19152,-0.0928 -0.11316,-0.0252 -0.23338,-0.20482 0.008,-0.63174 0.41878,-1.17672 0.48394,-1.80428 0.2204,-1.19208 0.24343,-2.39734 0.15982,-3.60636 -0.0923,-1.16764 -0.18526,-2.36343 -0.70089,-3.43458 -0.36337,-0.70545 -0.81215,-1.35629 -1.23762,-2.02511 -0.26105,-0.49888 -0.56632,-0.98335 -1.05653,-1.28584 -0.69337,-0.3687 -0.69658,-0.35966 1.25203,0.49166 0.12555,0.0549 -0.2563,-0.0973 -0.38672,-0.13922 -0.47486,-0.15276 -0.96456,-0.25093 -1.44827,-0.36989 -0.98271,-0.2306 -1.96599,-0.46631 -2.9124,-0.82322 -0.79772,-0.27846 -1.60054,-0.54647 -2.44505,-0.64264 -1.00277,-0.12959 -2.01026,-0.21159 -3.01965,-0.26976 -1.31571,-0.0755 -2.63301,-0.0926 -3.95036,-0.12126 -1.463,-0.0362 -2.92712,-0.0371 -4.39064,-0.053 -1.54958,-0.008 -3.0993,-0.0101 -4.64857,0.0284 -1.68427,0.0419 -3.36666,0.12318 -5.04909,0.21049 -1.21546,0.0707 -2.43278,0.11705 -3.64653,0.20756 -0.77469,0.11025 -1.54556,0.26291 -2.26427,0.58479 -0.6534,0.26984 -1.29176,0.57573 -1.88287,0.96656 -0.7028,0.52496 -1.35073,1.10392 -1.73205,1.91419 -0.4557,1.10323 -0.45794,2.21638 -0.0911,3.35597 0,0 -1.299,-0.31355 -1.299,-0.31355 z"
       inkscape:connector-curvature="0" />
    <path
       style="color:#000000;fill:#3c3400;fill-opacity:1;fill-rule:nonzero;stroke:#000000;stroke-width:1;marker:none;visibility:visible;display:inline;overflow:visible;enable-background:accumulate;stroke-linecap:butt;stroke-linejoin:miter;stroke-miterlimit:4;stroke-opacity:1;stroke-dasharray:none;stroke-dashoffset:0"
       id="path5403"
       d="m 592.87057,340.64533 c 1.45744,-0.80753 3.02622,-1.3246 4.6434,-1.69351 1.47226,-0.29606 2.97256,-0.40041 4.47045,-0.45333 1.10248,-0.03 2.20544,-0.033 3.30822,-0.0417 1.09195,-0.0163 2.1832,0.0141 3.27408,0.0589 1.23817,0.0562 2.47771,0.0714 3.71698,0.0769 1.17577,-0.001 2.35054,-0.0142 3.52427,0.0629 1.01255,0.0502 1.98347,0.32587 2.96375,0.55031 0.88535,0.20786 1.76628,0.43409 2.6463,0.66331 1.54214,0.40838 3.07603,0.87635 4.54852,1.4934 0.5727,0.22205 1.04975,0.55389 1.44074,1.02579 0.27695,0.38764 0.50536,0.79976 0.73191,1.21833 0.21558,0.39492 0.41585,0.7938 0.56414,1.21837 0.18374,0.54312 0.38025,1.08142 0.55237,1.62842 0.2548,0.76031 0.44663,1.53544 0.57911,2.32564 0.1945,0.97713 0.0957,1.81325 -0.41013,2.66907 -1.238,1.44855 -3.14451,1.80642 -4.91246,2.20574 -2.30004,0.47264 -4.64999,0.59352 -6.97817,0.86159 0,0 -0.18965,-0.0606 -0.18965,-0.0606 l 0,0 c 1.75114,-0.54995 3.50783,-1.07445 5.32187,-1.38198 1.6451,-0.42656 3.45465,-0.90524 4.65489,-2.18439 0.51434,-0.78533 0.57659,-1.59442 0.40253,-2.51132 -0.12621,-0.78084 -0.33546,-1.54154 -0.57936,-2.29368 -0.17701,-0.54316 -0.3711,-1.08042 -0.5567,-1.62068 -0.16159,-0.42677 -0.31288,-0.85704 -0.54943,-1.25027 -0.23059,-0.42749 -0.41875,-0.88163 -0.71252,-1.26791 -0.3936,-0.4197 -0.88711,-0.72208 -1.41133,-0.95367 -0.84938,-0.33847 -0.58424,-0.22517 1.16452,0.37072 0.14486,0.0494 -0.28996,-0.098 -0.43599,-0.14382 -0.22943,-0.072 -0.69179,-0.20484 -0.92276,-0.26829 -0.15424,-0.0424 -0.30918,-0.0822 -0.46377,-0.1233 -0.88795,-0.23331 -1.776,-0.46668 -2.66864,-0.68148 -0.98604,-0.23079 -1.99081,-0.39885 -2.99531,-0.52749 -1.18951,-0.0984 -2.3813,-0.0989 -3.5743,-0.10417 -1.26424,-0.0198 -2.52846,-0.0438 -3.79136,-0.10909 -1.10004,-0.0523 -2.20056,-0.0858 -3.30201,-0.0824 -1.14046,-0.0164 -2.28107,-0.0344 -3.42168,-0.0242 -1.52489,0.0255 -3.05442,0.0776 -4.55556,0.37427 -1.6456,0.34364 -3.257,0.83356 -4.76489,1.58944 0,0 -1.31203,-0.61591 -1.31203,-0.61591 z"
       inkscape:connector-curvature="0" />
    <path
       style="color:#000000;fill:#3c3400;fill-opacity:1;fill-rule:nonzero;stroke:#000000;stroke-width:1;marker:none;visibility:visible;display:inline;overflow:visible;enable-background:accumulate;stroke-linecap:butt;stroke-linejoin:miter;stroke-miterlimit:4;stroke-opacity:1;stroke-dasharray:none;stroke-dashoffset:0"
       id="path5405"
       d="m 499.42604,366.14948 c -0.12424,1.62441 0.0421,3.24185 0.31774,4.84107 0.21711,1.0905 0.50977,2.17298 0.99642,3.17594 1.00309,1.12318 -0.78631,0.48644 -0.71092,-0.2398 0.0406,-0.84265 -0.2114,-1.65563 -0.57336,-2.40598 -0.36954,-0.74041 -0.90465,-1.37304 -1.41425,-2.01806 -0.36227,-0.42874 -0.68638,-0.88674 -0.94753,-1.38359 -0.14172,-0.29808 -0.27181,-0.60101 -0.34687,-0.92307 -0.0551,-0.34587 -0.0407,-0.67921 0.0651,-1.01243 0.36222,-0.74253 1.10559,-1.09866 1.82454,-1.41789 1.44231,-0.52139 2.93171,-0.90387 4.40774,-1.31719 1.74314,-0.47244 3.47025,-1.00254 5.22844,-1.41733 1.13677,-0.23451 2.2885,-0.36996 3.44783,-0.40836 0.68581,-0.008 1.36895,0.0603 2.0526,0.10383 0.82458,-0.0147 1.1775,0.18402 2.03811,0.52828 0.14307,0.61728 0.0969,1.27032 0.0798,1.90021 -0.0472,0.47995 -0.14724,0.93202 -0.4208,1.32903 0,0 -0.3349,-0.0805 -0.3349,-0.0805 l 0,0 c -0.24133,-0.47889 -0.35775,-0.98632 -0.3918,-1.5242 -0.006,-0.60966 0.0506,-1.24311 -0.10108,-1.83747 2.09069,0.40927 0.69001,0.0943 0.17457,0.12422 -0.69038,-0.0471 -1.37988,-0.11719 -2.07234,-0.12311 -1.17216,0.0209 -2.34515,0.13805 -3.48855,0.40422 -1.76493,0.40326 -3.49911,0.92355 -5.24317,1.40713 -1.4728,0.4131 -2.95766,0.79479 -4.40074,1.30456 -0.69372,0.29455 -1.4235,0.62918 -1.77928,1.337 -0.10185,0.31624 -0.10211,0.63601 -0.0373,0.9619 0.0613,0.30877 0.1793,0.60229 0.3142,0.88594 0.25597,0.48855 0.57778,0.93464 0.92867,1.3597 0.53241,0.66323 1.08288,1.32182 1.50539,2.0625 0.36911,0.78913 0.6873,1.59217 0.62588,2.48321 -0.0749,0.85838 -1.39493,0.32147 -1.49368,-0.32388 -0.44435,-1.01948 -0.73678,-2.09535 -0.93208,-3.18945 -0.26086,-1.60741 -0.38047,-3.22793 -0.29834,-4.85725 0,0 0.97992,0.27079 0.97992,0.27079 z"
       inkscape:connector-curvature="0" />
    <path
       style="color:#000000;fill:#3c3400;fill-opacity:1;fill-rule:nonzero;stroke:none;stroke-width:4;marker:none;visibility:visible;display:inline;overflow:visible;enable-background:accumulate"
       id="path5407"
       d="m 504.18763,373.3868 c 1.49103,-1.00152 3.17344,-1.64091 4.85237,-2.24741 1.00838,-0.32175 2.02885,-0.70543 3.09812,-0.73783 0.0638,-0.001 0.12757,-0.003 0.19136,-0.004 0,0 0.065,0.0277 0.065,0.0277 l 0,0 c -0.0266,0.0171 -0.0532,0.0342 -0.0798,0.0513 -0.71021,0.52606 -1.74435,0.52213 -2.49466,0.98041 -1.58764,0.65042 -3.16717,1.36364 -4.59653,2.32067 0,0 -1.03593,-0.39065 -1.03593,-0.39065 z"
       inkscape:connector-curvature="0" />
    <path
       style="color:#000000;fill:#3c3400;fill-opacity:1;fill-rule:nonzero;stroke:#000000;stroke-width:1;marker:none;visibility:visible;display:inline;overflow:visible;enable-background:accumulate;stroke-linecap:butt;stroke-linejoin:miter;stroke-miterlimit:4;stroke-opacity:1;stroke-dasharray:none;stroke-dashoffset:0"
       id="path5409"
       d="m 563.8651,359.09975 c 0.12546,1.58955 0.3206,3.17268 0.50499,4.75622 0.0775,0.46094 0.10914,0.93223 0.20478,1.39044 0.0268,0.12853 0.23512,0.42361 0.11216,0.37758 -0.11161,-0.0418 -0.18786,-0.14669 -0.28179,-0.22003 0.29305,-0.89243 0.19064,-1.85591 0.0685,-2.7694 -0.13236,-0.95879 -0.44518,-1.87133 -0.7522,-2.78398 -0.093,-0.40652 -0.30474,-0.8526 -0.12613,-1.25571 0.78308,-0.63763 1.98153,-0.68367 2.94442,-0.83037 2.20094,-0.3057 4.42172,-0.45096 6.64289,-0.43702 2.61311,0.10882 5.05097,0.96118 7.04762,2.63613 1.26049,1.23066 2.05203,2.79499 2.51035,4.4782 0.11778,0.70465 0.0842,0.36798 0.11365,1.00863 0,0 -0.35248,-0.067 -0.35248,-0.067 l 0,0 c -0.39541,-0.69348 -0.20218,-0.3296 -0.57524,-1.094 -0.69256,-1.5983 -1.32871,-3.24431 -2.64772,-4.45118 -1.58444,-1.31629 -3.19718,-2.1505 -5.30033,-2.16543 -2.24407,-0.0308 -4.49163,0.088 -6.71659,0.39154 -1.02497,0.15028 -2.14198,0.21299 -3.06958,0.70914 -0.28791,0.33577 -0.0384,0.79244 0.0254,1.18212 0.18336,0.90887 0.42619,1.80931 0.51622,2.73407 0.0609,0.93098 0.0471,1.86987 -0.0272,2.79929 -0.15283,0.0202 -0.30625,0.0849 -0.45849,0.0606 -0.18009,-0.0287 -0.65298,-1.6799 -0.69144,-1.85926 -0.37401,-1.59124 -0.60363,-3.2071 -0.75424,-4.83457 0,0 1.06249,0.24401 1.06249,0.24401 z"
       inkscape:connector-curvature="0" />
    <path
       style="color:#000000;fill:#3c3400;fill-opacity:1;fill-rule:nonzero;stroke:none;stroke-width:4;marker:none;visibility:visible;display:inline;overflow:visible;enable-background:accumulate"
       id="path5411"
       d="m 566.14792,366.97051 c 2.1959,-0.0541 4.37012,0.14586 6.52222,0.56955 2.07287,0.53228 1.21542,0.24888 2.60166,0.75582 0,0 -0.38425,-0.0356 -0.38425,-0.0356 l 0,0 c -1.20312,-0.34607 -0.73058,-0.23807 -1.40325,-0.38147 -2.08127,-0.37201 -4.18677,-0.57117 -6.30371,-0.50102 0,0 -1.03267,-0.40724 -1.03267,-0.40724 z"
       inkscape:connector-curvature="0" />
    <path
       style="color:#000000;fill:#3c3400;fill-opacity:1;fill-rule:nonzero;stroke:none;stroke-width:4;marker:none;visibility:visible;display:inline;overflow:visible;enable-background:accumulate"
       id="path5413"
       d="m 582.49424,364.77608 c -0.0173,0.85801 -0.002,0.41027 -0.048,1.34312 0,0 -0.14147,-0.0291 -0.14147,-0.0291 l 0,0 c -0.3583,-1.01454 -0.18487,-0.52873 -0.51952,-1.45772 0,0 0.70902,0.14375 0.70902,0.14375 z"
       inkscape:connector-curvature="0" />
    <path
       style="color:#000000;fill:#3c3400;fill-opacity:1;fill-rule:nonzero;stroke:#000000;stroke-width:1;marker:none;visibility:visible;display:inline;overflow:visible;enable-background:accumulate;stroke-linecap:butt;stroke-linejoin:miter;stroke-miterlimit:4;stroke-opacity:1;stroke-dasharray:none;stroke-dashoffset:0"
       id="path5415"
       d="m 601.08129,379.42039 c 0.0885,-1.33562 0.17648,-2.67175 0.31046,-4.0037 0.0779,-0.86476 0.25132,-1.71479 0.48178,-2.55051 0.0892,-0.34858 0.24185,-0.55845 0.58106,-0.67153 0.61922,-0.12745 1.24002,-0.24866 1.8609,-0.36813 0.96925,-0.20489 1.95766,-0.28054 2.94495,-0.33035 1.22907,-0.0637 2.4215,0.24499 3.58275,0.62701 0.76183,0.2999 1.53394,0.56628 2.32155,0.78967 0.75005,0.20991 1.52223,0.34528 2.1988,0.74584 0.56702,0.41779 0.73832,1.08398 0.92164,1.72833 0.11407,0.56463 0.27807,1.06796 0.67086,1.49502 0.45744,0.41598 0.96038,0.77795 1.42844,1.1824 0.41246,0.33936 0.74511,0.74575 0.98638,1.22052 0.19592,0.47087 0.3246,0.96377 0.55379,1.42062 0.23274,0.36987 0.50339,0.69988 0.66765,1.10779 0.17682,0.56163 0.17537,1.15122 0.15091,1.73295 0.0437,0.57102 -0.21556,1.06783 -0.36747,1.59982 -0.0209,0.0795 -0.0418,0.15895 -0.0628,0.23842 0,0 -0.0697,-0.0121 -0.0697,-0.0121 l 0,0 c -0.0204,-0.0888 -0.0408,-0.17749 -0.0612,-0.26624 -0.14554,-0.58227 -0.3914,-1.13878 -0.38101,-1.75069 -0.0603,-0.57586 -0.0965,-1.16299 -0.27222,-1.71761 -0.17087,-0.39478 -0.45244,-0.71147 -0.66358,-1.08355 -0.22489,-0.45988 -0.36096,-0.95076 -0.56429,-1.41963 -0.25365,-0.46939 -0.61059,-0.8451 -1.02292,-1.18279 -0.47835,-0.40308 -0.99142,-0.76509 -1.44173,-1.20047 -0.37146,-0.44929 -0.53271,-0.97899 -0.65952,-1.54317 -0.18148,-0.62898 -0.3626,-1.29642 -0.94108,-1.67679 -0.70802,-0.36167 -1.48925,-0.50862 -2.24951,-0.72507 -0.77919,-0.22784 -1.54277,-0.49796 -2.29961,-0.79138 -0.44771,-0.14152 -0.77846,-0.2361 0.3785,0.0592 0.13224,0.0338 -0.26573,-0.0632 -0.40021,-0.0865 -0.44588,-0.0771 -0.89971,-0.0957 -1.35128,-0.0813 -0.99185,0.0422 -1.98531,0.10609 -2.95995,0.30695 -0.62995,0.12633 -1.25978,0.25662 -1.8961,0.34726 -0.3386,0.0691 -0.48585,0.2147 -0.57269,0.5613 -0.25781,0.82004 -0.44216,1.66206 -0.58256,2.50973 -0.20772,1.31474 -0.35883,2.63539 -0.48107,3.96078 0,0 -0.73995,-0.17213 -0.73995,-0.17213 z"
       inkscape:connector-curvature="0" />
    <path
       style="color:#000000;fill:#3c3400;fill-opacity:1;fill-rule:nonzero;stroke:none;stroke-width:4;marker:none;visibility:visible;display:inline;overflow:visible;enable-background:accumulate"
       id="path5417"
       d="m 614.35088,391.56306 c 1.25632,-1.43515 2.64204,-2.73173 4.14792,-3.89911 0.21031,-0.16296 0.42063,-0.32592 0.63094,-0.48889 0,0 0.0688,0.0165 0.0688,0.0165 l 0,0 c -0.13612,0.18084 -0.27223,0.36168 -0.40835,0.54252 -1.09147,1.42422 -2.32188,2.72177 -3.53654,4.04009 0,0 -0.90272,-0.21115 -0.90272,-0.21115 z"
       inkscape:connector-curvature="0" />
    <path
       style="color:#000000;fill:#3c3400;fill-opacity:1;fill-rule:nonzero;stroke:#000000;stroke-width:1;marker:none;visibility:visible;display:inline;overflow:visible;enable-background:accumulate;stroke-linecap:butt;stroke-linejoin:miter;stroke-miterlimit:4;stroke-opacity:1;stroke-dasharray:none;stroke-dashoffset:0"
       id="path5419"
       d="m 606.13854,274.95503 c -0.71698,-0.62942 -1.45303,-1.24775 -2.29058,-1.71081 -2.01447,-0.70115 2.90929,0.63032 0.88523,0.31365 -0.17424,-0.0232 -0.34962,-0.0273 -0.52507,-0.0242 -0.20815,0.005 -0.41635,0.006 -0.62456,0.008 -0.30266,0.004 -0.60556,-0.004 -0.90799,0.01 -0.30113,0.0144 -0.58191,0.11874 -0.85834,0.23 -0.45468,0.1929 -0.89474,0.41709 -1.33432,0.64159 -0.52538,0.26262 -1.02884,0.55709 -1.5038,0.9025 -0.5667,0.40889 -1.05086,0.9093 -1.51229,1.43034 -0.47233,0.52103 -0.87814,1.09313 -1.20505,1.71508 -0.24724,0.48199 -0.3988,0.99452 -0.46504,1.53016 -0.0597,0.54744 -0.0608,1.10434 -0.0206,1.65315 0.0756,0.77082 0.52918,1.29399 1.06322,1.80571 0.77932,0.66028 1.73897,1.01859 2.68685,1.35995 0.61176,0.36279 5.23232,1.25266 1.54432,0.51282 1.78388,0.29832 3.59608,0.34029 5.40019,0.37878 1.9115,0.046 3.82417,-0.0136 5.73496,0.053 1.85497,-0.004 3.70996,-0.003 5.56494,-0.007 2.08989,-0.005 4.18003,-0.006 6.26949,-0.0526 2.0053,-0.049 4.00257,-0.23294 5.99381,-0.46491 1.49517,-0.17792 2.98531,-0.39563 4.44014,-0.78876 0.91221,-0.27449 1.76942,-0.70344 2.58807,-1.18572 0.54488,-0.30978 1.0441,-0.69048 1.50861,-1.10994 0.41655,-0.40303 0.73463,-0.88376 1.00305,-1.39381 0.26185,-0.51175 0.39411,-1.06345 0.43942,-1.63283 0.10562,-0.73774 -0.0172,-1.39257 -0.33022,-2.06091 -0.59771,-1.05871 -1.53827,-1.84202 -2.47929,-2.58334 -1.72257,-1.30398 -3.67609,-2.1952 -5.67271,-2.98562 -0.44268,-0.14971 -0.8749,-0.33493 -1.32803,-0.44915 -0.26491,-0.0668 1.03318,0.31884 0.76029,0.30605 -0.52567,-0.0246 -1.02325,-0.24903 -1.54109,-0.34266 -1.6589,-0.29993 -3.35493,-0.43278 -5.03174,-0.58401 -3.17707,-0.23108 -6.36253,-0.12507 -9.54382,-0.0979 -1.67065,-0.0466 -0.84151,0.0133 -2.48757,-0.17781 0,0 -0.90271,-0.43895 -0.90271,-0.43895 l 0,0 c 0.87769,-0.27605 0.36913,-0.15734 1.54145,-0.28018 3.10587,-0.15692 6.22122,-0.24423 9.32715,-0.0344 3.96885,0.25608 7.82165,0.96492 11.53295,2.48316 1.99534,0.80632 3.99392,1.68287 5.72063,2.98829 0.95576,0.77018 1.90736,1.58641 2.47272,2.70009 0.29787,0.70765 0.40562,1.41745 0.29262,2.18313 -0.0803,0.56748 -0.18424,1.12865 -0.46299,1.63841 -0.28188,0.53178 -0.60756,1.04511 -1.04021,1.46858 -0.45635,0.43023 -0.9726,0.76592 -1.51178,1.08427 -0.8291,0.48733 -1.67569,0.92393 -2.61443,1.16347 -1.46556,0.40825 -2.96732,0.6343 -4.47674,0.81436 -1.99979,0.23572 -4.00553,0.43152 -6.02001,0.47876 -2.09115,0.0574 -4.18136,0.0243 -6.27294,0.0221 -1.86002,-0.002 -3.72005,0.001 -5.58007,0.002 -1.92623,0.0686 -3.85453,0.0208 -5.78157,0.0107 -1.80707,-0.035 -3.62128,-0.0713 -5.41137,-0.34486 -1.99323,-0.38133 -3.97186,-0.71046 -5.86552,-1.45633 -0.95678,-0.35941 -1.91728,-0.74856 -2.67734,-1.45569 -0.54651,-0.56698 -0.95328,-1.23528 -1.03615,-2.03358 -0.0365,-0.5899 -0.005,-1.17898 0.044,-1.76762 0.0888,-0.55665 0.23377,-1.09984 0.50052,-1.60077 0.34048,-0.63333 0.73977,-1.22988 1.22307,-1.76476 0.47035,-0.53016 0.95649,-1.0516 1.52694,-1.4767 0.48892,-0.35464 0.99437,-0.68812 1.53284,-0.96354 0.43861,-0.23182 0.8802,-0.45819 1.33429,-0.6586 0.28469,-0.13221 0.57658,-0.25799 0.89042,-0.29982 0.30681,-0.0308 0.61435,-0.0202 0.92235,-0.0204 0.21165,5.8e-4 0.42333,8e-4 0.63497,-5.5e-4 0.1829,-0.002 0.36616,-0.0106 0.54877,0.004 1.13364,0.0812 2.23746,0.50821 3.24076,1.03056 0.79691,0.50571 1.51138,1.12646 2.2248,1.7416 0,0 -2.0779,-0.41587 -2.0779,-0.41587 z"
       inkscape:connector-curvature="0" />
    <path
       style="color:#000000;fill:#3c3400;fill-opacity:1;fill-rule:nonzero;stroke:#000000;stroke-width:1;marker:none;visibility:visible;display:inline;overflow:visible;enable-background:accumulate;stroke-linecap:butt;stroke-linejoin:miter;stroke-miterlimit:4;stroke-opacity:1;stroke-dasharray:none;stroke-dashoffset:0"
       id="path5431"
       d="m 594.77181,283.22073 c -0.54881,1.29025 -0.8176,2.67182 -0.9758,4.0582 -0.15957,1.22363 -0.0806,2.44002 0.13778,3.64838 0.28343,1.44456 0.73632,2.84795 1.21939,4.23614 0.54097,1.48467 1.2328,2.90826 1.90712,4.33552 0.63985,1.39635 1.35868,2.75099 2.16539,4.05759 0.87474,1.37864 1.97977,2.58656 3.06139,3.80225 1.10278,1.25673 2.25041,2.47145 3.45418,3.63156 0.98907,0.93885 2.07265,1.76837 3.18872,2.54884 0.81099,0.56832 1.66663,1.06602 2.54411,1.5231 0.54742,0.2705 1.08927,0.55221 1.63764,0.82079 0.33402,0.16995 0.69572,0.27161 1.04381,0.40648 0.1314,0.0627 0.23988,0.14006 0.38306,0.15357 1.40043,0.0618 -3.71265,-0.29569 -1.4894,-0.18996 0.31713,0.0233 0.63171,-0.005 0.94854,-0.003 0.32861,-0.005 0.65775,0.0199 0.98357,-0.0276 0.54948,-0.0173 1.0527,-0.22912 1.55695,-0.43249 0.64989,-0.29332 1.26308,-0.65933 1.87582,-1.02196 0.72126,-0.42673 1.4208,-0.88841 2.10611,-1.37038 0.9187,-0.62193 1.82013,-1.26859 2.71946,-1.91894 0.91854,-0.66901 1.83731,-1.33771 2.75629,-2.00613 0.77061,-0.56068 1.52124,-1.14721 2.24918,-1.76211 0.8973,-0.75878 1.74342,-1.57469 2.57885,-2.40022 0.79199,-0.76943 1.56624,-1.55557 2.28878,-2.39082 0.69443,-0.80623 1.21312,-1.73553 1.68951,-2.68107 0.51917,-1.07445 0.99102,-2.17227 1.44568,-3.2755 0.53764,-1.26509 0.85386,-2.59784 1.09486,-3.94603 0.27176,-1.66821 0.31455,-3.36095 0.34035,-5.04737 0.0409,-1.32073 -10e-4,-2.6451 0.0836,-3.96424 -0.0352,-0.73028 0.22333,-0.82093 0.90833,-0.81836 0,0 0.3332,0.0435 0.3332,0.0435 l 0,0 c 0.65143,0.17706 1.09488,0.31448 1.0791,1.067 0.088,1.29992 0.0522,2.6053 0.0519,3.90719 -0.0408,1.69874 -0.0757,3.40433 -0.34064,5.08636 -0.23934,1.33974 -0.57344,2.6585 -1.09551,3.91924 -0.44968,1.11261 -0.90966,2.22022 -1.44326,3.29601 -0.48887,0.95892 -1.00225,1.91082 -1.69693,2.74022 -0.72084,0.84516 -1.49892,1.63677 -2.29619,2.40995 -0.83622,0.82921 -1.67975,1.6522 -2.57253,2.42103 -0.73333,0.61764 -1.48174,1.21617 -2.25821,1.77911 -0.92291,0.66679 -1.84891,1.32938 -2.76447,2.00629 -0.92192,0.65212 -1.8386,1.31035 -2.73384,1.99795 -0.68667,0.48286 -1.376,0.96387 -2.09926,1.39106 -0.6196,0.36928 -1.23772,0.74652 -1.89238,1.05118 -0.51159,0.23442 -1.0465,0.43063 -1.5846,0.58556 -0.32431,0.0153 -0.64859,0.0177 -0.97324,0.0155 -0.31789,0.001 -0.63275,-0.0306 -0.95127,-0.0279 -1.12755,-0.0326 -2.28727,-0.053 -3.37261,-0.35539 -0.0969,-0.0697 -0.19607,-0.13264 -0.31183,-0.16853 -0.34324,-0.1311 -0.68755,-0.26106 -1.01447,-0.43015 -0.53297,-0.27233 -1.06301,-0.55031 -1.59334,-0.82771 -0.86044,-0.47089 -1.69715,-0.9832 -2.49671,-1.55229 -1.1078,-0.79202 -2.17724,-1.63775 -3.15842,-2.58438 -1.18374,-1.16953 -2.31679,-2.3878 -3.40517,-3.64679 -1.07929,-1.22187 -2.16683,-2.44954 -3.02726,-3.8406 -0.79054,-1.32673 -1.47887,-2.70785 -2.12112,-4.11221 -0.65581,-1.43202 -1.31036,-2.8671 -1.8395,-4.35208 -0.48898,-1.41706 -0.90586,-2.85837 -1.18962,-4.33168 -0.18937,-1.23169 -0.20539,-2.45346 0.01,-3.68661 0.22605,-1.41723 0.5295,-2.8241 1.09658,-4.14975 0,0 1.75822,0.38278 1.75822,0.38278 z"
       inkscape:connector-curvature="0" />
    <path
       style="color:#000000;fill:#3c3400;fill-opacity:1;fill-rule:nonzero;stroke:none;stroke-width:4;marker:none;visibility:visible;display:inline;overflow:visible;enable-background:accumulate"
       id="path5433"
       d="m 613.06291,284.60975 c -0.31121,-0.60292 -0.75254,-1.21228 -1.4668,-1.34734 -0.15238,-0.0288 -0.61624,-0.0468 -0.46509,-0.0121 0.46784,0.1074 0.94752,0.15442 1.42129,0.23163 -0.81572,0.32392 -1.28854,1.07937 -1.25755,1.94591 0.28194,0.79831 1.13185,0.95026 1.87445,1.07718 -3.21516,-0.33616 -1.57757,0.0498 -0.98914,-0.19848 0.35404,-0.14941 0.67314,-0.45246 0.97709,-0.6767 0.13161,-0.12565 0.26322,-0.2513 0.39482,-0.37695 0,0 0.66858,0.0435 0.66858,0.0435 l 0,0 c 0.0341,0.14001 0.0683,0.28002 0.10237,0.42003 0.42804,1.72689 -2.45876,1.01459 -3.14627,0.94106 -0.81321,-0.1798 -1.61667,-0.45868 -1.79036,-1.37639 0.004,-0.94798 0.44181,-1.77082 1.31198,-2.20245 2.12172,0.0369 3.1941,-0.36891 4.1681,1.5994 0,0 -1.80347,-0.0682 -1.80347,-0.0682 z"
       inkscape:connector-curvature="0" />
    <path
       style="color:#000000;fill:#3c3400;fill-opacity:1;fill-rule:nonzero;stroke:none;stroke-width:4;marker:none;visibility:visible;display:inline;overflow:visible;enable-background:accumulate"
       id="path5437"
       d="m 623.75047,270.40677 c -0.8133,-1.00537 -1.07482,-2.10908 -0.66248,-3.32935 0.89362,-1.66877 2.28604,-1.60589 4.04616,-1.74496 1.23251,0.60209 1.6625,2.02154 2.019,3.2497 0.05,0.19136 0.50367,1.87013 0.1291,1.91736 -0.47842,0.0603 -0.96424,0.018 -1.44636,0.027 0.0635,-0.0817 0.12698,-0.16333 0.19047,-0.24499 0,0 0.0694,-0.0133 0.0694,-0.0133 l 0,0 c 0.21317,0.0244 0.42634,0.0488 0.6395,0.0732 -0.34013,0.083 -0.674,0.19808 -1.02038,0.24908 -0.0212,0.003 -0.2944,-1.62239 -0.33858,-1.79216 -0.30817,-1.15888 -0.66354,-2.59514 -1.9157,-3.04264 2.67578,-0.42155 0.0758,-0.21372 -0.65107,1.22224 -0.45715,1.15533 -0.17102,2.21449 0.63918,3.15047 0,0 -1.69828,0.27835 -1.69828,0.27835 z"
       inkscape:connector-curvature="0" />
    <path
       style="color:#000000;fill:#3c3400;fill-opacity:1;fill-rule:nonzero;stroke:none;stroke-width:4;marker:none;visibility:visible;display:inline;overflow:visible;enable-background:accumulate"
       id="path5439"
       d="m 609.38644,284.92607 c 7.2e-4,-1.18941 -0.0345,-2.37848 -0.056,-3.56766 -0.0252,-1.0908 0.12955,-2.16895 0.32053,-3.23926 0.2778,-1.44865 0.55686,-2.89657 0.81829,-4.34827 0.35377,-2.15672 0.57221,-4.33094 0.7675,-6.50663 0.2857,-3.10327 0.47378,-6.21344 0.65297,-9.32422 0.22859,-4.07998 0.47654,-8.15883 0.73074,-12.23729 0.29735,-5.05284 0.51676,-10.1098 0.79237,-15.16383 0.24141,-4.75344 0.52229,-9.50418 0.8936,-14.24927 0.27373,-2.69888 0.39746,-5.4213 0.78886,-8.10737 0.0533,-0.43961 0.15737,-0.73682 0.51113,-0.98955 0,0 0.0706,0.005 0.0706,0.005 l 0,0 c 0.31734,0.29756 0.39155,0.60665 0.39101,1.05062 0.0548,2.71504 -0.24814,5.4277 -0.38578,8.13611 -0.31272,4.71918 -0.60715,9.43957 -0.86563,14.16206 -0.2577,5.0551 -0.48573,10.11175 -0.7796,15.16495 -0.23483,4.04943 -0.46115,8.09935 -0.7026,12.14839 -0.18495,3.09955 -0.40078,6.19795 -0.71428,9.28749 -0.23375,2.17193 -0.45982,4.34688 -0.82918,6.50096 -0.24317,1.46285 -0.56725,2.90869 -0.89008,4.35568 -0.19027,1.05798 -0.34074,2.12304 -0.34309,3.20069 -0.0374,1.18215 -0.0603,2.36521 -0.0633,3.54792 0,0 -1.10803,0.17368 -1.10803,0.17368 z"
       inkscape:connector-curvature="0" />
    <path
       style="color:#000000;fill:#3c3400;fill-opacity:1;fill-rule:nonzero;stroke:none;stroke-width:4;marker:none;visibility:visible;display:inline;overflow:visible;enable-background:accumulate"
       id="path5441"
       d="m 627.64826,264.17026 c -0.50367,-1.58037 -0.95494,-3.17657 -1.39194,-4.77644 -0.56725,-2.18555 -0.95538,-4.41164 -1.30494,-6.64062 -0.38267,-2.40485 -0.62458,-4.8289 -0.86741,-7.25093 -0.25666,-2.66348 -0.63752,-5.31178 -1.05639,-7.95383 -0.39035,-2.38151 -0.7587,-4.76595 -1.09946,-7.15504 -0.21818,-1.82569 -0.56272,-3.62772 -0.98411,-5.41603 -0.4324,-1.66745 -0.91091,-3.3223 -1.32705,-4.994 -0.26193,-1.09738 -0.53309,-2.19399 -0.72763,-3.30574 -0.13603,-0.89043 -0.15142,-1.79292 -0.18815,-2.69127 -0.0135,-0.92282 -0.14714,-1.83186 -0.33624,-2.73274 -0.16637,-0.67351 -0.27651,-1.35644 -0.34354,-2.04631 -0.0222,-0.59712 0.0793,-1.05756 0.72156,-1.11899 0,0 0.0706,0.004 0.0706,0.004 l 0,0 c 0.63269,0.13024 0.8048,0.58319 0.8534,1.2023 0.0512,0.68455 0.17033,1.35754 0.31149,2.02901 0.14491,0.90995 0.19644,1.82761 0.19596,2.74887 0.0209,0.89163 0.0263,1.78678 0.15681,2.67107 0.16116,1.10336 0.34419,2.20412 0.60507,3.289 0.41439,1.66946 0.88243,3.32462 1.29333,4.99493 0.40414,1.78928 0.67289,3.60199 0.89045,5.42303 0.31963,2.37624 0.67831,4.74702 1.04764,7.11599 0.38211,2.63494 0.75085,5.27252 0.98719,7.9254 0.2372,2.4084 0.45224,4.82011 0.79514,7.21655 0.33224,2.21307 0.67764,4.42562 1.15838,6.61232 0.34962,1.60283 0.74785,3.19392 1.21574,4.76672 0,0 -0.67591,0.083 -0.67591,0.083 z"
       inkscape:connector-curvature="0" />
    <path
       style="color:#000000;fill:#3c3400;fill-opacity:1;fill-rule:nonzero;stroke:none;stroke-width:4;marker:none;visibility:visible;display:inline;overflow:visible;enable-background:accumulate"
       id="path5443"
       d="m 620.71839,204.79533 c 0.46949,0.0609 0.9442,0.09 1.40846,0.18267 0.22539,0.045 -0.45861,-0.0345 -0.6884,-0.0389 -0.92158,-0.0178 -1.766,0.12777 -2.64096,0.40313 -1.29645,0.46248 -2.26931,1.35921 -3.03393,2.47611 -0.50104,0.92867 -0.9993,2.0209 -0.43842,3.01559 0.51154,0.3278 2.36758,1.20497 -0.74608,0.23719 -0.21497,-0.0668 0.45105,-0.0424 0.66695,-0.10617 0.64302,-0.18987 0.86808,-0.4044 1.4264,-0.77691 1.33366,-1.02037 1.99898,-2.53803 2.76592,-3.97364 0.48312,-0.53432 0.24129,-0.29843 0.71526,-0.71802 0,0 0.26624,0.0265 0.26624,0.0265 l 0,0 c 0.5421,0.48456 0.31693,0.19896 0.66522,0.86484 -0.0555,1.68237 -1.03571,3.08829 -2.26762,4.17858 -1.64873,1.19196 -4.02545,1.87353 -5.67332,0.13108 -0.51814,-1.10388 -0.0614,-2.22807 0.48927,-3.24395 0.78361,-1.15586 1.77555,-2.0954 3.09849,-2.60767 2.00632,-0.65632 3.96388,-0.48831 6.04312,-0.11893 0,0 -2.0566,0.0685 -2.0566,0.0685 z"
       inkscape:connector-curvature="0" />
    <path
       style="color:#000000;fill:#3c3400;fill-opacity:1;fill-rule:nonzero;stroke:none;stroke-width:4;marker:none;visibility:visible;display:inline;overflow:visible;enable-background:accumulate"
       id="path5445"
       d="m 616.93861,205.42728 c -0.0801,-1.01534 -0.0465,-2.03379 0.064,-3.04505 0.0473,-0.43078 0.0983,-0.85964 0.0987,-1.29344 -0.008,-0.52614 0.0156,-1.05203 -0.13376,-1.56024 -0.29836,-0.64649 -0.86993,-1.10796 -1.36863,-1.59763 -0.58952,-0.57318 -1.15731,-1.16358 -1.50543,-1.91538 -0.37385,-0.97792 -0.16461,-1.95137 0.12692,-2.91701 0.4285,-1.26668 1.09383,-2.42986 1.68866,-3.62151 0.26138,-0.56139 0.59965,-1.08844 0.29913,-1.68443 -0.60201,-0.80929 -1.16872,-1.63272 -1.65803,-2.51558 -0.83945,-1.56028 -1.07379,-3.30147 -1.24265,-5.03767 -0.13146,-1.93082 -0.14955,-3.867 -0.15996,-5.8016 0.0166,-0.93684 0.0169,-1.87387 0.0261,-2.81082 -1.5e-4,-0.58443 -0.006,-1.16896 0.005,-1.7533 -0.004,-0.8605 0.003,-1.72112 0.006,-2.58166 -0.0263,-1.24306 0.008,-2.47539 0.15759,-3.70971 0.16518,-1.13902 0.47358,-2.24922 0.71458,-3.37286 0.13951,-0.59379 0.21284,-1.19799 0.24346,-1.80616 0.0173,-0.47472 0.012,-0.93928 -0.0656,-1.4083 -0.20638,-0.95617 -0.45043,-1.90302 -0.64692,-2.86154 -0.24462,-1.1932 -0.37113,-2.40428 -0.45752,-3.61767 -0.0587,-1.08667 -0.0342,-2.17429 -0.0471,-3.26143 -0.004,-0.96034 0.013,-1.92059 0.0315,-2.8807 0.022,-0.92481 0.024,-1.8499 0.0401,-2.7748 -0.004,-1.17265 0.0183,-2.34522 0.0164,-3.51783 -0.001,-0.85542 -0.008,-1.71082 -0.0124,-2.56623 -0.003,-0.49741 -0.023,-0.99505 0.0304,-1.4903 0.0481,-0.54811 0.36649,-0.97571 0.72647,-1.36718 0.51953,-0.5103 1.0353,-1.02243 1.50837,-1.57663 0.40816,-0.45253 0.67741,-0.95855 0.79652,-1.55377 0.13819,-0.83917 0.11963,-1.69523 0.12314,-2.54307 0.0126,-1.06802 6e-4,-2.13605 -0.007,-3.20406 -0.005,-0.7312 -0.007,-1.46245 -0.0152,-2.19362 0.0234,-0.39478 -0.0507,-0.74347 -0.2687,-1.07083 -0.3247,-0.40057 -0.66257,-0.79082 -1.00572,-1.17569 -0.53281,-0.58831 -1.08884,-1.15409 -1.59225,-1.76837 -0.43045,-0.5166 -0.61582,-1.11681 -0.70366,-1.77035 -0.12963,-0.90749 0.006,-1.76967 0.30448,-2.62701 0.34105,-0.86058 0.9088,-1.59475 1.41761,-2.35847 0.39285,-0.50525 0.57836,-1.09034 0.69696,-1.70848 0.0962,-0.63627 0.0943,-1.26799 -0.13295,-1.87399 -0.16615,-0.41631 -0.50254,-0.87628 -0.38604,-1.33145 0,0 0.39967,0.15667 0.39967,0.15667 l 0,0 c 0.5526,0.55458 1.12216,1.13083 1.52912,1.8012 0.26652,0.64451 0.32295,1.29271 0.23478,1.98635 -0.0639,0.67214 -0.25732,1.26977 -0.66817,1.81699 -0.52533,0.73104 -1.05829,1.47186 -1.40597,2.30728 -0.2861,0.83629 -0.39755,1.67369 -0.24522,2.55376 0.10969,0.62817 0.32267,1.19472 0.75333,1.67985 0.51013,0.60697 1.06539,1.17297 1.59492,1.76278 0.34646,0.39347 0.71079,0.77894 1.00267,1.21537 0.18592,0.3692 0.19347,0.76857 0.18876,1.17687 -0.008,0.72717 -0.008,1.45443 -0.0107,2.18163 -0.004,1.07831 -0.008,2.15659 0.001,3.23489 -0.006,0.8625 -0.001,1.73006 -0.12933,2.58515 -0.15585,0.61652 -0.40036,1.16435 -0.84669,1.63145 -0.4787,0.5379 -0.99571,1.03751 -1.50217,1.54888 -0.32452,0.37596 -0.61808,0.74969 -0.6585,1.2647 -0.0157,0.48431 0.004,0.96926 -0.009,1.45374 -0.004,0.85195 -0.0106,1.70389 -0.0118,2.55585 -0.002,1.15522 0.0213,2.31041 0.008,3.46569 0.006,0.92696 -0.01,1.85373 -0.033,2.78041 -0.0188,0.94993 -0.0223,1.89997 -0.019,2.85007 -0.008,1.04487 0.0178,2.09309 0.0813,3.13583 0.0781,1.1988 0.2296,2.39017 0.4763,3.56679 0.20461,0.96357 0.45122,1.91626 0.66993,2.87641 0.075,0.47024 0.1114,0.9434 0.0636,1.41903 -0.0403,0.61674 -0.13182,1.2284 -0.27631,1.82972 -0.27085,1.0903 -0.54368,2.18255 -0.71478,3.29389 -0.16478,1.22391 -0.17242,2.45452 -0.14717,3.68814 0.003,0.86153 0.0105,1.72315 0.006,2.58464 0.0103,0.58453 0.003,1.16942 -0.0194,1.75362 -0.0289,0.93067 -0.0916,1.86049 -0.0905,2.79194 -0.0186,1.90923 -0.004,3.82162 0.14895,5.72579 0.17346,1.7188 0.43242,3.43858 1.28576,4.9713 0.50278,0.8825 1.10467,1.69045 1.66278,2.53554 0.24601,0.66897 -0.0687,1.22219 -0.38469,1.82358 -0.59733,1.15963 -1.25378,2.29729 -1.6813,3.53486 -0.28006,0.93154 -0.47317,1.86284 -0.0776,2.79494 0.35941,0.71617 0.90698,1.29083 1.47217,1.85235 0.4995,0.49856 1.06325,0.98255 1.27265,1.68139 0.0843,0.52676 0.0538,1.05344 0.005,1.58325 -0.0489,0.41963 -0.14102,0.8293 -0.26065,1.23474 -0.19741,0.99034 -0.23704,1.99807 -0.12015,3.00317 0,0 -1.25728,-0.16468 -1.25728,-0.16468 z"
       inkscape:connector-curvature="0" />
    <path
       style="color:#000000;fill:#417fed;fill-opacity:1;fill-rule:nonzero;stroke:#efffff;stroke-width:1.02228009999999990px;stroke-linecap:butt;stroke-linejoin:miter;stroke-miterlimit:4;stroke-opacity:1;stroke-dasharray:none;stroke-dashoffset:0;marker:none;visibility:visible;display:inline;overflow:visible;enable-background:accumulate;filter:url(#filter5741);opacity:0.64728682"
       id="path5739"
       d="m 584.22668,389.70108 c -0.0946,-0.95072 -0.41289,-1.83322 -0.91451,-2.63993 -0.52485,-0.76527 -1.27427,-1.30731 -2.02616,-1.82876 -0.94974,-0.70078 -1.97907,-1.26995 -3.03068,-1.80088 -1.35025,-0.67313 -2.79136,-1.12051 -4.2377,-1.5323 -1.53048,-0.37811 -3.03891,-0.82972 -4.55568,-1.25725 -1.48298,-0.42743 -2.96851,-0.84544 -4.46154,-1.2364 -0.38943,0.0228 -2.77944,-0.85703 -0.56961,-0.15968 0.24308,0.0767 -0.49812,-0.10858 -0.74796,-0.1591 -0.25333,-0.0512 -0.50766,-0.0974 -0.76149,-0.14612 -0.25511,-0.0516 -0.51023,-0.10317 -0.76534,-0.15476 -1.56184,-0.23862 -3.13716,-0.36952 -4.70908,-0.52088 -1.65517,-0.18878 -3.31271,-0.3389 -4.97202,-0.48301 -1.95381,-0.15704 -3.91446,-0.18411 -5.87342,-0.20683 -1.89058,-0.0263 -3.78123,-0.0192 -5.67197,-0.0197 -1.62173,-0.0115 -3.24103,0.0679 -4.85539,0.21654 -1.85665,0.18716 -3.69326,0.5228 -5.52712,0.86026 -1.94532,0.36319 -3.88455,0.75823 -5.81916,1.17448 -1.42194,0.30873 -2.83304,0.66482 -4.23201,1.06453 -1.00433,0.27745 -1.97074,0.66335 -2.90475,1.1219 -1.00856,0.5005 -1.9552,1.11184 -2.87227,1.76216 -0.78061,0.54659 -1.495,1.17208 -2.12968,1.88157 -0.68398,0.80366 -1.14443,1.75181 -1.5265,2.72698 -0.35414,0.94554 -0.5281,1.93765 -0.61265,2.93971 -0.1332,1.04282 0.10127,1.98929 0.60342,2.89696 1.03949,1.41274 2.59455,2.2195 4.12082,2.99906 2.47157,1.1904 5.09285,2.01115 7.7253,2.7579 3.04735,0.83725 6.14918,1.44802 9.25208,2.03637 0.50807,0.0925 1.01588,0.18639 1.52422,0.2774 1.45386,0.26029 2.90951,0.51345 4.37136,0.72534 2.08038,0.30154 1.73346,0.2465 1.10196,0.1407 2.64182,0.27026 5.29899,0.31049 7.95211,0.33976 2.17233,0.0871 4.34155,-0.0795 6.47474,-0.48738 1.47157,-0.2919 2.81797,-0.89709 4.04322,-1.74882 0.85309,-0.62391 1.4892,-1.44463 1.98273,-2.3685 0.41809,-0.83373 0.51713,-1.75413 0.57924,-2.67037 0.0832,-1.15063 -0.35313,-2.13705 -0.9667,-3.07746 -0.97834,-1.34224 -2.35841,-2.20892 -3.83613,-2.904 -2.15656,-0.91198 -4.04993,-1.05838 -5.57791,-1.1907 -2.77595,-0.24773 -5.54972,-0.19571 -8.30494,0.20784 -1.91048,0.35568 -3.81804,0.89576 -5.31462,2.17933 -1.21328,1.45057 -0.6511,2.13283 0.80985,2.97881 1.30558,0.44094 1.04701,0.40503 2.53461,0.66242 0.74094,0.1282 1.50381,0.0364 2.2557,0.0269 1.41426,-0.0177 3.93565,-0.19165 5.28559,-0.27438 0,0 0.0488,0.011 0.0488,0.011 l 0,0 c -0.60313,0.15104 -1.19645,0.34874 -1.80938,0.45313 -3.32248,0.56586 -6.90809,0.22409 -10.0721,-0.89019 -0.26481,-0.16745 -0.5542,-0.30123 -0.79444,-0.50236 -0.9917,-0.83023 -0.7783,-1.99519 8.7e-4,-2.86523 1.50994,-1.32782 3.44795,-1.8911 5.39424,-2.26373 2.76143,-0.41949 5.54122,-0.4815 8.32649,-0.24311 3.03178,0.24724 6.13134,0.55528 8.97451,1.7038 1.47829,0.72041 2.89052,1.56668 3.84858,2.94554 0.62115,0.97858 1.05847,2.00603 0.97464,3.19194 -0.067,0.94078 -0.17681,1.88494 -0.60174,2.74214 -0.49488,0.95404 -1.14744,1.79677 -2.01297,2.44789 -1.23059,0.88184 -2.59178,1.50816 -4.08207,1.81585 -2.14825,0.42985 -4.32449,0.56505 -6.51412,0.56953 -2.65746,-0.0252 -5.3187,-0.0638 -7.96558,-0.32535 -3.45107,-0.40543 -6.89301,-0.86505 -10.30045,-1.55842 -3.10632,-0.58932 -6.21,-1.20903 -9.25956,-2.05127 -2.64392,-0.75675 -5.2786,-1.58446 -7.75798,-2.79087 -1.55747,-0.79871 -3.22444,-1.63439 -4.18435,-3.16344 -0.51388,-0.9659 -0.74634,-1.9594 -0.60515,-3.0587 0.10105,-1.03671 0.27578,-2.06463 0.64525,-3.04412 0.38224,-0.99741 0.84732,-1.96303 1.53482,-2.79068 0.63584,-0.72787 1.35332,-1.36798 2.14895,-1.91915 0.92298,-0.65278 1.86606,-1.28005 2.8769,-1.79078 0.94263,-0.46342 1.90766,-0.87518 2.92479,-1.14901 1.40897,-0.40106 2.8304,-0.75556 4.26207,-1.0665 1.94059,-0.41518 3.88609,-0.80717 5.83655,-1.17334 1.83004,-0.34521 3.66362,-0.68401 5.5168,-0.88083 1.61912,-0.15578 3.24347,-0.24318 4.87078,-0.22828 1.89904,-0.003 3.79811,-10e-4 5.69708,-6e-4 1.95633,0.0171 3.91428,0.0438 5.86606,0.18982 1.6548,0.13878 3.29963,0.37951 4.95351,0.53243 1.57831,0.1543 3.16049,0.28241 4.72968,0.51626 2.08685,0.26735 4.1252,0.81386 6.16259,1.32789 1.47775,0.39185 2.94796,0.8107 4.4162,1.2367 1.49776,0.42283 3.01622,0.75586 4.51405,1.18022 1.43529,0.41535 2.86101,0.87534 4.19467,1.56012 1.03076,0.53121 2.03193,1.12044 2.98989,1.77405 0.73652,0.53691 1.47074,1.10024 1.95389,1.89009 0.45247,0.83807 0.69669,1.73598 0.76943,2.68775 0,0 -1.31214,-0.12998 -1.31214,-0.12998 z"
       inkscape:connector-curvature="0" />
  </g>
</svg>
