<?xml version="1.0" encoding="UTF-8" standalone="no"?>
<!-- Created with Inkscape (http://www.inkscape.org/) -->

<svg
   xmlns:dc="http://purl.org/dc/elements/1.1/"
   xmlns:cc="http://creativecommons.org/ns#"
   xmlns:rdf="http://www.w3.org/1999/02/22-rdf-syntax-ns#"
   xmlns:svg="http://www.w3.org/2000/svg"
   xmlns="http://www.w3.org/2000/svg"
   xmlns:sodipodi="http://sodipodi.sourceforge.net/DTD/sodipodi-0.dtd"
   xmlns:inkscape="http://www.inkscape.org/namespaces/inkscape"
   width="210mm"
   height="297mm"
   id="svg4153"
   version="1.1"
   inkscape:version="0.48.4 r9939"
   sodipodi:docname="Nouveau document 8">
  <defs
     id="defs4155" />
  <sodipodi:namedview
     id="base"
     pagecolor="#ffffff"
     bordercolor="#666666"
     borderopacity="1.0"
     inkscape:pageopacity="0.0"
     inkscape:pageshadow="2"
     inkscape:zoom="1.0402204"
     inkscape:cx="279.67398"
     inkscape:cy="591.65359"
     inkscape:document-units="px"
     inkscape:current-layer="layer1"
     showgrid="false"
     inkscape:window-width="1366"
     inkscape:window-height="705"
     inkscape:window-x="-8"
     inkscape:window-y="-8"
     inkscape:window-maximized="1" />
  <metadata
     id="metadata4158">
    <rdf:RDF>
      <cc:Work
         rdf:about="">
        <dc:format>image/svg+xml</dc:format>
        <dc:type
           rdf:resource="http://purl.org/dc/dcmitype/StillImage" />
        <dc:title></dc:title>
      </cc:Work>
    </rdf:RDF>
  </metadata>
  <g
     inkscape:label="Calque 1"
     inkscape:groupmode="layer"
     id="layer1">
    <path
       style="color:#000000;fill:#ffffff;fill-opacity:1;fill-rule:nonzero;stroke:none;stroke-width:50;marker:none;visibility:visible;display:inline;overflow:visible;enable-background:accumulate"
       id="path4161"
       d="m 203.16364,442.23305 c -0.23625,-5.02807 -2.64853,-9.05969 -5.84781,-12.76814 -4.32928,-4.19707 -10.01486,-8.00362 -15.99195,-9.31213 -7.50251,-1.72585 -15.23072,-1.97976 -22.89741,-1.90069 -4.46394,0.13434 -8.91532,0.48089 -13.34689,1.02552 -0.60576,0.0635 -1.20025,0.15623 -1.78769,0.30709 -0.2397,0.0616 0.96555,0.19545 0.73481,0.106 -0.69818,-0.27067 -1.41152,-0.50048 -2.11728,-0.75071 7.07271,2.07684 14.46723,2.1236 21.76043,1.74665 12.29225,-0.99917 23.85662,-5.11345 34.81843,-10.55364 9.41656,-5.14507 15.72092,-11.16078 21.46525,-20.1171 3.31391,-5.77357 5.15288,-12.12036 5.05441,-18.76894 -0.1819,-3.36025 -1.40843,-6.41516 -3.02271,-9.31335 -0.53108,-0.70796 -0.96625,-1.67664 -1.79031,-2.10895 3.49268,1.86228 4.12966,0.9113 2.06811,1.36578 -0.94505,0.46514 -1.43974,1.4764 -1.88498,2.375 -1.46057,3.53161 -2.18756,7.31291 -2.92616,11.04589 -1.55494,8.23579 -1.91861,16.61596 -1.95361,24.97622 0.37743,15.47638 3.4081,30.71825 6.34901,45.86708 4.09332,19.93044 8.52909,39.78792 12.74128,59.69316 3.87784,17.95551 7.15489,36.02899 9.96015,54.18072 1.91789,12.4694 3.73123,24.95399 4.9317,37.51459 0.40001,6.31404 0.9982,13.32985 -2.50193,18.98347 -0.61044,0.98602 -1.42765,1.82793 -2.14147,2.7419 -9.51145,8.31266 -22.58825,7.42747 -34.39751,7.31561 -16.46633,-1.67284 -32.37599,-6.4851 -48.04855,-11.59142 -9.47247,-3.52111 -20.05954,-6.86404 -26.76398,-14.95793 -1.07649,-1.29959 -1.88664,-2.79851 -2.82996,-4.19776 -4.15384,-8.35729 -5.02765,-17.75582 -3.0879,-26.86108 0.42518,-1.99581 1.0968,-3.93105 1.6452,-5.89658 5.40293,-14.55079 15.83027,-24.31638 27.53233,-33.92946 9.51988,-7.18912 19.97019,-13.06395 31.04438,-17.49516 6.87229,-2.74987 10.16888,-3.62151 17.22552,-5.81509 15.9654,-4.42369 32.3183,-7.1862 48.52818,-10.5288 8.64012,-2.00053 17.63703,-3.67397 25.25841,-8.43539 3.15423,-2.67299 4.10152,-5.31981 2.9206,-9.25592 -0.67867,-1.38982 -1.62089,-2.73942 -3.08265,-3.41233 -0.48079,-0.22133 -2.03872,-0.56909 -1.5346,-0.40782 2.79481,0.89409 3.16953,0.32842 0.34232,1.35582 -5.75618,3.3475 -7.88017,9.56312 -9.01491,15.76359 -0.48408,8.92876 2.71532,14.78864 8.57178,21.20428 3.3081,2.81041 8.45577,6.34748 13.05881,6.15116 0.27979,-0.0119 -0.65275,-0.61124 -0.4027,-0.73732 1.05055,-0.52972 2.2928,-0.52918 3.4392,-0.79377 5.52636,-2.17872 10.10565,-6.30472 12.08089,-12.02862 0.37768,-1.09445 0.53281,-2.25342 0.79921,-3.38013 0.75449,-8.89873 -4.32148,-15.91578 -9.9591,-22.22098 -4.43508,-4.38931 -9.69825,-7.78873 -15.71471,-9.55735 -4.22348,-1.24155 -3.15,-1.73232 -4.91597,-0.62821 -5.80995,0.35938 -12.79485,0.63461 -17.46944,4.59876 -0.10197,0.35614 -0.36192,0.70224 -0.30591,1.06844 0.50981,3.33311 9.84145,5.11075 12.212,5.63809 10.03984,0.64629 18.86033,-1.85569 28.11221,-5.42491 7.96327,-3.43398 15.4248,-7.96072 21.3469,-14.33916 0.40636,-0.53846 0.85304,-1.04873 1.21907,-1.61536 0.0174,-0.0269 0.98401,-1.51357 0.61108,-1.94298 -0.11581,-0.13335 -0.66855,0.0589 -0.51125,0.13918 3.66795,1.87302 4.16145,0.14743 2.07142,2.90026 -3.44833,6.3344 -4.91721,13.71558 -4.73939,20.90795 0.0439,1.77605 0.29904,3.54057 0.44856,5.31086 1.35179,7.04546 3.93061,14.97649 10.61015,18.77697 0.97903,0.55704 2.09718,0.82281 3.14577,1.23422 -0.26765,-0.17234 -1.08499,-0.36936 -0.80296,-0.51701 7.26488,-3.80358 -0.92244,2.88854 6.34736,-2.56098 3.67014,-2.75118 5.72466,-6.51686 7.85813,-10.45097 3.5807,-8.30346 5.13647,-17.30542 5.32084,-26.3075 -0.0691,-0.94453 -0.0706,-2.87406 -0.54811,-3.89022 -0.0858,-0.18265 -0.68592,-0.40276 -0.48959,-0.35612 1.28343,0.30493 2.7713,0.30167 3.78968,1.14016 0.43178,0.35552 -0.3413,1.06893 -0.43748,1.6199 -0.15337,0.87855 -0.20616,1.77172 -0.30924,2.65758 -0.15579,7.04088 1.83333,14.00465 6.10001,19.67162 0.93407,1.24062 2.04921,2.33395 3.07382,3.50093 3.5136,3.39762 7.6265,5.33918 12.26826,6.66669 2.9346,0.83928 7.83036,-0.83302 10.59708,-1.55803 8.3393,-3.3135 14.66445,-9.48787 18.38054,-17.64733 0.72569,-1.59339 1.23756,-3.27575 1.85634,-4.91362 1.65918,-6.5432 2.73319,-15.26772 -3.44781,-19.97931 -0.97891,-0.7462 -2.17967,-1.14428 -3.26951,-1.71642 -1.29665,-0.21919 -2.57792,-0.74648 -3.88997,-0.65757 -0.31694,0.0215 0.0907,0.78419 -0.18947,0.934 -1.3408,0.71698 -2.94943,0.8092 -4.31618,1.47537 -5.26754,2.56746 -7.56578,5.97289 -10.67285,10.67893 -4.4571,8.98101 -5.38484,19.20549 -1.72072,28.66568 0.7016,1.81143 1.71748,3.48487 2.57623,5.22731 4.04075,6.27903 8.97773,10.22343 16.07092,12.49703 0.15823,0.0507 0.32971,-0.0415 0.49452,-0.0627 1.5201,-0.19544 3.04014,-0.39146 4.5602,-0.58719 1.4918,-0.58995 3.0533,-1.02748 4.4754,-1.76985 9.2908,-4.85004 14.99968,-14.78535 20.50081,-23.24452 6.65221,-10.83176 13.25988,-21.09473 22.75616,-29.65022 3.88722,-2.54047 6.24256,-3.17886 11.05215,-0.56932 1.74771,0.94825 2.45051,8.48663 2.64886,10.01366 0.69445,10.21797 0.50228,20.43934 2.05719,30.5826 1.00552,4.03256 2.06994,9.11871 5.99996,11.44793 0.69031,0.40913 1.606,0.3552 2.26682,0.81043 0.4913,0.33846 -1.15601,-0.29559 -1.73402,-0.44338 0.94496,-0.30124 1.93411,-0.4886 2.83487,-0.90373 6.29348,-2.90042 12.03296,-9.93627 16.72124,-14.91958 4.0055,-4.06685 6.5066,-8.58563 13.09756,-5.19006 0.81981,0.42235 1.47156,4.97687 1.72193,6.29828 1.2809,8.34556 2.67101,17.16381 7.80123,24.15298 0.81981,1.11687 1.84042,2.07142 2.76064,3.10713 2.2282,1.5161 3.15339,2.62408 5.9262,2.79115 0.37266,0.0225 -1.18298,-0.41303 -0.90404,-0.66116 0.91467,-0.81366 2.30731,-0.86551 3.34691,-1.51194 1.2512,-0.77801 2.31723,-1.82034 3.47585,-2.73051 0,0 0.6673,0.0895 0.6673,0.0895 l 0,0 c -0.73348,1.46282 -1.70989,4.45785 -3.8052,4.92042 -2.63206,0.58108 -7.15113,0.64521 -9.94149,-0.74914 -1.08733,-0.54334 -1.98475,-1.40387 -2.97712,-2.10581 -0.92671,-1.06054 -1.95656,-2.03913 -2.78011,-3.18162 -5.09628,-7.06988 -6.46621,-15.92968 -7.88452,-24.30203 -0.27055,-1.25474 -0.43743,-2.5364 -0.81163,-3.76422 -0.21331,-0.69992 -3.30169,-5.10132 1.90391,-2.64091 0.64196,0.30342 -1.37601,0.42565 -1.9652,0.82191 -1.54911,1.04186 -4.32332,4.04995 -5.47523,5.23101 -4.75911,5.04519 -10.3928,11.99621 -16.6492,15.13894 -0.89952,0.45185 -1.88918,0.69588 -2.83376,1.04382 -2.27821,-0.12481 -4.57738,-0.0417 -6.83461,-0.37442 -5.30039,-0.78128 -7.17293,-8.55703 -8.11581,-12.70197 -1.489,-10.19713 -1.24459,-20.47049 -2.05632,-30.72659 -0.35476,-2.44446 -0.5695,-5.16733 -1.52356,-7.50328 -0.31374,-0.76818 -1.66814,-1.37987 -1.29945,-2.12324 0.37803,-0.76222 1.72141,-0.0824 2.52786,-0.35356 1.72273,-0.57928 -8.78613,1.27573 -5.1161,1.88573 -1.0888,0.91762 -2.23343,1.77282 -3.26641,2.75286 -8.04689,7.63452 -13.62742,17.40789 -19.6134,26.62098 -5.52459,8.54325 -11.22637,18.52076 -20.43433,23.64975 -1.41611,0.7888 -2.99176,1.24885 -4.48764,1.87328 -1.52818,0.23109 -3.04,0.74927 -4.58454,0.69329 -11.29273,-0.40928 -18.54588,-4.67179 -24.69802,-13.98391 -0.8487,-1.76601 -1.8618,-3.46206 -2.54612,-5.29803 -3.59203,-9.63723 -2.70265,-20.00734 1.80159,-29.13928 0.98612,-1.51766 1.82548,-3.14149 2.95835,-4.55299 6.69124,-8.33703 14.14332,-9.2286 24.27746,-6.92396 1.08934,0.61863 2.29513,1.06669 3.26803,1.85588 6.07495,4.92784 4.97997,13.63662 3.32171,20.28392 -0.6196,1.65559 -1.13362,3.35462 -1.85881,4.96675 -3.70455,8.23525 -10.12245,14.62279 -18.457,18.10717 -1.6315,0.45247 -3.2275,1.06144 -4.89451,1.3574 -9.43875,1.6757 -19.01708,-1.40219 -26.00033,-7.72073 -1.02151,-1.18839 -2.14466,-2.29646 -3.06454,-3.56515 -4.1951,-5.78584 -6.23404,-12.85608 -6.15912,-19.95207 0.0854,-0.90771 0.12467,-1.82096 0.25633,-2.72312 0.0887,-0.60762 -0.17173,-1.58228 0.40339,-1.79747 5.6514,-2.1145 5.37139,0.74908 5.58822,4.44509 -0.28396,9.04929 -1.92332,18.11236 -5.45146,26.48112 -2.65255,5.00576 -5.55123,10.15096 -10.97443,12.6202 -1.03902,0.47308 -2.13697,0.98516 -3.27862,0.99049 -2.44571,0.0114 -4.85106,-0.62747 -7.27659,-0.94121 -1.03753,-0.44789 -2.14654,-0.75732 -3.11258,-1.34369 -6.61283,-4.01387 -9.1367,-11.96806 -10.46782,-19.09882 -0.15242,-1.78699 -0.41244,-3.56805 -0.45724,-5.36096 -0.1818,-7.27583 1.30305,-14.68819 4.59759,-21.18352 0.40525,-0.58102 0.53622,-1.54294 1.21575,-1.74305 6.90969,-2.03476 6.31995,0.89522 3.54794,4.1248 -6.06176,6.3699 -13.58172,10.96655 -21.62726,14.45224 -12.23631,4.78742 -22.74127,7.09383 -35.88069,4.33725 -2.72586,-0.62811 -12.02008,-2.36705 -12.31945,-6.31825 -0.0341,-0.44941 0.26225,-0.86241 0.39338,-1.29361 4.75812,-4.13608 11.76748,-4.52272 17.76157,-4.90508 3.44683,0.40468 8.90448,0.79829 12.60621,1.87952 6.04512,1.7657 11.27699,5.37023 15.71884,9.75047 5.69775,6.42554 10.82112,13.5871 10.02916,22.61625 -0.27493,1.15245 -0.43943,2.33697 -0.8248,3.45734 -2.01772,5.86601 -6.57237,10.1747 -12.22622,12.49446 -1.15627,0.2912 -2.27694,0.839 -3.46881,0.8736 -8.02621,0.233 -14.54246,-1.56514 -20.46146,-6.96741 -5.88342,-6.56195 -9.04328,-12.52039 -8.53488,-21.5682 1.15427,-6.32287 3.27511,-12.60676 9.00423,-16.19709 5.0136,-1.86667 10.06737,-0.91607 12.34756,3.92633 1.13296,4.11836 0.16559,6.94912 -3.11111,9.75338 -7.57217,5.08773 -16.88292,6.5127 -25.58952,8.62588 -16.20958,3.35168 -32.56045,6.11693 -48.54115,10.48698 -2.87683,0.85664 -5.77973,1.63014 -8.63048,2.56993 -14.15758,4.66729 -27.62749,11.33333 -39.50722,20.38266 -11.84841,9.63122 -21.76358,18.90319 -27.28269,33.53378 -0.54183,1.90771 -1.2106,3.78384 -1.62549,5.72311 -1.92638,9.00422 -1.03662,18.32164 3.11368,26.56381 0.93807,1.37354 1.74551,2.84608 2.8142,4.12063 6.70832,8.00055 17.25409,11.26863 26.66026,14.78276 15.65339,5.10007 31.57111,10.00465 48.06094,11.35701 7.46617,0.80991 16.88831,-0.30242 23.3488,-4.51203 1.03604,-0.67507 1.90672,-1.57507 2.86008,-2.36261 0.69969,-0.88365 1.49648,-1.69843 2.09907,-2.65094 3.51338,-5.55359 2.99259,-12.50674 2.62581,-18.75104 -1.0821,-12.67754 -2.88072,-25.27405 -4.68688,-37.86568 -2.77084,-18.25146 -5.95277,-36.43608 -9.77599,-54.49941 -4.16434,-20.02101 -8.55401,-39.9947 -12.60618,-60.03879 -2.99696,-15.21453 -6.11933,-30.52161 -6.38439,-46.08457 0.0654,-8.37971 0.44007,-16.78384 1.9944,-25.03884 0.74314,-3.80945 1.49077,-7.65846 2.93077,-11.27813 0.48009,-1.00951 1.0045,-2.03754 1.96812,-2.66956 1.5637,-0.76708 4.2938,1.14021 5.24232,1.25809 0.69402,0.64419 1.20794,1.45117 1.69136,2.25834 1.65009,2.89988 2.71731,6.04341 2.8727,9.40342 -0.0171,6.67435 -1.87443,13.02682 -5.23396,18.81075 -5.69483,8.81134 -12.35527,15.31482 -21.71034,20.28057 -10.97794,5.48058 -22.59574,9.55968 -34.8906,10.72793 -7.25628,0.40569 -14.60212,0.38401 -21.67049,-1.55323 -0.64305,-0.22379 -8.66224,-2.27867 -3.31279,-2.91096 4.50587,-0.52877 9.03899,-0.85956 13.57674,-0.90018 7.74718,-0.049 15.52278,0.29365 23.10743,2.01446 8.88865,2.50012 15.44343,4.41282 22.13458,11.10097 3.20609,3.75942 5.6747,7.83654 5.99121,12.89779 0,0 -3.35778,-0.56089 -3.35778,-0.56089 z"
       inkscape:connector-curvature="0" />
    <path
       style="color:#000000;fill:#ffffff;fill-opacity:1;fill-rule:nonzero;stroke:none;stroke-width:50;marker:none;visibility:visible;display:inline;overflow:visible;enable-background:accumulate"
       id="path4163"
       d="m 558.33234,323.11504 c -0.2177,11.64714 0.3732,23.29661 0.78407,34.93423 0.84131,20.9409 1.39171,41.89019 1.59172,62.84679 0.31106,8.12279 -0.42507,16.18298 -1.37161,24.23193 0,0 -0.13231,-0.0313 -0.13231,-0.0313 l 0,0 c -1.36112,-8.43607 -2.41254,-16.88021 -2.18524,-25.45831 -0.35223,-21.10824 -0.63996,-42.22176 -1.60514,-63.31334 -0.47428,-11.71133 -1.07811,-23.44057 -0.86557,-35.1635 0,0 3.78408,1.95349 3.78408,1.95349 z"
       inkscape:connector-curvature="0" />
    <path
       style="color:#000000;fill:#ffffff;fill-opacity:1;fill-rule:nonzero;stroke:none;stroke-width:50;marker:none;visibility:visible;display:inline;overflow:visible;enable-background:accumulate"
       id="path4165"
       d="m 320.011,518.45554 c -4.49496,0.87086 -8.99559,1.31736 -13.53795,0.67055 -3.55241,-1.16141 -5.41506,-1.67835 -9.34052,-3.88097 -3.39533,-1.90517 -6.64136,-8.51366 -8.30202,-11.82948 -4.33999,-9.41792 -6.45894,-19.5349 -7.62623,-29.77584 -0.63608,-9.36739 1.11904,-18.66495 6.28987,-26.62372 1.03346,-1.59068 2.2878,-3.02642 3.43171,-4.53963 6.72163,-7.44451 15.5382,-12.43193 25.4055,-14.3568 2.0598,-0.40182 4.16568,-0.51388 6.24851,-0.77083 18.17288,-0.36709 29.66698,7.26198 44.39456,16.7492 10.54934,7.99569 19.43026,18.19811 24.7183,30.42929 1.0335,2.39047 1.79343,4.89014 2.69014,7.3352 3.76565,12.59579 4.87578,25.91536 2.64868,38.91222 -0.42485,2.47928 -1.09899,4.90933 -1.64848,7.36399 -3.19549,10.94446 -8.80314,21.04999 -17.127,28.93418 -1.47622,1.39824 -3.11631,2.61262 -4.67447,3.91893 -7.67432,5.66994 -16.71565,9.0297 -26.28919,9.35388 -1.87658,0.0635 -3.75411,-0.0946 -5.63117,-0.14193 -12.38798,-0.83166 -24.09048,-4.8043 -35.81065,-8.54849 -6.175,-1.97136 -12.46465,-3.77764 -18.21609,-6.81729 -4.52367,-2.70413 -7.11452,-7.21286 -9.51308,-11.73497 -3.36511,-7.22168 -4.27958,-13.5228 -3.6429,-21.41915 1.16308,-6.79984 4.1241,-13.13898 9.20303,-17.89918 0.98574,-0.92389 2.08762,-1.71548 3.13143,-2.57322 8.47536,-5.37275 18.56618,-5.6211 28.28802,-5.53536 12.68262,0.52702 24.91431,4.14631 36.20167,9.93028 1.96066,1.0047 3.67395,2.43241 5.51092,3.64862 8.13265,6.48782 14.40511,15.0214 17.0664,25.18017 0.45221,1.72623 0.64553,3.5101 0.9683,5.26514 0.52413,9.23855 -2.59354,16.55827 -10.1776,22.08094 -1.64462,1.19761 -3.47144,2.12257 -5.20717,3.18386 -11.69117,5.24475 -24.57271,7.35872 -37.33104,5.89733 -4.39402,-0.50331 -8.74617,-1.32193 -13.11926,-1.98289 -11.66533,-3.21474 -24.19076,-8.54424 -30.41089,-19.68101 -0.92679,-1.65935 -1.41321,-3.52879 -2.11982,-5.29319 -0.12319,-1.82218 -0.54107,-3.64827 -0.36956,-5.46653 0.82917,-8.79025 8.36383,-15.14326 15.65917,-18.9475 2.41276,-1.25816 5.01034,-2.12463 7.51552,-3.18695 13.52535,-4.32758 28.12461,-6.29111 42.20235,-3.48535 2.21791,0.44205 4.3533,1.22754 6.52996,1.84131 6.3866,2.55309 17.66908,6.17393 15.76253,15.69211 -0.84018,4.19444 -2.90673,5.57033 -5.6789,8.6543 -1.85467,1.25484 -3.60505,2.67966 -5.56401,3.76453 -9.64315,5.34039 -21.38803,8.04503 -32.3855,7.77676 -2.7332,-0.0667 -5.43696,-0.58198 -8.15545,-0.87297 -3.95347,-1.21068 -8.06184,-1.99909 -11.86041,-3.63203 -6.31699,-2.71556 -11.23762,-9.0861 -12.39717,-15.83069 -1.07685,-6.26353 0.31953,-8.17915 2.17716,-14.06587 1.46868,-2.20432 2.67577,-4.60741 4.40605,-6.61295 8.27346,-9.58965 21.0148,-14.42267 33.36051,-15.55979 3.35093,-0.30864 6.72973,-0.0819 10.09459,-0.12279 3.21292,0.50982 6.47809,0.75945 9.63877,1.52946 2.9545,0.71978 5.85776,1.69998 8.64144,2.924 8.00599,3.52035 17.0221,7.7301 20.3859,16.55903 0.71843,1.88567 0.71115,3.97263 1.06673,5.95895 -0.4213,1.95926 -0.48908,4.02957 -1.26389,5.87778 -4.13632,9.86672 -15.56343,15.15106 -25.18842,17.81246 -3.04893,0.84305 -6.20802,1.21957 -9.31203,1.82936 -3.11832,0.0646 -6.24725,0.45874 -9.35495,0.19371 -2.96163,-0.25258 -5.92994,-0.78693 -8.74625,-1.73744 -8.13604,-2.74594 -13.09139,-4.51715 -18.013,-11.19969 -4.44357,-6.03348 -4.1158,-8.61267 -5.49078,-15.73571 0.24573,-2.87263 0.12063,-5.80148 0.7372,-8.6179 1.93517,-8.83974 7.39371,-16.28004 14.40364,-21.80733 5.95441,-4.69501 8.64693,-5.36458 15.45132,-8.33794 5.09059,-1.3142 12.93306,-3.69276 18.13871,-0.99794 2.42178,1.25368 5.15054,2.4605 6.68664,4.71374 1.60989,2.36149 -4.59398,7.5024 -4.8848,7.80628 -2.22514,1.36944 -4.33285,2.95117 -6.67541,4.10831 -9.76785,4.82497 -21.16957,7.46114 -32.06829,7.29017 -4.60025,-0.0722 -9.15289,-0.94578 -13.72934,-1.41868 0,0 -1.14676,-0.68771 -1.14676,-0.68771 l 0,0 c 3.87581,0.0764 7.75515,0.41127 11.62744,0.2293 13.26011,-0.62314 26.37181,-4.17502 37.33396,-11.78744 1.23661,-1.30424 2.75487,-2.39011 3.70982,-3.9127 0.59158,-0.94324 0.002,-2.45172 0.78103,-3.24763 0.64234,-0.65662 3.35505,0.33123 2.73392,-0.34548 -1.04743,-1.14116 -2.86957,-1.28094 -4.40617,-1.47642 -5.26883,-0.67028 -8.60645,0.63111 -13.75687,1.81053 -6.9526,2.8654 -9.27325,3.28603 -15.35775,8.02374 -6.95287,5.41389 -12.36798,12.75395 -14.25811,21.48779 -0.59018,2.72712 -0.43943,5.56318 -0.65914,8.34477 0.55141,2.72541 0.71059,5.56062 1.65424,8.17623 2.44547,6.77843 4.73374,8.30429 9.87341,13.04705 0.9453,0.8723 1.76132,2.02104 2.96828,2.46573 6.89751,2.5413 10.83234,1.81252 18.03818,1.72249 3.09206,-0.58789 6.23816,-0.94095 9.27618,-1.76367 9.43043,-2.55381 20.86567,-7.87287 24.88905,-17.55702 0.76462,-1.84041 0.82567,-3.89938 1.2385,-5.84907 -0.36173,-1.92579 -0.37124,-3.95261 -1.08518,-5.77738 -1.95751,-5.0032 -4.79487,-7.01793 -8.70744,-10.5438 -0.88474,-0.79729 -1.66918,-1.77996 -2.74905,-2.28226 -7.14248,-3.32231 -10.50013,-3.32562 -18.26181,-4.62351 -3.33193,-0.0282 -6.67401,-0.34589 -9.9958,-0.0846 -12.08413,0.95059 -24.92754,5.75983 -33.06224,15.10146 -1.70772,1.96109 -2.87746,4.33232 -4.31619,6.49848 -0.72015,2.29893 -1.80407,4.51421 -2.16044,6.89679 -1.67831,11.22082 5.41315,19.1599 15.13144,23.30056 2.71319,0.31711 5.40936,0.86243 8.13958,0.95132 10.61232,0.34553 22.95956,-2.47931 32.24399,-7.70737 1.94537,-1.09544 3.66133,-2.55587 5.49199,-3.83381 3.25253,-3.61291 6.81579,-6.89294 5.29104,-12.34569 -1.08839,-3.89225 -4.18831,-4.8179 -6.34601,-7.80772 -2.18157,-0.64208 -4.32419,-1.43557 -6.54472,-1.92623 -13.9415,-3.08059 -28.52194,-1.27931 -41.99741,2.95555 -2.48493,1.04205 -5.05301,1.9046 -7.4548,3.12614 -7.06347,3.59244 -14.50942,9.64785 -15.27072,18.16701 -0.15119,1.69182 0.28129,3.38545 0.42194,5.07817 0.7015,1.72145 1.17512,3.55447 2.10452,5.16436 6.28073,10.87939 18.84461,16.00944 30.31603,19.13483 1.15719,0.27474 2.28824,0.70469 3.47157,0.82423 10.35727,1.04628 21.24554,0.0966 31.10111,-3.36981 2.10438,-0.74016 4.09585,-1.76891 6.14378,-2.65337 1.71167,-1.0372 3.52123,-1.92783 5.13501,-3.11159 7.48123,-5.48771 10.63152,-12.75104 10.10145,-21.89602 -0.31584,-1.78021 -0.49315,-3.59064 -0.94751,-5.34063 -2.61751,-10.08129 -8.88814,-18.62357 -16.99944,-24.98761 -1.83604,-1.19411 -3.71023,-2.33149 -5.50811,-3.58232 -0.49633,-0.34531 -0.81041,-0.95072 -1.36234,-1.19763 -8.0206,-3.58791 -16.97981,-4.57208 -25.63149,-5.25706 -9.6004,-0.11701 -19.59409,0.0815 -28.01405,5.29212 -1.00556,0.75924 -2.08028,1.43467 -3.01667,2.27774 -4.99527,4.49742 -7.87349,10.73662 -8.96803,17.27759 -0.10002,1.3138 -0.28356,2.62391 -0.30006,3.94141 -0.0734,5.8558 1.59678,11.6685 4.15837,16.88436 2.4009,4.42799 5.13198,8.70135 9.62397,11.26777 5.72874,2.94638 11.96891,4.45582 18.06038,6.47218 8.50413,2.72849 17.04541,5.80241 25.91146,7.07048 1.86759,0.0651 3.73458,0.23968 5.60278,0.19528 9.60173,-0.22818 18.57207,-3.68594 26.32186,-9.26129 1.57466,-1.33569 3.22317,-2.58889 4.72397,-4.00705 8.36466,-7.90407 14.0049,-18.05384 17.21412,-29.04196 0.55328,-2.43637 1.22802,-4.8483 1.65983,-7.3091 2.29289,-13.0667 1.26979,-26.40116 -2.48189,-39.09228 -0.89681,-2.42582 -1.65754,-4.90637 -2.69043,-7.27744 -5.33133,-12.23845 -14.08413,-22.34495 -24.5936,-30.44539 -7.93314,-6.61527 -19.3721,-11.18501 -29.65635,-12.31141 -2.13963,-0.23435 -4.3026,-0.13897 -6.45391,-0.20845 -2.05819,0.21946 -4.13517,0.3046 -6.17457,0.65839 -9.73579,1.68891 -18.46546,6.55438 -25.11853,13.81794 -1.12552,1.49682 -2.35761,2.91916 -3.37656,4.49047 -5.07568,7.82715 -6.77536,16.9998 -6.12925,26.20639 1.19347,10.1977 3.31882,20.28214 7.72739,29.62835 1.78465,3.45009 3.50622,6.84995 6.26203,9.65548 0.70057,0.71322 2.30534,0.95214 2.27751,1.9515 -0.0218,0.78315 -2.35899,-1.14874 -2.32167,-0.36618 0.0396,0.83106 1.56332,0.57004 2.34498,0.85506 4.47111,0.75228 8.92222,0.34845 13.35439,-0.56325 0,0 4.62903,2.24426 4.62903,2.24426 z"
       inkscape:connector-curvature="0" />
    <path
       style="color:#000000;fill:#000000;fill-opacity:1;fill-rule:nonzero;stroke:#000000;stroke-width:50;stroke-linecap:square;stroke-linejoin:miter;stroke-miterlimit:4;stroke-opacity:1;stroke-dasharray:none;stroke-dashoffset:0;marker:none;visibility:visible;display:inline;overflow:visible;enable-background:accumulate"
       d="m 104.11908,294.88933 c 20.50312,-5.95704 42.0688,-4.95486 63.08847,-7.41169 9.21194,7.23395 6.98937,20.07319 6.59221,30.30444 0.42946,60.12041 16.65472,119.01453 15.63811,179.22013 3.04001,13.60207 -10.29323,27.85283 -24.07042,25.68712 -15.46196,2.07521 -34.11598,4.65504 -46.37561,-7.34539 -12.67133,-13.49862 -14.31469,-32.90059 -16.06173,-50.42735 -9.556779,-5.38292 11.25467,-11.18754 5.10506,-1.7449 -0.23235,19.56832 3.34534,41.64518 19.23797,54.86553 14.64369,8.48749 32.83573,5.02821 47.78801,-0.65756 10.78229,-6.9938 11.12062,-21.40167 9.92224,-32.86073 -1.39047,-64.24747 -17.71974,-127.44869 -15.30409,-191.88006 -10.74544,-4.63624 -22.17047,1.12384 -33.24007,-0.5043 -10.82442,0.30551 -21.43102,4.44879 -32.32015,2.75476 z"
       id="path4691"
       inkscape:connector-curvature="0" />
    <path
       style="color:#000000;fill:#000000;fill-opacity:1;fill-rule:nonzero;stroke:#000000;stroke-width:20;stroke-linecap:square;stroke-linejoin:miter;stroke-miterlimit:4;stroke-opacity:1;stroke-dasharray:none;stroke-dashoffset:0;marker:none;visibility:visible;display:inline;overflow:visible;enable-background:accumulate"
       id="path4699"
       d="m 263.85367,407.23004 c -1.53502,-1.28943 -3.14134,-2.44504 -4.77397,-3.54178 -0.7918,-0.19238 -3.43575,-2.56876 -0.23336,-0.12354 0.26653,0.20352 -0.57938,-0.30033 -0.87155,-0.4432 -0.80102,-0.3917 -0.99535,-0.46412 -1.80996,-0.81588 -1.91381,-0.83456 -3.90515,-1.3261 -5.91217,-1.68477 -2.19553,-0.36473 -4.40936,-0.48129 -6.62144,-0.5883 -2.27536,-0.10053 -4.55248,-0.12222 -6.82885,-0.0752 -2.45408,0.10305 -4.80892,0.91973 -7.12204,1.8504 -2.20198,0.9262 -4.35963,1.99456 -6.48009,3.16508 -1.81344,0.99571 -3.51913,2.2388 -5.1641,3.59053 -1.77121,1.47316 -3.39176,3.18152 -4.92012,5.00483 -1.88182,2.30358 -3.45251,4.93956 -4.98736,7.58345 -1.73802,2.88228 -3.26836,5.92815 -4.71985,9.03014 -1.3844,3.00265 -2.33261,6.22566 -3.00222,9.55595 -0.66147,3.62098 -0.73905,7.32252 -0.49049,11.00324 0.44554,4.41559 1.70355,8.60033 3.19996,12.63356 1.54749,3.99422 3.70876,7.53318 6.15385,10.77701 2.3813,3.26485 5.1557,6.01274 8.11837,8.458 2.82398,2.31614 5.99486,3.81289 9.16018,5.27665 4.44276,1.57443 1.7757,0.78702 7.4218,1.6515 3.51839,0.34461 7.05105,0.3591 10.57857,0.35235 3.45102,0.11334 6.77012,-0.66302 9.99245,-2.10072 3.26016,-1.58925 6.01936,-4.16905 8.54455,-7.07321 2.34071,-2.8115 4.17961,-6.11246 5.73581,-9.61183 1.40303,-3.16735 2.07322,-6.62874 2.47203,-10.15908 0.39316,-3.54658 0.30352,-7.09549 -0.0605,-10.63387 -0.41528,-3.50748 -1.26473,-6.89177 -2.37951,-10.15779 -0.86327,-2.74071 -2.29718,-5.06446 -3.93696,-7.18515 -1.57733,-2.03482 -3.3876,-3.74865 -5.25591,-5.36875 -1.26617,-1.08914 -2.57509,-2.07052 -4.00539,-2.81245 -0.36363,-0.18863 -1.46758,-0.71603 -1.10433,-0.52629 0.64512,0.337 1.30015,0.64544 1.95023,0.96816 -2.57161,-1.03876 -5.27441,-1.21216 -7.95829,-1.38604 -2.72705,-0.0979 -5.45745,-0.22853 -8.18329,-0.0486 -2.21862,0.0456 -4.37996,0.53809 -6.50639,1.26937 -1.83694,0.68782 -3.44918,1.90447 -4.9513,3.32653 -1.5084,1.55874 -2.34357,3.65459 -3.04185,5.84886 -0.92226,3.15711 -1.45699,6.44936 -1.89951,9.74665 -0.40544,3.28376 -0.54038,6.60619 -0.51405,9.92315 0.0293,2.68687 0.74214,5.10983 1.94125,7.3356 0.96017,1.79817 2.06315,3.47847 3.36714,4.92619 0.75766,0.84171 1.65244,1.31115 2.65103,1.52792 -5.65733,-1.20471 -2.81093,-0.67418 -1.45487,-0.66769 0.34865,0.022 0.63506,-0.0503 0.88581,-0.3496 0.34709,-0.37574 0.75712,-0.45768 1.19833,-0.5966 0,0 1.64611,0.5164 1.64611,0.5164 l 0,0 c 0.17181,0.34345 0.32728,0.59707 0.29632,1.0087 -0.12035,0.50199 -0.29781,0.83635 -0.77721,0.8295 -1.80478,0.0196 -3.39537,-0.24402 -5.2214,-0.95309 -0.99212,-0.30651 -1.86069,-0.8858 -2.60517,-1.74894 -1.27872,-1.50651 -2.38809,-3.20552 -3.33524,-5.03745 -1.07071,-2.41257 -1.89393,-4.87276 -1.86432,-7.67124 -0.009,-3.37957 0.1604,-6.76329 0.56054,-10.10965 0.46364,-3.36356 1.01313,-6.72488 1.92008,-9.96002 0.70923,-2.28442 1.54897,-4.47087 3.09577,-6.11448 1.48075,-1.60111 3.17822,-2.81306 5.06546,-3.5864 2.1366,-0.87562 4.36002,-1.34341 6.61497,-1.46708 2.73621,-0.0701 5.47369,-0.11142 8.20919,0.0252 2.67744,0.15968 5.36464,0.46795 7.95762,1.33608 3.24693,1.4475 6.56347,2.73037 9.39442,5.21536 1.84906,1.62917 3.65257,3.35701 5.26592,5.3235 1.61357,2.1469 2.96589,4.50287 3.90429,7.19194 1.08249,3.30746 1.93986,6.71636 2.33106,10.25403 0.36739,3.57137 0.42531,7.16048 0.0377,10.7383 -0.41862,3.57426 -1.10135,7.08467 -2.52832,10.29012 -1.58901,3.52507 -3.43995,6.86558 -5.79375,9.72049 -2.53837,2.95114 -5.31558,5.57686 -8.59557,7.22121 -3.23111,1.48395 -6.56668,2.25517 -10.03842,2.16731 -3.55642,0.009 -7.11754,-0.024 -10.66544,-0.35172 -4.59408,-0.38376 -9.09671,-1.67872 -13.47307,-3.39649 -3.21879,-1.26591 -6.30846,-2.96657 -9.12812,-5.25328 -2.95666,-2.47838 -5.72464,-5.25888 -8.09684,-8.55001 -2.34331,-3.40584 -4.59601,-6.91998 -6.10167,-10.99734 -1.50303,-4.11116 -2.75243,-8.36875 -3.15247,-12.86857 -0.26982,-3.76583 -0.15,-7.5369 0.51385,-11.24351 0.6903,-3.37785 1.65292,-6.6502 3.06175,-9.69665 1.4491,-3.21051 3.07295,-6.29422 4.8294,-9.27183 1.55952,-2.64883 3.12202,-5.31494 5.01152,-7.64073 1.54458,-1.85605 3.16468,-3.62202 4.96053,-5.11953 1.65734,-1.36618 3.3682,-2.6405 5.2006,-3.63804 2.15205,-1.17916 4.34501,-2.24919 6.5689,-3.2133 2.33278,-0.95738 4.70669,-1.81069 7.18742,-1.92376 2.301,-0.14298 4.60518,-0.0404 6.9072,0.0362 2.2443,0.11319 4.49197,0.25215 6.72425,0.56006 2.03069,0.35037 4.04518,0.82995 5.98357,1.66355 2.64538,1.13417 5.18494,2.58042 7.65102,4.2028 1.56293,1.0775 3.0907,2.22742 4.55481,3.49413 0,0 -2.25888,-0.83654 -2.25888,-0.83654 z"
       inkscape:connector-curvature="0" />
    <path
       style="color:#000000;fill:#000000;fill-opacity:1;fill-rule:nonzero;stroke:#000000;stroke-width:15;stroke-linecap:square;stroke-linejoin:miter;stroke-miterlimit:4;stroke-opacity:1;stroke-dasharray:none;stroke-dashoffset:0;marker:none;visibility:visible;display:inline;overflow:visible;enable-background:accumulate"
       d="m 291.69826,398.71055 c -4.25989,23.2325 -6.30005,47.85633 1.43502,70.6103 2.81713,9.58122 8.13492,20.10139 18.44413,23.13638 1.20054,-0.50874 7.5551,-1.20186 9.52497,-4.11988 6.9944,-6.54158 8.90175,-16.4437 10.86731,-25.4058 3.15712,-18.38481 2.43556,-37.76155 -4.05669,-55.37459 6.53879,0.20882 6.17667,8.60308 7.73391,13.23338 4.01236,19.52726 2.70855,40.1804 -3.84377,59.0084 -2.82203,6.97816 -8.83303,14.22971 -17.07864,13.76955 -10.37489,-0.1434 -19.35911,-8.04279 -22.56386,-17.63526 -9.66904,-22.94799 -8.69495,-48.64567 -4.46073,-72.71576 1.12357,-2.75276 -0.57958,-8.17929 3.99835,-4.50672 z"
       id="path4703"
       inkscape:connector-curvature="0" />
    <path
       style="color:#000000;fill:#000000;fill-opacity:1;fill-rule:nonzero;stroke:#000000;stroke-width:15;stroke-linecap:square;stroke-linejoin:miter;stroke-miterlimit:4;stroke-opacity:1;stroke-dasharray:none;stroke-dashoffset:0;marker:none;visibility:visible;display:inline;overflow:visible;enable-background:accumulate"
       id="path4713"
       d="m 350.83325,440.96185 c 7.26615,-0.29478 14.50889,-0.97754 21.74699,-1.65617 8.32351,-0.89742 16.68268,-1.4701 25.04525,-1.85502 5.12352,-0.21959 10.25147,-0.29122 15.37906,-0.3244 3.22315,0.0428 6.44106,-0.0828 9.65382,-0.32963 2.19997,-0.18849 4.3956,-0.42606 6.58503,-0.71175 0.69252,-0.0919 1.38373,-0.1933 2.07532,-0.292 0.19179,-0.0445 0.38522,-0.0477 0.57876,-0.0366 0.15922,-0.008 0.31541,-0.0233 0.47247,-0.0238 0.0782,-0.005 0.23629,-0.0803 0.29955,-0.11043 0.28357,-0.40337 0.39844,-0.99328 0.51784,-1.48694 0.29591,-1.64112 0.27334,-3.31623 0.31315,-4.97708 0.18863,-3.10978 -0.34397,-6.15734 -1.2131,-9.1288 -1.18239,-3.49249 -3.28971,-6.49755 -5.66519,-9.27084 -2.61127,-2.8906 -5.51711,-5.53309 -8.71499,-7.75744 2.86765,0.42843 -8.34986,-3.89623 -5.29615,-2.82881 7.82844,2.73644 0.76406,0.52441 -0.71354,0.11228 -4.22242,-1.11566 -8.59312,-1.30266 -12.93365,-1.46267 -3.76036,-0.11914 -7.51936,-0.16593 -11.26235,0.24638 -3.34513,0.37828 -6.43986,1.5299 -9.37589,3.12567 -3.50972,2.05062 -6.22304,5.06548 -8.73489,8.20305 -3.04173,3.86558 -5.32974,8.21798 -7.29444,12.706 -2.11942,4.78709 -3.03542,9.89724 -3.62449,15.05959 -0.65825,5.81024 -0.4172,11.59184 0.41948,17.36015 1.0361,6.33312 3.08787,12.42204 5.61452,18.30055 2.28581,5.41541 6.02545,9.72734 10.47458,13.46071 5.04404,3.9722 10.94786,6.28217 17.11028,7.8353 -0.81786,-0.23791 -3.27778,-0.49889 -2.45356,-0.71375 1.1195,-0.29183 2.2891,0.34476 3.4406,0.45645 1.16424,0.11294 2.33297,0.1915 3.5024,0.21696 3.44259,0.0749 6.77483,-0.27367 10.1633,-0.81882 4.96583,-0.91066 9.71894,-2.59687 14.20642,-4.88381 2.01861,-1.01556 3.80518,-2.35679 5.34579,-3.99964 0.57657,-0.67242 1.16817,-1.34482 1.62804,-2.10524 0.12337,-0.16891 0.15768,-0.34652 0.18422,-0.54599 -0.0347,0.21131 0.0452,0.053 0.15429,0.0346 0.67078,-0.46554 1.56192,-0.49441 2.34103,-0.63133 0,0 1.62758,0.28296 1.62758,0.28296 l 0,0 c 0.80485,0.42131 1.67248,0.78444 2.34382,1.41198 0.15631,0.10461 0.24621,0.13116 0.18347,0.3546 -0.0764,0.21921 -0.14291,0.44222 -0.29565,0.63797 -0.56767,0.74645 -1.12954,1.49835 -1.78546,2.17184 -1.6105,1.71713 -3.48361,3.11721 -5.59958,4.16603 -4.58793,2.29097 -9.40382,4.05424 -14.45921,5.00602 -9.51691,1.59772 -17.06717,1.28034 -26.54541,-1.47867 -6.14246,-1.64914 -12.03051,-4.03302 -17.00996,-8.09749 -4.42776,-3.83164 -8.08591,-8.26089 -10.36123,-13.72212 -2.50555,-5.99251 -4.47449,-12.19356 -5.5194,-18.61979 -0.83493,-5.9035 -1.02065,-11.83872 -0.3467,-17.77701 0.58505,-5.28356 1.62286,-10.50758 3.75947,-15.40803 2.02198,-4.58611 4.33112,-9.0463 7.44448,-13.003 2.55511,-3.2277 5.29842,-6.34204 8.85852,-8.49896 2.97002,-1.66559 6.1309,-2.86661 9.53002,-3.30115 3.77114,-0.45333 7.55744,-0.42572 11.35022,-0.29671 4.36235,0.15296 8.74047,0.44396 13.00227,1.45257 5.77222,1.52625 11.43959,3.72747 16.45125,7.00172 3.17391,2.28324 6.22735,4.7024 8.73953,7.73216 2.33419,2.8125 4.55768,5.74924 5.61276,9.30791 0.86261,3.01368 1.41717,6.07912 1.27382,9.23052 -0.0133,1.70194 -0.0314,3.4205 -0.3388,5.0994 -0.14854,0.64254 -0.33147,1.28442 -0.67167,1.85535 -0.12918,0.12192 -0.2445,0.13975 -0.3734,0.27324 -0.1726,0.0779 -0.33538,0.14387 -0.53133,0.15742 -0.19511,0.024 -0.38981,0.0247 -0.59001,0.0106 -0.71576,0.0721 -1.42969,0.16285 -2.14335,0.2536 -2.22468,0.28479 -4.45646,0.50807 -6.6913,0.69668 -3.25093,0.25086 -6.50803,0.38668 -9.76964,0.32265 -5.20953,-0.008 -10.42003,0.0136 -15.62698,0.19583 -8.4043,0.3361 -16.78055,0.98397 -25.15268,1.77974 -7.23325,0.66726 -14.46987,1.34049 -21.72702,1.68863 0,0 -4.60838,-2.05352 -4.60838,-2.05352 z"
       inkscape:connector-curvature="0" />
    <path
       style="color:#000000;fill:#000000;fill-opacity:1;fill-rule:nonzero;stroke:#000000;stroke-width:15;stroke-linecap:square;stroke-linejoin:miter;stroke-miterlimit:4;stroke-opacity:1;stroke-dasharray:none;stroke-dashoffset:0;marker:none;visibility:visible;display:inline;overflow:visible;enable-background:accumulate"
       d="m 456.47279,415.50399 c 3.62273,27.45409 1.39843,55.4692 7.02673,82.69288 -3.30857,3.74979 -4.22184,-6.55279 -0.63231,-2.67161 0.10908,5.22733 -7.49699,0.50578 -4.60877,-2.82954 -3.84272,-25.96498 -1.97797,-52.37741 -5.53818,-78.36957 1.25085,0.3926 2.50164,0.78537 3.75253,1.17784 z"
       id="path4715"
       inkscape:connector-curvature="0" />
    <path
       style="color:#000000;fill:#000000;fill-opacity:1;fill-rule:nonzero;stroke:#000000;stroke-width:15;stroke-linecap:square;stroke-linejoin:miter;stroke-miterlimit:4;stroke-opacity:1;stroke-dasharray:none;stroke-dashoffset:0;marker:none;visibility:visible;display:inline;overflow:visible;enable-background:accumulate"
       d="m 451.69928,406.78927 c 4.71746,-8.45783 15.32919,-10.55614 24.24866,-10.1306 10.10872,-0.58502 22.15778,1.09974 28.16607,10.26941 4.01811,6.39205 5.7472,14.91324 2.72039,22.02061 -4.57321,8.11851 -14.66135,9.90197 -23.09635,11.17022 -5.70218,0.81458 -11.39443,1.85397 -16.89396,3.5966 -2.48936,0.42038 -5.03031,-2.38668 -1.1225,-0.94258 14.83596,3.16356 25.46764,14.88138 35.57407,25.32115 7.52375,7.67094 15.63927,14.74757 24.04609,21.41553 4.31688,5.58139 -6.76595,-0.038 -7.8259,-2.69637 -4.55401,-4.03582 -9.43128,-7.74001 -13.67256,-12.15365 -9.21989,-8.7951 -17.43271,-18.84077 -28.02353,-26.06715 -3.68691,-2.37669 -7.6984,-4.30263 -11.95914,-5.39147 4.671,0.67126 -0.0344,0.92346 -0.96573,-1.09714 5.05366,-1.91761 10.67686,-2.52089 16.04559,-3.43093 8.41045,-1.28721 18.27893,-2.93538 23.40671,-10.50976 3.82547,-6.96601 1.60416,-15.65609 -2.1105,-22.1817 -2.9086,-4.27104 -6.21179,-6.79984 -10.69082,-7.14172 -8.70026,-0.0181 -17.92982,-1.16883 -26.19848,2.29161 -4.53907,0.61949 -6.03106,8.2781 -11.03982,6.10866 l -0.60825,-0.45072 -4e-5,0 z"
       id="path4717"
       inkscape:connector-curvature="0" />
    <path
       style="color:#000000;fill:#000000;fill-opacity:1;fill-rule:nonzero;stroke:#ffffff;stroke-width:5;stroke-linecap:square;stroke-linejoin:miter;stroke-miterlimit:4;stroke-opacity:1;stroke-dasharray:none;stroke-dashoffset:0;marker:none;visibility:visible;display:inline;overflow:visible;enable-background:accumulate"
       id="path4699-9"
       d="m 263.85367,407.23004 c -1.53502,-1.28943 -3.14134,-2.44504 -4.77397,-3.54178 -0.7918,-0.19238 -3.43575,-2.56876 -0.23336,-0.12354 0.26653,0.20352 -0.57938,-0.30033 -0.87155,-0.4432 -0.80102,-0.3917 -0.99535,-0.46412 -1.80996,-0.81588 -1.91381,-0.83456 -3.90515,-1.3261 -5.91217,-1.68477 -2.19553,-0.36473 -4.40936,-0.48129 -6.62144,-0.5883 -2.27536,-0.10053 -4.55248,-0.12222 -6.82885,-0.0752 -2.45408,0.10305 -4.80892,0.91973 -7.12204,1.8504 -2.20198,0.9262 -4.35963,1.99456 -6.48009,3.16508 -1.81344,0.99571 -3.51913,2.2388 -5.1641,3.59053 -1.77121,1.47316 -3.39176,3.18152 -4.92012,5.00483 -1.88182,2.30358 -3.45251,4.93956 -4.98736,7.58345 -1.73802,2.88228 -3.26836,5.92815 -4.71985,9.03014 -1.3844,3.00265 -2.33261,6.22566 -3.00222,9.55595 -0.66147,3.62098 -0.73905,7.32252 -0.49049,11.00324 0.44554,4.41559 1.70355,8.60033 3.19996,12.63356 1.54749,3.99422 3.70876,7.53318 6.15385,10.77701 2.3813,3.26485 5.1557,6.01274 8.11837,8.458 2.82398,2.31614 5.99486,3.81289 9.16018,5.27665 4.44276,1.57443 1.7757,0.78702 7.4218,1.6515 3.51839,0.34461 7.05105,0.3591 10.57857,0.35235 3.45102,0.11334 6.77012,-0.66302 9.99245,-2.10072 3.26016,-1.58925 6.01936,-4.16905 8.54455,-7.07321 2.34071,-2.8115 4.17961,-6.11246 5.73581,-9.61183 1.40303,-3.16735 2.07322,-6.62874 2.47203,-10.15908 0.39316,-3.54658 0.30352,-7.09549 -0.0605,-10.63387 -0.41528,-3.50748 -1.26473,-6.89177 -2.37951,-10.15779 -0.86327,-2.74071 -2.29718,-5.06446 -3.93696,-7.18515 -1.57733,-2.03482 -3.3876,-3.74865 -5.25591,-5.36875 -1.26617,-1.08914 -2.57509,-2.07052 -4.00539,-2.81245 -0.36363,-0.18863 -1.46758,-0.71603 -1.10433,-0.52629 0.64512,0.337 1.30015,0.64544 1.95023,0.96816 -2.57161,-1.03876 -5.27441,-1.21216 -7.95829,-1.38604 -2.72705,-0.0979 -5.45745,-0.22853 -8.18329,-0.0486 -2.21862,0.0456 -4.37996,0.53809 -6.50639,1.26937 -1.83694,0.68782 -3.44918,1.90447 -4.9513,3.32653 -1.5084,1.55874 -2.34357,3.65459 -3.04185,5.84886 -0.92226,3.15711 -1.45699,6.44936 -1.89951,9.74665 -0.40544,3.28376 -0.54038,6.60619 -0.51405,9.92315 0.0293,2.68687 0.74214,5.10983 1.94125,7.3356 0.96017,1.79817 2.06315,3.47847 3.36714,4.92619 0.75766,0.84171 1.65244,1.31115 2.65103,1.52792 -5.65733,-1.20471 -2.81093,-0.67418 -1.45487,-0.66769 0.34865,0.022 0.63506,-0.0503 0.88581,-0.3496 0.34709,-0.37574 0.75712,-0.45768 1.19833,-0.5966 0,0 1.64611,0.5164 1.64611,0.5164 l 0,0 c 0.17181,0.34345 0.32728,0.59707 0.29632,1.0087 -0.12035,0.50199 -0.29781,0.83635 -0.77721,0.8295 -1.80478,0.0196 -3.39537,-0.24402 -5.2214,-0.95309 -0.99212,-0.30651 -1.86069,-0.8858 -2.60517,-1.74894 -1.27872,-1.50651 -2.38809,-3.20552 -3.33524,-5.03745 -1.07071,-2.41257 -1.89393,-4.87276 -1.86432,-7.67124 -0.009,-3.37957 0.1604,-6.76329 0.56054,-10.10965 0.46364,-3.36356 1.01313,-6.72488 1.92008,-9.96002 0.70923,-2.28442 1.54897,-4.47087 3.09577,-6.11448 1.48075,-1.60111 3.17822,-2.81306 5.06546,-3.5864 2.1366,-0.87562 4.36002,-1.34341 6.61497,-1.46708 2.73621,-0.0701 5.47369,-0.11142 8.20919,0.0252 2.67744,0.15968 5.36464,0.46795 7.95762,1.33608 3.24693,1.4475 6.56347,2.73037 9.39442,5.21536 1.84906,1.62917 3.65257,3.35701 5.26592,5.3235 1.61357,2.1469 2.96589,4.50287 3.90429,7.19194 1.08249,3.30746 1.93986,6.71636 2.33106,10.25403 0.36739,3.57137 0.42531,7.16048 0.0377,10.7383 -0.41862,3.57426 -1.10135,7.08467 -2.52832,10.29012 -1.58901,3.52507 -3.43995,6.86558 -5.79375,9.72049 -2.53837,2.95114 -5.31558,5.57686 -8.59557,7.22121 -3.23111,1.48394 -6.56668,2.25516 -10.03842,2.1673 -3.55642,0.009 -7.11754,-0.024 -10.66544,-0.35172 -4.59408,-0.38376 -9.09671,-1.67871 -13.47307,-3.39648 -3.21879,-1.26591 -6.30846,-2.96657 -9.12812,-5.25328 -2.95666,-2.47838 -5.72464,-5.25888 -8.09684,-8.55001 -2.34331,-3.40584 -4.59601,-6.91998 -6.10167,-10.99734 -1.50303,-4.11116 -2.75243,-8.36875 -3.15247,-12.86857 -0.26982,-3.76583 -0.15,-7.5369 0.51385,-11.24351 0.6903,-3.37785 1.65292,-6.6502 3.06175,-9.69665 1.4491,-3.21051 3.07295,-6.29422 4.8294,-9.27183 1.55952,-2.64883 3.12202,-5.31494 5.01152,-7.64073 1.54458,-1.85605 3.16468,-3.62202 4.96053,-5.11953 1.65734,-1.36618 3.3682,-2.6405 5.2006,-3.63804 2.15205,-1.17916 4.34501,-2.24919 6.5689,-3.2133 2.33278,-0.95738 4.70669,-1.81069 7.18742,-1.92376 2.301,-0.14298 4.60518,-0.0404 6.9072,0.0362 2.2443,0.11319 4.49197,0.25215 6.72425,0.56006 2.03069,0.35037 4.04518,0.82995 5.98357,1.66355 2.64538,1.13417 5.18494,2.58042 7.65102,4.2028 1.56293,1.0775 3.0907,2.22742 4.55481,3.49413 0,0 -2.25888,-0.83654 -2.25888,-0.83654 z"
       inkscape:connector-curvature="0" />
    <path
       style="color:#000000;fill:#000000;fill-opacity:1;fill-rule:nonzero;stroke:#ffffff;stroke-width:5;stroke-linecap:square;stroke-linejoin:miter;stroke-miterlimit:4;stroke-opacity:1;stroke-dasharray:none;stroke-dashoffset:0;marker:none;visibility:visible;display:inline;overflow:visible;enable-background:accumulate"
       d="m 104.11908,294.88933 c 20.50312,-5.95704 42.0688,-4.95486 63.08847,-7.41169 9.21193,7.23395 6.98937,20.07319 6.59221,30.30444 0.42946,60.12041 16.65471,119.01453 15.6381,179.22013 3.04001,13.60207 -10.29323,27.85283 -24.07041,25.68712 -15.46196,2.07521 -34.11598,4.65504 -46.37561,-7.34539 -12.67133,-13.49862 -14.31469,-32.90059 -16.06173,-50.42735 -9.556779,-5.38292 11.25467,-11.18754 5.10506,-1.7449 -0.23235,19.56832 3.34534,41.64518 19.23797,54.86553 14.64369,8.48749 32.83573,5.02821 47.78801,-0.65756 10.78228,-6.9938 11.12061,-21.40167 9.92223,-32.86073 -1.39047,-64.24747 -17.71973,-127.44869 -15.30408,-191.88006 -10.74544,-4.63624 -22.17047,1.12384 -33.24007,-0.5043 -10.82442,0.30551 -21.43102,4.44879 -32.32015,2.75476 z"
       id="path4691-8"
       inkscape:connector-curvature="0" />
    <path
       style="color:#000000;fill:#000000;fill-opacity:1;fill-rule:nonzero;stroke:#ffffff;stroke-width:5;stroke-linecap:square;stroke-linejoin:miter;stroke-miterlimit:4;stroke-opacity:1;stroke-dasharray:none;stroke-dashoffset:0;marker:none;visibility:visible;display:inline;overflow:visible;enable-background:accumulate"
       d="m 291.69826,398.71055 c -4.25989,23.2325 -6.30005,47.85633 1.43502,70.6103 2.81713,9.58122 8.13492,20.10139 18.44413,23.13638 1.20054,-0.50874 7.5551,-1.20186 9.52497,-4.11988 6.9944,-6.54158 8.90175,-16.4437 10.86731,-25.4058 3.15712,-18.38481 2.43556,-37.76155 -4.05669,-55.37459 6.53879,0.20882 6.17667,8.60308 7.73391,13.23338 4.01236,19.52726 2.70855,40.1804 -3.84377,59.0084 -2.82203,6.97816 -8.83303,14.22971 -17.07864,13.76955 -10.37489,-0.1434 -19.35911,-8.04279 -22.56386,-17.63526 -9.66904,-22.94799 -8.69495,-48.64567 -4.46073,-72.71576 1.12357,-2.75276 -0.57958,-8.17929 3.99835,-4.50672 z"
       id="path4703-0"
       inkscape:connector-curvature="0" />
    <path
       style="color:#000000;fill:#ffffff;fill-opacity:1;fill-rule:nonzero;stroke:#ffffff;stroke-width:5;stroke-linecap:square;stroke-linejoin:miter;stroke-miterlimit:4;stroke-opacity:1;stroke-dasharray:none;stroke-dashoffset:0;marker:none;visibility:visible;display:inline;overflow:visible;enable-background:accumulate"
       id="path4713-4"
       d="m 350.83325,440.96185 c 7.26615,-0.29478 14.50889,-0.97754 21.74699,-1.65617 8.32351,-0.89742 16.68268,-1.4701 25.04525,-1.85502 5.12352,-0.21959 10.25147,-0.29122 15.37906,-0.3244 3.22315,0.0428 6.44106,-0.0828 9.65382,-0.32963 2.19997,-0.18849 4.3956,-0.42606 6.58503,-0.71175 0.69252,-0.0919 1.38373,-0.1933 2.07532,-0.292 0.19179,-0.0445 0.38522,-0.0477 0.57876,-0.0366 0.15922,-0.008 0.31541,-0.0233 0.47247,-0.0238 0.0782,-0.005 0.23629,-0.0803 0.29955,-0.11043 0.28357,-0.40337 0.39844,-0.99328 0.51784,-1.48694 0.29591,-1.64112 0.27334,-3.31623 0.31315,-4.97708 0.18863,-3.10978 -0.34397,-6.15734 -1.2131,-9.1288 -1.18239,-3.49249 -3.28971,-6.49755 -5.66519,-9.27084 -2.61127,-2.8906 -5.51711,-5.53309 -8.71499,-7.75744 2.86765,0.42843 -8.34986,-3.89623 -5.29615,-2.82881 7.82844,2.73644 0.76406,0.52441 -0.71354,0.11228 -4.22242,-1.11566 -8.59312,-1.30266 -12.93365,-1.46267 -3.76036,-0.11914 -7.51936,-0.16593 -11.26235,0.24638 -3.34513,0.37828 -6.43986,1.5299 -9.37589,3.12567 -3.50972,2.05062 -6.22304,5.06548 -8.73489,8.20305 -3.04173,3.86558 -5.32974,8.21798 -7.29444,12.706 -2.11942,4.78709 -3.03542,9.89724 -3.62449,15.05959 -0.65825,5.81024 -0.4172,11.59184 0.41948,17.36015 1.0361,6.33312 3.08787,12.42204 5.61452,18.30055 2.28581,5.41541 6.02545,9.72734 10.47458,13.46071 5.04404,3.97219 10.94786,6.28216 17.11028,7.83529 -0.81786,-0.23791 -3.27778,-0.49889 -2.45356,-0.71375 1.1195,-0.29183 2.2891,0.34476 3.4406,0.45645 1.16424,0.11294 2.33297,0.1915 3.5024,0.21696 3.44259,0.0749 6.77483,-0.27367 10.1633,-0.81882 4.96583,-0.91066 9.71894,-2.59687 14.20642,-4.88381 2.01861,-1.01555 3.80518,-2.35678 5.34579,-3.99963 0.57657,-0.67242 1.16817,-1.34482 1.62804,-2.10524 0.12337,-0.16891 0.15768,-0.34652 0.18422,-0.54599 -0.0347,0.21131 0.0452,0.053 0.15429,0.0346 0.67078,-0.46554 1.56192,-0.49441 2.34103,-0.63133 0,0 1.62758,0.28296 1.62758,0.28296 l 0,0 c 0.80485,0.42131 1.67248,0.78444 2.34382,1.41198 0.15631,0.10461 0.24621,0.13116 0.18347,0.3546 -0.0764,0.21921 -0.14291,0.44222 -0.29565,0.63797 -0.56767,0.74645 -1.12954,1.49835 -1.78546,2.17184 -1.6105,1.71712 -3.48361,3.1172 -5.59958,4.16602 -4.58793,2.29097 -9.40382,4.05424 -14.45921,5.00602 -9.51691,1.59772 -17.06717,1.28034 -26.54541,-1.47867 -6.14246,-1.64914 -12.03051,-4.03302 -17.00996,-8.09748 -4.42776,-3.83164 -8.08591,-8.26089 -10.36123,-13.72212 -2.50555,-5.99251 -4.47449,-12.19356 -5.5194,-18.61979 -0.83493,-5.9035 -1.02065,-11.83872 -0.3467,-17.77701 0.58505,-5.28356 1.62286,-10.50758 3.75947,-15.40803 2.02198,-4.58611 4.33112,-9.0463 7.44448,-13.003 2.55511,-3.2277 5.29842,-6.34204 8.85852,-8.49896 2.97002,-1.66559 6.1309,-2.86661 9.53002,-3.30115 3.77114,-0.45333 7.55744,-0.42572 11.35022,-0.29671 4.36235,0.15296 8.74047,0.44396 13.00227,1.45257 5.77222,1.52625 11.43959,3.72747 16.45125,7.00172 3.17391,2.28324 6.22735,4.7024 8.73953,7.73216 2.33419,2.8125 4.55768,5.74924 5.61276,9.30791 0.86261,3.01368 1.41717,6.07912 1.27382,9.23052 -0.0133,1.70194 -0.0314,3.4205 -0.3388,5.0994 -0.14854,0.64254 -0.33147,1.28442 -0.67167,1.85535 -0.12918,0.12192 -0.2445,0.13975 -0.3734,0.27324 -0.1726,0.0779 -0.33538,0.14387 -0.53133,0.15742 -0.19511,0.024 -0.38981,0.0247 -0.59001,0.0106 -0.71576,0.0721 -1.42969,0.16285 -2.14335,0.2536 -2.22468,0.28479 -4.45646,0.50807 -6.6913,0.69668 -3.25093,0.25086 -6.50803,0.38668 -9.76964,0.32265 -5.20953,-0.008 -10.42003,0.0136 -15.62698,0.19583 -8.4043,0.3361 -16.78055,0.98397 -25.15268,1.77974 -7.23325,0.66726 -14.46987,1.34049 -21.72702,1.68863 0,0 -4.60838,-2.05352 -4.60838,-2.05352 z"
       inkscape:connector-curvature="0" />
    <path
       style="color:#000000;fill:#000000;fill-opacity:1;fill-rule:nonzero;stroke:#ffffff;stroke-width:5;stroke-linecap:square;stroke-linejoin:miter;stroke-miterlimit:4;stroke-opacity:1;stroke-dasharray:none;stroke-dashoffset:0;marker:none;visibility:visible;display:inline;overflow:visible;enable-background:accumulate"
       d="m 451.69928,406.78927 c 4.71746,-8.45783 15.32919,-10.55614 24.24866,-10.1306 10.10872,-0.58502 22.15778,1.09974 28.16607,10.26941 4.01811,6.39205 5.7472,14.91324 2.72039,22.02061 -4.57321,8.11851 -14.66135,9.90197 -23.09635,11.17022 -5.70218,0.81458 -11.39443,1.85397 -16.89396,3.5966 -2.48936,0.42038 -5.03031,-2.38668 -1.1225,-0.94258 14.83596,3.16356 25.46764,14.88138 35.57407,25.32115 7.52375,7.67094 15.63927,14.74757 24.04609,21.41553 4.31688,5.58139 -6.76595,-0.038 -7.8259,-2.69637 -4.55401,-4.03582 -9.43128,-7.74001 -13.67256,-12.15365 -9.21989,-8.7951 -17.43271,-18.84077 -28.02353,-26.06715 -3.68691,-2.37669 -7.6984,-4.30263 -11.95914,-5.39147 4.671,0.67126 -0.0344,0.92346 -0.96573,-1.09714 5.05366,-1.91761 10.67686,-2.52089 16.04559,-3.43093 8.41045,-1.28721 18.27893,-2.93538 23.40671,-10.50976 3.82547,-6.96601 1.60416,-15.65609 -2.1105,-22.1817 -2.9086,-4.27104 -6.21179,-6.79984 -10.69082,-7.14172 -8.70026,-0.0181 -17.92982,-1.16883 -26.19848,2.29161 -4.53907,0.61949 -6.03106,8.2781 -11.03982,6.10866 l -0.60825,-0.45072 -4e-5,0 z"
       id="path4717-3"
       inkscape:connector-curvature="0" />
    <path
       style="color:#000000;fill:#000000;fill-opacity:1;fill-rule:nonzero;stroke:#ffffff;stroke-width:5;stroke-linecap:square;stroke-linejoin:miter;stroke-miterlimit:4;stroke-opacity:1;stroke-dasharray:none;stroke-dashoffset:0;marker:none;visibility:visible;display:inline;overflow:visible;enable-background:accumulate"
       d="m 456.47279,415.50399 c 3.62273,27.45409 1.39843,55.4692 7.02673,82.69288 -3.30857,3.74979 -4.22184,-6.55279 -0.63231,-2.67161 0.10908,5.22733 -7.49699,0.50578 -4.60877,-2.82954 -3.84272,-25.96498 -1.97797,-52.37741 -5.53818,-78.36957 1.25085,0.3926 2.50164,0.78537 3.75253,1.17784 z"
       id="path4715-8"
       inkscape:connector-curvature="0" />
  </g>
</svg>
