<?xml version="1.0" encoding="UTF-8" standalone="no"?>
<!-- Created with Inkscape (http://www.inkscape.org/) -->

<svg
   xmlns:dc="http://purl.org/dc/elements/1.1/"
   xmlns:cc="http://creativecommons.org/ns#"
   xmlns:rdf="http://www.w3.org/1999/02/22-rdf-syntax-ns#"
   xmlns:svg="http://www.w3.org/2000/svg"
   xmlns="http://www.w3.org/2000/svg"
   xmlns:sodipodi="http://sodipodi.sourceforge.net/DTD/sodipodi-0.dtd"
   xmlns:inkscape="http://www.inkscape.org/namespaces/inkscape"
   width="210mm"
   height="297mm"
   id="svg2"
   version="1.1"
   inkscape:version="0.48.4 r9939"
   sodipodi:docname="logo_maya.svg"
   inkscape:export-filename="C:\Users\Thibault Guillaumont\Documents\Maya\public\img\logo_maya.png"
   inkscape:export-xdpi="80"
   inkscape:export-ydpi="80">
  <defs
     id="defs4">
    <filter
       inkscape:collect="always"
       id="filter4087"
       x="-0.25"
       width="1.5"
       y="-0.25"
       height="1.5"
       inkscape:menu="Non realistic 3D shaders"
       inkscape:menu-tooltip="Brushed aluminium shader"
       inkscape:label="Aluminium"
       color-interpolation-filters="sRGB">
      <feGaussianBlur
         inkscape:collect="always"
         stdDeviation="3.6485683"
         id="feGaussianBlur4089"
         result="fbSourceGraphic" />
      <feColorMatrix
         result="fbSourceGraphicAlpha"
         in="fbSourceGraphic"
         values="0 0 0 -1 0 0 0 0 -1 0 0 0 0 -1 0 0 0 0 1 0"
         id="feColorMatrix4107" />
      <feGaussianBlur
         id="feGaussianBlur4109"
         result="result8"
         stdDeviation="7"
         in="fbSourceGraphic" />
      <feComposite
         id="feComposite4111"
         in2="fbSourceGraphic"
         in="result8"
         operator="xor"
         result="result6" />
      <feDisplacementMap
         id="feDisplacementMap4113"
         in2="result6"
         result="result4"
         scale="75"
         yChannelSelector="A"
         xChannelSelector="A"
         in="result6" />
      <feComposite
         id="feComposite4115"
         in2="fbSourceGraphic"
         k1="1"
         in="result4"
         operator="arithmetic"
         result="result2" />
    </filter>
  </defs>
  <sodipodi:namedview
     id="base"
     pagecolor="#ffffff"
     bordercolor="#666666"
     borderopacity="1.0"
     inkscape:pageopacity="0.0"
     inkscape:pageshadow="2"
     inkscape:zoom="1.0507813"
     inkscape:cx="148.74316"
     inkscape:cy="454.9003"
     inkscape:document-units="px"
     inkscape:current-layer="layer1"
     showgrid="false"
     inkscape:window-width="1366"
     inkscape:window-height="705"
     inkscape:window-x="-8"
     inkscape:window-y="-8"
     inkscape:window-maximized="1" />
  <metadata
     id="metadata7">
    <rdf:RDF>
      <cc:Work
         rdf:about="">
        <dc:format>image/svg+xml</dc:format>
        <dc:type
           rdf:resource="http://purl.org/dc/dcmitype/StillImage" />
        <dc:title></dc:title>
      </cc:Work>
    </rdf:RDF>
  </metadata>
  <g
     inkscape:label="Calque 1"
     inkscape:groupmode="layer"
     id="layer1">
    <path
       sodipodi:type="arc"
       style="color:#000000;fill:#ffffff;fill-opacity:1;fill-rule:nonzero;stroke:#018124;stroke-width:49.06876755;stroke-linecap:square;stroke-linejoin:miter;stroke-miterlimit:4;stroke-opacity:1;stroke-dasharray:none;stroke-dashoffset:0;marker:none;visibility:visible;display:inline;overflow:visible;filter:url(#filter4087);enable-background:accumulate"
       id="path4083"
       sodipodi:cx="289.69769"
       sodipodi:cy="540.63348"
       sodipodi:rx="182.42146"
       sodipodi:ry="182.42146"
       d="m 472.11916,540.63348 a 182.42146,182.42146 0 1 1 -364.84293,0 182.42146,182.42146 0 1 1 364.84293,0 z"
       transform="matrix(1.0101195,0,0,1.0279144,-61.093404,-13.881926)" />
    <path
       style="fill:#ffffff;fill-opacity:1;stroke:#000000;stroke-width:1px;stroke-linecap:butt;stroke-linejoin:miter;stroke-opacity:1"
       d="m 115.57482,581.27287 c -5.84586,24.45809 -6.03242,65.28897 -2.624,88.93802 6.34525,7.10957 11.88961,14.8297 23.85458,17.65495 l 67.50846,-3.04328 c 24.23956,-22.46817 26.81594,-31.09723 23.33412,-35.85613 l -9.7587,-68.80553 c 7.77969,-7.92714 -18.57051,-8.63766 -29.62305,-12.58281 -26.04935,3.91477 -62.29102,4.18632 -72.69141,13.69478 z"
       id="path4149"
       inkscape:connector-curvature="0"
       sodipodi:nodetypes="cccccccc" />
    <path
       style="fill:#eeea49;fill-opacity:1;stroke:#000000;stroke-width:1px;stroke-linecap:butt;stroke-linejoin:miter;stroke-opacity:1"
       d="m 120.19394,589.03714 c 6.61495,-13.05927 19.04745,-9.65875 29.34113,-12.30968 l 38.27576,0.54622 c 6.876,1.23341 13.74572,2.54754 20.12459,10.16379 l 7.41661,64.31863 -5.00947,15.91872 -14.68141,9.2274 48.55492,3.31639 9.19485,14.74823 -14.24769,16.73806 -33.46147,5.05263 -19.25715,-13.55822 1.62645,13.16805 -31.48805,1.1705 -2.68906,-14.02642 -15.61391,13.18756 -30.20857,-2.45803 C 80.189265,716.83954 90.732437,691.3674 88.684204,693.56224 90.27459,683.40828 95.181681,678.19618 104.97038,680.25763 l 23.89795,6.78887 c -6.53832,-20.96613 -18.11862,-70.43893 -8.67439,-98.00936 z"
       id="path4117"
       inkscape:connector-curvature="0"
       sodipodi:nodetypes="ccccccccccccccccccccc" />
    <path
       style="fill:#ffffff;stroke:#000000;stroke-width:1px;stroke-linecap:butt;stroke-linejoin:miter;stroke-opacity:1;fill-opacity:1"
       d="m 160.13951,589.77846 12.70799,1.15099 c -3.36993,5.63278 -3.85062,8.94741 -0.7807,15.04084 l -15.52716,2.06788 c -3.38392,-8.44431 0.008,-13.39373 3.59987,-18.25971 z"
       id="path4147"
       inkscape:connector-curvature="0"
       sodipodi:nodetypes="ccccc" />
    <path
       style="fill:#ffffff;fill-opacity:1;stroke:#000000;stroke-width:1px;stroke-linecap:butt;stroke-linejoin:miter;stroke-opacity:1"
       d="m 207.61678,685.62716 2.25534,12.52445 10.19241,-1.68366 5.76847,-11.91985 11.38515,7.35807 -9.88881,12.87321 -21.6643,2.00586 -7.93707,-10.17713 0.86744,-6.92386 z"
       id="path4127-5"
       inkscape:connector-curvature="0" />
    <path
       style="fill:#ffffff;stroke:#000000;stroke-width:1px;stroke-linecap:butt;stroke-linejoin:miter;stroke-opacity:1;fill-opacity:1"
       d="m 131.55739,685.52485 -2.25534,12.87543 -10.19241,-0.0975 -5.76847,-11.02215 -11.38515,9.12985 9.88881,11.33429 21.6643,-1.36558 7.93707,-11.41231 -0.86744,-6.78887 z"
       id="path4127"
       inkscape:connector-curvature="0" />
    <path
       style="color:#000000;fill:#000000;fill-opacity:1;fill-rule:nonzero;stroke:#000000;stroke-width:5;stroke-linecap:square;stroke-linejoin:miter;stroke-miterlimit:4;stroke-opacity:1;stroke-dasharray:none;stroke-dashoffset:0;marker:none;visibility:visible;display:inline;overflow:visible;enable-background:accumulate"
       d="m 121.98507,419.60849 c -37.417811,15.10906 -48.396868,71.098 -19.44564,99.21295 11.93267,17.331 43.91939,8.95293 45.92801,-11.95753 12.65473,-43.56389 -0.80631,-121.31181 -17.60998,-162.63193 -7.15006,-6.85958 12.16218,-8.4039 7.84375,0.77556 12.66974,21.73202 32.38416,63.89617 47.70014,83.82127 -0.76534,-29.3746 18.25328,-45.11183 34.57903,-67.83742 8.1272,-8.48969 15.05831,-26.38577 25.76348,-27.2992 1.1452,12.60072 -7.81529,23.2754 -12.38542,34.44715 -6.08135,15.03146 -8.30341,31.2677 -12.70143,46.81605 -8.64051,39.08131 -11.82818,81.62322 3.967,119.35268 6.68284,12.48224 17.53194,22.94026 30.79138,28.15373 22.96075,-2.29906 39.84016,-27.01323 35.40317,-49.29465 15.78493,-5.95207 15.37477,19.71418 6.63355,26.81543 -9.99495,17.20961 -31.57547,29.70776 -51.39268,22.41666 -25.68787,-10.27808 -38.21982,-38.62549 -40.90189,-64.61392 -4.48783,-44.22118 8.11851,-87.80593 21.07338,-129.6039 4.67699,-0.95429 -9.61336,14.33982 -17.10404,24.17748 -7.81048,11.17953 -7.53389,51.79238 -22.18455,57.02298 -10.93861,2.97905 -23.83884,-18.93415 -23.54592,-30.75486 -3.70421,-14.47199 -22.86619,-54.02867 -28.89163,-67.27827 16.67842,1.34558 18.23368,52.87231 21.40442,64.37973 7.4907,33.29737 10.47635,70.26263 -5.7524,101.5629 -15.17047,22.93742 -54.043637,17.16455 -64.967112,-7.02158 -18.4657,-30.29986 -5.257455,-76.70319 29.008022,-89.11337 2.21238,-0.70939 4.48514,-1.23306 6.78736,-1.54794 z"
       id="path2985"
       inkscape:connector-curvature="0"
       sodipodi:nodetypes="cccccccccccccccccccccccccc" />
    <path
       style="color:#000000;fill:#000000;fill-opacity:1;fill-rule:nonzero;stroke:#000000;stroke-width:5;stroke-linecap:square;stroke-linejoin:miter;stroke-miterlimit:4;stroke-opacity:1;stroke-dasharray:none;stroke-dashoffset:0;marker:none;visibility:visible;display:inline;overflow:visible;enable-background:accumulate"
       id="path2991"
       d="m 370.07641,453.19498 c -1.19538,-2.75828 -2.16324,-5.6072 -2.71998,-8.56274 -0.35058,-1.68425 -0.24349,-3.35317 0.13755,-5.01384 0.41246,-1.50523 1.17694,-2.87315 1.94483,-4.21998 0.60131,-1.09173 1.27244,-2.1416 2.0097,-3.14589 0.85836,-1.14809 1.94149,-2.08264 3.0639,-2.96087 1.39081,-1.05347 2.90848,-1.91494 4.50031,-2.62189 1.49817,-0.63457 3.06046,-1.0989 4.64395,-1.46351 1.44944,-0.31705 2.93092,-0.41923 4.40927,-0.48488 1.81269,-0.0866 3.61164,-0.14522 5.4268,-0.0707 1.9799,0.17746 3.95581,0.49578 5.89266,0.95245 3.69134,0.65388 6.96096,1.87439 10.25325,3.50797 2.10805,1.04275 4.18243,2.1463 6.16875,3.40636 2.15745,1.36812 3.79754,3.28385 5.26171,5.34305 1.8003,2.62867 3.00392,5.58098 4.09663,8.55532 1.23998,3.45769 2.01584,7.05163 2.74153,10.64464 0.64023,3.54764 1.07635,7.12583 1.36033,10.71824 0.23862,3.41854 0.27606,6.84615 0.29786,10.27152 -0.0162,3.10737 0.0662,6.21589 -0.0416,9.32189 -0.14547,3.19328 -0.79698,6.32382 -1.64037,9.39712 -0.78784,2.96534 -2.0781,5.72749 -3.68076,8.33052 -1.55856,2.48861 -3.67105,4.4836 -5.96969,6.27241 -2.44526,1.76195 -5.16324,3.10144 -7.99189,4.12183 -2.51086,0.85907 -5.15744,1.01382 -7.78584,1.108 -4.7933,0.17956 -9.57939,-0.47724 -14.2384,-1.59757 -2.89586,-0.75807 -5.44903,-2.27609 -7.8653,-3.99348 -2.3057,-1.73802 -4.34894,-3.79327 -6.31868,-5.89629 -1.78286,-1.8478 -3.08845,-3.98603 -3.95442,-6.38999 -0.73348,-2.49548 -0.83429,-5.11412 -0.72228,-7.69578 0.18891,-2.86188 0.98874,-5.60636 2.21623,-8.18418 1.4893,-2.84545 3.91855,-4.98812 6.26225,-7.11539 2.89394,-2.61965 5.9966,-4.97637 9.39305,-6.90066 2.1083,-1.11176 4.38541,-1.8581 6.77249,-1.95234 6.8745,0.92661 7.20752,1.45984 10.80469,6.1386 1.43039,1.91508 3.04438,3.67107 4.7847,5.30478 0.46804,0.52909 0.70602,0.60555 -0.20184,0.64095 0,0 -3.0359,-0.27429 -3.0359,-0.27429 l 0,0 c -0.86631,-0.16025 -1.57452,-0.33256 -2.23417,-0.95215 -1.76176,-1.63154 -3.28376,-3.49591 -4.75287,-5.39017 -0.8982,-1.14947 -1.76847,-2.3757 -2.8543,-3.36189 -1.65535,-1.50343 -5.4568,-2.00463 2.70255,-0.22644 -2.35972,-0.10999 -4.64612,0.64982 -6.75465,1.66297 -3.40587,1.84646 -6.5124,4.15413 -9.36488,6.7773 -2.28574,2.07766 -4.65343,4.1801 -6.15565,6.92358 -1.17908,2.45067 -1.9941,5.05155 -2.16667,7.78243 -0.0647,2.51467 0.0257,5.06788 0.78142,7.48776 0.88875,2.32949 2.24619,4.37085 3.98245,6.16671 1.96015,2.06332 4.01605,4.03964 6.33404,5.70333 2.42352,1.65981 5.00233,3.08927 7.88562,3.77435 1.47924,0.31745 5.32369,1.11254 -2.49894,-0.293 -0.49045,-0.0881 0.98963,0.11965 1.48619,0.16123 1.46306,0.12252 2.93211,0.127 4.39877,0.0906 2.60799,-0.0716 5.24068,-0.16688 7.75427,-0.94225 2.87372,-0.96201 5.57917,-2.28734 8.00934,-4.11718 2.27241,-1.72751 4.37203,-3.662 5.93262,-6.07914 1.61261,-2.53966 2.8774,-5.25594 3.67537,-8.16621 0.8182,-3.06365 1.51348,-6.16891 1.63837,-9.35069 0.10239,-3.09741 0.0476,-6.19813 0.0566,-9.29685 -0.0194,-3.41032 -0.0421,-6.82368 -0.27893,-10.22734 -0.28756,-3.57382 -0.71333,-7.13632 -1.34106,-10.66755 -0.62012,-3.63108 -1.44457,-7.22675 -2.67191,-10.70598 -1.09333,-2.94059 -2.28684,-5.87136 -4.04535,-8.48763 -1.45259,-1.9956 -3.09308,-3.82526 -5.21781,-5.13133 -1.97662,-1.22829 -4.0348,-2.31333 -6.11964,-3.34624 -1.88465,-0.92141 -9.01112,-3.53676 -0.49451,-0.81169 -1.95695,-0.51102 -3.9379,-0.84426 -5.96196,-0.91862 -1.79682,-0.10811 -3.59676,-0.14721 -5.39533,-0.13285 -1.47579,0.044 -2.95752,0.10862 -4.41094,0.38856 -1.59044,0.33122 -3.15974,0.76557 -4.67788,1.34805 -1.57662,0.67511 -3.09469,1.46879 -4.46735,2.50767 -1.11369,0.8389 -2.18272,1.73684 -3.06324,2.82639 -0.75417,0.95072 -1.42745,1.95949 -2.07271,2.98676 -0.77266,1.27944 -1.51851,2.58518 -2.00023,4.00702 -0.51184,1.55404 -0.61357,3.1425 -0.32927,4.76223 0.5598,2.89206 1.41571,5.71802 2.6852,8.38359 0,0 -4.26805,-0.62667 -4.26805,-0.62667 z"
       inkscape:connector-curvature="0" />
    <path
       style="color:#000000;fill:#000000;fill-opacity:1;fill-rule:nonzero;stroke:#000000;stroke-width:5;stroke-linecap:square;stroke-linejoin:miter;stroke-miterlimit:4;stroke-opacity:1;stroke-dasharray:none;stroke-dashoffset:0;marker:none;visibility:visible;display:inline;overflow:visible;enable-background:accumulate"
       id="path2991-1"
       d="m 231.38529,457.13179 c -1.19538,-2.75828 -2.16324,-5.6072 -2.71998,-8.56274 -0.35058,-1.68425 -0.24349,-3.35317 0.13755,-5.01384 0.41246,-1.50523 1.17694,-2.87315 1.94483,-4.21998 0.60131,-1.09173 1.27244,-2.1416 2.0097,-3.14589 0.85836,-1.14809 1.94149,-2.08264 3.0639,-2.96087 1.39081,-1.05347 2.90848,-1.91494 4.50031,-2.62189 1.49817,-0.63457 3.06046,-1.0989 4.64395,-1.46351 1.44944,-0.31705 2.93092,-0.41923 4.40927,-0.48488 1.81269,-0.0866 3.61164,-0.14522 5.4268,-0.0707 1.9799,0.17746 3.95581,0.49578 5.89266,0.95245 3.69134,0.65388 6.96096,1.87439 10.25325,3.50797 2.10805,1.04275 4.18243,2.1463 6.16875,3.40636 2.15745,1.36812 3.79754,3.28385 5.26171,5.34305 1.8003,2.62867 3.00392,5.58098 4.09663,8.55532 1.23998,3.45769 2.01584,7.05163 2.74153,10.64464 0.64023,3.54764 1.07635,7.12583 1.36033,10.71824 0.23862,3.41854 0.27606,6.84615 0.29786,10.27152 -0.0162,3.10737 0.0662,6.21589 -0.0416,9.32189 -0.14547,3.19328 -0.79698,6.32382 -1.64037,9.39712 -0.78784,2.96534 -2.0781,5.72749 -3.68076,8.33052 -1.55856,2.48861 -3.67105,4.4836 -5.96969,6.27241 -2.44526,1.76195 -5.16324,3.10144 -7.99189,4.12183 -2.51086,0.85907 -5.15744,1.01382 -7.78584,1.108 -4.7933,0.17956 -9.57939,-0.47724 -14.2384,-1.59757 -2.89586,-0.75807 -5.44903,-2.27609 -7.8653,-3.99348 -2.3057,-1.73802 -4.34894,-3.79327 -6.31868,-5.89629 -1.78286,-1.8478 -3.08845,-3.98603 -3.95442,-6.38999 -0.73348,-2.49548 -0.83429,-5.11412 -0.72228,-7.69578 0.18891,-2.86188 0.98874,-5.60636 2.21623,-8.18418 1.4893,-2.84545 3.91855,-4.98812 6.26225,-7.11539 2.89394,-2.61965 5.9966,-4.97637 9.39305,-6.90066 2.1083,-1.11176 4.38541,-1.8581 6.77249,-1.95234 6.8745,0.92661 7.20752,1.45984 10.80469,6.1386 1.43039,1.91508 3.04438,3.67107 4.7847,5.30478 0.46804,0.52909 0.70602,0.60555 -0.20184,0.64095 0,0 -3.0359,-0.27429 -3.0359,-0.27429 l 0,0 c -0.86631,-0.16025 -1.57452,-0.33256 -2.23417,-0.95215 -1.76176,-1.63154 -3.28376,-3.49591 -4.75287,-5.39017 -0.8982,-1.14947 -1.76847,-2.3757 -2.8543,-3.36189 -1.65535,-1.50343 -5.4568,-2.00463 2.70255,-0.22644 -2.35972,-0.10999 -4.64612,0.64982 -6.75465,1.66297 -3.40587,1.84646 -6.5124,4.15413 -9.36488,6.7773 -2.28574,2.07766 -4.65343,4.1801 -6.15565,6.92358 -1.17908,2.45067 -1.9941,5.05155 -2.16667,7.78243 -0.0647,2.51467 0.0257,5.06788 0.78142,7.48776 0.88875,2.32949 2.24619,4.37085 3.98245,6.16671 1.96015,2.06332 4.01605,4.03964 6.33404,5.70333 2.42352,1.65981 5.00233,3.08927 7.88562,3.77435 1.47924,0.31745 5.32369,1.11254 -2.49894,-0.293 -0.49045,-0.0881 0.98963,0.11965 1.48619,0.16123 1.46306,0.12252 2.93211,0.127 4.39877,0.0906 2.60799,-0.0716 5.24068,-0.16688 7.75427,-0.94225 2.87372,-0.96201 5.57917,-2.28734 8.00934,-4.11718 2.27241,-1.72751 4.37203,-3.662 5.93262,-6.07914 1.61261,-2.53966 2.8774,-5.25594 3.67537,-8.16621 0.8182,-3.06365 1.51348,-6.16891 1.63837,-9.35069 0.10239,-3.09741 0.0476,-6.19813 0.0566,-9.29685 -0.0194,-3.41032 -0.0421,-6.82368 -0.27893,-10.22734 -0.28756,-3.57382 -0.71333,-7.13632 -1.34106,-10.66755 -0.62012,-3.63108 -1.44457,-7.22675 -2.67191,-10.70598 -1.09333,-2.94059 -2.28684,-5.87136 -4.04535,-8.48763 -1.45259,-1.9956 -3.09308,-3.82526 -5.21781,-5.13133 -1.97662,-1.22829 -4.0348,-2.31333 -6.11964,-3.34624 -1.88465,-0.92141 -9.01112,-3.53676 -0.49451,-0.81169 -1.95695,-0.51102 -3.9379,-0.84426 -5.96196,-0.91862 -1.79682,-0.10811 -3.59676,-0.14721 -5.39533,-0.13285 -1.47579,0.044 -2.95752,0.10862 -4.41094,0.38856 -1.59044,0.33122 -3.15974,0.76557 -4.67788,1.34805 -1.57662,0.67511 -3.09469,1.46879 -4.46735,2.50767 -1.11369,0.8389 -2.18272,1.73684 -3.06324,2.82639 -0.75417,0.95072 -1.42745,1.95949 -2.07271,2.98676 -0.77266,1.27944 -1.51851,2.58518 -2.00023,4.00702 -0.51184,1.55404 -0.61357,3.1425 -0.32927,4.76223 0.5598,2.89206 1.41571,5.71802 2.6852,8.38359 0,0 -4.26805,-0.62667 -4.26805,-0.62667 z"
       inkscape:connector-curvature="0" />
    <path
       style="color:#000000;fill:#000000;fill-opacity:1;fill-rule:nonzero;stroke:#000000;stroke-width:5;stroke-linecap:square;stroke-linejoin:miter;stroke-miterlimit:4;stroke-opacity:1;stroke-dasharray:none;stroke-dashoffset:0;marker:none;visibility:visible;display:inline;overflow:visible;enable-background:accumulate"
       d="m 294.37676,433.87823 c 10.74017,-12.32586 34.22056,2.62177 27.61441,17.56988 -5.89894,18.95769 -16.3253,38.34544 -11.54516,58.75544 10.14271,14.38994 36.85695,1.13876 31.87958,-15.6203 -3.82959,-8.9987 -9.0278,-24.76971 3.49747,-29.26926 2.76564,14.23545 -3.81197,31.72386 8.1602,43.02583 22.57747,27.77176 58.53326,43.69742 74.076,77.26881 20.00735,33.46683 21.45485,80.64428 -5.47414,110.86473 -27.13378,32.26742 -78.00557,45.34185 -115.28577,23.19896 -33.74404,-23.51444 -33.03616,-82.29846 2.93054,-103.39861 30.56986,-17.74875 74.32445,7.39096 75.81185,42.33116 3.11896,24.21105 -17.81535,51.85785 -43.70953,47.70177 -18.56732,-2.83631 -32.33648,-27.43806 -19.84869,-43.30096 1.92201,-9.0857 24.07618,-9.84676 20.831,-3.24647 -14.7816,-3.25358 -29.46878,16.05759 -19.86648,28.7879 9.74906,20.37177 44.79089,20.48174 52.58996,-1.63441 15.04573,-29.93429 -7.84882,-72.32522 -42.04683,-73.35921 -31.35697,0.77607 -52.32612,35.68193 -46.50722,64.741 5.41279,33.07339 40.18057,57.95005 73.27714,51.63912 50.49989,-6.16695 89.63769,-61.9698 74.32645,-111.38434 -11.11102,-42.2953 -43.29017,-75.00246 -77.76634,-99.94816 -11.01336,-10.40851 -16.98192,-26.12138 -15.02075,-41.21557 3.82903,14.32677 1.79938,34.60416 -12.22568,42.48963 -14.4101,5.13968 -30.5171,-9.74784 -26.9398,-24.57189 2.24892,-17.12545 15.51339,-31.99542 13.42072,-49.78387 -1.15487,-9.69583 -13.63031,-22.65355 -22.17893,-11.64118 z"
       id="path3011"
       inkscape:connector-curvature="0" />
    <path
       style="fill:#ffffff;stroke:none;stroke-width:1px;stroke-linecap:butt;stroke-linejoin:miter;stroke-opacity:1;fill-opacity:1"
       d="m 124.53113,669.84024 12.27427,8.89575 c 0,0 64.16882,-4.0187 60.87255,-3.17984 -3.29627,0.83885 7.50335,-4.36985 7.50335,-4.36985 l 16.98012,8.23248 -21.0354,7.33509 -68.31084,0.039 -11.34177,-6.41821 z"
       id="path4151"
       inkscape:connector-curvature="0" />
    <path
       style="color:#000000;fill:#000000;fill-opacity:1;fill-rule:nonzero;stroke:#000000;stroke-width:5;stroke-linecap:square;stroke-linejoin:miter;stroke-miterlimit:4;stroke-opacity:1;stroke-dasharray:none;stroke-dashoffset:0;marker:none;visibility:visible;display:inline;overflow:visible;enable-background:accumulate"
       d="m 115.06569,666.65309 c -9.11508,2.09639 -6.6367,-8.73535 -6.95161,-13.27995 -1.22673,-22.09258 -2.84665,-44.33416 0.49062,-66.348 1.15447,-8.78766 11.22717,-14.27471 20.96363,-15.25357 26.47114,-5.62201 54.08962,-3.44585 80.94733,-1.62986 9.31154,2.20167 15.07269,10.85163 13.77681,18.71632 1.90842,24.69279 5.06296,49.33357 6.55885,74.03533 -0.59207,9.16857 -8.28873,17.30243 -18.48032,20.38617 -19.04217,6.90249 -40.17727,3.20377 -60.19673,4.94514 -9.3533,0.3297 -19.63979,2.74077 -28.14421,-1.7655 -6.70797,-3.38767 -12.65217,-8.82258 -14.71161,-15.19809 1.84299,-5.39173 6.73937,-0.22832 6.56664,2.9697 5.07798,8.96558 16.98998,15.82295 29.08649,13.66066 15.77844,-1.4266 31.66585,-1.03399 47.4895,-1.46652 13.18099,-0.75181 32.24666,-0.66548 32.60655,-17.2136 3.02684,-8.87574 0.26069,-18.16113 -0.16917,-27.17678 -2.19051,-19.86111 -3.76696,-39.79041 -5.52842,-59.6623 -1.54071,-7.87143 -10.95875,-12.25014 -19.75343,-12.63329 -19.5882,-0.55392 -39.41116,-1.90585 -58.8529,0.89321 -7.90079,1.44454 -16.31935,2.93646 -22.88697,7.08838 -7.31082,6.27634 -6.40735,15.84754 -7.15531,23.9408 -0.97767,20.08486 0.0747,40.19334 1.69246,60.23461 2.36791,1.99586 -0.0716,4.93418 1.48558,0.92458 2.14644,-0.89023 1.86961,2.98751 1.16622,3.83256 z"
       id="path3147"
       inkscape:connector-curvature="0"
       sodipodi:nodetypes="cccccccccccccccccccccccc" />
    <path
       style="color:#000000;fill:#000000;fill-opacity:1;fill-rule:nonzero;stroke:#000000;stroke-width:1.53883624;stroke-linecap:square;stroke-linejoin:miter;stroke-miterlimit:4;stroke-opacity:1;stroke-dasharray:none;stroke-dashoffset:0;marker:none;visibility:visible;display:inline;overflow:visible;enable-background:accumulate"
       d="m 123.73843,660.42997 c -6.15542,3.58591 -6.06767,-6.17889 -5.32606,-9.27953 -1.5721,-19.28195 -2.36475,-38.70751 -0.16028,-57.97287 0.98037,-5.6615 5.34025,-11.3374 12.35484,-12.59306 20.22357,-5.71558 41.93597,-4.51051 62.87296,-3.26051 4.85302,0.2829 10.26978,0.29497 13.7875,3.61606 4.22934,3.31499 5.72206,8.36187 5.23913,13.06859 1.69595,20.03369 3.35438,40.07475 5.33445,60.08709 0.34565,7.14586 -3.03452,14.77318 -10.68779,18.484 -12.1769,6.86346 -27.48513,5.63937 -41.42118,5.84986 -9.4248,-0.0111 -18.83024,1.39416 -28.22388,1.17648 -8.48845,-1.4162 -14.59891,-7.60451 -18.14279,-13.8585 -1.50959,-2.28549 1.08677,-7.05 3.25764,-2.85363 2.43151,6.23209 6.84532,12.51233 14.57692,14.81396 9.55002,2.76779 19.55867,-0.59472 29.32731,-0.0968 11.11972,-0.36101 22.97796,1.05272 33.36043,-3.06655 8.69138,-3.36309 15.51447,-10.99327 14.30437,-19.30984 -0.56769,-16.02058 -3.38128,-31.91533 -4.15005,-47.93044 -0.63066,-6.70691 -0.53284,-13.51039 -1.92878,-20.13794 -1.73185,-5.77042 -8.45131,-9.30818 -15.27352,-9.43526 -8.65713,-0.57958 -17.35845,-0.66586 -26.03678,-0.86035 -13.20359,0.0806 -26.97185,1.01514 -38.90561,6.12415 -7.5121,4.73045 -7.10723,13.40275 -7.76923,20.48016 -0.44142,12.569 -0.0922,25.15945 0.35629,37.72188 0.33933,5.04801 0.71807,10.09408 1.09176,15.14035 2.20211,1.51805 0.13899,6.21219 0.72701,1.73685 1.31999,-3.30837 2.50171,1.46827 1.43534,2.35586 z"
       id="path3147-7"
       inkscape:connector-curvature="0" />
    <path
       style="color:#000000;fill:#000000;fill-opacity:1;fill-rule:nonzero;stroke:#000000;stroke-width:2;stroke-linecap:square;stroke-linejoin:miter;stroke-miterlimit:4;stroke-opacity:1;stroke-dasharray:none;stroke-dashoffset:0;marker:none;visibility:visible;display:inline;overflow:visible;enable-background:accumulate"
       id="path3147-1"
       d="m 139.91378,604.23187 c -0.16785,0.10295 -0.25321,0.21127 -0.21027,0.32102 0.0101,0.043 0.0707,0.078 0.14739,0.11262 0.2939,0.16591 -1.03372,0.0681 -1.58652,0.0724 -0.12868,0.0134 -0.12637,-0.0323 -0.15968,-0.0625 -0.23704,-0.2691 -0.41415,-0.54295 -0.58055,-0.81732 -0.26766,-0.43815 -0.34185,-0.8856 -0.35486,-1.33369 0.003,-0.37773 0.0603,-0.75612 0.13717,-1.1344 0.0822,-0.33908 0.0352,-0.67649 -0.0598,-1.0118 -0.0904,-0.25262 -0.15558,-0.50581 -0.15829,-0.76122 0.006,-0.23916 0.0496,-0.47867 0.10189,-0.71811 0.0479,-0.23592 0.10032,-0.47185 0.13973,-0.70777 0.0385,-0.21328 0.13986,-0.42588 0.23002,-0.63858 0.0901,-0.20817 0.13276,-0.41674 0.17547,-0.62523 0.0418,-0.19325 0.0854,-0.38646 0.11513,-0.5797 0.0171,-0.23072 0.0486,-0.46156 0.0823,-0.69243 0.0336,-0.18535 0.0404,-0.37049 0.049,-0.55562 0.0145,-0.19559 0.0562,-0.39136 0.0944,-0.58706 0.0443,-0.22368 0.083,-0.44742 0.16047,-0.67095 0.0728,-0.19659 0.17796,-0.3925 0.30666,-0.58763 0.15121,-0.23504 0.36052,-0.46743 0.56709,-0.69977 0.1797,-0.21041 0.35365,-0.4211 0.53035,-0.63166 0.14237,-0.19097 0.33228,-0.379 0.55223,-0.56499 0.14512,-0.11661 0.30464,-0.23183 0.46201,-0.34729 0.10012,-0.0791 0.23534,-0.15376 0.38929,-0.226 0.28923,-0.12664 0.6524,-0.23607 1.04489,-0.33712 0.40495,-0.1025 0.84371,-0.19264 1.30711,-0.27106 0.60559,-0.0959 1.25859,-0.16052 1.90634,-0.22433 0.83222,-0.0802 1.6671,-0.1569 2.50618,-0.22985 0.62662,-0.0555 1.26022,-0.10255 1.89438,-0.14834 0.53183,-0.0381 1.06249,-0.0779 1.59156,-0.11971 0.64275,-0.0525 1.28519,-0.10562 1.93254,-0.15219 0.70115,-0.048 1.41189,-0.0772 2.12172,-0.10449 0.72675,-0.0275 1.4552,-0.0463 2.18348,-0.064 0.99121,-0.0265 1.98203,-0.0516 2.97391,-0.0675 0.91212,-0.0128 1.82335,-0.0156 2.73415,-0.0175 0.67511,-0.003 1.34877,0.004 2.02444,-0.005 0.75428,2.6e-4 1.50859,4.4e-4 2.26294,4.4e-4 0.87656,2.7e-4 1.75323,7e-5 2.62993,-2.6e-4 1.37732,-0.007 2.74627,0.0116 4.11818,0.0264 0.76736,0.0179 1.53263,0.0394 2.30169,0.0537 0.62029,0.008 1.23884,0.0208 1.85909,0.0292 1.02147,0.01 -0.81085,-0.008 -1.39258,-0.0142 -0.0963,-8.4e-4 0.19275,0.002 0.28932,0.002 0.3008,0.002 0.60201,0.002 0.90304,0.003 0.54412,10e-6 1.08815,2e-5 1.63146,0.003 1.20701,0.0264 2.40553,0.003 3.59291,0.0508 0.49708,0.0212 0.99564,0.0403 1.49239,0.0619 0.35099,0.0155 0.69086,0.0426 1.03132,0.0687 0.37279,0.0317 0.73812,0.0692 1.10172,0.10756 0.4364,0.0459 0.85945,0.1 1.27352,0.15903 0.4889,0.0635 0.91469,0.1533 1.30741,0.25521 0.51048,0.12782 0.89467,0.28681 1.2441,0.45208 0.41759,0.19528 0.64873,0.41544 0.82671,0.63979 0.17401,0.25079 0.25049,0.50746 0.32749,0.76339 0.0785,0.2533 0.0921,0.50872 0.0995,0.76402 0.008,0.25824 -0.0217,0.517 -0.0391,0.77558 -0.0142,0.22964 -0.0117,0.45901 -0.005,0.68831 0.008,0.24051 0.0163,0.48107 0.004,0.72193 -0.0209,0.23553 -0.0549,0.4712 -0.0141,0.70562 0.0418,0.18472 0.0943,0.36905 0.14889,0.55329 0.0838,0.21011 0.0923,0.42285 0.10253,0.63526 0.006,0.21605 0.0135,0.43207 0.0265,0.64798 0.007,0.17686 0.003,0.35389 -0.0101,0.53106 -0.0241,0.22431 -0.0528,0.44859 -0.0591,0.67272 -8.4e-4,0.19711 -8.4e-4,0.39419 0.0267,0.59066 0.0324,0.21507 0.0971,0.42909 0.15624,0.64323 0.0715,0.20934 0.10515,0.41991 0.11644,0.63116 -0.007,0.20122 0.0109,0.40177 0.049,0.60191 0.0481,0.17098 0.0881,0.3423 0.13678,0.51326 0.0566,0.16132 0.0535,0.3246 0.0446,0.4876 -0.0103,0.17893 -0.0514,0.35802 -0.0878,0.53706 -0.038,0.18008 -0.0735,0.36014 -0.10789,0.54023 -0.0283,0.14626 -0.0576,0.29253 -0.0887,0.43878 -0.0306,0.14576 -0.0602,0.29152 -0.0875,0.43726 -0.0223,0.11181 -0.0314,0.2236 -0.0833,0.33518 -0.082,0.14225 -0.24641,0.28017 -0.41478,0.41699 -0.17138,0.11791 -0.33645,0.23777 -0.54833,0.35082 -0.30415,0.14904 -0.68038,0.28548 -1.04029,0.42418 -0.39354,0.15689 -0.86495,0.2945 -1.35993,0.42543 -0.64929,0.16113 -1.35222,0.3028 -2.04759,0.44641 -0.66918,0.12607 -1.29306,0.27273 -1.96437,0.39726 -0.54459,0.10584 -1.16713,0.15931 -1.76054,0.23201 -0.67085,0.0787 -1.31467,0.1744 -1.99683,0.24337 -0.53266,0.0527 -1.08286,0.0824 -1.63163,0.11062 -0.55192,0.0268 -1.10582,0.0476 -1.65998,0.0666 -1.44331,0.0476 -2.88595,0.0993 -4.32954,0.14572 -0.74104,0.0241 -1.48265,0.0413 -2.22469,0.0513 -0.69991,0.007 -1.39899,0.007 -2.09783,0.007 -0.78563,9e-5 -1.57111,-3.7e-4 -2.35671,-3.7e-4 -0.76721,-4.5e-4 -1.53596,0.0121 -2.30412,0.0205 -0.67887,0.004 -1.35816,0.009 -2.03705,0.0109 -0.66967,0.002 -1.33903,0.002 -2.00836,0.002 -0.82083,-8e-5 -1.64163,-2.6e-4 -2.46243,-4.5e-4 1.63043,-0.0836 -3.12942,0.0697 -1.55537,0.0232 3.25121,-0.0963 1.21885,-0.0314 0.50743,-0.002 -1.43192,0.0629 -2.87006,0.11287 -4.30868,0.14116 -0.40213,0.007 -0.80319,0.004 -1.20468,0.006 -0.57896,0.005 -1.15789,0.0109 -1.73673,0.0151 -0.43185,0.003 -0.8636,0.004 -1.2952,0.005 -0.28714,1.4e-4 -0.57426,10e-5 -0.86135,3e-5 -0.34872,-1.2e-4 -0.69742,-2.7e-4 -1.04614,-3.9e-4 -0.37436,0.003 -0.74195,4.4e-4 -1.10346,-0.0218 -0.35445,-0.0258 -0.67521,-0.0746 -0.99853,-0.12011 -0.39368,-0.057 -0.77014,-0.12251 -1.12704,-0.19578 -0.33141,-0.0752 -0.61478,-0.16525 -0.92011,-0.24849 -0.31902,-0.0848 -0.63141,-0.17139 -0.93275,-0.26134 -0.2781,-0.0839 -0.55128,-0.16919 -0.83558,-0.25141 -0.22103,-0.0639 -0.45052,-0.12539 -0.67007,-0.18973 -0.22808,-0.0632 -0.45272,-0.1275 -0.65246,-0.19825 -0.22401,-0.0798 -0.44648,-0.16004 -0.67114,-0.23972 -0.18826,-0.0692 -0.43177,-0.12126 -0.64239,-0.18478 -0.27224,-0.0911 -0.39918,-0.20937 -0.52091,-0.32357 -0.23671,-0.23275 -0.32192,-0.47586 -0.35716,-0.72025 -0.0714,-0.25309 0.20859,-0.47019 0.59813,-0.69945 l 0.82776,-0.0296 0,0 c 0.3268,0.21253 0.56242,0.42846 0.61899,0.66591 0.12596,0.23681 0.25466,0.47446 0.49857,0.70235 0.12571,0.10108 0.27109,0.19779 0.53182,0.27566 0.23495,0.0664 0.45711,0.13436 0.65416,0.21056 0.21969,0.0803 0.44708,0.15887 0.671,0.23823 0.20519,0.0677 0.43123,0.12958 0.65333,0.19269 0.2219,0.0633 0.44714,0.12569 0.66373,0.19055 0.27839,0.0832 0.54885,0.16855 0.82691,0.25186 0.30516,0.0885 0.61992,0.1741 0.93524,0.25963 0.2911,0.0831 0.57148,0.1705 0.90899,0.23897 0.36386,0.0691 0.74433,0.13094 1.13901,0.18569 0.31865,0.043 0.64126,0.0864 0.99653,0.10314 0.36291,0.0139 0.73066,0.0118 1.09923,0.011 0.35145,-10e-6 0.70293,-2.6e-4 1.05438,-2.6e-4 0.28625,1e-5 0.57249,1.3e-4 0.85882,-1.4e-4 0.42449,-4.3e-4 0.84917,-0.002 1.27415,-0.005 0.58127,-0.004 1.16286,-0.0114 1.74405,-0.0148 0.39896,-8.4e-4 0.7982,-4.5e-4 1.19794,-0.009 0.86898,-0.0203 0.28115,-0.007 -1.67679,0.052 -0.11036,0.003 0.22076,-0.006 0.3312,-0.01 0.44087,-0.0143 0.88079,-0.0327 1.32037,-0.0516 1.77097,-0.0755 3.55319,-0.14234 5.33086,-0.14468 0.82473,-2.5e-4 1.64941,-2.5e-4 2.4741,-2.5e-4 0.6663,-1.4e-4 1.33254,1.2e-4 1.99918,-0.002 0.67122,-0.003 1.34201,-0.007 2.01382,-0.0203 0.76064,-0.008 1.52156,-0.0181 2.28087,-0.0163 0.78584,2.7e-4 1.57172,2.7e-4 2.35764,1.4e-4 0.70069,-4.5e-4 1.40161,-4.5e-4 2.10361,-0.0102 0.73776,-0.011 1.47509,-0.0305 2.21174,-0.0543 0.39649,-0.013 0.7928,-0.0268 1.18925,-0.0399 0.12364,-0.004 0.49444,-0.0165 0.37087,-0.0121 -0.72784,0.0257 -2.55152,0.0883 -1.43113,0.0499 0.55156,-0.0193 1.10311,-0.0386 1.65313,-0.0636 0.55581,-0.026 1.11401,-0.053 1.65788,-0.1 0.68758,-0.0622 1.36632,-0.13092 2.02258,-0.22028 0.59894,-0.0733 1.18897,-0.15552 1.77121,-0.2402 0.68253,-0.11867 1.35618,-0.24013 2.00226,-0.37607 0.69451,-0.14201 1.39222,-0.28344 2.05074,-0.43945 0.50988,-0.1302 0.95904,-0.27596 1.36802,-0.4324 0.36191,-0.13524 0.73514,-0.26925 1.04192,-0.415 0.20064,-0.10605 0.41053,-0.21078 0.55429,-0.3241 0.17426,-0.13195 0.33485,-0.26587 0.41335,-0.40413 0.0513,-0.10999 0.061,-0.22029 0.09,-0.33052 0.033,-0.14583 0.063,-0.29165 0.0932,-0.43749 0.0297,-0.14634 0.0614,-0.2927 0.0935,-0.43904 0.04,-0.18014 0.081,-0.36028 0.11632,-0.54043 0.0358,-0.17824 0.0671,-0.35649 0.0864,-0.53464 0.009,-0.16755 -0.003,-0.33468 -0.0524,-0.50074 -0.0453,-0.1715 -0.0871,-0.34312 -0.12895,-0.51475 -0.0418,-0.20089 -0.0502,-0.4025 -0.047,-0.6045 -0.006,-0.21014 -0.0438,-0.41937 -0.1084,-0.62775 -0.0588,-0.22085 -0.1352,-0.44111 -0.17233,-0.66276 -0.0236,-0.19753 -0.0209,-0.39549 -0.0139,-0.59363 0.009,-0.23014 0.0283,-0.46038 0.0477,-0.69065 0.006,-0.1766 0.006,-0.35311 0.007,-0.52966 -0.002,-0.21896 -0.006,-0.43785 -0.0191,-0.6566 -0.014,-0.21099 -0.039,-0.42183 -0.11163,-0.63096 -0.0652,-0.19043 -0.10539,-0.38198 -0.14598,-0.57336 -0.0177,-0.2358 0.006,-0.47205 0.0297,-0.70846 0.0114,-0.24049 0.006,-0.48059 -0.006,-0.72071 -0.006,-0.22984 -0.008,-0.45975 0.0101,-0.68996 0.0222,-0.258 0.0536,-0.51613 0.0508,-0.77384 -0.009,-0.25395 -0.0346,-0.50749 -0.10122,-0.75986 -0.0737,-0.25341 -0.14398,-0.50789 -0.32534,-0.75551 -0.1824,-0.21919 -0.41515,-0.43341 -0.83783,-0.62247 -0.34737,-0.16123 -0.73963,-0.31291 -1.24721,-0.43576 -0.40109,-0.0959 -0.83362,-0.17838 -1.31428,-0.24085 -0.4166,-0.0565 -0.8401,-0.10915 -1.2774,-0.15301 -0.36513,-0.0364 -0.72795,-0.0751 -1.1045,-0.1027 -0.33729,-0.0251 -0.67605,-0.0489 -1.02363,-0.063 -0.49215,-0.0214 -0.98524,-0.0414 -1.47825,-0.0614 -0.79597,-0.029 -3.163,-0.0813 0.29587,-0.0247 -0.54465,-0.005 -1.09029,-0.006 -1.63638,-0.005 -1.23002,-0.002 -2.45862,-0.008 -3.68358,-0.0278 -0.61606,-0.009 -1.23117,-0.0209 -1.84704,-0.0307 -0.76616,-0.0158 -1.5288,-0.0384 -2.29544,-0.0529 3.36642,0.0307 0.50232,0.003 -0.27619,0.0108 -0.88056,-4e-4 -1.76118,-4.5e-4 -2.64182,-4e-4 -0.74924,2e-5 -1.49851,2.6e-4 -2.24773,2.6e-4 -0.67703,-0.0104 -1.35936,-0.003 -2.0389,-0.005 -0.9213,4.4e-4 -1.84302,0.002 -2.76592,0.0131 -0.99959,0.0136 -1.99834,0.0375 -2.99729,0.0646 -0.73954,0.0179 -1.47952,0.033 -2.21787,0.0598 -0.71049,0.0266 -1.42231,0.0534 -2.12578,0.0983 -0.64824,0.0449 -1.28914,0.0991 -1.93237,0.15072 -0.54413,0.0426 -1.08986,0.083 -1.63857,0.1192 -0.64706,0.0445 -1.29466,0.0887 -1.93383,0.14402 -0.84368,0.0715 -1.69028,0.13988 -2.52629,0.21994 -0.63961,0.0616 -1.28042,0.12586 -1.88556,0.21505 -0.46455,0.0737 -0.90177,0.16069 -1.30581,0.2605 -0.38489,0.095 -0.74298,0.19927 -1.01888,0.32176 -0.1496,0.0703 -0.28288,0.14234 -0.38579,0.21883 -0.18625,0.11193 -0.33876,0.22765 -0.48838,0.34339 -0.23229,0.18354 -0.42086,0.37015 -0.56598,0.5596 -0.17012,0.21125 -0.35981,0.42148 -0.54023,0.6322 -0.19589,0.23171 -0.41291,0.46255 -0.55305,0.69691 -0.12428,0.19393 -0.22877,0.38849 -0.30756,0.58362 -0.0825,0.22276 -0.12676,0.4456 -0.16566,0.66859 -0.0347,0.19511 -0.0668,0.39025 -0.0757,0.58521 -0.0114,0.18558 -0.0287,0.37122 -0.0701,0.55701 -0.0369,0.22574 -0.0602,0.45131 -0.0747,0.67688 -0.0192,0.18618 -0.0579,0.37248 -0.10615,0.55872 -0.0605,0.20723 -0.13071,0.41442 -0.2152,0.62136 -0.0888,0.21169 -0.18939,0.42346 -0.22866,0.63567 -0.0596,0.23603 -0.10775,0.47207 -0.15699,0.70812 -0.0427,0.23352 -0.0963,0.46717 -0.1067,0.7005 0.002,0.25435 0.0577,0.50672 0.13991,0.75863 0.0788,0.3379 0.12769,0.67749 0.0405,1.01855 -0.0742,0.37756 -0.16258,0.75541 -0.16613,1.13254 0.009,0.45048 0.0747,0.90054 0.36272,1.33997 0.17024,0.27205 0.35392,0.54438 0.63963,0.80696 0.0866,0.0528 0.009,0.003 0.0911,0.0205 -0.39901,0.0123 -1.57463,0.0277 -1.19238,0.0543 0.12098,-0.0337 0.19398,-0.073 0.24688,-0.11854 0.15775,-0.10938 0.27306,-0.22318 0.46509,-0.3289 -0.97833,-1.63398 1.51798,-0.50505 0.5548,-0.008 z"
       inkscape:connector-curvature="0"
       sodipodi:nodetypes="ccccccccccccccccccccccccccccccccccccccccccscccccccccccccccccccccccccccccccccccccccccccccccccccscccccccccccccccccccccccccccccccccccccccccscccccccccccccccccccccccscccccccccccccccccccccccccccccccccccccccccccccccccccccccccccccccccccccccc" />
    <path
       style="color:#000000;fill:#000000;fill-opacity:1;fill-rule:nonzero;stroke:#000000;stroke-width:1.84681845;stroke-linecap:square;stroke-linejoin:miter;stroke-miterlimit:4;stroke-opacity:1;stroke-dasharray:none;stroke-dashoffset:0;marker:none;visibility:visible;display:inline;overflow:visible;enable-background:accumulate"
       d="m 175.7558,589.55809 c -1.4856,-0.21874 -2.80683,0.61485 -3.71548,1.51533 -1.22958,1.27771 -1.79022,2.89447 -2.31217,4.44962 -0.37269,1.4341 -0.20084,2.90979 -0.2347,4.36417 -0.0167,1.6972 1.08193,3.18703 2.20079,4.52782 0.69269,0.58078 0.97174,1.70037 2.11425,1.75297 0.7805,0.55061 -1.03968,0.32783 -1.37876,0.17054 -0.93688,-0.14403 -1.17027,-1.01481 -1.73409,-1.53331 -1.20839,-1.45418 -2.46697,-3.06655 -2.41383,-4.91395 0.0505,-1.73201 -0.16852,-3.51489 0.54195,-5.18027 0.54296,-1.45651 1.2175,-2.95961 2.49265,-4.08078 0.64642,-0.48994 1.37506,-0.94873 2.17348,-1.23065 0.75491,-0.11744 1.54218,-0.0511 2.26591,0.15851 z"
       id="path3176"
       inkscape:connector-curvature="0" />
    <path
       style="color:#000000;fill:#000000;fill-opacity:1;fill-rule:nonzero;stroke:#000000;stroke-width:1.84681845;stroke-linecap:square;stroke-linejoin:miter;stroke-miterlimit:4;stroke-opacity:1;stroke-dasharray:none;stroke-dashoffset:0;marker:none;visibility:visible;display:inline;overflow:visible;enable-background:accumulate"
       d="m 160.93874,590.41253 c -1.42756,0.49951 -2.88151,1.26837 -3.42818,2.55196 -1.13586,2.24121 -0.70892,4.72528 -0.79187,7.09086 -0.0324,1.23168 0.0669,2.48435 0.61236,3.64109 0.38917,0.95341 0.70692,1.94089 1.23705,2.84483 0.37513,0.32118 0.99821,1.05323 -0.007,0.90531 -0.89317,-0.17036 -1.19295,-1.00377 -1.49311,-1.63448 -0.59041,-1.73507 -1.5973,-3.44593 -1.3912,-5.29852 0.0775,-2.54176 -0.29954,-5.18824 0.80398,-7.61827 0.37956,-0.89344 1.16417,-1.63351 2.17312,-2.05716 0.67657,-0.28766 1.42113,-0.75472 2.1927,-0.44481 l 0.092,0.0192 0,0 z"
       id="path3178"
       inkscape:connector-curvature="0" />
    <path
       style="color:#000000;fill:#000000;fill-opacity:1;fill-rule:nonzero;stroke:#000000;stroke-width:5;stroke-linecap:square;stroke-linejoin:miter;stroke-miterlimit:4;stroke-opacity:1;stroke-dasharray:none;stroke-dashoffset:0;marker:none;visibility:visible;display:inline;overflow:visible;enable-background:accumulate"
       id="path3180"
       d="m 122.17733,643.15744 c 0.43268,0.003 0.86512,0.0155 1.29762,0.025 0.32641,0.004 0.65198,0.0252 0.97801,0.0373 0.36082,0.0116 0.72174,0.0188 1.08279,0.0225 0.42505,0.004 0.85014,0.003 1.27521,0.002 0.34045,0.003 0.68005,-0.004 1.01883,-0.0331 0.43902,-0.053 0.86753,-0.15215 1.29579,-0.24669 0.4871,-0.11447 0.97917,-0.21273 1.47168,-0.30912 0.4814,-0.0924 0.96692,-0.1687 1.45158,-0.24786 0.62966,-0.10362 1.26206,-0.19358 1.89719,-0.26973 0.65014,-0.0691 1.29824,-0.14789 1.94109,-0.25524 0.52917,-0.0943 1.05832,-0.18842 1.58934,-0.27514 0.62605,-0.10043 1.25493,-0.18782 1.88345,-0.27655 0.59168,-0.0867 1.18474,-0.16641 1.78004,-0.23345 0.57237,-0.0697 1.14906,-0.1 1.72656,-0.11605 0.70757,-0.014 1.41539,-0.0175 2.12296,-0.003 0.96915,0.0378 1.9358,0.12757 2.89285,0.2607 0.55078,0.0761 1.09105,0.19184 1.62489,0.32713 0.52185,0.14095 1.02779,0.31894 1.53786,0.48669 0.5435,0.16838 1.0597,0.38517 1.55761,0.63247 0.45217,0.2185 0.86767,0.48019 1.25792,0.7698 0.37819,0.29213 0.7354,0.60282 1.0892,0.91558 0.33821,0.29941 0.6497,0.61897 0.96069,0.93822 0.30534,0.30227 0.56247,0.63329 0.80572,0.97198 0.24438,0.35723 0.5128,0.70171 0.7969,1.0374 0.35869,0.41169 0.75361,0.79986 1.15558,1.18181 0.49485,0.45779 0.95988,0.93763 1.46323,1.38882 0.51356,0.48979 1.04657,0.96477 1.59242,1.42914 0.48457,0.42173 1.0176,0.79746 1.5902,1.13114 0.60586,0.34625 1.28834,0.56226 1.98713,0.73255 0.70275,0.15474 1.43258,0.18505 2.15539,0.20966 -1.15633,0.002 2.19994,0.0331 1.06066,0.0125 -1.64599,-0.0298 -0.48375,-0.0283 -0.0883,-0.0774 0.64233,-0.0919 1.25185,-0.28664 1.8414,-0.51407 0.47893,-0.18385 0.91969,-0.42294 1.32863,-0.70005 0.38029,-0.26326 0.67448,-0.59535 0.95264,-0.93358 0.34699,-0.43728 0.69015,-0.87659 1.03589,-1.31461 0.31875,-0.39944 0.64457,-0.79513 0.94028,-1.20705 0.24785,-0.32782 0.48958,-0.65889 0.71609,-0.99746 0.26322,-0.41698 0.5077,-0.84193 0.77477,-1.25727 0.21098,-0.33797 0.45845,-0.65701 0.71733,-0.97006 0.31434,-0.39507 0.67748,-0.75933 1.05333,-1.11348 0.61412,-0.565 1.2951,-1.07385 1.99221,-1.56462 0.49956,-0.34663 1.01989,-0.67187 1.56773,-0.96253 0.53624,-0.27271 1.08522,-0.52754 1.63762,-0.7763 0.69895,-0.31779 1.42105,-0.59659 2.15771,-0.84625 0.57155,-0.199 1.16396,-0.34378 1.7704,-0.44263 0.61955,-0.0835 1.24117,-0.15413 1.85971,-0.2432 0.67912,-0.0987 1.3544,-0.21469 2.03263,-0.31747 0.55669,-0.0877 1.12045,-0.1293 1.68531,-0.15473 0.72871,-0.0244 1.45761,-0.0408 2.1854,-0.0813 0.68041,-0.0419 1.35739,-0.11464 2.03199,-0.19892 0.53664,-0.0776 1.07855,-0.11867 1.62126,-0.1502 0.51597,-0.0251 1.03176,-0.0512 1.54704,-0.085 0.43596,-0.0181 0.87119,-0.0433 1.30771,-0.0533 0.42663,-0.008 0.85339,-0.008 1.28009,-0.008 0.44264,2.9e-4 0.88527,2.4e-4 1.3279,1.7e-4 0.49251,-2.8e-4 0.98503,-2.3e-4 1.47753,-3.3e-4 0.44239,-3.2e-4 0.88477,-8.5e-4 1.32716,-8.5e-4 0.48736,-4.7e-4 0.97471,-0.003 1.462,0.006 0.7766,0.0192 1.55133,0.0763 2.32621,0.11927 0.36473,0.0203 -0.7293,-0.0422 -1.09393,-0.0636 -0.0673,-0.004 0.13452,0.008 0.20178,0.011 0.75333,0.037 1.50614,0.0799 2.25764,0.13699 0.24439,0.0139 0.48815,0.031 0.73092,0.0586 0.20971,0.0295 0.42009,0.0558 0.63202,0.0708 0.13018,0.003 0.25761,0.0211 0.38144,0.0541 0.18784,0.0564 0.25945,0.15186 0.21668,0.315 -0.0225,0.0481 -0.0451,0.0963 -0.0678,0.14446 0,0 -0.32064,0.0105 -0.32064,0.0105 l 0,0 c -0.11617,-0.0479 -0.23235,-0.0958 -0.34852,-0.14365 -0.27247,-0.093 -0.54396,-0.19688 -0.83414,-0.24459 -0.12782,-0.0191 -0.25673,-0.0285 -0.38599,-0.038 -0.2077,-0.0213 -0.41402,-0.0502 -0.62132,-0.074 -0.24245,-0.0228 -0.48569,-0.0373 -0.72866,-0.0554 -1.53937,-0.12641 1.83238,0.10398 0.39227,0.0161 -0.84679,-0.0484 -3.08934,-0.17465 -0.66218,-0.0379 0.9056,0.051 -1.63695,-0.11538 -0.78054,-0.0353 -0.48733,-0.0117 -0.97477,-0.008 -1.46227,-0.009 -0.44559,-2e-5 -0.89117,-5.6e-4 -1.33677,-8.4e-4 -0.49422,-1.2e-4 -0.98843,-8e-5 -1.48265,-5.8e-4 -0.44382,-3.1e-4 -0.88763,-8.5e-4 -1.33144,-8.5e-4 -0.42642,3e-5 -0.85286,-3.2e-4 -1.27923,0.005 -0.44104,0.008 -0.884,0.0146 -1.32172,0.0635 -0.51813,0.0331 -1.03649,0.0621 -1.55542,0.0847 -0.54398,0.0286 -1.08803,0.0632 -1.62613,0.13916 -0.67918,0.0877 -1.36112,0.16053 -2.04631,0.20604 -0.72745,0.0421 -1.45607,0.0608 -2.18468,0.0833 -0.56853,0.0223 -1.13702,0.0542 -1.69827,0.13813 -0.68299,0.097 -1.36183,0.21308 -2.0436,0.3159 -0.62162,0.0883 -1.2447,0.1676 -1.86925,0.23974 -0.61457,0.0871 -1.21682,0.22011 -1.79557,0.41738 -0.73808,0.24339 -1.46099,0.51725 -2.15889,0.8343 -0.55112,0.24977 -1.09828,0.50558 -1.63984,0.76974 -0.55738,0.28404 -1.09149,0.5987 -1.5977,0.94419 -0.69696,0.48249 -1.37597,0.9859 -1.98092,1.55088 -0.3668,0.35196 -0.7175,0.71562 -1.02687,1.10524 -0.24879,0.3046 -0.50476,0.60665 -0.72124,0.9283 -0.27166,0.41329 -0.51289,0.83948 -0.77252,1.2581 -0.22267,0.3423 -0.46399,0.67507 -0.71513,1.00314 -0.31354,0.39952 -0.62974,0.79751 -0.95108,1.19266 -0.34271,0.42825 -0.68763,0.85512 -1.02558,1.286 -0.28046,0.34642 -0.57382,0.68872 -0.95704,0.96149 -0.40996,0.28738 -0.85481,0.53401 -1.33966,0.72429 -0.59486,0.2337 -1.20788,0.43818 -1.8563,0.53996 -1.08151,0.15115 -2.18084,0.0912 -3.27266,0.0758 -0.72834,-0.0299 -1.45167,-0.0925 -2.15555,-0.26271 -0.70367,-0.17831 -1.38869,-0.40684 -1.99453,-0.76376 -0.57383,-0.34381 -1.09693,-0.73868 -1.58702,-1.16446 -0.53887,-0.46731 -1.06401,-0.9455 -1.57479,-1.43467 -0.47591,-0.48247 -0.96941,-0.95215 -1.46697,-1.41891 -0.40056,-0.38445 -0.79496,-0.77398 -1.14629,-1.19168 -0.28823,-0.34163 -0.5486,-0.69717 -0.79665,-1.06037 -0.23801,-0.33317 -0.48541,-0.66194 -0.7868,-0.95813 -0.30617,-0.31777 -0.61524,-0.63436 -0.95068,-0.93086 -0.34981,-0.30884 -0.69701,-0.62035 -1.07307,-0.90707 -0.3848,-0.28141 -0.79289,-0.53737 -1.23482,-0.75294 -0.48896,-0.24172 -0.99828,-0.44918 -1.5287,-0.61933 -0.50179,-0.17055 -1.00415,-0.3421 -1.52071,-0.47898 -0.52981,-0.13307 -1.06758,-0.24175 -1.6137,-0.31649 -0.27255,-0.037 -0.3152,-0.0443 -0.59055,-0.0753 -0.10192,-0.0115 -0.40863,-0.0392 -0.30609,-0.0325 1.47365,0.0954 0.24592,0.0336 -0.0388,0.0131 -0.7066,-0.0166 -1.4135,-0.0139 -2.12019,-5.9e-4 -0.5795,0.0148 -1.15883,0.0396 -1.73371,0.10629 -0.60056,0.0636 -1.1987,0.14165 -1.79535,0.2273 -0.62616,0.088 -1.2523,0.17652 -1.87605,0.27603 -0.53556,0.0857 -1.06965,0.17732 -1.60309,0.27186 -0.64465,0.10846 -1.29419,0.19136 -1.94672,0.25888 -0.63694,0.0734 -1.27119,0.16072 -1.90223,0.26434 -0.48316,0.0793 -0.96677,0.15741 -1.44768,0.24584 -0.49467,0.0951 -0.98932,0.19058 -1.47809,0.30574 -0.42718,0.0973 -0.85467,0.19853 -1.29175,0.25962 -0.35065,0.0363 -0.7022,0.044 -1.05534,0.0345 -0.43261,-8.5e-4 -0.86521,-0.003 -1.29779,-0.006 -0.36382,-0.004 -0.72753,-0.0109 -1.09114,-0.0221 -0.34281,-0.0117 -0.68467,-0.0354 -1.02736,-0.0489 -0.43692,-0.0136 -0.87392,-0.0293 -1.31119,-0.0303 0,0 -0.78704,-0.1694 -0.78704,-0.1694 z"
       inkscape:connector-curvature="0" />
    <path
       style="color:#000000;fill:#000000;fill-opacity:1;fill-rule:nonzero;stroke:#000000;stroke-width:1.84681845;stroke-linecap:square;stroke-linejoin:miter;stroke-miterlimit:4;stroke-opacity:1;stroke-dasharray:none;stroke-dashoffset:0;marker:none;visibility:visible;display:inline;overflow:visible;enable-background:accumulate"
       id="path3186"
       d="m 160.46941,651.99289 c -0.23181,0.4871 -0.26826,1.01079 -0.26894,1.52904 0.0203,0.68766 0.11653,1.37162 0.19848,2.05546 0.10072,0.85276 0.20513,1.70535 0.29395,2.55905 0.0741,0.77242 0.11052,1.54674 0.1364,2.32121 0.0223,0.78428 0.0372,1.56872 0.0487,2.35318 0.008,0.803 0.0293,1.60571 0.0587,2.40832 0.0275,0.68298 0.0485,1.36611 0.0632,2.04935 0.008,0.58378 0.005,1.16754 0.0246,1.75117 0.0156,0.49901 0.0509,0.99744 0.0936,1.49528 0.0186,0.35778 0.0364,0.71562 0.0647,1.07297 0.0347,0.27645 0.0914,0.5505 0.13247,0.82637 0.0445,0.30119 0.0589,0.60458 0.0713,0.90765 0.0164,0.33282 0.008,0.66593 0.0175,0.99885 0.008,0.26419 0.0476,0.52618 0.0888,0.78774 0.044,0.24116 0.0587,0.48471 0.0691,0.72821 0.0161,0.17727 0.0181,0.34597 -0.0668,0.51058 -0.0319,0.0616 -0.11425,0.0544 -0.18898,0.0659 0,0 -0.32465,0.0599 -0.32465,0.0599 l 0,0 c -0.1109,0.006 -0.25351,0.0293 -0.32242,-0.064 -0.11741,-0.15446 -0.1053,-0.32593 -0.10352,-0.50383 -0.0101,-0.24949 -0.0261,-0.49911 -0.0709,-0.74616 -0.0402,-0.265 -0.0688,-0.53133 -0.0758,-0.79856 -0.008,-0.33335 -0.002,-0.66683 0.003,-1.00021 8.5e-4,-0.30457 0.004,-0.60997 -0.0332,-0.91334 -0.0375,-0.27726 -0.0931,-0.55272 -0.11446,-0.83142 -0.0245,-0.35788 -0.0258,-0.71638 -0.0438,-1.07448 -0.0171,-0.49948 -0.0637,-0.9981 -0.068,-1.49797 -0.0137,-0.5842 -0.0191,-1.16843 -0.013,-1.75274 0.004,-0.68309 0.005,-1.3662 -0.005,-2.04925 -0.0112,-0.80326 -0.0245,-1.60649 -0.0348,-2.40975 -0.007,-0.79068 -0.009,-1.58148 -0.0303,-2.37199 -0.028,-0.77306 -0.0559,-1.54645 -0.11849,-2.31819 -0.071,-0.85366 -0.14901,-1.70696 -0.26037,-2.55772 -0.0887,-0.68563 -0.19065,-1.37172 -0.2124,-2.06179 0.002,-0.53179 0.0401,-1.06378 0.25096,-1.57051 0,0 0.74091,0.0416 0.74091,0.0416 z"
       inkscape:connector-curvature="0" />
    <path
       style="color:#000000;fill:#000000;fill-opacity:1;fill-rule:nonzero;stroke:#000000;stroke-width:1.84681845;stroke-linecap:square;stroke-linejoin:miter;stroke-miterlimit:4;stroke-opacity:1;stroke-dasharray:none;stroke-dashoffset:0;marker:none;visibility:visible;display:inline;overflow:visible;enable-background:accumulate"
       id="path3188"
       d="m 179.02129,646.3315 c -0.23164,0.39232 -0.38089,0.81391 -0.50825,1.23715 -0.12339,0.45023 -0.12822,0.9139 -0.13758,1.37338 -8.5e-4,0.58034 0.0115,1.16061 0.018,1.74093 0.0107,0.53113 0.0122,1.06234 0.0149,1.59352 0.005,0.47662 0.0148,0.95316 0.0177,1.42978 0.002,0.45152 0.003,0.9031 0.002,1.35465 8.4e-4,0.43732 0.003,0.87464 0.006,1.31196 0.005,0.444 0.007,0.88801 0.007,1.33203 0.002,0.47884 0.003,0.95768 0.007,1.43652 -0.002,0.48788 0.0139,0.97556 0.0153,1.46343 0.006,0.46371 0.006,0.92753 0.005,1.3913 -0.002,0.49124 0.002,0.98247 0.006,1.4737 0.004,0.42203 0.0123,0.84401 0.0118,1.26605 8.4e-4,0.47612 -0.002,0.95225 -0.003,1.42839 -0.005,0.52771 0.005,1.05539 0.008,1.58308 0.007,0.50742 0.008,1.01488 0.0101,1.52232 -0.003,0.54398 8.4e-4,1.08795 8.4e-4,1.63191 -6.4e-4,0.50993 0.006,1.01964 0.0266,1.52928 0.0165,0.39304 0.0697,0.78355 0.13239,1.17295 0.0632,0.30849 0.14857,0.61323 0.21936,0.92049 0.0413,0.1899 0.088,0.3789 0.13744,0.56741 0.0358,0.12142 0.0525,0.24209 0.0426,0.36689 0.0369,0.1767 0.008,0.19925 -0.17997,0.30655 0,0 -0.11433,0.0147 -0.11433,0.0147 l 0,0 c -0.26964,-0.0289 -0.50232,-0.049 -0.70099,-0.21701 -0.13274,-0.1082 -0.18345,-0.22279 -0.20767,-0.37536 -0.0399,-0.19015 -0.0846,-0.37953 -0.11931,-0.57045 -0.0626,-0.30931 -0.14236,-0.6162 -0.19254,-0.92724 -0.0605,-0.3929 -0.09,-0.78834 -0.10946,-1.18409 -0.0164,-0.51111 -0.008,-1.0223 -0.005,-1.53351 -5e-5,-0.55378 0.004,-1.10754 8.5e-4,-1.66132 0.002,-0.49811 0.003,-0.99624 0.0101,-1.49433 0.003,-0.52805 0.013,-1.05608 0.008,-1.58416 -0.002,-0.47599 -0.004,-0.95196 -0.003,-1.42796 -5.5e-4,-0.42256 0.007,-0.84506 0.0118,-1.2676 0.004,-0.50066 0.008,-1.00131 0.006,-1.50199 -8.5e-4,-0.46389 -3.5e-4,-0.92786 0.005,-1.39171 8.5e-4,-0.49239 0.018,-0.9846 0.0153,-1.47699 0.003,-0.47895 0.005,-0.95792 0.007,-1.43688 -7.6e-4,-0.44413 0.002,-0.88826 0.007,-1.33238 0.002,-0.43742 0.004,-0.87482 0.006,-1.31224 -2.6e-4,-0.45948 -2e-5,-0.919 0.002,-1.37845 0.003,-0.47661 0.0123,-0.95314 0.0173,-1.42975 0.002,-0.53871 0.003,-1.07745 0.011,-1.61612 0.004,-0.5839 0.0113,-1.1677 0.0251,-1.75149 0.0114,-0.46455 0.0184,-0.9339 0.14207,-1.38905 0.13434,-0.43642 0.31911,-0.85802 0.54111,-1.26845 0,0 0.77871,0.0801 0.77871,0.0801 z"
       inkscape:connector-curvature="0" />
    <path
       style="color:#000000;fill:#ffffff;fill-opacity:1;fill-rule:nonzero;stroke:#000000;stroke-width:6;stroke-linecap:square;stroke-linejoin:miter;stroke-miterlimit:4;stroke-opacity:1;stroke-dasharray:none;stroke-dashoffset:0;marker:none;visibility:visible;display:inline;overflow:visible;enable-background:accumulate"
       d="m 161.0822,689.43822 c -0.45484,2.83715 -0.51486,5.92246 1.26027,8.47321 1.21579,2.03093 3.09889,3.85702 5.61663,4.7805 1.42881,0.58216 3.02694,0.85745 4.61243,0.82481 0.10288,-0.30618 1.27954,-0.59176 1.56167,-1.14476 1.5028,-1.62511 1.67257,-3.75719 1.9822,-5.72026 0.24699,-2.13277 0.20216,-4.29209 -0.17802,-6.412 -0.41945,-0.48033 -0.72655,-2.24121 0.47396,-1.547 0.72112,0.83659 0.64738,1.93476 0.85742,2.91091 0.26799,2.67448 0.0352,5.38392 -0.59765,8.01155 -0.42615,1.48894 -1.23002,3.12285 -2.95324,3.83809 -1.34658,0.40092 -2.81004,0.19094 -4.18918,0.0508 -3.04947,-0.53813 -5.7487,-2.21961 -7.32327,-4.47253 -1.46804,-1.96237 -2.39041,-4.25662 -2.25247,-6.59439 0.10298,-0.96217 0.0236,-1.96994 0.31953,-2.89533 0.18162,-0.22583 0.54688,-0.17797 0.80972,-0.10362 z"
       id="path3192"
       inkscape:connector-curvature="0" />
    <path
       style="color:#000000;fill:#000000;fill-opacity:1;fill-rule:nonzero;stroke:#000000;stroke-width:5;stroke-linecap:square;stroke-linejoin:miter;stroke-miterlimit:4;stroke-opacity:1;stroke-dasharray:none;stroke-dashoffset:0;marker:none;visibility:visible;display:inline;overflow:visible;enable-background:accumulate"
       d="m 187.92645,688.45463 c -1.20008,3.73273 -0.52952,7.65077 -0.25124,11.44373 1.16881,5.95884 5.33351,11.88073 12.0254,14.4697 6.30372,2.06703 13.28078,1.69526 19.88102,1.16176 6.54981,-0.7653 13.30993,-1.51411 19.30776,-3.98298 3.47536,-1.76 6.522,-4.19119 8.80519,-7.0036 2.39452,-3.64333 2.41899,-7.93729 2.9079,-11.97354 0.004,-4.20568 -2.37215,-8.20361 -5.48049,-11.39082 -3.07416,-2.45388 -7.64404,-2.07331 -11.56099,-2.3328 -4.69837,-0.332 -9.89612,-0.47559 -13.88388,2.00597 -4.24853,2.36969 -7.30605,6.05192 -9.38341,9.9049 -1.27213,3.28674 1.02407,6.96478 4.73708,8.29339 2.5648,0.79794 6.20918,2.94892 8.55821,0.76439 1.81374,-2.52002 -4.13086,-1.58866 -3.81387,-4.23228 -0.42261,-2.13011 -0.0281,-4.59818 1.60199,-6.31051 2.96513,-2.67662 7.99274,-3.1876 11.95281,-2.01126 3.79935,1.81198 4.05806,6.03629 3.52533,9.27997 -1.08274,4.94871 -6.69348,8.52249 -12.54771,8.75112 -5.14307,0.45532 -10.33499,0.29904 -15.49494,0.2798 -3.58541,-0.28949 -9.00106,-0.52674 -9.84701,-4.21127 -0.40764,-4.89813 -1.30969,-9.80458 -0.95253,-14.73577 3.36973,0.76892 0.45185,4.7626 1.78477,6.85527 0.30612,3.40625 -0.0482,7.13555 2.04592,10.18255 2.6221,1.35062 5.96468,1.62049 8.93875,1.65412 6.48208,-0.13308 13.58907,0.70012 19.35283,-2.37514 4.91563,-2.71435 6.80616,-8.4134 4.66077,-12.94639 -0.88492,-2.12241 -3.57051,-3.45411 -6.19819,-2.87254 -3.44758,0.25738 -6.95311,2.20324 -7.43048,5.26419 -1.25923,3.01012 1.64633,5.5452 4.34893,6.62062 -0.61574,2.946 -5.84053,2.16015 -8.3592,1.3027 -4.05094,-1.03983 -8.60427,-3.45212 -8.66215,-7.42818 -0.044,-3.75824 3.31645,-6.62001 5.75995,-9.47265 3.34847,-2.98301 7.90997,-5.36697 12.95909,-5.14512 4.34733,0.0782 8.7102,0.2886 13.02429,0.74244 3.41974,0.39349 6.82524,1.89209 8.31279,4.63443 2.34886,3.38933 3.94832,7.33172 3.16883,11.28723 -0.64176,3.63084 -0.68482,7.57297 -3.4066,10.64576 -2.34774,2.70847 -5.49484,4.9517 -8.98253,6.56344 -3.94911,1.66466 -8.41268,2.06609 -12.67031,2.8923 -7.92773,1.19803 -16.13123,1.60509 -24.09876,0.46786 -4.76435,-0.71329 -9.0061,-3.10726 -11.64733,-6.50888 -3.88348,-4.47238 -5.06405,-10.18514 -4.58093,-15.60949 0.0153,-1.22026 -0.6931,-5.20772 1.59294,-4.92442 z"
       id="path3194"
       inkscape:connector-curvature="0" />
    <path
       style="color:#000000;fill:#000000;fill-opacity:1;fill-rule:nonzero;stroke:#000000;stroke-width:5;stroke-linecap:square;stroke-linejoin:miter;stroke-miterlimit:4;stroke-opacity:1;stroke-dasharray:none;stroke-dashoffset:0;marker:none;visibility:visible;display:inline;overflow:visible;enable-background:accumulate"
       d="m 151.58767,689.99355 c 1.62649,7.44731 0.65237,15.91701 -5.41536,21.85523 -3.78902,3.65313 -9.53321,5.58166 -15.25206,5.5134 -9.38365,0.47219 -18.7862,-0.96528 -27.73009,-3.26209 -7.135676,-2.35423 -13.231442,-7.79659 -13.860691,-14.41874 -1.387499,-6.04717 -0.29255,-13.2322 5.678014,-17.35703 3.53911,-2.31403 8.191437,-1.66788 12.361897,-2.00653 3.76687,-0.20926 7.73371,-0.25188 11.08842,1.44889 4.77831,2.24293 8.52045,6.03803 10.47555,10.31601 1.13074,2.51419 0.26807,5.48998 -2.28014,7.16128 -2.39558,1.84649 -5.7853,3.47941 -9.11275,2.80728 -3.11344,-1.62716 1.24047,-3.34734 1.93667,-4.89164 1.62606,-3.53333 -1.36436,-7.68413 -5.65456,-8.52822 -3.8301,-1.16707 -9.25626,-0.38425 -10.73976,3.22149 -2.5244,5.14905 0.55887,11.59941 6.64386,13.82353 4.89743,1.92613 10.44964,1.22929 15.67389,1.51 4.05732,-0.0289 8.23103,-0.11431 12.11954,-1.14065 3.40112,-1.65327 3.47632,-5.35568 3.52606,-8.26932 0.35051,-3.19331 0.6439,-6.40513 0.42248,-9.61279 -3.22513,2.01586 -0.66331,5.62242 -1.79622,8.31235 -0.67467,2.90635 0.38552,6.46242 -2.49039,8.71633 -4.13922,2.34388 -9.36236,1.43372 -14.046,1.67108 -5.89871,0.0609 -12.80251,-0.38217 -16.73284,-4.60883 -3.33794,-3.55152 -4.01013,-9.31249 -0.0155,-12.70642 5.17777,-3.08929 13.45122,1.53886 11.95911,6.75354 -0.0476,2.29772 -6.19249,4.04428 -2.41618,6.129 3.7883,0.74701 7.58586,-0.79194 10.82721,-2.30068 3.24794,-1.7039 5.2898,-5.28428 3.63033,-8.38051 -1.64769,-3.54714 -4.70689,-6.5658 -8.1266,-9.0071 -3.79365,-2.52227 -8.80482,-3.45539 -13.54703,-2.83121 -4.88952,0.35177 -10.201969,-0.0374 -14.562642,2.1788 -4.352979,2.54287 -6.203403,7.19041 -6.618882,11.46558 -0.18769,3.99177 0.430857,8.11502 2.317492,11.80244 3.516332,6.23731 11.561442,9.4935 19.288622,10.6754 9.81253,1.39616 20.1101,2.79914 29.88052,0.44378 6.95059,-1.60894 11.65385,-7.16945 13.38296,-12.82354 0.96802,-2.70377 0.71091,-5.53436 0.821,-8.30569 0.21919,-1.82682 0.6109,-4.26237 -1.63587,-5.35442 z"
       id="path3194-6"
       inkscape:connector-curvature="0" />
    <path
       style="color:#000000;fill:#000000;fill-opacity:1;fill-rule:nonzero;stroke:#000000;stroke-width:5;stroke-linecap:square;stroke-linejoin:miter;stroke-miterlimit:4;stroke-opacity:1;stroke-dasharray:none;stroke-dashoffset:0;marker:none;visibility:visible;display:inline;overflow:visible;enable-background:accumulate"
       d="m 154.92964,689.69115 c 0.26384,4.89689 0.18,9.80369 -0.094,14.69719 0.18235,3.32098 0.5119,6.67261 1.41975,9.9089 1.03632,2.03142 3.94117,2.53049 6.30809,2.51878 5.34035,0.1334 10.68362,0.22103 16.02617,0.27539 2.24551,-0.003 4.4921,-0.053 6.73155,-0.19673 -1.60289,0.0309 1.76669,-0.96704 1.2549,-1.83304 0.64451,-2.37738 0.79424,-4.85508 0.63296,-7.28692 -0.36042,-3.68962 -1.40333,-7.32394 -1.37674,-11.041 -0.0263,-1.92231 -0.21015,-3.85727 -1.00637,-5.64317 -0.53367,-1.1616 1.10059,-2.07921 1.45844,-0.55557 1.18054,3.06989 0.73145,6.35575 1.1971,9.51901 0.41667,3.93522 1.60778,7.84341 1.07044,11.81649 -0.33557,1.51984 -0.16604,3.40201 -1.61052,4.53575 -2.07683,1.23854 -4.77853,0.77065 -7.16051,0.95688 -6.75933,0.0938 -13.52312,-0.10044 -20.27368,-0.34117 -2.19008,-0.18106 -4.57235,-1.32106 -4.84518,-3.32397 -0.58208,-2.32931 -0.61198,-4.72468 -0.99317,-7.0777 -0.31103,-4.00544 0.39782,-7.99976 0.35847,-12.00452 0.47283,-1.55457 -0.7456,-3.40895 0.60897,-4.75477 l 0.29334,-0.1698 c 0,0 0,-3e-5 0,-3e-5 z"
       id="path3220"
       inkscape:connector-curvature="0" />
    <path
       style="color:#000000;fill:#ffffff;fill-opacity:1;fill-rule:nonzero;stroke:#ffffff;stroke-width:2;stroke-linecap:square;stroke-linejoin:miter;stroke-miterlimit:4;stroke-opacity:1;stroke-dasharray:none;stroke-dashoffset:0;marker:none;visibility:visible;display:inline;overflow:visible;enable-background:accumulate"
       d="m 161.0822,689.43822 c -0.45484,2.83715 -0.51486,5.92246 1.26027,8.47321 1.21579,2.03093 3.09889,3.85702 5.61663,4.7805 1.42881,0.58216 3.02694,0.85745 4.61243,0.82481 0.10288,-0.30618 1.27954,-0.59176 1.56167,-1.14476 1.5028,-1.62511 1.67257,-3.75719 1.9822,-5.72026 0.24699,-2.13277 0.20216,-4.29209 -0.17802,-6.412 -0.41945,-0.48033 -0.72655,-2.24121 0.47396,-1.547 0.72112,0.83659 0.64738,1.93476 0.85742,2.91091 0.26799,2.67448 0.0352,5.38392 -0.59765,8.01155 -0.42615,1.48894 -1.23002,3.12285 -2.95324,3.83809 -1.34658,0.40092 -2.81004,0.19094 -4.18918,0.0508 -3.04947,-0.53813 -5.7487,-2.21961 -7.32327,-4.47253 -1.46804,-1.96237 -2.39041,-4.25662 -2.25247,-6.59439 0.10298,-0.96217 0.0236,-1.96994 0.31953,-2.89533 0.18162,-0.22583 0.54688,-0.17797 0.80972,-0.10362 z"
       id="path3192-5"
       inkscape:connector-curvature="0" />
  </g>
</svg>
