<?xml version="1.0" encoding="UTF-8" standalone="no"?>
<!-- Created with Inkscape (http://www.inkscape.org/) -->

<svg
   xmlns:dc="http://purl.org/dc/elements/1.1/"
   xmlns:cc="http://creativecommons.org/ns#"
   xmlns:rdf="http://www.w3.org/1999/02/22-rdf-syntax-ns#"
   xmlns:svg="http://www.w3.org/2000/svg"
   xmlns="http://www.w3.org/2000/svg"
   xmlns:sodipodi="http://sodipodi.sourceforge.net/DTD/sodipodi-0.dtd"
   xmlns:inkscape="http://www.inkscape.org/namespaces/inkscape"
   width="210mm"
   height="297mm"
   id="svg4153"
   version="1.1"
   inkscape:version="0.48.4 r9939"
   sodipodi:docname="calcaire.svg">
  <defs
     id="defs4155">
    <inkscape:perspective
       sodipodi:type="inkscape:persp3d"
       inkscape:vp_x="-76.114981 : 739.47902 : 1"
       inkscape:vp_y="0 : 1000 : 0"
       inkscape:vp_z="651.1968 : 816.14282 : 1"
       inkscape:persp3d-origin="292.34816 : 384.86194 : 1"
       id="perspective4989" />
    <inkscape:perspective
       sodipodi:type="inkscape:persp3d"
       inkscape:vp_x="241.4131 : 654.81258 : 1"
       inkscape:vp_y="0 : 535.49132 : 0"
       inkscape:vp_z="617.549 : 695.86538 : 1"
       inkscape:persp3d-origin="431.96716 : 464.91822 : 1"
       id="perspective4989-0" />
  </defs>
  <sodipodi:namedview
     id="base"
     pagecolor="#ffffff"
     bordercolor="#666666"
     borderopacity="1.0"
     inkscape:pageopacity="0.0"
     inkscape:pageshadow="2"
     inkscape:zoom="1.7970118"
     inkscape:cx="387.95539"
     inkscape:cy="700.36856"
     inkscape:document-units="px"
     inkscape:current-layer="layer1"
     showgrid="false"
     inkscape:window-width="1366"
     inkscape:window-height="705"
     inkscape:window-x="-8"
     inkscape:window-y="-8"
     inkscape:window-maximized="1" />
  <metadata
     id="metadata4158">
    <rdf:RDF>
      <cc:Work
         rdf:about="">
        <dc:format>image/svg+xml</dc:format>
        <dc:type
           rdf:resource="http://purl.org/dc/dcmitype/StillImage" />
        <dc:title></dc:title>
      </cc:Work>
    </rdf:RDF>
  </metadata>
  <g
     inkscape:label="Calque 1"
     inkscape:groupmode="layer"
     id="layer1">
    <path
       style="fill:#000000"
       d="m 245.28742,402.79488 c -13.6297,-4.53764 -20.5,-13.42232 -20.5,-26.5106 0,-12.59449 4.21155,-19.90538 17.31045,-30.04949 l 3.81046,-2.9509 -10.31046,-10.4907 c -6.06601,-6.17206 -11.33961,-12.54902 -12.81045,-15.4907 -2.40173,-4.80345 -2.51196,-5.85609 -2.80435,-26.77841 l -0.30434,-21.7784 3.69021,-15.2216 c 4.00866,-16.53514 7.20662,-23.93066 15.31529,-35.41781 9.34125,-13.23328 20.7043,-22.45394 32.63443,-26.48153 12.72612,-4.29631 22.20443,-5.11027 64.77231,-5.5624 26.89493,-0.28566 43.67247,-0.0516 49.22009,0.68664 36.00505,4.79138 56.91216,20.77671 61.98301,47.39148 1.8804,9.86942 2.1208,48.62304 0.32244,51.97777 -0.644,1.20134 -1.49564,6.45926 -1.89254,11.68426 -1.01802,13.40183 -3.53211,20.72538 -11.7732,34.29532 -3.93984,6.48742 -7.15567,12.11242 -7.14628,12.5 0.009,0.38757 2.50804,1.78323 5.55257,3.10145 14.22783,6.16038 17.37502,11.08221 17.4084,27.22462 l 0.022,10.62139 -3.75,4.11656 c -8.86445,9.73094 -23.46499,14.89087 -39.16584,13.84148 -9.68532,-0.64733 -14.56986,-2.13741 -22.84936,-6.97042 -8.41522,-4.91223 -8.4773,-4.91802 -13.61032,-1.26858 -10.89827,7.74839 -23.59662,10.56304 -38.90794,8.62415 -11.9619,-1.51475 -19.69703,-5.07684 -26.88534,-12.38092 l -5.43876,-5.52636 -8.03622,7.23806 c -10.60755,9.55396 -13.91066,10.86554 -28.35626,11.25953 -9.41562,0.2568 -12.5875,-0.0484 -17.5,-1.68389 z m 31.07935,-6.11835 c 10.85052,-4.03751 19.00994,-15.25313 20.13669,-27.67913 0.82351,-9.08178 0.11279,-10.74878 -5.14739,-12.07331 -7.55819,-1.90317 -7.86125,-1.74977 -10.37156,5.24976 -3.96539,11.05678 -11.32089,17.62864 -19.73071,17.62864 -6.46035,0 -10.38113,-3.2878 -10.43458,-8.75 -0.0308,-3.14323 0.10286,-3.25 4.06699,-3.25 3.2989,0 4.66697,-0.60824 7.01024,-3.11672 3.75167,-4.01618 4.43246,-6.93547 2.49233,-10.68728 -3.59845,-6.95863 -10.2031,-8.97196 -17.3912,-5.30145 -4.7868,2.44432 -14.90891,13.05701 -15.78582,16.55089 -1.31259,5.22975 0.10862,16.95127 2.59078,21.36767 6.45576,11.48648 26.19449,16.15214 42.56423,10.06093 z m 80.47666,-0.31006 c 11.13226,-3.95781 15.9954,-11.3159 16.73065,-25.31398 l 0.48586,-9.25 -9.43546,0 -9.43546,0 0.38718,3.31643 c 1.41523,12.12248 -9.01124,22.07697 -21.20799,20.24796 -7.17535,-1.07601 -9.38202,-3.6838 -10.6039,-12.53137 -0.56717,-4.10684 -1.68974,-8.47202 -2.4946,-9.70039 -2.35683,-3.59698 -13.13456,-5.78465 -15.18681,-3.08263 -0.55793,0.73458 -0.67238,5.1672 -0.27755,10.75 0.71365,10.09109 2.69258,15.54596 7.14721,19.70115 3.05782,2.85228 10.8423,6.27416 16.70549,7.34335 6.72014,1.22546 21.89934,0.3988 27.18538,-1.48052 z m 72.68563,-1.52099 c 9.19028,-4.00123 14.24721,-11.64774 14.24721,-21.54299 0,-12.14546 -8.04441,-21.5 -18.48885,-21.5 -4.93323,0 -9.35124,2.08561 -13.66111,6.44899 -4.69607,4.75438 -5.57921,8.08151 -3.04657,11.47763 2.09096,2.80387 5.14314,3.77287 12.45768,3.95507 4.39442,0.10945 4.75,0.30928 4.75,2.66934 0,5.98231 -14.57119,7.23447 -23.47381,2.01718 -5.87133,-3.44082 -9.52619,-9.59624 -9.52619,-16.04375 l 0,-4.79982 -5.63537,0.66232 c -3.09945,0.36428 -5.98463,0.87819 -6.4115,1.14201 -0.42688,0.26382 -0.27216,1.81487 0.34382,3.44677 0.8361,2.21509 0.81367,4.75321 -0.0885,10.01424 -1.64609,9.59926 -1.53984,11.31901 0.8902,14.40831 2.36287,3.0039 10.1516,7.25719 16.90135,9.22954 7.21642,2.10872 24.2784,1.22911 30.74164,-1.58484 z M 346.419,376.43407 c 4.21301,-4.21301 4.36842,-4.58772 4.36842,-10.53275 l 0,-6.16433 -11.21034,0.28275 -11.21034,0.28275 -1.40901,3.70705 c -1.85588,4.88275 -0.85632,9.84707 2.76277,13.72132 2.42089,2.59156 3.60865,3.07163 7.59971,3.07163 4.25192,0 5.17221,-0.44184 9.09879,-4.36842 z m -82.1519,-1.26215 c 0.90378,-0.34682 4.31559,-3.80532 7.58178,-7.68556 4.63787,-5.50979 5.93854,-7.78092 5.93854,-10.36943 0,-2.84254 -0.3457,-3.31444 -2.42804,-3.31444 -2.20726,0 -2.49233,0.52286 -3.13493,5.75 -0.65719,5.34585 -1.10154,6.11795 -6.32195,10.98499 -5.21433,4.86136 -5.68225,6.18736 -1.6354,4.63444 z m 137.00177,-15.67079 c 1.48407,-3.55189 1.4655,-3.69864 -0.46803,-3.69864 -1.69575,0 -2.01342,0.65741 -2.01342,4.16667 0,4.75396 0.32519,4.69262 2.48145,-0.46803 z m -20.98145,-5.69343 c 19.6255,-2.09369 32.09268,-7.42274 43.08758,-18.41763 11.09479,-11.0948 17.08163,-25.1214 19.46217,-45.59804 2.05386,-17.66666 -0.36305,-54.32318 -4.27471,-64.83321 -5.58795,-15.01395 -21.83892,-26.02685 -46.27504,-31.35949 -11.62675,-2.53729 -56.91297,-3.63351 -77.85336,-1.88456 -25.26851,2.11044 -50.65425,7.33067 -56.19309,11.55535 -6.07022,4.62999 -14.46661,17.32726 -23.00214,34.78453 l -8.43312,17.24784 -0.009,27.07186 c -0.0111,32.94576 0.18583,33.80978 9.90835,43.46524 8.09717,8.04131 16.5883,12.59824 34.3387,18.42851 14.86222,4.88162 29.34201,8.19385 41.2438,9.43446 11.31915,1.17988 57.25992,1.25091 68,0.10514 z m -77,-16.5853 c -19.66354,-3.65089 -34.41566,-10.26474 -42.41303,-19.01513 -7.7968,-8.53094 -8.34632,-11.40864 -7.87066,-41.21626 0.39217,-24.57496 0.40857,-24.73235 3.5652,-34.21815 5.89999,-17.72971 13.51156,-27.19148 24.51262,-30.47104 19.40678,-5.78542 38.24891,-7.88872 71.20587,-7.94852 30.63979,-0.0556 34.43199,0.45507 47.04737,6.33556 8.13342,3.79129 12.81608,8.11745 16.16254,14.93203 l 2.79009,5.6816 0.31651,30.95757 c 0.19836,19.40227 -0.094,33.39962 -0.78336,37.5 -3.07893,18.31459 -15.30728,30.34177 -36.88962,36.28275 -6.87716,1.89308 -10.75173,2.13216 -38.64353,2.38448 -24.12655,0.21827 -32.77379,-0.0489 -39,-1.20489 z m 47.5,-2.98736 c 0,-0.31209 -2.09357,-3.12459 -4.65238,-6.25 -2.55881,-3.1254 -5.96553,-8.4722 -7.5705,-11.88178 l -2.91812,-6.19923 -7.31385,9.69923 c -4.02262,5.33458 -8.26589,10.55647 -9.4295,11.60422 -1.16361,1.04774 -2.11565,2.28524 -2.11565,2.75 0,0.46475 7.65,0.84501 17,0.84501 9.35,0 17,-0.25535 17,-0.56745 z m -43.3151,-1.49064 c 6.67161,-2.50761 16.72408,-15.30178 25.45705,-32.40017 5.26266,-10.30385 7.56627,-11.29511 7.64973,-3.29174 0.0807,7.74271 3.0404,19.7199 5.92543,23.97913 2.54773,3.76126 8.93422,9.482 12.96715,11.6154 2.76598,1.4632 12.61966,1.48864 19.51652,0.0504 8.64691,-1.80321 17.1503,-6.3793 22.11491,-11.90115 4.85333,-5.39808 11.68431,-20.06859 11.68431,-25.09374 l 0,-2.90004 -13.65561,0 c -13.13943,0 -13.78351,-0.0976 -17.03935,-2.58091 -1.86106,-1.4195 -4.55328,-4.34819 -5.98271,-6.50821 -2.26077,-3.41625 -2.51883,-4.60939 -1.9831,-9.16909 0.33873,-2.88298 2.12364,-8.39179 3.96647,-12.24179 4.24944,-8.87785 4.30176,-14.72057 0.16367,-18.28 l -2.71986,-2.33953 -33.62476,0.30976 -33.62475,0.30977 -5.09002,2.68578 c -8.332,4.39643 -11.39799,8.71985 -19.01553,26.81422 -2.18768,5.19652 -7.5273,11.50022 -11.4672,13.53762 -1.49768,0.77448 -4.9065,1.87378 -7.57515,2.44288 -10.6096,2.26256 -9.68502,1.5049 -9.07298,7.43499 0.77933,7.55095 4.95865,15.02917 12.75817,22.8287 9.33093,9.33093 21.1327,14.7359 34.14761,15.63891 0.9267,0.0643 2.9517,-0.35924 4.5,-0.94119 z M 413.6799,285.36732 c 2.55325,-2.55055 2.6142,-2.92773 2.92848,-18.12383 0.61942,-29.94997 -4.01509,-43.97987 -16.62939,-50.34162 -6.28376,-3.16908 -19.67349,-7.43874 -21.46025,-6.84315 -0.72904,0.24301 -1.17112,3.59345 -1.22864,9.31168 -0.0494,4.91265 -0.45997,10.57864 -0.91234,12.59109 -0.79138,3.5206 -0.66434,3.76365 3.35901,6.42618 7.70114,5.09637 8.75333,10.66022 4.39625,23.24685 -3.72834,10.77035 -4.28726,13.7954 -3.24578,17.56731 1.8824,6.81751 9.27472,9.86245 22.29266,9.18249 6.87286,-0.35898 8.22934,-0.74874 10.5,-3.017 z M 273.21709,276.7299 c 7.32148,-7.76116 9.16176,-11.07025 10.06821,-18.10415 0.90233,-7.00187 3.90905,-10.5844 12.68302,-15.11194 5.34113,-2.75612 8.01752,-4.77614 8.78593,-6.63124 0.64661,-1.56105 0.9864,-7.21283 0.81909,-13.62391 -0.26895,-10.30579 -0.41215,-10.97418 -2.4123,-11.25952 -2.65924,-0.37937 -19.57942,4.40305 -24.66511,6.9715 -8.44309,4.26405 -15.165,14.08542 -17.61747,25.74087 -0.62598,2.97496 -2.02754,7.41966 -3.11459,9.87712 -1.60159,3.62065 -1.97645,6.68836 -1.97645,16.17431 0,6.43842 0.3,12.00622 0.66667,12.37288 0.36666,0.36667 2.78716,0.66667 5.37887,0.66667 4.5432,0 4.9515,-0.25366 11.38413,-7.07259 z m 43.34936,-52.68976 c 0.25718,-12.20136 0.1376,-13.23765 -1.5275,-13.23765 -0.99358,0 -2.80665,0.70052 -4.02902,1.5567 -1.89787,1.32932 -2.22251,2.4795 -2.22251,7.87428 0,5.41244 0.67859,8.57842 3.51365,16.39293 0.26416,0.72814 1.26916,1.17259 2.23333,0.98765 1.54823,-0.29697 1.78562,-1.88266 2.03205,-13.57391 z m 14.72097,11.76235 c 0.33992,-0.55 -0.30852,-1 -1.44098,-1 -1.13246,0 -2.05902,0.45 -2.05902,1 0,0.55 0.64844,1 1.44098,1 0.79254,0 1.7191,-0.45 2.05902,-1 z m 38.5,-1 c 1.77778,-1.77778 2,-3.33333 2,-14 l 0,-12 -4.47856,0 c -4.36866,0 -4.45164,0.0591 -3.38135,2.40813 0.79821,1.75188 0.79237,4.15868 -0.0214,8.83191 -1.24761,7.16435 -1.4698,15.07548 -0.45198,16.09329 1.29018,1.29023 4.35495,0.64501 6.33329,-1.33333 z m -30.96438,-0.0191 c 1.61556,-0.86462 1.73282,-1.39505 0.77374,-3.5 -1.14844,-2.52055 -2.38625,-2.96427 -5.22757,-1.87395 -2.03033,0.77911 -2.00648,2.26625 0.0732,4.56427 1.93463,2.13775 1.90822,2.13287 4.38063,0.80968 z m 18.92842,0.26906 c -0.0198,-0.4125 -1.08663,-2.03446 -2.37077,-3.60435 -1.93337,-2.36358 -2.67205,-2.67386 -4.29628,-1.80459 -1.07881,0.57736 -2.57053,1.78361 -3.31493,2.68056 -1.1422,1.37626 -1.12936,1.77261 0.0822,2.53928 1.72884,1.09397 9.95066,1.25101 9.89974,0.1891 z m -31.14577,-6.1428 c 0.25834,-2.62904 0.57877,-3.02258 1.70201,-2.09037 1.61229,1.33808 5.48202,0.39502 5.47475,-1.33422 -0.003,-0.65043 -1.03873,-2.47449 -2.30222,-4.05346 l -2.29727,-2.87085 -3.19777,3.19777 c -2.2877,2.28771 -3.19777,4.12453 -3.19777,6.45419 0,5.6698 3.27093,6.26684 3.81827,0.69694 z m 20.6103,-0.67863 c 2.00225,-2.00224 1.98263,-3.31672 -0.0836,-5.59983 -2.14199,-2.36687 -3.20933,-2.30484 -6.03617,0.35084 l -2.32005,2.17958 2.17992,2.32042 c 2.55735,2.72217 4.10188,2.90698 6.25986,0.74899 z m 10.57143,-2.92857 c 0,-0.825 -0.675,-1.5 -1.5,-1.5 -0.825,0 -1.5,0.675 -1.5,1.5 0,0.825 0.675,1.5 1.5,1.5 0.825,0 1.5,-0.675 1.5,-1.5 z m -18.00984,-5.98952 c 2.2881,-2.43558 2.29849,-2.53404 0.47948,-4.54402 -3.82344,-4.22486 -9.23531,-0.31016 -6.12777,4.43255 2.11014,3.22048 2.71628,3.23245 5.64829,0.11147 z m 15.76795,0.14149 c 0.11203,-1.35359 -0.78281,-3.266 -2.11286,-4.51551 -2.2755,-2.13772 -2.33119,-2.14097 -4.05468,-0.23654 -1.64631,1.81915 -1.64943,2.08061 -0.054,4.51552 2.2007,3.3587 5.95136,3.50129 6.22156,0.23653 z m -28.75811,-3.35841 c 0,-0.98158 -3.20509,-4.29356 -4.15499,-4.29356 -0.97577,0 -1.1573,5.35437 -0.21353,6.29815 0.69579,0.69579 4.36852,-0.98953 4.36852,-2.00459 z m 20.81805,-4.79356 c 1.09617,-2.40585 1.00806,-2.5 -2.33949,-2.5 -3.61093,0 -4.53593,1.54263 -2.27856,3.8 1.8589,1.8589 3.37295,1.43269 4.61805,-1.3 z m 11.18195,0 c 0,-1.83333 -0.53333,-2.5 -2,-2.5 -2.43319,0 -2.51708,0.77115 -0.34501,3.17126 2.1468,2.37219 2.34501,2.31546 2.34501,-0.67126 z m -27,0 c 1.05275,-1.26848 0.84012,-1.5 -1.37756,-1.5 -2.53514,0 -3.33492,0.95418 -1.95577,2.33333 1.03485,1.03485 1.97871,0.79889 3.33333,-0.83333 z"
       id="path5341"
       inkscape:connector-curvature="0" />
    <path
       style="fill:#925118;fill-opacity:1;stroke:#000000;stroke-width:1px;stroke-linecap:butt;stroke-linejoin:miter;stroke-opacity:1"
       d="m 365.65701,493.89426 163.61526,-154.67525 24.20801,-38.79909 19.5257,-1.88893 -0.86888,14.4601 -49.9607,53.38945 c -44.39353,26.41912 -72.05221,72.75971 -108.05509,109.16721 l -37.84463,35.02122 -14.38482,-9.27097 z"
       id="path5310"
       inkscape:connector-curvature="0"
       sodipodi:nodetypes="cccccccccc" />
    <path
       style="color:#000000;fill:#000000;fill-opacity:1;fill-rule:nonzero;stroke:#000000;stroke-width:4;stroke-linecap:square;stroke-linejoin:miter;stroke-miterlimit:4;stroke-opacity:1;stroke-dasharray:none;stroke-dashoffset:0;marker:none;visibility:visible;display:inline;overflow:visible;enable-background:accumulate"
       id="path5276"
       d="m 369.79313,486.59083 c -1.40532,0.50621 -2.73044,1.17637 -3.80875,2.2189 -0.68775,0.73383 -1.01585,1.67238 -1.32762,2.60654 -0.30593,0.87964 -0.62915,1.7511 -0.87631,2.64958 -0.22514,0.83797 -0.36078,1.69383 -0.41764,2.55869 -0.0423,0.75899 -0.0431,1.52004 -0.0335,2.27998 -0.0398,0.64709 0.0718,1.26428 0.28381,1.87165 0.21781,0.59408 0.52253,1.14883 0.78551,1.72238 0.23594,0.55725 0.50401,1.0977 0.80357,1.623 0.20198,0.31583 0.38357,0.64129 0.54471,0.97959 0.11456,0.2485 0.25232,0.48552 0.4398,0.68573 0.26892,0.33004 0.49198,0.69124 0.71413,1.05325 0.19651,0.31704 0.39751,0.63112 0.60621,0.94032 0.13575,0.21161 0.31459,0.38336 0.50418,0.54515 0.24671,0.14216 0.49902,0.27493 0.75131,0.40705 0.37266,0.1893 0.76804,0.32621 1.17058,0.43557 0.48194,0.14941 0.98157,0.21549 1.48288,0.2537 -4.4782,-0.21976 -1.39381,-0.15745 -0.35492,-0.15102 0.85368,0.003 1.70405,0.0274 2.55018,-0.0975 1.19919,-0.25056 2.24627,-0.89847 3.26971,-1.54109 1.42547,-0.93155 2.84475,-1.87374 4.23835,-2.8525 1.82716,-1.28244 3.51444,-2.74344 5.20937,-4.19148 1.5553,-1.41615 3.05289,-2.89347 4.52546,-4.3949 1.02404,-1.04984 2.0159,-2.13022 3.02351,-3.19568 0.7744,-0.84363 1.61735,-1.61959 2.41419,-2.44081 1.4141,-1.4587 2.76786,-2.97373 4.13779,-4.47352 1.6265,-1.78593 3.3424,-3.48575 5.05789,-5.18512 1.58527,-1.51471 3.09113,-3.1061 4.53123,-4.75859 1.46024,-1.75063 2.92239,-3.49904 4.4211,-5.21719 1.66605,-1.87788 3.41506,-3.67973 5.15374,-5.48987 1.90475,-2.00703 3.87096,-3.95375 5.84554,-5.89163 1.90179,-1.83924 3.74773,-3.73331 5.5342,-5.68446 2.00204,-2.27973 3.95624,-4.60104 5.96429,-6.87601 2.62284,-2.93854 5.27074,-5.85449 7.89681,-8.79016 3.06969,-3.46666 6.14827,-6.92464 9.27639,-10.33876 2.99405,-3.28513 6.09856,-6.46635 9.18296,-9.66596 3.31043,-3.473 6.61327,-6.95319 9.9261,-10.42392 3.17443,-3.31536 6.34134,-6.6377 9.49984,-9.96819 3.00952,-3.20247 6.08495,-6.34125 9.21594,-9.4248 2.9325,-2.89192 6.01174,-5.62693 9.1352,-8.30922 3.31922,-2.79379 6.72152,-5.48612 10.15617,-8.13593 2.87765,-2.25935 5.86357,-4.37456 8.69846,-6.68841 2.58767,-2.05505 5.08238,-4.2241 7.53728,-6.43501 2.33864,-2.04231 4.66358,-4.10024 7.02381,-6.11759 2.20789,-1.87723 4.43659,-3.72971 6.63833,-5.61416 2.1646,-1.85426 4.27818,-3.76654 6.3739,-5.69792 1.66561,-1.54695 3.2917,-3.1361 4.8946,-4.74774 1.3378,-1.32415 2.62106,-2.70073 3.84482,-4.13058 1.12173,-1.3402 2.14311,-2.75943 3.28187,-4.08517 1.12005,-1.28797 2.2034,-2.60314 3.19188,-3.99509 0.97928,-1.4451 1.8737,-2.945 2.76048,-4.44786 0.95466,-1.61073 1.75635,-3.30222 2.52556,-5.00696 0.66578,-1.48066 1.19573,-3.01355 1.60522,-4.58307 0.30172,-1.18649 0.45754,-2.40199 0.60004,-3.61573 0.12007,-1.06455 0.14938,-2.13559 0.16744,-3.20573 1.5e-4,-0.84511 0.0261,-1.69162 -0.0164,-2.53598 -0.0561,-0.6831 -0.41889,-1.20953 -0.88442,-1.68374 -0.53814,-0.4816 -1.19612,-0.79396 -1.83215,-1.1229 -1.11799,-0.66214 -4.43916,-1.46616 0.79271,0.001 -0.86411,-0.22172 -1.75326,-0.30587 -2.64025,-0.37188 -0.9044,-0.01 -1.81079,-0.0197 -2.71718,-0.025 -0.78969,-0.002 -1.57938,-0.002 -2.36906,-0.001 -0.70351,-0.1035 -1.41842,-0.002 -2.11433,0.1147 -0.62926,0.11456 -1.23579,0.32064 -1.83234,0.54671 -0.63193,0.25059 -1.24097,0.55092 -1.83877,0.87338 -0.65203,0.34594 -1.25023,0.77792 -1.83092,1.23067 -0.63058,0.4855 -1.15617,1.08361 -1.66269,1.6928 -0.48391,0.56125 -0.9413,1.14504 -1.36656,1.75167 -0.30018,0.43989 -0.57917,0.89358 -0.86169,1.34487 -0.36613,0.62541 -0.69904,1.26974 -1.02567,1.91644 -0.39556,0.75339 -0.76619,1.5203 -1.17793,2.26501 -0.35569,0.6184 -0.67829,1.25073 -0.97171,1.90132 -0.28958,0.6542 -0.56349,1.31496 -0.83559,1.9766 -0.25191,0.60259 -0.49052,1.21009 -0.71591,1.82306 -0.22027,0.55441 -0.4157,1.11853 -0.58456,1.69063 -0.18228,0.64432 -0.35453,1.29051 -0.56427,1.92666 -0.22255,0.67764 -0.48948,1.33937 -0.77794,1.99132 -0.34476,0.76409 -0.71449,1.51664 -1.10983,2.25577 -0.66391,1.21026 -1.53785,2.28376 -2.46037,3.30367 -1.10788,1.17672 -2.2166,2.35249 -3.28619,3.56429 -0.90876,1.02695 -1.77571,2.08916 -2.63776,3.15518 -0.73034,0.90533 -1.39823,1.85688 -2.06378,2.80997 -0.68589,1.02276 -1.39859,2.02689 -2.10786,3.03357 -0.86412,1.20202 -1.70234,2.42287 -2.60833,3.59402 -0.81343,1.15503 -1.74449,2.21635 -2.667,3.28331 -0.82035,0.89625 -1.62884,1.80319 -2.44924,2.69938 -0.85424,0.90393 -1.69231,1.823 -2.52992,2.74233 -0.8259,0.9638 -1.68402,1.89984 -2.53488,2.84168 -0.64298,0.71802 -1.32156,1.40039 -2.03348,2.04966 -0.92621,0.82793 -1.87732,1.62719 -2.83296,2.42077 -1.32774,1.05832 -2.62363,2.15541 -3.92542,3.24572 -1.54415,1.28134 -3.0761,2.57731 -4.61265,3.86775 -1.558,1.30824 -3.09714,2.63825 -4.6135,3.99449 -1.16705,0.99737 -2.28931,2.04154 -3.39496,3.10635 -0.96397,0.97258 -1.91777,1.95522 -2.87824,2.9313 -0.96235,0.96105 -1.9914,1.8522 -3.00932,2.75356 -1.27027,1.14897 -2.56128,2.27452 -3.85117,3.40134 -1.67365,1.45761 -3.37915,2.87784 -5.06075,4.32618 -1.95651,1.68145 -3.92577,3.34768 -5.86162,5.05296 -2.07903,1.84447 -4.13631,3.71319 -6.19047,5.58525 -2.28448,2.11419 -4.56842,4.2289 -6.86861,6.32601 -2.09347,1.89967 -4.23236,3.74843 -6.39905,5.56388 -2.07803,1.70742 -4.15075,3.42118 -6.21892,5.14052 -1.99462,1.69001 -4.00571,3.36121 -5.95488,5.10401 -1.79143,1.58247 -3.46066,3.29351 -5.12027,5.01137 -1.66781,1.76047 -3.39122,3.4665 -5.11449,5.17223 -1.84779,1.84028 -3.71659,3.65898 -5.61186,5.45029 -1.84058,1.74015 -3.74764,3.40752 -5.63218,5.09937 -1.69819,1.51802 -3.41954,3.00909 -5.17422,4.4614 -1.79432,1.40649 -3.53352,2.88287 -5.26861,4.36155 -1.48602,1.31304 -2.97892,2.61758 -4.46003,3.93607 -1.28222,1.09816 -2.54595,2.21815 -3.83185,3.31256 -1.23693,1.0616 -2.51434,2.06935 -3.71358,3.17364 -1.51728,1.41518 -2.87525,2.98791 -4.24146,4.546 -1.26898,1.47361 -2.57096,2.91809 -3.88978,4.34708 -0.96507,1.04403 -1.93215,2.08614 -2.90014,3.12744 -0.76006,0.80755 -1.50336,1.63025 -2.2602,2.44075 -0.71551,0.76551 -1.43809,1.52392 -2.19448,2.24918 -0.65143,0.60195 -1.29846,1.20865 -1.94919,1.81135 -0.59425,0.54752 -1.18474,1.0993 -1.76344,1.66327 -0.80713,0.88444 -1.59105,1.78836 -2.35878,2.70734 -0.68051,0.85483 -1.42081,1.65704 -2.16943,2.4517 -0.39505,0.40941 -0.7679,0.83657 -1.13573,1.27011 -0.34128,0.41326 -0.71392,0.79595 -1.05053,1.21368 -0.36743,0.47025 -0.73813,0.93719 -1.12872,1.38849 -0.29359,0.34627 -0.60145,0.67965 -0.93312,0.9897 -0.33021,0.28801 -0.65995,0.57646 -0.98133,0.87432 -0.32326,0.30259 -0.66675,0.58243 -0.99236,0.88238 -0.19813,0.1961 -0.3964,0.39444 -0.57904,0.60312 -0.0965,0.11304 -0.18739,0.10302 -0.32993,0.10465 0,0 -2.89725,-0.74202 -2.89725,-0.74202 l 0,0 c -0.0704,-0.002 -0.26607,0.009 -0.0914,-0.0332 0.21936,-0.12265 0.39378,-0.33631 0.57638,-0.52019 0.31598,-0.31245 0.66475,-0.58813 0.9942,-0.886 0.31969,-0.30058 0.64358,-0.59656 0.98055,-0.87785 0.33276,-0.29795 0.65275,-0.60897 0.94172,-0.95048 0.39385,-0.44452 0.77185,-0.90156 1.13063,-1.37503 0.33862,-0.41634 0.65253,-0.85823 1.04925,-1.22228 0.38461,-0.45031 0.75265,-0.91408 1.17131,-1.3338 0.75795,-0.80177 1.49438,-1.62279 2.18973,-2.48015 0.74978,-0.90045 1.48712,-1.82319 2.33064,-2.63719 0.57381,-0.57264 1.16578,-1.12668 1.76345,-1.6743 0.65202,-0.60097 1.29928,-1.20703 1.95432,-1.80472 0.75719,-0.72142 1.4931,-1.46378 2.20333,-2.23176 0.76955,-0.81958 1.50641,-1.66801 2.27323,-2.49003 0.97502,-1.04023 1.94682,-2.08345 2.92366,-3.12194 1.32624,-1.42345 2.63152,-2.86578 3.90768,-4.33444 1.36986,-1.56313 2.72391,-3.14698 4.229,-4.58343 1.21608,-1.12759 2.44397,-2.24089 3.73135,-3.2874 1.30497,-1.11586 2.6009,-2.24077 3.86458,-3.40298 1.50577,-1.34462 2.96927,-2.73542 4.51181,-4.03884 1.76053,-1.49927 3.56173,-2.94993 5.31628,-4.456 1.75512,-1.45031 3.47503,-2.94121 5.18123,-4.44875 1.90745,-1.64172 3.78011,-3.32316 5.62357,-5.03648 1.89474,-1.78687 3.75567,-3.6082 5.6017,-5.44532 1.72022,-1.7054 3.43399,-3.41729 5.11327,-5.16321 1.66332,-1.72544 3.33313,-3.44705 5.13182,-5.0338 1.94544,-1.71644 3.93069,-3.38406 5.94955,-5.01325 2.06735,-1.71945 4.13394,-3.43971 6.21702,-5.14015 2.17135,-1.81174 4.3284,-3.64177 6.42128,-5.54418 2.31008,-2.08737 4.59297,-4.20432 6.8746,-6.3227 2.04205,-1.88305 4.10209,-3.74659 6.17464,-5.59601 1.93451,-1.70831 3.91067,-3.36812 5.8624,-5.05664 1.67644,-1.44382 3.36113,-2.87811 5.02759,-4.33348 1.2914,-1.12361 2.57701,-2.25351 3.84958,-3.39845 1.03035,-0.92057 2.07257,-1.82805 3.02092,-2.83464 0.96986,-0.96934 1.92494,-1.95306 2.88544,-2.93165 1.11122,-1.1345 2.29377,-2.19789 3.47085,-3.26289 1.5317,-1.34873 3.06973,-2.69015 4.6402,-3.99381 1.53375,-1.29023 3.05621,-2.59384 4.59831,-3.87414 1.32506,-1.1033 2.63901,-2.21949 3.94737,-3.34215 0.94792,-0.79178 1.89338,-1.58697 2.80746,-2.41793 0.72832,-0.64513 1.40362,-1.34147 2.05337,-2.06571 0.84421,-0.90778 1.65803,-1.84358 2.51584,-2.73848 0.84037,-0.93622 1.66127,-1.89009 2.53986,-2.79142 0.8214,-0.89427 1.63057,-1.79943 2.45051,-2.69498 0.94668,-1.01645 1.83132,-2.08711 2.65663,-3.20469 0.87413,-1.23175 1.78642,-2.43639 2.64756,-3.6777 0.68572,-0.98246 1.3702,-1.96559 2.06305,-2.94274 0.66978,-0.95937 1.34886,-1.91305 2.07709,-2.82934 0.86796,-1.06998 1.76012,-2.11991 2.66152,-3.16184 1.07786,-1.20601 2.1756,-2.39305 3.28676,-3.56841 0.89172,-0.97092 1.76875,-1.96206 2.38171,-3.1409 0.38801,-0.7343 0.74819,-1.48219 1.09693,-2.23591 0.2852,-0.64172 0.5425,-1.29567 0.76256,-1.96276 0.20854,-0.63369 0.38715,-1.27527 0.55976,-1.91957 0.17794,-0.57722 0.37305,-1.14779 0.59057,-1.7115 0.23688,-0.61219 0.46983,-1.22618 0.73151,-1.82839 0.27374,-0.66391 0.54191,-1.33076 0.84312,-1.9828 0.28647,-0.66196 0.59832,-1.31557 0.98237,-1.92724 0.40806,-0.74326 0.79296,-1.49889 1.17755,-2.2545 0.33517,-0.6506 0.64811,-1.31369 1.02572,-1.94146 0.27465,-0.46435 0.56654,-0.91853 0.87101,-1.36391 0.43272,-0.61456 0.88734,-1.20859 1.3792,-1.7775 0.52771,-0.614 1.04949,-1.24177 1.68086,-1.75387 0.58459,-0.46859 1.18897,-0.91713 1.84536,-1.28129 0.60226,-0.33985 1.22178,-0.65062 1.86353,-0.90934 0.60279,-0.24063 1.21186,-0.46955 1.84808,-0.60681 0.72462,-0.13859 1.4523,-0.20725 2.18758,-0.2529 0.78957,-7.5e-4 1.57914,-0.003 2.36872,-0.001 0.89806,0.004 1.79341,0.006 2.68635,0.0988 0.89233,0.0533 1.78682,0.12744 2.66206,0.31767 1.75672,0.4824 3.60608,0.83731 5.24343,1.68203 0.64872,0.34375 1.30766,0.69272 1.81681,1.23435 0.45886,0.55207 0.79246,1.15919 0.82241,1.89425 0.0305,0.85012 0.002,1.70124 -0.003,2.55166 -0.0236,1.07916 -0.065,2.15987 -0.2059,3.23112 -0.16732,1.22258 -0.35711,2.44442 -0.66884,3.63989 -0.43281,1.58257 -1.00189,3.11975 -1.68021,4.61427 -0.77483,1.71599 -1.58842,3.41641 -2.56357,5.02972 -0.88788,1.51216 -1.79879,3.01155 -2.77904,4.46608 -0.98025,1.43037 -2.08602,2.75835 -3.23379,4.05736 -1.10133,1.3811 -2.20673,2.7592 -3.32393,4.12739 -1.23749,1.4301 -2.51746,2.82159 -3.86839,4.14604 -1.62666,1.60168 -3.2488,3.20858 -4.93851,4.74447 -2.10529,1.93087 -4.23092,3.83944 -6.39939,5.69938 -2.2028,1.89081 -4.4374,3.74332 -6.66362,5.60638 -2.35529,1.99391 -4.72368,3.97191 -7.03617,6.01583 -2.50216,2.13343 -4.95126,4.33139 -7.54022,6.36112 -2.90902,2.18103 -5.82333,4.35485 -8.75453,6.50603 -3.43908,2.63777 -6.83785,5.32951 -10.15209,8.12316 -3.1449,2.67207 -6.23513,5.40955 -9.20473,8.27645 -3.14535,3.07293 -6.22359,6.21328 -9.24329,9.4099 -3.17569,3.34744 -6.31827,6.72601 -9.53008,10.03914 -3.317,3.46718 -6.62318,6.94451 -9.92686,10.42436 -3.07022,3.20987 -6.17271,6.38958 -9.17734,9.66149 -3.11729,3.39181 -6.20329,6.81236 -9.25523,10.26311 -2.59569,2.92204 -5.2275,5.81032 -7.83745,8.71936 -1.97593,2.26235 -3.90282,4.56676 -5.90664,6.80463 -1.78277,1.95829 -3.62331,3.86198 -5.53099,5.69941 -1.97611,1.9344 -3.94234,3.87947 -5.8487,5.88309 -1.73237,1.80942 -3.47163,3.6134 -5.14409,5.47878 -1.48235,1.70108 -2.92398,3.43645 -4.40488,5.13868 -1.44614,1.65629 -2.94529,3.26392 -4.5414,4.77783 -1.7316,1.6819 -3.44168,3.38737 -5.07135,5.16901 -1.36166,1.49948 -2.69803,3.02242 -4.1003,4.48454 -0.80257,0.84288 -1.58204,1.70686 -2.41498,2.52094 -1.02283,1.06346 -2.0358,2.13634 -3.06483,3.19383 -1.48127,1.50491 -2.98916,2.98439 -4.54889,4.40823 -1.65075,1.54316 -3.39506,2.98336 -5.23003,4.30358 -1.39898,0.98954 -2.82571,1.93698 -4.27018,2.85883 -1.03,0.66113 -2.07893,1.33342 -3.27785,1.64171 -0.85768,0.17076 -1.71862,0.14743 -2.59034,0.13346 -1.53939,-0.004 -3.05242,-0.10684 -4.59267,-0.25913 -0.5042,-0.058 -1.00394,-0.14313 -1.48759,-0.30182 -0.40406,-0.12862 -0.80161,-0.2786 -1.17272,-0.48624 -0.26033,-0.14009 -0.53314,-0.27018 -0.75428,-0.46974 -0.18973,-0.1829 -0.35693,-0.38724 -0.49671,-0.61104 -0.1894,-0.30908 -0.36827,-0.62441 -0.53121,-0.94834 -0.20896,-0.36149 -0.45029,-0.70038 -0.70561,-1.03059 -0.14862,-0.25044 -0.31463,-0.49329 -0.39547,-0.77679 -0.14021,-0.34183 -0.30884,-0.67091 -0.48939,-0.99315 -0.28775,-0.52082 -0.56468,-1.04761 -0.77005,-1.60762 -0.23801,-0.57513 -0.47476,-1.15201 -0.68272,-1.73859 -0.19565,-0.62113 -0.31101,-1.24935 -0.26725,-1.90455 0.013,-0.76533 0.0144,-1.53149 0.0775,-2.29497 0.091,-0.87481 0.22006,-1.74561 0.45153,-2.59587 0.2553,-0.90286 0.56288,-1.78696 0.90182,-2.6619 0.36008,-0.95317 0.70972,-1.92277 1.40867,-2.69022 1.07521,-1.07267 2.40452,-1.76237 3.8171,-2.30163 0,0 1.98425,0.36521 1.98425,0.36521 z"
       inkscape:connector-curvature="0" />
    <path
       style="fill:#b9b9b9;stroke:none;stroke-width:1px;stroke-linecap:butt;stroke-linejoin:miter;stroke-opacity:1;fill-opacity:1"
       d="m 549.44963,308.38817 c -8.23448,-3.48771 -17.37888,-6.4997 -23.45981,-11.87638 l -17.35349,-6.92608 -18.80164,-23.90475 c -33.57293,14.42887 -44.87641,56.93896 -31.97967,93.53467 11.21998,-6.23683 20.1288,-15.57655 37.84462,-13.09225 l 43.87853,17.93399 c 13.74559,2.18206 24.73402,-2.70467 33.33127,-13.72189 l -4.34441,-34.91266 z"
       id="path5308"
       inkscape:connector-curvature="0"
       sodipodi:nodetypes="cccccccccc" />
    <path
       style="fill:#efefef;stroke:#000000;stroke-width:1px;stroke-linecap:butt;stroke-linejoin:miter;stroke-opacity:1;fill-opacity:1"
       d="m 461.62017,360.19266 11.85058,-9.55322 c -0.62537,-9.42485 -1.55753,-18.70534 -10.37831,-24.27385 8.10238,-1.85432 7.55058,-16.03503 9.77492,-24.77322 l 16.36394,-17.67346 9.12326,-8.14194 -10.04041,-10.92106 -29.80747,40.92684 -2.99282,48.48257 z"
       id="path5312"
       inkscape:connector-curvature="0"
       sodipodi:nodetypes="cccccccccc" />
    <path
       style="color:#000000;fill:#000000;fill-opacity:1;fill-rule:nonzero;stroke:#000000;stroke-width:4;stroke-linecap:square;stroke-linejoin:miter;stroke-miterlimit:4;stroke-opacity:1;stroke-dasharray:none;stroke-dashoffset:0;marker:none;visibility:visible;display:inline;overflow:visible;enable-background:accumulate"
       id="path5284"
       d="m 524.10304,298.33528 c -2.24793,-0.22681 -4.42575,-0.78041 -6.53216,-1.58244 -1.88728,-0.78152 -3.58593,-1.92169 -5.17783,-3.18718 -1.12967,-0.88701 -2.21084,-1.83458 -3.26069,-2.81425 -0.99239,-1.02394 -1.9433,-2.07971 -2.78256,-3.23351 -1.13021,-1.45679 -2.22056,-2.94526 -3.21835,-4.49595 -1.0668,-1.59083 -2.11833,-3.19171 -3.1435,-4.80969 -0.84109,-1.42664 -1.73532,-2.8102 -2.77244,-4.10186 -0.90963,-1.0768 -1.95215,-2.02849 -2.98436,-2.98449 -0.82221,-0.8127 -1.63814,-1.6307 -2.48592,-2.41842 -0.4764,-0.43431 -0.93846,-0.89089 -1.46762,-1.26162 -0.39326,-0.25538 -0.72886,-0.57918 -1.13801,-0.80823 -1.12462,-0.54559 -3.66222,-1.10471 1.70878,0.34719 -0.40303,-0.11234 -0.81743,-0.1659 -1.23382,-0.19354 -0.43712,-0.02 -0.87484,-0.0162 -1.31229,-0.0165 -0.69329,-0.0468 -1.29365,0.20621 -1.88263,0.54116 -0.89205,0.54435 -1.64556,1.25922 -2.38659,1.98754 -0.84019,0.85184 -1.65229,1.73088 -2.4773,2.59741 -0.95247,0.96466 -1.84564,1.98369 -2.71788,3.0206 -0.90607,1.12045 -1.74956,2.28938 -2.59546,3.45533 -0.91366,1.28039 -1.8624,2.53491 -2.81309,3.78784 -1.00496,1.27745 -1.90557,2.63107 -2.80436,3.98384 -0.93407,1.38265 -1.74799,2.84039 -2.47829,4.33928 -0.76812,1.57712 -1.4296,3.20284 -2.11404,4.8172 -0.67241,1.58583 -1.36628,3.16232 -2.05168,4.74265 -0.7144,1.65851 -1.40032,3.32829 -2.01737,5.02545 -0.62914,1.74034 -1.14703,3.51835 -1.63604,5.30234 -0.42301,1.64769 -0.90862,3.27754 -1.39034,4.90855 -0.48729,1.60583 -0.89664,3.23281 -1.25778,4.87114 -0.37154,1.7073 -0.63347,3.4341 -0.84396,5.16772 -0.20402,1.87516 -0.31345,3.7579 -0.41916,5.64049 -0.0866,1.56572 -0.11289,3.13359 -0.14329,4.70114 -0.0227,1.32907 -0.0326,2.6584 -0.0304,3.98766 -0.005,1.22901 0.002,2.45796 0.004,3.68694 -0.0379,0.9421 0.0412,1.8742 0.19663,2.80176 0.18254,0.89128 0.3208,1.79039 0.49199,2.68373 0.1999,0.95572 0.45916,1.89742 0.68863,2.8463 0.1777,0.76131 0.39876,1.51026 0.62562,2.25792 0.21712,0.5684 0.44936,1.1319 0.68576,1.69352 0.18724,0.43732 0.3856,0.86971 0.61061,1.28894 0.15605,0.28704 0.25688,0.59939 0.40516,0.88958 0.11291,0.30651 0.23058,0.61189 0.4122,0.88476 0.11976,0.21031 0.2441,0.41372 0.39716,0.60107 0.0329,0.0471 0.0783,0.085 0.11705,0.12498 -4.77404,-0.20931 -3.47226,0.0773 -2.02079,-0.96094 1.29214,-0.98853 2.53269,-2.04193 3.79554,-3.06714 1.23659,-0.96493 2.48311,-1.92007 3.75388,-2.83958 0.75039,-0.55668 1.52176,-1.08421 2.31006,-1.58555 0.84821,-0.5291 1.70615,-1.04207 2.54908,-1.57966 0.94178,-0.56546 1.81224,-1.24468 2.75188,-1.81021 0.69076,-0.4291 1.42996,-0.75847 2.19019,-1.04076 0.7072,-0.25408 1.42885,-0.46039 2.15775,-0.6413 0.701,-0.12513 1.40401,-0.25961 2.11396,-0.34376 0.44136,-0.0487 0.88524,-0.0639 1.32891,-0.0697 0.37911,-0.004 0.75821,0.001 1.13731,8.7e-4 1.7187,-0.0258 3.42659,0.10961 5.14543,0.19753 0.59768,0.0773 1.18186,0.23178 1.76841,0.36636 0.4945,0.12478 0.99207,0.23635 1.49214,0.33638 0.54156,0.12007 1.08945,0.20501 1.63777,0.28681 0.6047,0.0768 1.20864,0.15472 1.81628,0.20536 2.85295,0.13291 -5.1349,-0.21847 -1.70213,-0.16347 0.51636,0.004 1.03197,0.0351 1.54772,0.0578 0.39958,0.004 0.79756,0.0365 1.19591,0.0638 13.2955,1.16032 -6.78637,-0.57459 5.11349,0.44802 0.49925,0.06 0.99811,0.12556 1.49567,0.1984 0.74352,0.0287 1.47003,0.18102 2.19764,0.34249 0.80906,0.17947 1.61203,0.38744 2.3938,0.66302 0.92746,0.24723 1.83746,0.54757 2.73481,0.88703 1.01131,0.3805 2.01887,0.77033 3.0305,1.14952 1.19722,0.48782 2.36695,1.03904 3.55225,1.55477 1.25863,0.48436 2.49036,1.03621 3.71024,1.61044 1.25366,0.58734 2.48805,1.21608 3.70112,1.88324 1.05554,0.61609 2.13613,1.18041 3.16542,1.83851 0.8348,0.55655 1.67466,1.10499 2.52511,1.63733 0.78886,0.54236 1.65567,0.9533 2.47268,1.44367 0.66543,0.4155 1.34177,0.81282 2.01492,1.21547 0.76361,0.50194 1.5551,0.96047 2.3422,1.4283 0.76844,0.46121 1.58401,0.83211 2.40198,1.19455 0.58253,0.21553 1.11578,0.56951 1.71615,0.73094 0.53813,0.25358 1.08992,0.46514 1.66851,0.60336 0.86977,0.17569 1.76105,0.19044 2.64503,0.21115 1.50129,0.0233 5.48802,0.0125 -1.02464,0.0117 0.72742,-0.001 1.45485,-0.002 2.18227,-0.003 1.09714,0.0493 2.17476,-0.13514 3.24258,-0.36301 1.15466,-0.26449 2.28358,-0.62427 3.41586,-0.96897 0.87117,-0.24692 1.71497,-0.57083 2.53797,-0.94616 1.07593,-0.52173 2.03574,-1.24359 2.98679,-1.96027 1.09287,-0.82602 2.16158,-1.6819 3.17486,-2.60402 1.15551,-1.08653 2.18061,-2.30005 3.17784,-3.53036 1.0094,-1.23836 1.91653,-2.55414 2.73567,-3.92468 0.61518,-1.06137 1.07082,-2.20289 1.51071,-3.34483 0.48467,-1.26479 0.87995,-2.5595 1.25072,-3.86129 0.36213,-1.25875 0.61272,-2.54272 0.75434,-3.8439 0.14988,-1.44189 0.22729,-2.89071 0.2744,-4.33928 0.0407,-1.49877 0.0393,-2.99803 0.04,-4.49719 0.0702,-1.3355 -0.12436,-2.63241 -0.46175,-3.91881 -0.39814,-1.41631 -0.85927,-2.81373 -1.36891,-4.19355 -0.44774,-1.25429 -1.08515,-2.41808 -1.83605,-3.51327 -0.82807,-1.21751 -1.78472,-2.33749 -2.71421,-3.47749 -0.85689,-1.07953 -1.73852,-2.13689 -2.66439,-3.15774 -0.76853,-0.87322 -1.62481,-1.64964 -2.54612,-2.35801 -0.99569,-0.74404 -2.11891,-1.27728 -3.24507,-1.7889 -1.03019,-0.4691 -2.08757,-0.87183 -3.16683,-1.21178 -0.97529,-0.3174 -1.98607,-0.47726 -3.00456,-0.56635 -1.87589,-0.1092 0.6607,0.0358 2.53001,0.1898 0.21497,0.0177 -0.43114,-0.0153 -0.64677,-0.0208 -0.68365,-0.0174 -1.36752,-0.0201 -2.05134,-0.0236 -1.24846,-0.003 -2.49691,0.002 -3.74536,0.003 -1.16602,-0.0198 -2.32892,0.007 -3.48812,0.13639 -1.36914,0.16842 -2.67017,0.62939 -3.94651,1.13146 -1.24075,0.4831 -2.41147,1.10247 -3.50508,1.859 -1.14249,0.81495 -2.02917,1.8884 -2.82711,3.02832 -0.94665,1.35948 -1.54489,2.89081 -2.02042,4.46585 -0.4338,1.528 -0.52075,3.11513 -0.58282,4.69275 -0.0991,1.6095 0.43606,3.04597 1.21744,4.41881 0.85934,1.39782 2.08198,2.42914 3.48585,3.24142 1.1974,0.66769 2.5261,0.89192 3.87251,1.00166 -5.86098,-0.17884 -2.9748,0.0161 -1.67964,-0.28119 0.71038,-0.16308 1.35941,-0.44793 2.01643,-0.75403 0.95727,-0.49452 1.88201,-1.03515 2.68559,-1.75637 0.34161,-0.33989 0.55055,-0.73064 0.35482,-1.19558 -0.32528,-0.61513 -1.16743,-0.80595 -1.3818,-1.46603 0.10831,-0.0819 0.21661,-0.16374 0.32492,-0.2456 0,0 1.31374,-0.14733 1.31374,-0.14733 l 0,0 c 0.35118,0.0367 0.70235,0.0733 1.05353,0.10998 0.96502,0.27637 1.96231,0.69824 2.4696,1.62321 0.18175,0.61096 0.0501,1.15225 -0.38243,1.63049 -0.81432,0.78182 -1.75258,1.44257 -2.74408,1.97865 -2.59202,1.28875 -4.69319,1.33191 -7.75415,0.94049 -1.36662,-0.15289 -2.69854,-0.44752 -3.89213,-1.16736 -1.41578,-0.88241 -2.64013,-1.98264 -3.4993,-3.43311 -0.78889,-1.44472 -1.32378,-2.94888 -1.2281,-4.62393 0.0541,-1.61002 0.15398,-3.2276 0.58966,-4.78755 0.48008,-1.64428 1.10579,-3.25224 2.02793,-4.70411 0.79857,-1.18234 1.68553,-2.29549 2.83389,-3.16163 1.09209,-0.79503 2.26679,-1.45192 3.52678,-1.94619 1.27983,-0.5216 2.58094,-1.01572 3.95368,-1.22894 1.16321,-0.16251 2.3323,-0.20895 3.50657,-0.18044 1.25651,-0.001 2.513,-0.003 3.76951,-8.1e-4 2.54004,0.007 5.07639,0.0686 7.60635,0.35121 1.02178,0.11946 2.03262,0.31071 3.00784,0.64676 1.07558,0.36187 2.13182,0.77701 3.16064,1.25705 1.12963,0.53341 2.25064,1.09936 3.23667,1.87649 0.88827,0.71189 1.73052,1.48585 2.51775,2.30635 0.92542,1.02096 1.77558,2.10637 2.64087,3.1781 0.91873,1.12548 1.86015,2.23546 2.72828,3.39982 0.72508,1.13546 1.35883,2.32235 1.79399,3.60245 0.50003,1.39528 0.96927,2.80209 1.36873,4.22984 0.33662,1.35106 0.52442,2.72326 0.4499,4.12011 -0.003,1.50284 -0.007,3.00605 -0.0452,4.50844 -0.0474,1.45856 -0.12104,2.91528 -0.26467,4.36804 -0.14816,1.32309 -0.39317,2.62755 -0.76228,3.90839 -0.37297,1.31137 -0.77635,2.61438 -1.24999,3.89338 -0.44041,1.16495 -0.91231,2.32131 -1.5234,3.40915 -0.82162,1.35262 -1.77426,2.61453 -2.74738,3.86198 -1.00242,1.24046 -2.01656,2.47716 -3.16819,3.58423 -1.00649,0.94123 -2.07727,1.80613 -3.17495,2.63891 -0.95604,0.73351 -1.92075,1.4695 -2.98732,2.03744 -0.81926,0.39844 -1.66034,0.74439 -2.53603,1.00049 -1.14335,0.34426 -2.28311,0.70345 -3.44209,0.99241 -1.06651,0.25201 -2.15038,0.47754 -3.25277,0.44291 -0.72757,1e-4 -1.45515,8.7e-4 -2.18271,0.003 -2.05761,1.9e-4 -4.11668,0.0198 -6.17422,-0.0249 -0.89088,-0.0326 -1.79322,-0.0603 -2.65864,-0.29523 -0.57775,-0.1743 -1.13793,-0.39763 -1.6791,-0.66547 -0.53413,-0.34774 -1.13889,-0.56457 -1.71316,-0.83771 -0.81719,-0.37182 -1.62461,-0.76595 -2.39148,-1.23498 -0.77231,-0.44853 -1.5321,-0.91654 -2.32666,-1.32015 -0.67334,-0.39677 -1.33677,-0.81011 -2.00225,-1.21986 -0.82979,-0.5065 -1.62361,-1.0743 -2.47009,-1.55708 -0.84689,-0.53476 -1.68199,-1.08718 -2.51747,-1.6395 -1.04396,-0.65838 -2.05555,-1.3656 -3.15775,-1.92805 -1.21086,-0.65278 -2.45108,-1.23841 -3.70199,-1.81002 -1.23604,-0.57896 -2.47606,-1.14652 -3.71743,-1.71277 -1.18045,-0.52071 -2.34832,-1.07283 -3.55413,-1.53351 -1.00655,-0.36573 -2.03554,-0.67013 -3.02341,-1.08948 -0.90407,-0.32382 -1.82061,-0.60722 -2.74655,-0.86201 -0.79527,-0.18408 -1.57571,-0.43018 -2.37821,-0.58527 -0.738,-0.15103 -1.48222,-0.2689 -2.2157,-0.42598 -0.49283,-0.0669 -0.98549,-0.13722 -1.4811,-0.18065 10.89183,0.93197 -8.5316,-0.74334 2.09831,0.17161 0.0642,0.006 -0.12848,-0.01 -0.19271,-0.0144 -0.40032,-0.0391 -0.80235,-0.0714 -1.2044,-0.083 -0.51745,-0.0149 -1.0338,-0.0511 -1.55114,-0.0677 -1.75946,-0.0122 -3.51377,-0.16684 -5.26739,-0.30326 -0.60695,-0.0617 -1.2122,-0.13835 -1.81583,-0.22684 -0.54851,-0.0868 -1.09483,-0.18608 -1.63742,-0.30487 -0.4992,-0.10589 -0.99466,-0.22749 -1.49132,-0.34453 -0.58064,-0.13388 -1.16363,-0.27437 -1.76039,-0.31086 6.02262,0.28918 3.21023,0.11428 1.83097,0.14536 -0.38063,-0.002 -0.76126,-2.8e-4 -1.14189,-0.004 -0.44491,-0.001 -0.89023,3.7e-4 -1.33415,0.034 -0.72954,0.0619 -1.43715,0.17802 -2.1334,0.40434 -0.72337,0.16937 -1.44295,0.35601 -2.14325,0.60642 -0.76078,0.25958 -1.50909,0.55245 -2.19986,0.97002 -0.92623,0.54022 -1.86296,1.05812 -2.73182,1.69374 -0.83733,0.54235 -1.68775,1.06381 -2.53852,1.58476 -0.79399,0.49345 -1.57034,1.01414 -2.32931,1.56005 -1.26367,0.91091 -2.5631,1.77452 -3.77156,2.76091 -1.25913,1.0203 -2.49935,2.06335 -3.75561,3.08708 -1.70264,1.30941 -1.90784,1.05879 -5.02257,0.6785 -0.0357,-0.051 -0.0697,-0.10359 -0.10665,-0.15412 -0.14139,-0.20799 -0.2622,-0.42824 -0.39616,-0.64122 -0.15957,-0.30192 -0.28902,-0.61464 -0.4115,-0.93319 -0.11269,-0.31537 -0.24773,-0.62276 -0.4048,-0.91869 -0.21584,-0.43161 -0.41169,-0.87245 -0.59737,-1.31785 -0.25047,-0.60188 -0.49523,-1.20486 -0.67173,-1.83278 -0.24154,-0.74902 -0.41831,-1.51623 -0.60976,-2.27923 -0.23782,-0.95424 -0.48869,-1.90609 -0.69077,-2.86861 -0.1601,-0.89688 -0.31539,-1.79456 -0.48899,-2.68892 -0.16195,-0.94676 -0.21387,-1.89936 -0.18436,-2.85994 0.002,-1.22902 0.008,-2.45803 0.007,-3.68708 0.009,-1.33109 0.0109,-2.66229 0.0411,-3.99316 0.034,-1.53589 0.0668,-3.07237 0.16063,-4.60602 0.11255,-1.88878 0.22239,-3.77961 0.43983,-5.65977 0.198,-1.74652 0.46182,-3.48537 0.85045,-5.20071 0.35211,-1.64971 0.76906,-3.28387 1.26706,-4.89606 0.49374,-1.66343 0.97987,-3.32931 1.4349,-5.00381 0.50261,-1.79024 1.02448,-3.57513 1.64612,-5.32853 0.63759,-1.73432 1.30221,-3.45826 2.05922,-5.14469 0.69753,-1.61598 1.40798,-3.22621 2.10296,-4.84331 0.69396,-1.63407 1.3707,-3.27631 2.12623,-4.88329 0.76557,-1.53669 1.52955,-3.07737 2.51864,-4.48727 0.91212,-1.35604 1.82181,-2.71414 2.83744,-3.99637 0.96256,-1.24354 1.90731,-2.50063 2.82957,-3.77441 0.85905,-1.18788 1.72134,-2.37536 2.63822,-3.51945 0.86466,-1.05142 1.7746,-2.06408 2.72209,-3.04172 0.82745,-0.87291 1.65566,-1.74525 2.49947,-2.60241 0.77368,-0.76194 1.54936,-1.54117 2.44805,-2.15554 0.59181,-0.37499 1.22198,-0.72292 1.9446,-0.70408 0.44112,-0.002 0.88232,-0.004 1.32339,0.004 0.42898,0.0121 0.85797,0.0393 1.27674,0.14112 1.3954,0.3742 3.07064,0.60735 4.38645,1.37685 0.38363,0.25436 0.7681,0.50644 1.1334,0.78746 0.49641,0.40369 0.95416,0.85119 1.41965,1.2896 0.81956,0.78008 1.62211,1.57567 2.4751,2.31871 1.03404,0.9639 2.07154,1.93133 2.96612,3.02997 1.0138,1.29475 1.90452,2.67609 2.75535,4.08253 1.01065,1.6202 2.06196,3.2145 3.13258,4.79565 1.07909,1.46235 2.10814,2.96238 3.24997,4.37782 0.89904,1.02691 1.73959,2.12258 2.79703,2.99549 1.04514,0.96555 2.11083,1.91052 3.23468,2.78431 1.60754,1.16865 3.24098,2.32403 5.10769,3.04946 2.09361,0.77208 4.25694,1.29753 6.483,1.51052 0,0 -2.95822,0.25205 -2.95822,0.25205 z"
       inkscape:connector-curvature="0" />
    <path
       style="color:#000000;fill:#000000;fill-opacity:1;fill-rule:nonzero;stroke:#000000;stroke-width:4;stroke-linecap:square;stroke-linejoin:miter;stroke-miterlimit:4;stroke-opacity:1;stroke-dasharray:none;stroke-dashoffset:0;marker:none;visibility:visible;display:inline;overflow:visible;enable-background:accumulate"
       id="path5288"
       d="m 470.6088,342.043 c -0.0148,-2.00429 -0.0267,-4.00367 -0.36207,-5.98324 -0.56969,-2.58691 -2.14008,-4.70423 -3.75287,-6.73708 -1.4189,-1.71011 -2.98683,-3.31179 -4.91696,-4.43258 -0.5656,-0.37246 -1.25475,-0.44093 -1.84963,-0.73669 0,0 0.30194,-0.0525 0.30194,-0.0525 l 0,0 c 0.99872,0.0407 1.96239,0.17238 2.87853,0.60745 2.01257,1.09262 3.6043,2.71824 4.99727,4.52182 1.53368,2.06977 3.01365,4.25837 3.5895,6.80921 0.31745,1.99095 0.23132,3.99074 0.26667,6.00141 0,0 -1.15238,0.002 -1.15238,0.002 z"
       inkscape:connector-curvature="0" />
    <path
       style="color:#000000;fill:#000000;fill-opacity:1;fill-rule:nonzero;stroke:#000000;stroke-width:4;stroke-linecap:square;stroke-linejoin:miter;stroke-miterlimit:4;stroke-opacity:1;stroke-dasharray:none;stroke-dashoffset:0;marker:none;visibility:visible;display:inline;overflow:visible;enable-background:accumulate"
       id="path5290"
       d="m 464.6237,326.51195 c 1.93389,-1.33905 3.48674,-3.10207 4.87679,-4.97917 1.56158,-2.14296 2.37151,-4.60273 2.82148,-7.18441 0.43991,-2.53848 0.14473,-5.0697 -0.40318,-7.56036 -0.34175,-1.57498 -0.91002,-3.07546 -1.59401,-4.52933 -0.15043,-0.35004 -0.3256,-0.47971 -0.10131,-0.79835 0,0 0.19478,-0.0226 0.19478,-0.0226 l 0,0 c 0.55011,0.13921 0.89242,0.29018 1.25379,0.75025 0.92588,1.35164 1.33048,2.94725 1.70292,4.52622 0.51528,2.51944 0.77922,5.06526 0.29045,7.61878 -0.50747,2.59743 -1.33942,5.08033 -2.92004,7.24208 -1.40838,1.90608 -2.9768,3.68245 -4.95896,5.01627 0,0 -1.16271,-0.0794 -1.16271,-0.0794 z"
       inkscape:connector-curvature="0" />
    <path
       style="color:#000000;fill:#000000;fill-opacity:1;fill-rule:nonzero;stroke:#000000;stroke-width:4;stroke-linecap:square;stroke-linejoin:miter;stroke-miterlimit:4;stroke-opacity:1;stroke-dasharray:none;stroke-dashoffset:0;marker:none;visibility:visible;display:inline;overflow:visible;enable-background:accumulate"
       id="path5292"
       d="m 473.06358,298.38587 c 2.37896,-0.30422 4.59007,-1.19313 6.68907,-2.3149 2.35894,-1.33469 3.98484,-3.36975 5.22382,-5.73071 1.22576,-2.72303 1.46925,-5.69506 1.3794,-8.64161 -0.19974,-2.33053 -0.69725,-4.66467 -1.71724,-6.78024 -0.20023,-0.55511 -0.12088,-0.30283 -0.24976,-0.75307 0,0 0.0999,-0.004 0.0999,-0.004 l 0,0 c 0.74532,0.39426 0.38878,0.15305 1.06055,0.73687 1.35827,2.02529 1.90321,4.37818 2.07492,6.79608 0.0925,2.96793 -0.12608,5.96253 -1.36251,8.70759 -1.24954,2.38932 -2.8741,4.45435 -5.26309,5.80333 -2.09316,1.13588 -4.30138,2.03827 -6.67857,2.36388 0,0 -1.25653,-0.18367 -1.25653,-0.18367 z"
       inkscape:connector-curvature="0" />
    <path
       style="color:#000000;fill:#000000;fill-opacity:1;fill-rule:nonzero;stroke:#000000;stroke-width:4;stroke-linecap:square;stroke-linejoin:miter;stroke-miterlimit:4;stroke-opacity:1;stroke-dasharray:none;stroke-dashoffset:0;marker:none;visibility:visible;display:inline;overflow:visible;enable-background:accumulate"
       id="path5294"
       d="m 484.79243,284.75201 c 3.03703,-1.11859 5.60122,-3.10873 8.1216,-5.08223 2.09157,-1.72964 1.04551,-0.86578 3.13819,-2.59158 0,0 0.81025,0.0902 0.81025,0.0902 l 0,0 c -1.56659,1.8193 -0.7391,0.92594 -2.48842,2.67455 -2.34518,2.10481 -4.88036,4.02064 -7.84146,5.17775 0,0 -1.74016,-0.26867 -1.74016,-0.26867 z"
       inkscape:connector-curvature="0" />
    <path
       style="fill:#925118;stroke:#000000;stroke-width:1px;stroke-linecap:butt;stroke-linejoin:miter;stroke-opacity:1;fill-opacity:1"
       d="m 365.02949,378.27864 10.01627,3.21335 7.21655,-13.9173 19.91187,-25.03377 19.09126,23.73106 28.98686,25.18575 29.66266,13.87388 36.2034,17.65173 23.55635,23.66593 19.38089,33.43625 7.19241,13.07054 10.04041,-7.01293 -11.46441,-38.16944 -34.3691,-36.36736 -48.44015,-23.34024 c -23.32656,0.84342 -36.00063,-19.26149 -51.60192,-33.60995 l -14.02279,-37.21412 -23.67702,-2.47515 -29.32476,42.4901 z"
       id="path5318"
       inkscape:connector-curvature="0"
       sodipodi:nodetypes="cccccccccccccccccccc" />
    <path
       style="color:#000000;fill:#925118;fill-opacity:1;fill-rule:nonzero;stroke:#000000;stroke-width:4;stroke-linecap:square;stroke-linejoin:miter;stroke-miterlimit:4;stroke-opacity:1;stroke-dasharray:none;stroke-dashoffset:0;marker:none;visibility:visible;display:inline;overflow:visible;enable-background:accumulate"
       id="path5298"
       d="m 444.24471,362.57775 c -2.5218,1.92538 -3.45302,1.63228 -6.74166,1.29294 -1.69201,-0.53329 -2.91448,-1.85959 -4.09568,-3.11536 -1.78663,-1.93814 -3.38728,-4.03384 -4.96371,-6.14301 -1.80614,-2.43871 -3.54703,-4.92509 -5.19372,-7.47411 -1.55566,-2.47132 -2.96282,-5.03165 -4.31046,-7.62099 -1.13939,-2.11312 -2.05679,-4.32373 -2.77916,-6.61025 -0.5994,-2.04934 -0.98396,-4.1518 -1.28023,-6.26369 -0.19738,-1.41101 -0.27091,-2.8332 -0.31594,-4.25571 -0.0176,-0.79331 -0.0125,-1.58677 -0.0201,-2.38014 4e-4,-0.3961 -2.1e-4,-0.7922 -0.004,-1.18829 -0.002,-0.15624 -0.004,-0.3123 -0.0121,-0.46832 -0.06,-0.29836 -0.1469,-0.59119 -0.24375,-0.87947 -0.0937,-0.35145 -0.23646,-0.66547 -0.43863,-0.96584 -0.15696,-0.22143 -0.39543,-0.35014 -0.64977,-0.43591 -0.35619,-0.1202 -0.71415,-0.23717 -1.07605,-0.3392 -0.46179,-0.11118 -0.92578,-0.21001 -1.38076,-0.34779 -0.39028,-0.13445 -0.80124,-0.17808 -1.20446,-0.25572 -0.4487,-0.0859 -0.90259,-0.13935 -1.35467,-0.20434 -0.65066,-0.11197 -1.30271,-0.21322 -1.95759,-0.29711 -1.58098,-0.19174 1.74951,0.21211 2.2687,0.27663 0.12202,0.0152 -0.24445,-0.027 -0.36682,-0.0391 -0.35554,-0.0351 -0.7112,-0.0583 -1.06787,-0.0778 -0.6611,-0.0235 -1.32254,-0.039 -1.98394,-0.052 -0.71009,-0.0144 -1.42035,-0.0129 -2.13054,-0.0121 -0.8917,0.001 -1.78346,-0.005 -2.6751,0.008 -0.88541,0.0283 -1.7573,0.21112 -2.61363,0.42738 -0.70844,0.17718 -1.39756,0.41586 -2.0638,0.71352 -0.70094,0.32617 -1.36514,0.72141 -2.02501,1.12227 -1.02112,0.55594 -1.94234,1.28267 -2.87352,1.97556 -1.07671,0.80611 -2.11316,1.66351 -3.14803,2.52207 -0.90659,0.74379 -1.79412,1.51139 -2.6275,2.33673 -0.76731,0.74857 -1.51589,1.51489 -2.25268,2.29343 -0.88572,0.91251 -1.67691,1.90877 -2.46276,2.90664 -0.90499,1.15821 -1.82976,2.30142 -2.70375,3.48337 -0.8606,1.15732 -1.61045,2.38892 -2.36161,3.61828 -0.86239,1.44815 -1.62394,2.95313 -2.39806,4.44946 -0.83189,1.5662 -1.59343,3.1669 -2.3042,4.79117 -0.69084,1.57818 -1.21142,3.21998 -1.72276,4.86239 -0.51051,1.60695 -0.95497,3.22949 -1.28478,4.88302 -0.26794,1.43723 -0.42227,2.89223 -0.55248,4.34738 -0.13866,1.46685 -0.2479,2.93639 -0.33624,4.40708 -0.0789,1.52657 -0.0916,3.05568 -0.10297,4.58395 0.007,1.6541 -0.0374,3.30856 0.0382,4.96146 0.069,1.27206 0.48565,2.43437 1.05994,3.55586 0.45046,0.80607 1.01002,1.53757 1.65202,2.19876 0.27886,0.30128 0.60994,0.52527 0.97309,0.70948 0.3149,0.1699 0.65181,0.27057 1.00361,0.32488 2.23391,0.11001 -4.30042,-0.0933 -1.9621,-0.0683 0.84724,0.0481 1.64565,-0.19689 2.42616,-0.49613 0.86767,-0.35525 1.67694,-0.82833 2.44196,-1.36675 0.62116,-0.4327 1.15989,-0.95059 1.61446,-1.55357 0.5557,-0.78332 0.93157,-1.66883 1.29112,-2.55371 0.46394,-1.1781 0.95156,-2.3471 1.47293,-3.50095 0.52683,-1.15149 0.97185,-2.33615 1.33587,-3.54835 0.2994,-1.10394 0.52886,-2.22449 0.81921,-3.33097 0.25684,-0.92686 0.55917,-1.84074 0.85436,-2.75604 0.28842,-0.8552 0.57177,-1.71182 0.85027,-2.57036 0.23398,-0.79583 0.52218,-1.57348 0.82896,-2.34363 0.29092,-0.75359 0.5433,-1.52138 0.79043,-2.29024 0.21118,-0.73979 0.41739,-1.47828 0.67757,-2.20269 0.35204,-0.88823 0.81382,-1.72602 1.29483,-2.54949 0.31878,-0.54092 0.61292,-1.09463 0.87058,-1.66714 0.194,-0.46875 0.40007,-0.93033 0.64306,-1.37578 0.16694,-0.29425 0.33048,-0.58829 0.52773,-0.86352 0.20902,-0.28963 0.47419,-0.52574 0.7503,-0.74877 0.46891,-0.36597 0.9318,-0.73829 1.41593,-1.08419 0.51518,-0.34833 1.04666,-0.67499 1.59606,-0.9667 0.36837,-0.14625 0.70415,-0.36202 1.06278,-0.52028 0.42157,-0.15943 0.87667,-0.24538 1.32745,-0.2938 0.47416,-0.0384 0.95014,-0.0398 1.42519,-0.0598 0.36005,-0.0119 0.72025,-0.0188 1.08048,-0.0217 0.43078,7.6e-4 0.8617,-0.008 1.2923,0.006 1.76984,0.14986 3.25375,0.14888 4.67494,1.04843 0.42299,0.27044 0.79159,0.61353 1.13928,0.9732 0.28253,0.32404 0.61918,0.58968 0.95594,0.85362 0.38322,0.30616 0.78734,0.58458 1.16807,0.89397 0.35603,0.28347 0.70469,0.57538 1.07426,0.84135 0.40564,0.27976 0.77208,0.6088 1.11337,0.96299 0.37768,0.42849 0.80109,0.8146 1.19301,1.23076 0.38877,0.42366 0.75231,0.86953 1.10722,1.32165 0.36411,0.47795 0.66407,1.00091 0.96211,1.52151 0.22988,0.4096 0.44021,0.82983 0.66304,1.24345 0.23005,0.32738 0.3785,0.71196 0.57661,1.06303 0.21547,0.33353 0.45329,0.64855 0.67749,0.97472 0.16598,0.2499 0.2682,0.53252 0.42272,0.78947 0.28895,0.46018 0.61034,0.89936 0.94133,1.32994 0.45325,0.51143 0.83826,1.07376 1.22626,1.63631 0.35894,0.53363 0.72294,1.06379 1.05755,1.6132 0.32369,0.44771 0.62313,0.91415 0.92894,1.37489 0.27675,0.41112 0.5774,0.80478 0.8669,1.20678 0.35739,0.49461 0.73399,0.97485 1.12572,1.44265 0.41631,0.49309 0.87094,0.95288 1.32481,1.41121 0.5788,0.60288 1.17872,1.18452 1.79821,1.74535 0.62492,0.55442 1.24317,1.11603 1.85317,1.68681 0.55883,0.53198 1.09943,1.08283 1.65926,1.61371 0.47299,0.49089 1.02321,0.88873 1.54819,1.31958 0.65911,0.49916 1.27079,1.05511 1.89207,1.59932 0.70351,0.47237 1.29763,1.09006 1.89385,1.68776 0.73247,0.7373 1.41993,1.52 2.19307,2.21546 0.64787,0.69297 1.28884,1.39166 1.94652,2.07539 0.6613,0.66857 1.31844,1.34121 1.97411,2.01528 0.59419,0.61014 1.17004,1.23763 1.75236,1.85894 0.45613,0.44227 0.89198,0.91683 1.43437,1.25314 0.6841,0.57472 1.35581,1.16421 2.05435,1.72146 0.65273,0.52936 1.35258,0.99712 2.04782,1.46814 0.44317,0.29178 0.90187,0.55811 1.36279,0.82049 0.58956,0.33347 1.1853,0.65566 1.77877,0.98201 0.67083,0.36127 1.34361,0.71857 1.99593,1.11268 0.63992,0.35516 1.25776,0.74821 1.85961,1.16415 0.62965,0.45658 1.29722,0.85192 1.98786,1.20767 0.69532,0.31237 1.37746,0.64433 2.03805,1.02479 0.87533,0.54552 1.7644,1.06665 2.6634,1.57193 1.06487,0.60013 2.16897,1.12532 3.2689,1.65691 1.22532,0.58707 2.44836,1.17888 3.67956,1.75362 1.2256,0.58143 2.48571,1.08476 3.75687,1.55658 1.33631,0.49701 2.70091,0.91214 4.06085,1.33841 1.34826,0.42373 2.6926,0.85966 4.03291,1.30788 1.22881,0.40245 2.44711,0.83569 3.65606,1.29411 1.46973,0.56802 2.91336,1.20135 4.35866,1.82829 1.52626,0.65825 3.0375,1.35033 4.55505,2.02822 1.40189,0.60325 2.79279,1.23061 4.17738,1.8724 1.56295,0.72447 3.09813,1.50572 4.63359,2.28609 1.61931,0.831 3.23537,1.66816 4.84068,2.52595 1.73908,0.9261 3.40991,1.97242 5.08322,3.01064 1.77694,1.10317 3.50395,2.28458 5.21981,3.4798 1.62213,1.15717 3.25297,2.30186 4.89336,3.43296 1.46723,1.0235 2.94324,2.03447 4.3965,3.07781 1.48585,1.07839 2.93308,2.20684 4.33955,3.38656 1.46805,1.26085 2.91034,2.54536 4.32192,3.86941 1.55316,1.46429 3.06808,2.96814 4.52889,4.52449 1.43315,1.52857 2.77549,3.12771 4.0809,4.76559 1.51005,1.88975 2.94326,3.83779 4.35013,5.80492 1.34639,1.86734 2.65581,3.75684 3.90922,5.68761 1.02952,1.52965 1.93433,3.12457 2.76188,4.77061 0.94992,1.95711 1.7659,3.9758 2.56801,5.99691 0.74707,1.96167 1.59709,3.88042 2.41542,5.81252 0.88635,2.07102 1.67437,4.18195 2.49848,6.27804 0.59147,1.61157 1.27938,3.18386 2.08651,4.69863 0.58885,1.08843 1.24246,2.13853 1.92483,3.17007 0.63877,0.95744 1.38874,1.83164 2.17977,2.66492 0.52961,0.55607 1.1148,1.0543 1.66803,1.58585 0.35125,0.31784 0.71102,0.62437 1.10355,0.89399 0.34354,0.24163 0.74539,0.31138 1.15316,0.35715 0.59143,0.0523 1.18664,0.0518 1.78004,0.0509 4.03176,-1.15389 -3.58152,2.0474 -1.84607,0.93992 0.63956,-0.46758 1.09563,-1.12991 1.53727,-1.77667 0.47275,-0.88597 0.83469,-1.79519 1.06063,-2.77426 0.23024,-1.13148 0.28515,-2.28712 0.31844,-3.43814 0.026,-1.40495 0.043,-2.81081 0.008,-4.21566 -0.0316,-1.5226 -0.24538,-3.03035 -0.49245,-4.5302 -0.23649,-1.3362 -0.50423,-2.66541 -0.78377,-3.99296 -0.27746,-1.19788 -0.52202,-2.40304 -0.79028,-3.60293 -0.26574,-1.11483 -0.58593,-2.21555 -0.86088,-3.328 -0.26012,-1.09134 -0.66497,-2.13599 -1.10166,-3.16639 -0.52248,-1.13628 -1.08361,-2.25424 -1.67633,-3.35535 -0.55262,-1.02978 -1.18574,-2.01282 -1.78891,-3.01299 -0.73623,-1.04633 -1.42731,-2.12238 -2.14068,-3.18384 -0.7069,-1.0706 -1.43605,-2.1277 -2.07533,-3.24047 -0.75398,-1.16405 -1.50844,-2.32736 -2.31959,-3.45272 -0.71837,-1.01724 -1.52622,-1.96498 -2.36156,-2.88675 -0.76454,-0.92488 -1.60177,-1.78756 -2.40163,-2.68216 -0.7514,-0.83523 -1.52016,-1.65483 -2.30054,-2.463 -0.75617,-0.79038 -1.52105,-1.57202 -2.30088,-2.33914 -0.7954,-0.76566 -1.55724,-1.56534 -2.31466,-2.3683 -0.82617,-0.90629 -1.64543,-1.81885 -2.4697,-2.72687 -0.72168,-0.79328 -1.40676,-1.61885 -2.09466,-2.44131 -0.70307,-0.8653 -1.42499,-1.7151 -2.14635,-2.56516 -0.70712,-0.85807 -1.42763,-1.70473 -2.16657,-2.53558 -0.72265,-0.97516 -1.56007,-1.8663 -2.40349,-2.73867 -0.76223,-0.76783 -1.53884,-1.52178 -2.32902,-2.26083 -0.76663,-0.71652 -1.54064,-1.42502 -2.3398,-2.10518 -0.70634,-0.62895 -1.52607,-1.06465 -2.26497,-1.64421 -0.82227,-0.65016 -1.62116,-1.32886 -2.43071,-1.99461 -1.0464,-0.88886 -2.18581,-1.64571 -3.36929,-2.33679 -1.6754,-0.92627 -3.42451,-1.71172 -5.19377,-2.43934 -1.5002,-0.61488 -3.01704,-1.18772 -4.52093,-1.79335 -1.01207,-0.39752 -2.00197,-0.8457 -2.98176,-1.31616 -0.67755,-0.33107 -1.34221,-0.68638 -2.00182,-1.05146 -0.55947,-0.28551 -1.11343,-0.58133 -1.67079,-0.87098 -0.58958,-0.31855 -1.15782,-0.67362 -1.72376,-1.0319 -0.67962,-0.49789 -1.47498,-0.76655 -2.21657,-1.14079 -0.91942,-0.50674 -1.80118,-1.0725 -2.70538,-1.60804 -0.81233,-0.46758 -1.63754,-0.91376 -2.48581,-1.31272 -0.68064,-0.2953 -1.39378,-0.50416 -2.08877,-0.76179 -0.69158,-0.25777 -1.39487,-0.47961 -2.10198,-0.69014 -0.5899,-0.16465 -1.15583,-0.4019 -1.72481,-0.62599 -0.72005,-0.27382 -1.42343,-0.58767 -2.12476,-0.90567 -1.09255,-0.50095 -2.21388,-0.93328 -3.34875,-1.3274 -1.36985,-0.46167 -2.75491,-0.87531 -4.14101,-1.28478 -1.66246,-0.47969 -3.28971,-1.06705 -4.9081,-1.67642 -1.73879,-0.62891 -3.4553,-1.32272 -5.20127,-1.92905 -1.45314,-0.49802 -2.88411,-1.05662 -4.32477,-1.58871 -1.30655,-0.42499 -2.56423,-0.97289 -3.84368,-1.46566 -1.30628,-0.51977 -2.60674,-1.05386 -3.91236,-1.57533 -1.12962,-0.43036 -2.25204,-0.87774 -3.36586,-1.34725 -0.91731,-0.39006 -1.83572,-0.77752 -2.73613,-1.20555 -1.01206,-0.46948 -1.97084,-1.04372 -2.9275,-1.6152 -1.19833,-0.72912 -2.36216,-1.51362 -3.51519,-2.31196 -0.94013,-0.64385 -1.88501,-1.28163 -2.77158,-1.99841 -0.90536,-0.74949 -1.75523,-1.56168 -2.61361,-2.36355 -1.68385,-1.60091 -3.31548,-3.25567 -4.97329,-4.88338 -2.976,-2.91896 -6.02259,-5.74762 -8.72593,-8.9285 -1.47075,-2.15565 -0.90839,-1.05119 -1.75779,-3.27645 0,0 1.40608,0.0403 1.40608,0.0403 l 0,0 c 2.39065,2.11713 1.22531,1.05342 3.49823,3.1887 3.16424,2.9306 6.43067,5.74609 9.61736,8.65205 1.69558,1.6258 3.37656,3.26729 5.09999,4.86373 0.86107,0.79251 1.71748,1.59271 2.62688,2.33006 0.89071,0.69318 1.8229,1.32882 2.75052,1.97124 1.15652,0.78646 2.31233,1.57598 3.51997,2.28313 0.95749,0.56013 1.92095,1.11419 2.93261,1.57223 0.90785,0.40856 1.82044,0.80677 2.73888,1.19096 1.10839,0.46864 2.23073,0.90235 3.35141,1.34051 1.30751,0.52055 2.60629,1.06302 3.92033,1.56705 1.2652,0.47134 2.57789,0.81661 3.82739,1.33904 1.43197,0.53661 2.85887,1.08739 4.30765,1.57789 1.7296,0.5998 3.49606,1.0957 5.18711,1.81052 1.61998,0.60121 3.25078,1.17329 4.9139,1.64532 1.39035,0.4112 2.7771,0.8358 4.14903,1.30533 1.14289,0.40914 2.27119,0.85602 3.37734,1.35688 0.70461,0.30999 1.41217,0.61288 2.13274,0.88428 0.56351,0.21999 1.13177,0.42777 1.71365,0.59469 0.70519,0.22044 1.40906,0.44451 2.09907,0.70989 0.70571,0.2425 1.41901,0.47386 2.08822,0.80793 0.84554,0.41973 1.67846,0.8648 2.48985,1.34765 0.87923,0.518 1.76742,1.00095 2.6826,1.45123 0.7737,0.38928 1.50462,0.86516 2.25082,1.30588 0.5692,0.34603 1.13491,0.69879 1.72973,1.00019 0.55447,0.29739 1.11766,0.57797 1.66983,0.87978 0.65277,0.3619 1.31843,0.70044 1.98833,1.02943 0.9654,0.467 1.94894,0.89465 2.944,1.2946 1.49858,0.60331 3.00703,1.18206 4.49959,1.80026 1.76585,0.73434 3.54482,1.45463 5.19525,2.43053 1.18782,0.71559 2.3355,1.49192 3.38813,2.39838 0.80659,0.66425 1.60285,1.34166 2.42737,1.98368 0.77786,0.6009 1.49594,1.26211 2.27251,1.86726 0.79351,0.68753 1.56827,1.39578 2.32584,2.12288 0.77587,0.75245 1.55165,1.50553 2.29658,2.28891 0.80107,0.84551 1.54058,1.75252 2.37988,2.55754 0.73413,0.83442 1.44527,1.68809 2.15088,2.5467 0.72005,0.85066 1.43403,1.70635 2.14032,2.56847 0.68541,0.8172 1.37219,1.63344 2.08442,2.42756 0.8178,0.91082 1.62216,1.8339 2.46285,2.72389 0.75735,0.79541 1.51689,1.58891 2.30244,2.35672 0.77824,0.77229 1.54626,1.55488 2.30037,2.35077 0.77276,0.81539 1.53881,1.63711 2.28579,2.47629 0.7879,0.85781 1.54862,1.74349 2.38019,2.55931 0.82794,0.93908 1.62275,1.90694 2.33665,2.9367 0.79831,1.13955 1.56367,2.30153 2.3223,3.46774 0.74586,0.96839 1.3389,2.04454 2.04349,3.04301 0.69604,1.03426 1.44559,2.03194 2.13633,3.07008 0.65445,0.90387 1.19254,1.88414 1.72442,2.8635 0.5686,1.07972 1.1617,2.14799 1.6513,3.26701 0.45318,1.04659 0.85542,2.11548 1.11,3.2299 0.27577,1.07304 0.56226,2.14344 0.82589,3.2194 0.26571,1.20141 0.50994,2.40753 0.78619,3.60665 0.29079,1.31108 0.50529,2.63822 0.74561,3.95927 0.26027,1.51761 0.46344,3.04644 0.51175,4.58735 0.004,1.3895 0.009,2.77915 -0.0164,4.1685 -0.0358,1.174 -0.0777,2.35201 -0.29574,3.50945 -0.20279,0.95169 -0.43891,1.96816 -1.06377,2.73741 -0.44189,0.67495 -0.90223,1.35007 -1.48776,1.91018 -1.4737,1.18939 -3.46076,2.06733 -5.38093,2.24833 -0.61031,-0.008 -1.22313,-0.005 -1.82879,-0.091 -0.45202,-0.0891 -0.88388,-0.23083 -1.25854,-0.50885 -0.45162,-0.32449 -0.84279,-0.70792 -1.21456,-1.11978 -0.55878,-0.53236 -1.13522,-1.04724 -1.66155,-1.61259 -0.79524,-0.85806 -1.55028,-1.75621 -2.20248,-2.72927 -0.70907,-1.077 -1.35245,-2.19689 -1.97249,-3.32716 -0.81067,-1.55428 -1.49086,-3.16679 -2.09868,-4.81089 -0.79732,-2.14481 -1.63011,-4.27706 -2.52207,-6.38443 -0.85012,-1.96721 -1.67493,-3.9452 -2.45627,-5.94085 -0.83188,-2.10616 -1.64467,-4.22354 -2.63482,-6.26216 -0.85096,-1.68278 -1.76896,-3.33365 -2.79256,-4.91812 -1.25234,-1.96376 -2.54552,-3.90316 -3.91429,-5.78791 -1.40745,-1.95896 -2.83338,-3.90547 -4.34581,-5.78538 -1.32821,-1.66906 -2.64383,-3.35264 -4.08656,-4.92435 -1.46102,-1.54662 -2.96754,-3.04933 -4.52788,-4.49615 -1.42678,-1.34057 -2.84713,-2.68928 -4.32937,-3.96809 -1.40777,-1.16825 -2.84889,-2.29489 -4.33833,-3.35784 -1.45392,-1.04202 -2.93355,-2.04748 -4.40031,-3.07128 -1.62885,-1.13764 -3.25461,-2.2794 -4.87047,-3.43543 -1.71376,-1.18815 -3.44011,-2.35814 -5.21117,-3.4599 -1.67167,-1.03319 -3.34331,-2.07027 -5.08399,-2.98495 -1.60397,-0.851 -3.21401,-1.6906 -4.8293,-2.51992 -1.53177,-0.78064 -3.06983,-1.5499 -4.63025,-2.27198 -1.37946,-0.63864 -2.76834,-1.25571 -4.15894,-1.86961 -1.51199,-0.67959 -3.01975,-1.36884 -4.5423,-2.02462 -1.44358,-0.62268 -2.88332,-1.25726 -4.35561,-1.81001 -1.20581,-0.45145 -2.42147,-0.87544 -3.64329,-1.28157 -1.33357,-0.45001 -2.67587,-0.8738 -4.0165,-1.30219 -1.36123,-0.4275 -2.72346,-0.85509 -4.05845,-1.36013 -1.27081,-0.48338 -2.52984,-0.99833 -3.75593,-1.58733 -1.22618,-0.5787 -2.4444,-1.17402 -3.6674,-1.75938 -1.10259,-0.53311 -2.20468,-1.06887 -3.26692,-1.68 -0.90172,-0.50174 -1.77898,-1.04381 -2.66463,-1.57296 -0.66314,-0.36491 -1.35338,-0.67221 -2.0271,-1.01639 -0.68751,-0.37555 -1.34581,-0.79798 -1.98559,-1.25019 -0.59959,-0.40348 -1.21599,-0.7786 -1.84151,-1.14035 -0.65764,-0.37592 -1.31929,-0.74446 -1.98641,-1.10331 -0.59199,-0.32744 -1.18374,-0.65544 -1.77124,-0.99088 -0.45701,-0.26968 -0.91127,-0.54467 -1.34476,-0.85136 -0.69153,-0.48239 -1.38034,-0.96962 -2.03654,-1.49975 -0.68586,-0.57093 -1.36636,-1.14811 -2.04845,-1.72354 -0.45537,-0.4626 -1.01225,-0.79582 -1.42406,-1.30594 -0.56571,-0.62726 -1.1416,-1.24498 -1.72868,-1.85232 -0.64785,-0.68066 -1.3161,-1.34096 -1.96806,-2.01758 -0.64922,-0.68801 -1.28451,-1.38878 -1.93453,-2.07588 -0.68297,-0.81593 -1.45858,-1.54846 -2.19098,-2.31973 -0.6133,-0.61163 -1.27448,-1.16774 -1.88661,-1.77792 -0.61315,-0.54688 -1.23491,-1.08322 -1.88539,-1.58569 -0.54152,-0.44298 -1.04969,-0.91917 -1.54667,-1.41192 -0.54144,-0.54087 -1.08496,-1.07997 -1.63967,-1.60725 -0.60169,-0.56665 -1.20901,-1.12704 -1.82095,-1.68259 -0.61392,-0.56925 -1.20325,-1.16344 -1.78648,-1.76399 -0.45493,-0.4657 -0.90233,-0.93861 -1.31561,-1.44222 -0.38641,-0.47472 -0.75219,-0.96475 -1.10575,-1.46437 -0.29319,-0.39997 -0.58227,-0.80287 -0.84734,-1.2223 -0.31865,-0.48528 -0.64815,-0.96841 -0.90298,-1.49079 -0.33611,-0.53831 -0.68366,-1.06917 -1.03732,-1.59612 -0.39097,-0.58025 -0.79343,-1.15243 -1.18149,-1.73268 -0.32465,-0.44766 -0.65871,-0.89087 -0.9317,-1.37301 -0.13373,-0.25077 -0.24324,-0.5154 -0.4042,-0.75069 -0.22554,-0.29938 -0.50274,-0.55075 -0.66021,-0.90197 -0.20638,-0.38369 -0.40913,-0.77439 -0.5666,-1.17999 -0.21169,-0.40781 -0.39558,-0.82937 -0.62534,-1.22781 -0.29246,-0.50491 -0.57595,-1.01881 -0.94872,-1.47076 -0.35378,-0.44177 -0.71356,-0.88049 -1.10262,-1.29177 -0.383,-0.40119 -0.7734,-0.79832 -1.19052,-1.16376 -0.35351,-0.33133 -0.7224,-0.64382 -1.12253,-0.91837 -0.35709,-0.27917 -0.70708,-0.56705 -1.06227,-0.84861 -0.39137,-0.29704 -0.78746,-0.5881 -1.17009,-0.89646 -0.3399,-0.27563 -0.66008,-0.57168 -0.95951,-0.89108 -0.34336,-0.33248 -0.70315,-0.65147 -1.1235,-0.88482 -1.2166,-0.63111 -3.68151,-0.91089 1.80724,-0.0391 -0.42412,-0.0535 -0.8519,-0.0237 -1.27869,-0.03 -0.3588,9e-4 -0.71762,0.001 -1.07627,0.0135 -0.47666,0.0111 -0.95325,0.0276 -1.42984,0.0412 -0.46639,0.0277 -0.91226,0.0518 -1.32452,0.29209 -0.33401,0.14935 -0.70999,0.21277 -1.03639,0.39516 -0.54916,0.27567 -1.08122,0.58493 -1.59603,0.92047 -0.48324,0.33496 -0.94066,0.70053 -1.39794,1.0695 -0.26173,0.20193 -0.52538,0.40333 -0.72868,0.66748 -0.20382,0.2526 -0.35965,0.5385 -0.52575,0.81645 -0.2465,0.43385 -0.45768,0.88282 -0.6426,1.34659 -0.26054,0.58565 -0.54888,1.16168 -0.89652,1.70095 -0.48237,0.80094 -0.93598,1.62301 -1.28521,2.49189 -0.26721,0.68047 -0.43774,1.38962 -0.64513,2.08961 -0.25321,0.77511 -0.50986,1.54945 -0.80203,2.31095 -0.30018,0.74871 -0.57805,1.50524 -0.8213,2.27451 -0.2908,0.85248 -0.56507,1.71055 -0.85987,2.56174 -0.29315,0.90991 -0.58873,1.81976 -0.85107,2.73903 -0.28842,1.07594 -0.52559,2.1647 -0.82056,3.23892 -0.37544,1.22193 -0.80088,2.42863 -1.33937,3.58953 -0.50541,1.13753 -1.02787,2.26791 -1.45862,3.43699 -0.35896,0.91135 -0.74054,1.81956 -1.29047,2.63557 -0.45108,0.64197 -0.98389,1.20344 -1.62827,1.65763 -0.76998,0.56369 -1.58666,1.05378 -2.45961,1.44334 -0.77256,0.32847 -1.5769,0.63747 -2.42985,0.62537 -1.52291,3.7e-4 -3.06605,0.0765 -4.56663,-0.19474 -0.35633,-0.0967 -0.69816,-0.23505 -1.01666,-0.42348 -0.36219,-0.22152 -0.68138,-0.49416 -0.96205,-0.81394 -0.63132,-0.71416 -1.17555,-1.50432 -1.63189,-2.34116 -0.60731,-1.19288 -1.02283,-2.44547 -1.04971,-3.79854 -0.0733,-1.69232 -0.0219,-3.38792 -0.0311,-5.08139 0.007,-1.53437 0.0161,-3.06942 0.10583,-4.60169 0.0908,-1.47413 0.20339,-2.94699 0.33699,-4.41787 0.1457,-1.48249 0.30148,-2.96517 0.57739,-4.43036 0.34029,-1.69778 0.78826,-3.36827 1.31961,-5.01667 0.51283,-1.65492 1.03796,-3.3091 1.73976,-4.89597 0.71477,-1.63003 1.48067,-3.23649 2.3092,-4.81212 0.7828,-1.49902 1.53862,-3.01367 2.39603,-4.47219 0.73521,-1.21274 1.51786,-2.39493 2.34661,-3.54617 0.88097,-1.18197 1.80066,-2.33355 2.71314,-3.49123 0.79177,-1.00197 1.58109,-2.00845 2.46116,-2.93568 0.72606,-0.77638 1.46039,-1.54992 2.24881,-2.26326 0.87913,-0.77118 1.72705,-1.57883 2.64594,-2.30401 1.04515,-0.85628 2.08847,-1.7153 3.16305,-2.53467 0.95294,-0.71693 1.92356,-1.40772 2.89145,-2.10337 0.66226,-0.41137 1.329,-0.81699 2.03035,-1.15945 0.67218,-0.32196 1.36921,-0.58163 2.09222,-0.76649 0.86931,-0.22782 1.74174,-0.44 2.64659,-0.44285 0.89617,-0.0239 1.79277,-0.007 2.68918,-0.0107 0.71957,0.003 1.43916,0.006 2.15867,0.015 0.66927,0.0128 1.33827,0.0343 2.00747,0.0494 1.75104,0.0709 3.4867,0.33047 5.22269,0.56288 0.64223,0.0926 1.28125,0.20443 1.92278,0.30155 0.45158,0.0678 0.90521,0.12301 1.35258,0.21643 0.40056,0.0732 0.79907,0.15281 1.18578,0.2839 0.45706,0.12184 0.9216,0.21439 1.37403,0.35318 0.35095,0.11462 0.70675,0.22198 1.03761,0.38839 0.27256,0.17863 0.45113,0.41039 0.60965,0.69379 0.17409,0.29785 0.30375,0.62094 0.42197,0.9433 0.10083,0.31247 0.20301,0.62769 0.24178,0.9551 0.003,0.16149 0.004,0.32301 -0.003,0.48461 -0.005,0.39567 -0.009,0.79136 -0.0119,1.18706 -0.0139,0.78973 -0.0145,1.57989 -0.003,2.36964 0.0217,1.41029 0.0995,2.82027 0.27866,4.22012 0.27466,2.09776 0.66503,4.18233 1.26318,6.21405 0.7139,2.26906 1.63405,4.45684 2.74993,6.55965 1.33308,2.57741 2.7011,5.13994 4.25616,7.59221 1.62848,2.5367 3.37217,4.99433 5.17231,7.41207 1.57964,2.09789 3.19115,4.17628 4.96816,6.11274 1.14212,1.20567 2.31217,2.5154 3.98305,2.93697 -0.611,-0.05 -1.2282,-0.0498 -1.83299,-0.15009 -0.2419,-0.0401 0.4924,0.004 0.73493,-0.0319 1.09391,-0.1631 2.07106,-0.77137 2.93825,-1.42048 0,0 2.32329,0.4378 2.32329,0.4378 z"
       inkscape:connector-curvature="0" />
    <path
       style="fill:#b9b9b9;fill-opacity:1;stroke:#000000;stroke-width:1px;stroke-linecap:butt;stroke-linejoin:miter;stroke-opacity:1"
       d="m 357.86122,424.30777 8.08542,-70.54182 21.81859,-41.40451 -4.77885,-12.11521 -20.05669,12.85342 -16.91905,56.2337 4.10305,44.74813 z"
       id="path5316"
       inkscape:connector-curvature="0" />
    <path
       style="color:#000000;fill:#000000;fill-opacity:1;fill-rule:nonzero;stroke:#000000;stroke-width:4;stroke-linecap:square;stroke-linejoin:miter;stroke-miterlimit:4;stroke-opacity:1;stroke-dasharray:none;stroke-dashoffset:0;marker:none;visibility:visible;display:inline;overflow:visible;enable-background:accumulate"
       id="path5302"
       d="m 384.07443,322.69368 c 0.5862,-1.8137 0.95193,-3.68188 1.16252,-5.57317 0.16582,-1.73969 0.15581,-3.48859 0.14864,-5.23406 0.0452,-1.62123 -0.1197,-3.22457 -0.52723,-4.79239 -0.32576,-1.09812 -0.93141,-2.08852 -1.74801,-2.88754 -0.64524,-0.59196 -1.44289,-0.89302 -2.27451,-1.11335 -4.11575,-0.55607 3.54936,0.0745 0.1033,-0.0369 -1.08196,-0.0724 -2.14076,0.0514 -3.18976,0.30775 -1.15366,0.3127 -2.21968,0.83403 -3.26536,1.40316 -1.19799,0.64106 -2.23848,1.5096 -3.23682,2.42071 -1.31547,1.25178 -2.55124,2.57859 -3.76743,3.92571 -1.00961,1.10626 -1.9735,2.25388 -2.81688,3.49233 -0.97346,1.54595 -1.61285,3.26949 -2.3269,4.94329 -0.83073,1.97748 -1.79628,3.89319 -2.72995,5.82284 -0.89466,1.74483 -1.48402,3.61178 -2.01447,5.492 -0.60199,2.3255 -1.1981,4.6516 -1.82835,6.96958 -0.85808,3.06015 -1.77624,6.10308 -2.68025,9.14989 -1.04502,3.34947 -1.82774,6.76445 -2.45708,10.21344 -0.61098,3.37686 -1.01649,6.78471 -1.3938,10.19396 -0.44155,4.00586 -0.71314,8.02673 -0.90542,12.05137 -0.17374,4.53938 -0.24477,9.0829 -0.18446,13.62517 0.0332,4.64087 0.83922,9.20275 1.92897,13.69703 0.99037,3.93054 2.47806,7.70357 4.16445,11.38079 0.83602,1.763 1.7589,3.48241 2.64854,5.21841 0.38811,0.72028 0.72079,1.47199 1.14742,2.17112 0.0103,0.10038 0.14125,0.14984 0.23141,0.19515 0.0828,-1.22024 -2.34765,0.12403 -3.49771,-0.0689 -0.0194,-0.003 0.26099,-2.9415 0.29367,-3.24976 0.29153,-2.76519 0.73529,-5.51075 1.16485,-8.2569 0.46415,-2.80658 0.7983,-5.63118 1.13796,-8.45474 0.35569,-2.9619 0.68703,-5.92664 1.02355,-8.89076 0.28625,-2.37273 0.52796,-4.74978 0.72511,-7.13142 0.12498,-1.56573 0.17651,-3.13624 0.24675,-4.70512 0.0671,-1.61584 0.31549,-3.21137 0.61985,-4.79682 0.3091,-1.56844 0.71748,-3.11457 1.1366,-4.65645 0.35248,-1.2071 0.65079,-2.42872 0.93869,-3.6525 0.23097,-0.98506 0.44357,-1.97424 0.65883,-2.96279 0.1701,-0.79107 0.40583,-1.56588 0.65422,-2.33527 0.27161,-0.84932 0.53732,-1.70085 0.84238,-2.5389 0.32499,-0.86667 0.67393,-1.72403 1.00009,-2.59022 0.39185,-1.05023 0.70534,-2.12608 0.95744,-3.21763 0.16529,-0.81762 0.33958,-1.6362 0.43988,-2.46494 0.0445,-0.46556 0.0684,-0.932 0.11561,-1.39755 0.13429,-1.09331 0.29412,-2.18385 0.46083,-3.27273 0.16931,-1.21672 0.37881,-2.42832 0.50942,-3.65004 0.10096,-1.16011 0.23845,-2.31375 0.42147,-3.46374 0.2301,-1.51805 0.56354,-3.01599 0.9288,-4.50628 0.26214,-1.08827 0.53198,-2.17432 0.8545,-3.24641 0.29526,-0.91672 0.71424,-1.78572 1.13884,-2.64783 0.57928,-1.18872 1.26973,-2.31473 1.99264,-3.4198 0.67973,-0.99232 1.47446,-1.89877 2.25394,-2.81266 0.8532,-0.97552 1.67507,-1.97764 2.5134,-2.96579 0.81086,-0.95136 1.67487,-1.85595 2.54557,-2.75231 0.68372,-0.69284 1.39658,-1.35575 2.09647,-2.03203 0.671,-0.68176 1.37809,-1.32475 2.10362,-1.94755 0.90491,-0.75147 1.79143,-1.52247 2.6278,-2.34982 0.55606,-0.59377 0.94287,-1.21231 1.74547,-1.4414 0.24259,-0.0235 0.48518,-0.0471 0.72777,-0.0706 0,0 0.94867,0.0947 0.94867,0.0947 l 0,0 c 0.18874,0.0672 0.37748,0.13444 0.56623,0.20166 0.62353,0.50321 -0.12912,1.13682 -0.51167,1.59542 -0.82497,0.846 -1.70735,1.62965 -2.62071,2.37921 -0.7198,0.61428 -1.42423,1.2461 -2.08432,1.92492 -0.69833,0.67821 -1.41997,1.33196 -2.10736,2.02138 -0.87441,0.88717 -1.73641,1.78793 -2.55554,2.72669 -0.83899,0.98393 -1.64491,1.99549 -2.49685,2.96848 -0.77333,0.90124 -1.55319,1.80106 -2.24323,2.76875 -0.72548,1.10273 -1.37858,2.25389 -1.97515,3.43125 -0.40485,0.8497 -0.82516,1.69704 -1.11513,2.59481 -0.33111,1.06452 -0.60928,2.14361 -0.87699,3.22567 -0.37087,1.47744 -0.71177,2.96377 -0.92287,4.47383 -0.1655,1.14766 -0.3091,2.29665 -0.39984,3.45304 -0.1563,1.22261 -0.3371,2.44139 -0.52296,3.65985 -0.15433,1.08419 -0.31947,2.16723 -0.43169,3.25689 -0.0423,0.45227 -0.0472,0.90666 -0.10576,1.35718 -0.12997,0.80142 -0.27174,1.60152 -0.46257,2.39127 -0.27127,1.09992 -0.5564,2.19753 -0.95024,3.26133 -0.31972,0.86834 -0.66916,1.72509 -1.00212,2.58839 -0.30727,0.83157 -0.56966,1.67716 -0.83401,2.52312 -0.23651,0.76239 -0.47125,1.52588 -0.65248,2.30378 -0.2236,0.98908 -0.43485,1.98097 -0.67236,2.96691 -0.28038,1.1951 -0.6017,2.37953 -0.93802,3.56008 -0.42769,1.53292 -0.84148,3.06951 -1.16598,4.62839 -0.29548,1.54966 -0.5472,3.10988 -0.60189,4.68966 -0.0702,1.53744 -0.13539,3.07478 -0.27686,4.6078 -0.21559,2.38616 -0.49223,4.766 -0.7771,7.14476 -0.34436,2.96392 -0.67727,5.92917 -1.02626,8.89256 -0.34038,2.86338 -0.68397,5.72715 -1.1462,8.57403 -0.42775,2.73813 -0.86444,5.47671 -1.13267,8.23629 -0.0791,0.85575 -0.19077,3.22121 -0.24662,3.24331 -1.13556,0.44943 -2.37509,0.57002 -3.56264,0.85502 -0.007,-0.0179 -0.0139,-0.0357 -0.0209,-0.0536 -0.0679,-0.1544 -0.16717,-0.28815 -0.25055,-0.4351 -0.4029,-0.71518 -0.72632,-1.47272 -1.11316,-2.19652 -0.86902,-1.74059 -1.75323,-3.47429 -2.56706,-5.24168 -1.64389,-3.71197 -3.09515,-7.51259 -4.08897,-11.45566 -1.09423,-4.57066 -1.90829,-9.2107 -1.93937,-13.92656 -0.0491,-4.54871 0.0178,-9.09955 0.18632,-13.64541 0.1948,-4.06492 0.48007,-8.12532 0.90677,-12.17303 0.37804,-3.43658 0.80101,-6.86914 1.43522,-10.26961 0.65904,-3.4915 1.44373,-6.95677 2.51166,-10.34904 0.90516,-3.04624 1.85291,-6.08005 2.70854,-9.14086 0.64423,-2.28138 1.24702,-4.57366 1.85014,-6.86616 0.53721,-1.89923 1.12888,-3.7856 2.03269,-5.54861 0.94874,-1.925 1.93846,-3.83104 2.79347,-5.80075 0.72011,-1.69018 1.35744,-3.43114 2.31574,-5.00576 0.84858,-1.25802 1.8164,-2.42436 2.85006,-3.53521 1.27307,-1.36858 2.53984,-2.7478 3.89642,-4.034 1.01689,-0.9282 2.06892,-1.82442 3.28475,-2.48606 1.07311,-0.58752 2.18513,-1.12952 3.36529,-1.46111 1.09022,-0.27105 2.18853,-0.44586 3.31678,-0.3589 1.77193,0.0524 3.57451,0.095 5.29108,0.5613 0.77634,0.27103 1.51,0.62327 2.06235,1.25472 0.75192,0.86291 1.312,1.78772 1.53821,2.93321 0.32058,1.59384 0.46029,3.21288 0.42582,4.83965 -0.0239,1.75291 -0.0506,3.50972 -0.24411,5.25381 -0.25788,1.9124 -0.65542,3.80144 -1.3686,5.60213 0,0 -1.84226,-0.1482 -1.84226,-0.1482 z"
       inkscape:connector-curvature="0" />
    <path
       style="fill:#d9bc00;stroke:#000000;stroke-width:1px;stroke-linecap:butt;stroke-linejoin:miter;stroke-opacity:1;fill-opacity:1"
       d="m 384.24143,322.97854 16.29153,15.08974 -9.84732,25.05548 -43.10619,-12.65801 c -5.21659,-8.00346 -6.32631,-15.51898 2.05152,-21.90726 11.08189,-10.50762 22.73969,-10.06803 34.61046,-5.57995 z"
       id="path5314"
       inkscape:connector-curvature="0"
       sodipodi:nodetypes="cccccc" />
    <path
       style="color:#000000;fill:#000000;fill-opacity:1;fill-rule:nonzero;stroke:#000000;stroke-width:4;stroke-linecap:square;stroke-linejoin:miter;stroke-miterlimit:4;stroke-opacity:1;stroke-dasharray:none;stroke-dashoffset:0;marker:none;visibility:visible;display:inline;overflow:visible;enable-background:accumulate"
       id="path5306"
       d="m 358.83907,324.03033 c 1.20157,-1.33045 2.67975,-2.26508 4.32531,-2.93703 1.3978,-0.51297 2.87686,-0.70086 4.34867,-0.85469 1.35571,-0.13448 2.71834,-0.16479 4.07962,-0.1828 2.36272,-0.0361 4.73468,-0.0354 7.04245,0.50121 1.53019,0.43031 3.01814,0.99718 4.51611,1.52626 1.55509,0.53218 3.09658,1.06988 4.5786,1.78425 1.22847,0.60787 2.33925,1.39551 3.40828,2.24473 0.92233,0.78945 1.77847,1.65152 2.67238,2.47254 0.69987,0.6284 1.39749,1.25912 2.09146,1.89403 0.54751,0.48101 1.06855,0.98989 1.56636,1.52192 0.69742,0.74092 1.27425,1.58076 1.82969,2.42995 0.5357,0.84998 1.00447,1.73973 1.47206,2.6283 0.27158,0.49432 0.46473,1.02344 0.66231,1.54979 0.13229,0.37696 0.2769,0.74909 0.39684,1.13026 0.11733,0.34797 0.22552,0.69785 0.29487,1.05874 0.0424,0.21585 0.0446,0.43512 0.06,0.65346 -0.005,0.0662 0.0102,0.13063 0.0181,0.1954 0.0141,0.12898 0.0104,0.25896 0.009,0.38846 0.0557,0.66344 -0.15399,1.26955 -0.40073,1.87394 -0.52967,1.1322 -1.25789,2.15687 -1.9592,3.18682 -1.06744,1.52255 -2.11159,3.06102 -3.14491,4.60687 -1.1864,1.71451 -2.27523,3.49505 -3.36338,5.27302 -0.74332,1.19786 -1.468,2.40696 -2.19702,3.61346 -0.33339,0.56425 -0.67714,1.12309 -0.95845,1.71568 -0.20824,0.52791 -0.43218,1.04609 -0.70178,1.54573 -0.1502,0.29124 -0.36399,0.5278 -0.60925,0.73996 -0.15306,0.14054 -0.33377,0.24131 -0.51599,0.33785 -0.0814,0.0426 -0.16281,0.082 -0.24772,0.11625 -1.40469,0.22217 -2.87121,0.0147 -4.30252,0.014 -0.84428,0.0228 -1.65076,-0.28443 -2.43294,-0.56649 -1.32013,-0.49655 -2.61369,-1.05999 -3.91221,-1.60964 -1.64578,-0.72402 -3.31716,-1.38611 -4.98761,-2.05027 -1.84181,-0.69595 -3.66888,-1.42864 -5.49341,-2.16843 -1.75568,-0.74489 -3.52573,-1.45498 -5.29195,-2.17427 -1.45506,-0.62233 -2.92767,-1.19422 -4.43872,-1.66482 -1.3321,-0.4016 -2.68734,-0.7173 -4.03697,-1.05258 -1.00824,-0.24204 -2.00411,-0.53133 -3.00104,-0.81542 -0.68523,-0.28487 -1.40753,-0.48294 -2.12461,-0.67374 -0.53637,-0.12201 -1.0401,-0.33743 -1.52526,-0.59157 -0.40636,-0.2011 -0.77305,-0.4657 -1.12462,-0.74923 -0.30204,-0.22253 -0.54798,-0.49463 -0.77196,-0.79305 -0.56702,-0.87905 -0.66032,-1.95446 -0.78995,-2.96623 -0.3092,-2.4993 -0.11369,-4.95827 0.36446,-7.41796 0.94734,-4.00321 2.94666,-7.61785 5.04621,-11.11477 2.3314,-3.75345 5.00947,-7.27823 8.46229,-10.05359 0.58549,-0.35901 1.17097,-0.71801 1.75646,-1.07702 0,0 1.04379,0.12174 1.04379,0.12174 l 0,0 c -0.28816,0.38777 -0.57631,0.77553 -0.86447,1.1633 -2.41268,3.36341 -5.03395,6.5809 -7.20619,10.11367 -2.07552,3.46141 -4.04283,7.03927 -4.95868,11.00688 -0.46429,2.42526 -0.63748,4.85648 -0.28012,7.31395 0.12885,0.95869 0.25178,1.99011 0.86338,2.77931 0.23027,0.26566 0.4876,0.50492 0.77294,0.71125 0.35287,0.25921 0.71543,0.50186 1.11679,0.68176 0.48569,0.22536 0.98999,0.39693 1.50913,0.52887 0.69642,0.20452 1.38621,0.45477 2.10209,0.57523 0.9907,0.28152 1.98048,0.56705 2.98255,0.80628 1.34916,0.33537 2.70174,0.66131 4.02941,1.07604 1.49958,0.49104 2.96248,1.07763 4.41461,1.69433 1.7658,0.72082 3.5314,1.44201 5.29236,2.17461 1.81669,0.74986 3.64951,1.45744 5.48276,2.16561 1.67691,0.65819 3.34368,1.34053 4.99664,2.05697 1.30367,0.54813 2.60552,1.10464 3.93649,1.58385 0.78959,0.25983 1.58642,0.50609 2.42891,0.45358 2.16266,0.004 -3.71754,-0.12317 -2.42447,0.0141 0.10186,0.009 0.20271,0.023 0.30242,-0.0122 0.1876,-0.0585 0.37307,-0.1229 0.5388,-0.23245 0.24483,-0.18377 0.49629,-0.36323 0.66453,-0.62563 0.32702,-0.45998 0.53989,-0.98194 0.7482,-1.50398 0.27569,-0.61174 0.62913,-1.18175 0.98392,-1.75036 0.73888,-1.20942 1.49585,-2.40752 2.24189,-3.6125 1.1115,-1.80381 2.25037,-3.58992 3.38576,-5.3786 1.02632,-1.54649 2.06603,-3.08394 3.11843,-4.61283 0.69146,-1.01043 1.40188,-2.01773 1.93674,-3.12282 0.2352,-0.56731 0.43784,-1.12689 0.3811,-1.75165 -0.002,-0.13118 -0.006,-0.26304 0.0104,-0.39352 0.009,-0.0601 0.0284,-0.11911 0.02,-0.18137 0.002,-0.20111 -0.0139,-0.40216 -0.0485,-0.60061 -0.0689,-0.34798 -0.17375,-0.68606 -0.28634,-1.02233 -0.12261,-0.37526 -0.26435,-0.7437 -0.39499,-1.1162 -0.18903,-0.51382 -0.37725,-1.02859 -0.63882,-1.51151 -0.45599,-0.88006 -0.92097,-1.75692 -1.45174,-2.59481 -0.55512,-0.83284 -1.13461,-1.65311 -1.8308,-2.37605 -0.5018,-0.51883 -1.02252,-1.01821 -1.55853,-1.5017 -0.68855,-0.6343 -1.38268,-1.26246 -2.07187,-1.89607 -0.87994,-0.81823 -1.72183,-1.67834 -2.64118,-2.45303 -1.04163,-0.81056 -2.18062,-1.49947 -3.35951,-2.09169 -1.4804,-0.69975 -3.0073,-1.30011 -4.5503,-1.84655 -1.48814,-0.52771 -2.9668,-1.09711 -4.49686,-1.49334 -0.61105,-0.13246 -0.75534,-0.17756 -1.37607,-0.25692 -0.23156,-0.0296 -0.93037,-0.0665 -0.69694,-0.069 4.33435,-0.0473 1.62992,0.10218 0.68928,0.0459 -1.37593,0.0125 -2.75309,0.0308 -4.12498,0.14744 -1.51354,0.13735 -3.03999,0.27637 -4.4918,0.75643 -1.66018,0.61409 -3.18531,1.48629 -4.39158,2.80854 0,0 -2.51739,-0.26131 -2.51739,-0.26131 z"
       inkscape:connector-curvature="0" />
    <path
       style="color:#000000;fill:#3c3400;fill-opacity:1;fill-rule:nonzero;stroke:none;stroke-width:4;marker:none;visibility:visible;display:inline;overflow:visible;enable-background:accumulate"
       id="path5322"
       d="m 354.40205,333.36207 c 0.88073,0.37917 1.73336,0.81668 2.55526,1.30984 0.56807,0.35227 1.10175,0.75424 1.62485,1.16919 0.46378,0.38576 0.91896,0.78175 1.37411,1.17762 0.54003,0.4703 1.04782,0.97562 1.53416,1.5008 0.5145,0.58647 1.01625,1.1841 1.53434,1.76739 0.48606,0.55516 0.98987,1.09431 1.47022,1.65446 0.45045,0.54428 0.89778,1.09143 1.33679,1.64504 0.47437,0.60764 0.91979,1.23682 1.35759,1.87105 0.37881,0.56149 0.71719,1.14768 1.03832,1.74349 0.27551,0.50404 0.46808,1.04543 0.66103,1.58458 0.17241,0.52417 0.34288,1.04893 0.51317,1.57375 0.14818,0.47475 0.2987,0.94838 0.45588,1.42023 0.18954,0.53309 0.3608,1.07172 0.51575,1.61576 0.12341,0.47596 0.25153,0.95067 0.37762,1.4259 0.0629,0.2576 0.11937,0.517 0.1558,0.77975 0.0164,0.10583 0.0214,0.21242 0.0263,0.31881 -0.35328,0.20114 -0.80657,0.10293 -1.21086,0.14553 0,0 0.65543,-0.14621 0.65543,-0.14621 l 0,0 c -0.38727,0.12526 -0.83212,0.46175 -1.21021,0.34456 -0.006,-0.10151 -0.0136,-0.20327 -0.0211,-0.30485 -0.0257,-0.25831 -0.0599,-0.51575 -0.11842,-0.76899 -0.10617,-0.47794 -0.21438,-0.95545 -0.3309,-1.43101 -0.14502,-0.55209 -0.33144,-1.09186 -0.51679,-1.63157 -0.15766,-0.47221 -0.30067,-0.94907 -0.44616,-1.42513 -0.16697,-0.54285 -0.32974,-1.08695 -0.50451,-1.62739 -0.17603,-0.55224 -0.37666,-1.09757 -0.64873,-1.61083 -0.3039,-0.59133 -0.60584,-1.18649 -0.98684,-1.73311 -0.4281,-0.63676 -0.87555,-1.2605 -1.35075,-1.86315 -0.43306,-0.55046 -0.862,-1.1043 -1.30874,-1.64382 -0.47608,-0.55953 -0.96631,-1.10658 -1.4539,-1.65602 -0.51188,-0.60175 -1.00299,-1.21957 -1.52373,-1.81339 -0.47914,-0.52296 -0.9795,-1.02458 -1.5184,-1.48661 -0.45372,-0.39248 -0.90435,-0.78865 -1.36399,-1.17422 -0.49917,-0.41492 -1.01303,-0.81346 -1.5653,-1.15621 -0.81363,-0.49095 -1.65622,-0.9312 -2.53589,-1.29301 0,0 1.42866,-0.28223 1.42866,-0.28223 z"
       inkscape:connector-curvature="0" />
    <path
       style="color:#000000;fill:#3c3400;fill-opacity:1;fill-rule:nonzero;stroke:none;stroke-width:4;marker:none;visibility:visible;display:inline;overflow:visible;enable-background:accumulate"
       id="path5324"
       d="m 366.24502,324.27709 c 0.66636,0.94125 1.50961,1.73376 2.37723,2.48555 0.69839,0.58867 1.4104,1.1607 2.08625,1.77545 0.64328,0.59435 1.23284,1.24199 1.81396,1.89612 0.56323,0.62326 1.08032,1.28545 1.6017,1.94344 0.49395,0.62697 0.96338,1.27255 1.44023,1.91245 0.50026,0.69422 0.97241,1.40788 1.44096,2.1237 0.48545,0.72752 0.94265,1.47284 1.39753,2.21973 0.39292,0.6317 0.79252,1.25907 1.17204,1.89897 0.36551,0.64965 0.72472,1.3028 1.06652,1.96525 0.36006,0.73453 0.69356,1.48205 1.00404,2.23884 0.25947,0.65806 0.5297,1.3117 0.81229,1.96016 0.28963,0.67623 0.54269,1.36757 0.77063,2.0668 0.27499,0.85181 0.51557,1.71406 0.72938,2.5831 0.20449,0.83622 0.39234,1.67635 0.61463,2.50813 0.18997,0.69192 0.39842,1.37824 0.56393,2.07663 0.12238,0.51423 0.21936,1.03421 0.31211,1.5545 0.0429,0.16099 0.004,0.24364 -0.12233,0.33851 -0.29488,0.12191 -0.13358,0.0602 -0.48567,0.18028 0,0 -0.51758,0.11434 -0.51758,0.11434 l 0,0 c -0.34959,0.0366 -0.18775,0.0253 -0.48517,0.0386 -0.14669,-0.0258 -0.19002,-0.0797 -0.20186,-0.23723 -0.085,-0.51741 -0.16622,-1.03582 -0.28863,-1.54612 -0.1838,-0.71162 -0.37955,-1.41972 -0.57787,-2.12743 -0.21182,-0.83619 -0.39399,-1.67948 -0.60286,-2.51642 -0.21858,-0.88212 -0.44407,-1.76385 -0.73109,-2.62663 -0.23324,-0.70267 -0.48118,-1.39934 -0.78113,-2.07695 -0.26534,-0.65507 -0.5402,-1.3063 -0.79498,-1.96565 -0.3097,-0.77223 -0.62593,-1.54259 -1.00733,-2.28294 -0.33222,-0.66011 -0.67258,-1.31635 -1.03854,-1.95852 -0.37502,-0.63958 -0.77482,-1.26385 -1.15821,-1.89839 -0.46493,-0.75779 -0.92295,-1.5201 -1.40107,-2.26955 -0.45978,-0.71517 -0.92396,-1.42815 -1.42397,-2.11611 -0.46172,-0.64352 -0.92763,-1.28428 -1.41264,-1.91051 -0.51075,-0.65818 -1.03348,-1.30702 -1.5782,-1.93751 -0.56151,-0.65037 -1.13141,-1.29649 -1.75688,-1.88663 -0.66243,-0.61444 -1.35949,-1.18762 -2.04138,-1.78002 -0.8547,-0.7786 -1.69809,-1.57882 -2.36907,-2.52719 0,0 1.57303,-0.21672 1.57303,-0.21672 z"
       inkscape:connector-curvature="0" />
    <path
       style="color:#000000;fill:#3c3400;fill-opacity:1;fill-rule:nonzero;stroke:none;stroke-width:4;marker:none;visibility:visible;display:inline;overflow:visible;enable-background:accumulate"
       id="path5326"
       d="m 383.9007,325.55069 c 0.40941,1.08365 1.00107,2.08398 1.5964,3.07319 0.65274,1.07639 1.37086,2.11018 2.10607,3.13124 0.69353,0.99505 1.51302,1.88912 2.30215,2.8065 0.70875,0.81644 1.35369,1.68286 1.90361,2.61348 0.49657,0.8286 0.82153,1.73909 1.13006,2.64963 0.2969,0.90062 0.63493,1.7866 0.96334,2.67596 0.30308,0.80002 0.6397,1.58653 0.95582,2.38137 0.33562,0.8165 0.5937,1.66158 0.83856,2.50879 0.18385,0.6373 0.34447,1.28039 0.45659,1.93421 0.0805,0.49968 0.11272,1.00403 0.13775,1.50877 0.008,0.1797 0.0547,0.35644 -0.0541,0.49846 -0.015,0.008 -0.03,0.0157 -0.045,0.0236 0,0 -1.59696,0.30165 -1.59696,0.30165 l 0,0 c -0.0148,-0.001 -0.0297,-0.003 -0.0445,-0.004 -0.12225,-0.10674 -0.0603,-0.30344 -0.0737,-0.46515 -0.0164,-0.49806 -0.0547,-0.99583 -0.11855,-1.49008 -0.10407,-0.66803 -0.25128,-1.32686 -0.42977,-1.9791 -0.2366,-0.85064 -0.49125,-1.69684 -0.79966,-2.5246 -0.31167,-0.80769 -0.6599,-1.60084 -0.95155,-2.41625 -0.32207,-0.90071 -0.63847,-1.8034 -0.94176,-2.71064 -0.30615,-0.89751 -0.62194,-1.79549 -1.10346,-2.61761 -0.55493,-0.91413 -1.17508,-1.78366 -1.88071,-2.58892 -0.79063,-0.93616 -1.56999,-1.88374 -2.29198,-2.87434 -0.73457,-1.02592 -1.45044,-2.06611 -2.10269,-3.14686 -0.59002,-1.00066 -1.16655,-2.01486 -1.57092,-3.10785 0,0 1.615,-0.18103 1.615,-0.18103 z"
       inkscape:connector-curvature="0" />
    <path
       style="color:#000000;fill:#3c3400;fill-opacity:1;fill-rule:nonzero;stroke:none;stroke-width:4;marker:none;visibility:visible;display:inline;overflow:visible;enable-background:accumulate"
       id="path5328"
       d="m 351.4633,341.64302 c 1.31437,0.71032 2.47592,1.64054 3.56915,2.6499 1.35628,1.28415 2.33706,2.86699 3.20462,4.50402 0.81412,1.59752 1.47153,3.26804 2.17125,4.91724 0.30912,0.78954 0.68203,1.55394 0.9829,2.34662 0.0105,0.15505 0.0314,0.0907 -0.0389,0.19922 0,0 -1.47373,0.3479 -1.47373,0.3479 l 0,0 c -0.14805,-0.0681 -0.0822,-0.0182 -0.1914,-0.15733 -0.33422,-0.79436 -0.6001,-1.61678 -0.93909,-2.40951 -0.6571,-1.68094 -1.30432,-3.36843 -2.09076,-4.99449 -0.8456,-1.62182 -1.80065,-3.19037 -3.13882,-4.46047 -1.09254,-1.00432 -2.25707,-1.93382 -3.58997,-2.60376 0,0 1.53472,-0.33934 1.53472,-0.33934 z"
       inkscape:connector-curvature="0" />
  </g>
</svg>
