<?xml version="1.0" encoding="UTF-8" standalone="no"?>
<!-- Created with Inkscape (http://www.inkscape.org/) -->

<svg
   xmlns:dc="http://purl.org/dc/elements/1.1/"
   xmlns:cc="http://creativecommons.org/ns#"
   xmlns:rdf="http://www.w3.org/1999/02/22-rdf-syntax-ns#"
   xmlns:svg="http://www.w3.org/2000/svg"
   xmlns="http://www.w3.org/2000/svg"
   xmlns:xlink="http://www.w3.org/1999/xlink"
   xmlns:sodipodi="http://sodipodi.sourceforge.net/DTD/sodipodi-0.dtd"
   xmlns:inkscape="http://www.inkscape.org/namespaces/inkscape"
   width="210mm"
   height="297mm"
   id="svg4153"
   version="1.1"
   inkscape:version="0.48.4 r9939"
   sodipodi:docname="eau.svg">
  <defs
     id="defs4155">
    <linearGradient
       id="linearGradient5846">
      <stop
         style="stop-color:#828282;stop-opacity:1;"
         offset="0"
         id="stop5848" />
      <stop
         style="stop-color:#0d0d0d;stop-opacity:0;"
         offset="1"
         id="stop5850" />
    </linearGradient>
    <linearGradient
       id="linearGradient5836">
      <stop
         style="stop-color:#363636;stop-opacity:1;"
         offset="0"
         id="stop5838" />
      <stop
         style="stop-color:#bcbcbc;stop-opacity:1;"
         offset="1"
         id="stop5840" />
    </linearGradient>
    <linearGradient
       id="linearGradient5640">
      <stop
         style="stop-color:#f19051;stop-opacity:1;"
         offset="0"
         id="stop5642" />
      <stop
         style="stop-color:#e4cc12;stop-opacity:1;"
         offset="1"
         id="stop5644" />
    </linearGradient>
    <linearGradient
       id="linearGradient5622">
      <stop
         style="stop-color:#0da157;stop-opacity:1;"
         offset="0"
         id="stop5624" />
      <stop
         style="stop-color:#867f1d;stop-opacity:1;"
         offset="1"
         id="stop5626" />
    </linearGradient>
    <inkscape:perspective
       sodipodi:type="inkscape:persp3d"
       inkscape:vp_x="-76.114981 : 739.47902 : 1"
       inkscape:vp_y="0 : 1000 : 0"
       inkscape:vp_z="651.1968 : 816.14282 : 1"
       inkscape:persp3d-origin="292.34816 : 384.86194 : 1"
       id="perspective4989" />
    <inkscape:perspective
       sodipodi:type="inkscape:persp3d"
       inkscape:vp_x="241.4131 : 654.81258 : 1"
       inkscape:vp_y="0 : 535.49132 : 0"
       inkscape:vp_z="617.549 : 695.86538 : 1"
       inkscape:persp3d-origin="431.96716 : 464.91822 : 1"
       id="perspective4989-0" />
    <linearGradient
       inkscape:collect="always"
       xlink:href="#linearGradient5836"
       id="linearGradient5842"
       x1="623.68951"
       y1="420.17477"
       x2="627.33917"
       y2="384.3967"
       gradientUnits="userSpaceOnUse" />
    <linearGradient
       inkscape:collect="always"
       xlink:href="#linearGradient5836"
       id="linearGradient5852"
       x1="677.76196"
       y1="431.16971"
       x2="472.62741"
       y2="396.42557"
       gradientUnits="userSpaceOnUse" />
    <linearGradient
       inkscape:collect="always"
       xlink:href="#linearGradient5836"
       id="linearGradient5864"
       x1="639.72437"
       y1="508.02747"
       x2="488.33664"
       y2="413.88074"
       gradientUnits="userSpaceOnUse" />
    <filter
       inkscape:collect="always"
       id="filter5881"
       x="-0.085275947"
       width="1.1705519"
       y="-0.2024279"
       height="1.4048558">
      <feGaussianBlur
         inkscape:collect="always"
         stdDeviation="6.2915304"
         id="feGaussianBlur5883" />
    </filter>
    <filter
       color-interpolation-filters="sRGB"
       inkscape:collect="always"
       id="filter5881-8"
       x="-0.085275948"
       width="1.1705519"
       y="-0.20242789"
       height="1.4048558">
      <feGaussianBlur
         inkscape:collect="always"
         stdDeviation="6.2915304"
         id="feGaussianBlur5883-0" />
    </filter>
    <filter
       color-interpolation-filters="sRGB"
       inkscape:collect="always"
       id="filter5881-8-5"
       x="-0.085275948"
       width="1.1705519"
       y="-0.20242789"
       height="1.4048558">
      <feGaussianBlur
         inkscape:collect="always"
         stdDeviation="6.2915304"
         id="feGaussianBlur5883-0-6" />
    </filter>
    <filter
       color-interpolation-filters="sRGB"
       inkscape:collect="always"
       id="filter5881-8-5-1"
       x="-0.085275948"
       width="1.1705519"
       y="-0.20242789"
       height="1.4048558">
      <feGaussianBlur
         inkscape:collect="always"
         stdDeviation="6.2915304"
         id="feGaussianBlur5883-0-6-8" />
    </filter>
    <filter
       inkscape:collect="always"
       id="filter5995">
      <feGaussianBlur
         inkscape:collect="always"
         stdDeviation="2.6255005"
         id="feGaussianBlur5997" />
    </filter>
  </defs>
  <sodipodi:namedview
     id="base"
     pagecolor="#ffffff"
     bordercolor="#666666"
     borderopacity="1.0"
     inkscape:pageopacity="0.0"
     inkscape:pageshadow="2"
     inkscape:zoom="2"
     inkscape:cx="626.72426"
     inkscape:cy="647.97017"
     inkscape:document-units="px"
     inkscape:current-layer="layer1"
     showgrid="false"
     inkscape:window-width="1366"
     inkscape:window-height="705"
     inkscape:window-x="-8"
     inkscape:window-y="-8"
     inkscape:window-maximized="1" />
  <metadata
     id="metadata4158">
    <rdf:RDF>
      <cc:Work
         rdf:about="">
        <dc:format>image/svg+xml</dc:format>
        <dc:type
           rdf:resource="http://purl.org/dc/dcmitype/StillImage" />
        <dc:title></dc:title>
      </cc:Work>
    </rdf:RDF>
  </metadata>
  <g
     inkscape:label="Calque 1"
     inkscape:groupmode="layer"
     id="layer1">
    <path
       style="fill:#000000"
       d="m 493.78901,448.41492 c -6.3487,-1.13036 -10.10736,-2.95719 -16.51021,-8.02448 l -4.80699,-3.8043 -6.10654,3.94685 c -8.12324,5.2503 -12.25335,6.20935 -24.8792,5.7772 l -10.62473,-0.36366 -8.72634,-5.33251 -8.72634,-5.33252 -6.16144,2.99682 c -9.01072,4.38267 -15.6377,5.5269 -28.78439,4.97 -21.51707,-0.91147 -32.93483,-8.00046 -34.52056,-21.43295 -0.83581,-7.07996 0.99232,-12.40592 6.27516,-18.28171 l 4.60475,-5.12159 -5.03826,-5.32722 c -5.71794,-6.04588 -11.06497,-14.10523 -13.52539,-20.38623 -1.41107,-3.60221 -1.67275,-8.33192 -1.67275,-30.23408 0,-24.1016 0.1855,-26.84242 2.58629,-38.21315 6.28705,-29.77708 16.67356,-52.65275 27.53236,-60.6384 10.13768,-7.45533 30.84041,-13.31749 53.88135,-15.25698 21.00135,-1.7678 67.43641,-0.633 82.35575,2.01265 38.64466,6.85286 62.55729,24.09642 67.68784,48.81018 0.72997,3.51624 0.96493,15.83329 0.68797,36.06499 -0.36804,26.88495 -0.69012,31.91236 -2.57701,40.22503 -3.24876,14.31234 -6.9691,20.90426 -17.78523,31.51293 -8.67825,8.5118 -9.10446,9.12342 -7.66533,11 0.83811,1.09289 2.65354,4.39974 4.03428,7.34857 2.15524,4.60291 2.44446,6.37149 2.04417,12.5 -0.54646,8.36621 -3.05726,13.96649 -8.72972,19.47143 -4.40268,4.27265 -12.70761,8.63305 -19.2243,10.09347 -6.9027,1.54693 -19.78481,2.05953 -25.62519,1.01966 z m 28.29677,-6.96578 c 8.4461,-3.17617 16.68846,-11.446 18.91723,-18.98028 1.94913,-6.58894 1.30378,-12.645 -1.84104,-17.2765 -2.0365,-2.99924 -2.58195,-3.22189 -7.84023,-3.2003 -6.336,0.026 -9.6832,1.87922 -13.48596,7.46663 -2.72724,4.00715 -2.78514,5.12773 -0.41613,8.05334 1.39988,1.72877 3.17478,2.37593 7.5,2.73461 7.30363,0.60567 7.43969,2.48852 0.41613,5.75846 -6.126,2.85206 -13.39301,3.21685 -17.87824,0.89744 -3.60697,-1.86523 -6.81835,-8.29813 -6.8498,-13.72121 l -0.022,-3.78752 -9.24801,0.28752 -9.248,0.28753 -0.69588,5.5 c -0.38274,3.025 -1.38808,7.44624 -2.23409,9.82497 -1.31334,3.69272 -1.34172,4.78913 -0.19413,7.5 1.93272,4.56554 4.79044,6.73107 12.40331,9.39902 8.65677,3.03379 21.49847,2.72287 30.7168,-0.74371 z m -66.89111,-1.45677 c 2.73453,-0.81207 6.14525,-2.72457 7.57937,-4.25 2.83597,-3.01655 12.81174,-22.29211 12.81174,-24.75534 0,-1.11176 -1.10228,-1.51817 -4.11765,-1.51817 -4.34453,0 -4.88451,0.42964 -14.97267,11.9131 -3.07868,3.5045 -4.161,4.0869 -7.59501,4.0869 -5.56117,0 -7.57796,-2.49189 -8.12376,-10.03747 l -0.43129,-5.96253 -5.62981,0.004 c -7.20187,0.005 -11.57352,2.55596 -14.16599,8.26692 -2.31012,5.08897 -2.51645,11.49534 -0.46457,14.42481 5.32592,7.60381 22.7688,11.49287 35.10964,7.82804 z m -55.59618,-4.24175 c 2.46801,-1.11197 5.6521,-3.31776 7.07575,-4.90176 4.22808,-4.70428 8.91154,-14.05164 8.91154,-17.78585 l 0,-3.43614 -7.55676,-0.32901 c -8.28034,-0.3605 -8.90797,-0.0137 -14.36119,7.93609 -3.7598,5.48106 -11.15562,7.9781 -18.55527,6.2648 -4.39315,-1.01719 -6.52678,-3.21431 -6.52678,-6.72102 0,-2.83626 1.39795,-2.9276 4.72713,-0.30887 3.39844,2.67322 5.91448,2.52037 10.46912,-0.636 5.92087,-4.10317 5.11725,-5.69233 -3.94625,-7.80371 -4.2625,-0.99297 -9.94857,-2.63023 -12.63572,-3.63834 -5.78169,-2.16908 -8.29805,-1.32402 -13.41651,4.50559 -7.68355,8.75107 -4.34173,20.28252 7.28317,25.13169 11.48476,4.79071 29.89525,5.61373 38.53177,1.72253 z m 112.43002,-16.80578 c -0.74884,-2.48821 -1.19238,-5.07571 -0.98565,-5.75 1.73885,-5.67155 1.60299,-6.72598 -0.8666,-6.72598 -3.72649,0 -5.59048,2.53964 -5.59048,7.61688 0,4.94712 3.24159,9.38312 6.85668,9.38312 1.84375,0 1.875,-0.24119 0.58605,-4.52402 z m -59.28892,1.27402 c 2.05476,-1.6721 5.84619,-7.28471 5.84619,-8.65437 0,-0.69418 -2.67646,-1.09563 -7.30449,-1.09563 l -7.30449,0 -0.24146,4.09217 c -0.1328,2.2507 0.28432,4.7257 0.92694,5.5 1.44764,1.7443 6.01803,1.8336 8.07731,0.15783 z m 49.84619,-18.18674 c 20.04437,-3.67967 33.38507,-9.83515 43.44689,-20.04668 7.25812,-7.3661 11.46478,-14.87504 15.15028,-27.04347 2.60972,-8.61647 2.73539,-10.06924 3.16193,-36.55204 0.37044,-22.99958 0.18,-28.61019 -1.14692,-33.78967 -2.2065,-8.61279 -5.72141,-15.65589 -12.11335,-24.27248 -3.00244,-4.04741 -5.46795,-7.92142 -5.4789,-8.60892 -0.011,-0.6875 -0.65756,-1.25 -1.43688,-1.25 -0.77932,0 -4.26682,-1.50631 -7.75,-3.34735 -8.81392,-4.65861 -13.66295,-6.09075 -34.83305,-10.2878 -18.12149,-3.59265 -19.08294,-3.67676 -46.99118,-4.11109 -17.40645,-0.27089 -32.67481,-0.005 -39.24441,0.68253 -21.18978,2.2187 -38.27408,8.221 -47.81489,16.799 -10.41426,9.36332 -22.775,40.34013 -27.04028,67.76471 -1.797,11.55422 -1.57134,35.33416 0.42138,44.40594 4.39296,19.99866 15.08513,32.06618 33.66938,38.00031 11.04837,3.52786 18.91434,3.94296 69.5,3.66765 41.49527,-0.22583 50.455,-0.53378 58.5,-2.01064 z m -77,-21.64448 c -42.62452,-5.16417 -61.05561,-25.8574 -57.20289,-64.22368 2.04299,-20.3446 7.09694,-33.36333 16.87564,-43.47081 4.96576,-5.13273 5.1172,-5.22271 1.4654,-0.87068 -10.08677,12.02087 -19.47015,50.17056 -16.20051,65.86587 3.80646,18.27218 17.85337,30.96217 40.56236,36.64405 15.47726,3.87248 24.09435,4.6372 52,4.61472 22.3568,-0.018 28.18652,-0.32245 33.89955,-1.77029 20.7658,-5.26265 33.17075,-17.67329 38.25502,-38.27257 2.36564,-9.58458 2.3592,-32.30616 -0.0119,-41.93539 -3.78505,-15.37144 -13.99439,-29.55749 -25.49378,-35.42404 -10.23309,-5.22053 -17.15243,-6.07651 -49.05885,-6.06895 -26.26373,0.006 -30.5411,0.23499 -38.05042,2.03512 -10.82492,2.59493 -21.3717,5.77884 -26.84003,8.10257 -6.16048,2.61787 -4.13895,0.35828 2.82407,-3.15665 14.23124,-7.1839 29.79862,-9.49054 63.97634,-9.47945 21.53583,0.007 27.72702,0.32343 33.05014,1.68926 15.82931,4.06154 27.107,10.31563 32.73602,18.1539 1.81797,2.53148 3.8719,7.21722 4.73776,10.80853 0.84068,3.48684 2.45059,9.59381 3.57758,13.57103 1.81691,6.41201 2.01222,9.47414 1.72379,27.02641 l -0.32529,19.79508 -3.41625,6.9736 c -4.5698,9.32834 -13.47921,18.09142 -23.23857,22.85689 -13.3357,6.51179 -16.06031,6.913 -48.84518,7.19258 -16.225,0.13836 -32.875,-0.15734 -37,-0.6571 z m -10,-8.96547 c -9.22545,-2.3821 -22.09652,-8.61104 -27.66209,-13.38703 -7.57547,-6.50076 -8.33791,-9.38008 -8.33791,-31.48766 0,-14.34989 0.4057,-20.86346 1.58419,-25.43428 4.95098,-19.20252 19.11241,-31.63075 41.41581,-36.34696 11.95098,-2.52711 63.383,-2.51142 75.48217,0.023 16.25512,3.40502 24.75949,10.23198 28.76907,23.09462 2.82719,9.06957 3.02647,30.14302 0.38758,40.98451 -5.62145,23.09482 -21.13107,37.57853 -45.63882,42.61996 -13.81056,2.84093 -54.9008,2.79971 -66,-0.0662 z m 67.13565,-3.80632 c 12.72775,-3.3449 29.86435,-13.08767 29.86435,-16.97895 0,-3.21437 -4.26258,-6.04422 -11.3386,-7.52748 -3.72579,-0.78099 -6.89744,-1.58211 -7.04812,-1.78027 -0.15069,-0.19816 -0.70342,-1.93529 -1.2283,-3.86029 l -0.95432,-3.5 -8.17404,-0.28978 c -7.43679,-0.26363 -8.35815,-0.52383 -10.21533,-2.88485 -1.12271,-1.4273 -2.04129,-3.91398 -2.04129,-5.52597 0,-1.61199 -0.46583,-3.8013 -1.03518,-4.86514 -0.95883,-1.79159 -2.24437,-1.93426 -17.42858,-1.93426 -13.56974,0 -16.66405,0.27067 -17.96481,1.57143 -0.86429,0.86428 -1.57143,2.19311 -1.57143,2.95295 0,2.44495 -2.08219,6.04585 -4.29506,7.42781 -1.184,0.73942 -5.70077,1.70208 -10.03727,2.13925 -9.4548,0.95314 -11.18863,2.23971 -12.08069,8.96438 -0.94988,7.1606 -1.28029,7.68654 -7.21315,11.48174 -2.95561,1.89068 -5.37383,3.84595 -5.37383,4.34505 0,1.20763 15.34011,8.62638 20.88806,10.10184 8.82471,2.3469 17.05869,2.89476 38.11194,2.5358 17.47241,-0.2979 22.93038,-0.74249 29.13565,-2.37326 z M 398.6667,348.89563 c 1.00808,-0.9123 2.99083,-4.68907 4.40611,-8.39284 1.41529,-3.70376 3.12219,-7.46851 3.79311,-8.36611 0.72107,-0.9647 4.3733,-2.23 8.93206,-3.0945 9.04991,-1.71617 10.69385,-2.48452 14.17994,-6.6275 2.24267,-2.66527 2.60786,-4.0376 2.60786,-9.80004 0,-8.34761 -1.47018,-10.71652 -7.24449,-11.67308 -6.2693,-1.03856 -7.41844,-1.96331 -8.15374,-6.56162 -1.24177,-7.76564 -1.47125,-7.91108 -12.48197,-7.91108 -11.6455,0 -11.95098,0.21323 -15.5764,10.87239 -7.98464,23.47583 -8.52599,44.1812 -1.35524,51.83446 1.85879,1.98386 2.97304,2.36071 5.68587,1.92301 1.85571,-0.2994 4.19881,-1.2908 5.20689,-2.20309 z m 122.80061,-16.40816 c 3.06161,-12.16668 3.24629,-13.8769 2.94255,-27.25 -0.30736,-13.5325 -0.47885,-14.57815 -3.32408,-20.26861 -2.60093,-5.20186 -3.33256,-5.95677 -5.5,-5.67503 -1.375,0.17874 -5.19847,0.41304 -8.49661,0.52068 l -5.9966,0.19571 -2.55803,6.40253 c -2.82372,7.06754 -3.61578,7.62381 -12.19936,8.56777 -7.42016,0.81601 -8.7494,2.20693 -8.7494,9.1554 0,3.90026 -0.5813,6.34056 -1.97743,8.30124 -1.9728,2.77055 -1.97258,2.7914 0.0976,8.9214 2.27603,6.73971 3.24373,7.56629 9.84342,8.408 5.00772,0.63867 20.43365,7.96662 26.53645,12.60591 2.2,1.67241 4.47585,3.05327 5.05745,3.06857 0.5816,0.0153 2.52744,-5.81381 4.32408,-12.95357 z M 466.2287,312.83402 c 4.00288,-1.89949 6.02087,-5.31935 7.3858,-12.51659 0.53719,-2.83261 1.44329,-5.71238 2.01354,-6.3995 0.57026,-0.68712 3.78013,-1.73253 7.13305,-2.32313 8.02033,-1.41275 10.25652,-3.02498 11.78938,-8.49983 1.85454,-6.62378 3.93868,-8.09057 11.09417,-7.80799 4.40485,0.17396 5.94114,-0.11054 5.94114,-1.10023 0,-0.88954 -4.25347,-2.31616 -12.75,-4.27637 -12.39046,-2.85857 -13.48319,-2.94075 -38.75,-2.91413 -24.98174,0.0263 -26.46997,0.13802 -38,2.8521 -6.6,1.5536 -13.99617,3.79127 -16.43594,4.97261 -9.52931,4.61412 -7.47481,8.6479 4.40456,8.6479 8.3206,0 11.53138,1.63788 11.53138,5.88239 0,3.153 2.76708,6.06684 8.11144,8.54165 3.76378,1.74289 5.88856,5.00268 5.88856,9.03412 0,1.4122 1.2388,3.40644 3.07673,4.95295 2.8834,2.42622 3.73785,2.58889 13.59887,2.58889 7.66718,0 11.45692,-0.44358 13.96732,-1.63484 z"
       id="path6010"
       inkscape:connector-curvature="0" />
    <path
       style="fill:url(#linearGradient5842);fill-opacity:1.0;stroke:#000000;stroke-width:1px;stroke-linecap:butt;stroke-linejoin:miter;stroke-opacity:1"
       d="m 495.93864,396.03542 c 56.66348,-27.22661 101.40941,-12.19513 152.43076,-14.18248 15.29303,3.40308 39.27023,5.65964 31.92177,21.30298 l -44.75986,12.40724 -100.60127,-2.86771 c -17.26621,-2.25937 -35.50864,-3.7655 -38.9914,-16.66003 z"
       id="path5834"
       inkscape:connector-curvature="0"
       sodipodi:nodetypes="cccccc" />
    <path
       style="fill:#707070;stroke:#000000;stroke-width:1px;stroke-linecap:butt;stroke-linejoin:miter;stroke-opacity:1;fill-opacity:1"
       d="m 644.31413,289.94966 -7.59009,11.62691 -52.17648,56.94452 -31.66153,42.21581 -2.40714,35.50498 21.92452,15.72364 26.6087,-10.04674 29.68811,-55.83256 34.52409,-65.17699 16.35123,-14.90429 c 0,0 -12.51282,-15.06036 -15.13682,-16.1138 -2.624,-1.05344 -20.12459,0.0585 -20.12459,0.0585 z"
       id="path5832"
       inkscape:connector-curvature="0" />
    <path
       style="color:#000000;fill:#000000;fill-opacity:1;fill-rule:nonzero;stroke:#000000;stroke-width:5;stroke-linecap:butt;stroke-linejoin:miter;stroke-miterlimit:4;stroke-opacity:1;stroke-dasharray:none;stroke-dashoffset:0;marker:none;visibility:visible;display:inline;overflow:visible;filter:url(#filter5662-0);enable-background:accumulate"
       d="m 638.00848,299.24693 c -2.54735,-6.60484 2.71888,-13.68941 12.13182,-12.56282 10.61786,3.15621 22.48491,7.75638 27.92264,18.12527 3.87047,11.84337 -12.46308,9.45205 -16.54163,16.34309 -5.07811,8.61428 -7.67747,18.45118 -12.379,27.29595 -8.03935,17.09426 -19.12934,32.49894 -27.18756,49.58412 -6.39768,12.81738 -14.48194,24.65609 -21.31025,37.22561 -4.41705,8.0911 -12.58325,13.69228 -21.78678,14.60775 -8.9743,1.21633 -19.44703,0.3874 -26.39104,-5.97966 -6.86798,-7.81138 -6.78537,-19.06237 -6.4196,-28.85486 3.16965,-19.82239 18.18037,-34.43378 29.39521,-50.11196 17.24329,-21.36566 37.13232,-40.4054 56.92892,-59.36135 2.78621,-2.95394 10.97842,-8.83087 5.04589,-1.88267 -5.91095,4.86256 -11.56261,9.92042 -16.77491,15.53743 -18.50128,17.84149 -36.34432,36.43177 -51.84237,56.98573 -9.5328,13.09045 -21.18025,27.00237 -21.06178,44.10757 0.44641,9.4677 1.09668,21.34486 10.58283,26.31998 13.57496,6.76693 33.13232,3.18792 40.1213,-11.27806 9.72394,-16.20054 19.51194,-32.38166 27.76405,-49.39561 8.59409,-15.83539 18.97454,-30.79806 25.45989,-47.70288 4.73955,-7.50972 4.77001,-19.26339 14.47321,-22.56169 10.33145,1.69827 14.0583,-12.90101 5.40788,-17.79767 -7.53857,-4.41666 -15.22726,-12.76478 -24.80489,-9.49997 -8.80103,2.21909 -5.54778,5.84494 -8.73383,10.8567 z"
       id="path5760"
       inkscape:connector-curvature="0"
       sodipodi:nodetypes="cccccccccccccccccccccccc" />
    <path
       style="color:#000000;fill:#000000;fill-opacity:1;fill-rule:nonzero;stroke:#000000;stroke-width:1.0222801px;stroke-linecap:butt;stroke-linejoin:miter;stroke-miterlimit:4;stroke-opacity:1;stroke-dasharray:none;stroke-dashoffset:0;marker:none;visibility:visible;display:inline;overflow:visible;filter:url(#filter5662-0);enable-background:accumulate"
       id="path5770"
       d="m 573.6224,366.84103 c -0.60372,-0.0862 -0.29449,-0.0442 -0.92778,-0.12536 0,0 -0.0713,-0.0381 -0.0713,-0.0381 l 0,0 c 0.42134,-0.0373 0.21164,-0.0254 0.62906,-0.0362 0,0 0.37002,0.19965 0.37002,0.19965 z"
       inkscape:connector-curvature="0" />
    <path
       style="fill:#e00000;fill-opacity:1;stroke:#f6d26d;stroke-width:1px;stroke-linecap:butt;stroke-linejoin:miter;stroke-opacity:1;filter:url(#filter5881)"
       d="m 505.87082,402.18051 c 0.67227,-2.8287 33.2663,-34.08088 33.2663,-34.08088 l 18.19454,44.5763 26.17498,-36.38284 35.00117,36.85104 c 0,0 31.14107,-35.60252 29.81823,-37.65088 -1.32285,-2.04837 4.03359,-14.72872 6.91783,-13.96789 2.88423,0.76082 29.62305,39.54318 27.58456,40.26498 -2.03848,0.72181 -14.48623,33.94432 -20.75348,34.27596 -6.26725,0.33164 -87.95834,-3.72607 -95.41832,-7.76427 -7.45998,-4.03821 -43.28522,-12.89494 -47.08027,-15.31396 -3.79504,-2.41902 -13.70554,-10.80756 -13.70554,-10.80756 z"
       id="path5867"
       inkscape:connector-curvature="0" />
    <path
       style="fill:url(#linearGradient5852);stroke:#000000;stroke-width:1px;stroke-linecap:butt;stroke-linejoin:miter;stroke-opacity:1;fill-opacity:1.0"
       d="m 493.87847,399.19575 c 49.51392,23.67305 193.9411,21.92713 186.91148,-4.85755 l 20.94866,10.69051 c -26.93675,34.00365 -59.98343,19.6643 -89.97514,29.49645 -43.16957,-7.1057 -86.34058,-2.53986 -129.50868,-21.53709 -2.5231,-15.56342 6.23924,-11.78291 11.62368,-13.79232 z"
       id="path5844"
       inkscape:connector-curvature="0"
       sodipodi:nodetypes="cccccc" />
    <path
       style="color:#000000;fill:#000000;stroke:#000000;stroke-width:5;stroke-linecap:butt;stroke-linejoin:miter;stroke-miterlimit:4;stroke-opacity:1;stroke-dasharray:none;stroke-dashoffset:0;marker:none;visibility:visible;display:inline;overflow:visible;filter:url(#filter5662-0);enable-background:accumulate;fill-opacity:1"
       id="path5812"
       d="m 561.1264,379.06268 c -1.02343,-0.40075 0.39756,0.14316 0.59023,0.22937 0.13392,0.0599 -0.27844,-0.0928 -0.41911,-0.13447 -0.37607,-0.11141 -0.7549,-0.18735 -1.14079,-0.25404 -0.60456,-0.0872 -1.21688,-0.11681 -1.82697,-0.0935 -0.45727,0.007 -0.90856,0.0826 -1.36029,0.14512 -0.42267,0.0672 -0.8474,0.0703 -1.27153,0.12208 -0.57657,0.0776 -1.15265,0.15724 -1.73027,0.22715 -0.82198,0.0872 -1.64308,0.18114 -2.46247,0.29006 -0.84232,0.10798 -1.68125,0.23955 -2.51856,0.38077 -0.64414,0.11871 -1.29532,0.18992 -1.94532,0.26689 -0.38397,0.0512 -0.77074,0.0736 -1.15661,0.10464 -0.41055,0.0345 -0.81695,0.10485 -1.22347,0.16979 -0.52507,0.0861 -1.04958,0.17643 -1.57239,0.27543 -0.62193,0.13987 -1.24866,0.25056 -1.87495,0.36684 -0.60914,0.10743 -1.21811,0.21598 -1.82359,0.34266 -0.51076,0.0848 -1.00857,0.23325 -1.51496,0.3327 -0.44125,0.0828 -0.88311,0.16121 -1.32236,0.25421 -0.52476,0.11297 -1.04893,0.21151 -1.56886,0.34423 -0.58298,0.15222 -1.16615,0.30378 -1.74981,0.45339 -0.40155,0.10502 -0.80396,0.20628 -1.21167,0.28439 -0.33111,0.0559 -0.66027,0.12238 -0.98921,0.1897 -0.39181,0.0865 -0.78522,0.16479 -1.17778,0.24779 -0.48335,0.0954 -0.96502,0.20024 -1.44517,0.3107 -0.49138,0.11727 -0.98189,0.238 -1.46962,0.36968 -0.4912,0.13859 -0.98304,0.27415 -1.47654,0.40429 -0.45206,0.12097 -0.90651,0.23259 -1.35807,0.35548 -0.42277,0.11653 -0.84664,0.22908 -1.27092,0.33999 -0.5366,0.15145 -1.07668,0.28813 -1.6213,0.40742 -0.55897,0.0915 -1.11419,0.20278 -1.67051,0.31347 -0.49384,0.10485 -0.99166,0.18568 -1.48767,0.27883 -0.50241,0.0913 -1.00136,0.20004 -1.50004,0.30954 -0.51115,0.0933 -1.01886,0.20319 -1.53104,0.29192 -0.5111,0.085 -1.02443,0.15366 -1.53436,0.24561 -0.61171,0.11862 -1.22202,0.24496 -1.82674,0.39539 -0.54524,0.1333 -1.08887,0.27341 -1.6361,0.39839 -0.46759,0.10038 -0.93381,0.20396 -1.39575,0.32803 -0.49822,0.13532 -0.99017,0.29211 -1.48435,0.44123 -0.4579,0.13752 -0.90724,0.30141 -1.35851,0.45888 -0.3605,0.12401 -0.7156,0.26305 -1.06568,0.41386 -0.32413,0.14038 -0.64399,0.29053 -0.9622,0.4438 -0.34151,0.1753 -0.67811,0.36001 -1.01582,0.54249 -0.33696,0.1755 -0.66097,0.37292 -0.97913,0.58012 -0.34775,0.19781 -0.66764,0.4443 -0.99554,0.67398 -0.29659,0.22109 -0.59712,0.43682 -0.88991,0.66296 -0.27088,0.20996 -0.53598,0.42736 -0.79523,0.6515 -0.25909,0.21889 -0.50723,0.45023 -0.7383,0.6985 -0.2713,0.29645 -0.47852,0.6426 -0.6799,0.9882 -0.23527,0.42015 -0.42099,0.86552 -0.55917,1.32631 -0.11185,0.39269 -0.12821,0.80068 -0.14012,1.20589 -0.009,0.53427 -0.0173,1.06831 0.003,1.60236 0.036,0.64214 0.19829,1.26543 0.38576,1.87752 0.13563,0.44277 0.29476,0.87787 0.53141,1.27698 0.20114,0.3334 0.48671,0.59755 0.77705,0.85168 0.47443,0.38836 0.99562,0.71444 1.51189,1.04331 0.59259,0.38437 1.19303,0.75651 1.79856,1.12011 0.5747,0.35218 1.16808,0.67148 1.77811,0.9577 0.76607,0.36104 1.58325,0.56945 2.40807,0.74312 -3.14232,-0.61102 0.65998,0.0548 1.24009,0.14778 1.4695,0.21542 2.91871,0.54265 4.37086,0.84941 0.72628,0.15984 1.44577,0.34847 2.15627,0.56778 0.78561,0.24216 1.5504,0.54488 2.32926,0.80636 1.08877,0.36034 2.19022,0.68052 3.28814,1.01142 1.0424,0.30606 2.08168,0.62277 3.12442,0.92821 0.99596,0.2901 1.98489,0.60343 2.98049,0.89467 0.89367,0.26252 1.79186,0.50819 2.69541,0.73423 0.96854,0.23079 1.93283,0.47653 2.89277,0.74065 0.4815,0.17794 3.99874,1.07094 1.13893,0.35265 -0.2085,-0.0524 0.42008,0.0916 0.63012,0.13741 1.32155,0.27949 2.65129,0.51771 3.98026,0.75863 1.3094,0.2469 2.62354,0.46424 3.94653,0.6233 1.21404,0.15441 2.43686,0.16785 3.65801,0.19396 1.01872,0.0123 2.03739,0.006 3.05593,0.0313 1.03123,0.04 2.06005,0.1224 3.09063,0.17516 1.02936,0.0594 2.06048,0.0701 3.09098,0.0954 0.99051,0.0188 1.977,0.11095 2.96279,0.20221 1.14358,0.11365 2.28831,0.21512 3.43377,0.30772 1.16997,0.0884 2.33987,0.17784 3.50773,0.29108 0.94652,0.0942 1.8911,0.20665 2.83426,0.32969 0.91232,0.13508 1.82903,0.22808 2.74931,0.28482 1.02312,0.0422 2.04751,0.0672 3.07143,0.0763 1.10455,-0.019 2.20761,0.0139 3.31281,0.0325 1.06242,0.0185 2.12427,0.0549 3.18514,0.11458 1.09302,0.0529 2.18118,0.16743 3.27122,0.26017 1.18835,0.10219 2.38096,0.13026 3.57295,0.15071 1.12102,0.0149 2.24215,0.011 3.36324,0.0119 0.88474,-0.003 1.76949,-0.003 2.65423,-0.005 0.71467,0.005 1.42927,-0.01 2.1439,-0.0141 0.72179,-0.006 1.4436,-0.007 2.16541,-0.005 0.87375,-8.9e-4 1.74751,-1e-5 2.62127,1.6e-4 0.96204,-9e-4 1.92409,-7e-5 2.88613,5.4e-4 1.1435,1.1e-4 2.28696,0.005 3.43035,-0.0134 1.04456,-0.0231 2.08766,-0.0862 3.12891,-0.17039 0.50574,-0.0493 1.02041,-0.0698 1.51033,-0.2149 0.29889,-0.12647 0.59116,-0.26237 0.89625,-0.37529 1.03807,-0.37866 2.14897,-0.52711 3.23999,-0.67266 0.85295,-0.12613 1.71341,-0.15609 2.57244,-0.19884 0.1458,-0.002 0.29225,-0.0115 0.43733,-0.0207 0.0345,0.003 0.15711,0.008 0.2156,0.008 0.52011,0.007 1.0396,0.009 1.55904,-0.0198 1.12743,-0.1523 2.21429,-0.48238 3.29826,-0.81576 1.2493,-0.39918 2.50749,-0.76894 3.7807,-1.08381 0.88646,-0.21759 1.78627,-0.36942 2.69184,-0.479 0.8542,-0.12136 1.71498,-0.10735 2.57314,-0.17349 0.89397,-0.0206 1.78532,-0.0832 2.67404,-0.17995 0.61916,-0.0681 1.23063,-0.18452 1.83871,-0.31688 1.12522,-0.24298 2.24341,-0.51663 3.36642,-0.76953 2.12877,-0.48391 4.28991,-0.78991 6.45491,-1.05444 1.75539,-0.16405 3.5176,-0.25904 5.2807,-0.26425 0.57212,-0.003 1.13678,-0.002 1.70108,0.0986 0.17427,0.0446 0.34836,0.0679 0.52781,0.0764 0.5256,0.0124 0.99627,-0.2644 1.45004,-0.49652 0.78669,-0.40401 1.58599,-0.77828 2.39972,-1.12469 0.8388,-0.35303 1.72306,-0.56851 2.61142,-0.75228 0.88034,-0.16838 1.76805,-0.28825 2.65028,-0.44687 0.77243,-0.14593 1.54673,-0.28059 2.323,-0.40428 0.70349,-0.1049 1.4006,-0.24212 2.09383,-0.40026 0.94319,-0.22496 1.88177,-0.46895 2.82039,-0.71216 0.91114,-0.2339 1.82035,-0.47117 2.73992,-0.67002 0.68416,-0.14882 1.3611,-0.32587 2.02743,-0.54066 0.61895,-0.20553 1.2161,-0.47025 1.8054,-0.74811 0.50464,-0.1896 0.99178,-0.4275 1.47483,-0.667 0.39309,-0.20543 0.76099,-0.45365 1.13153,-0.6962 0.38006,-0.23321 0.73592,-0.50106 1.0889,-0.7726 0.36042,-0.2725 0.69341,-0.57607 0.99791,-0.90938 0.31156,-0.36234 0.60537,-0.74375 0.82982,-1.16648 0.24644,-0.45716 0.29945,-0.97017 0.34377,-1.47826 0.042,-0.64183 0.0364,-1.28512 0.0354,-1.92791 0.0259,-0.58365 -0.0725,-1.15896 -0.18276,-1.72934 -0.0993,-0.51033 -0.28556,-0.99713 -0.48424,-1.47561 -0.1683,-0.43001 -0.38419,-0.83867 -0.61943,-1.23524 -0.24513,-0.432 -0.5567,-0.81904 -0.89151,-1.1838 -0.39917,-0.39549 -0.83053,-0.77355 -1.30101,-1.08146 -0.55645,-0.35367 -1.16109,-0.61882 -1.76842,-0.8707 -0.74689,-0.29937 -1.49813,-0.58773 -2.25619,-0.85759 -1.12843,-0.37605 0.26895,0.0906 1.04948,0.33964 0.13862,0.0442 -0.27395,-0.0984 -0.41268,-0.14227 -0.41637,-0.13164 -0.84405,-0.21742 -1.26834,-0.3186 -0.73438,-0.16678 -1.47802,-0.28726 -2.21956,-0.4168 -0.5924,-0.0731 -1.17598,-0.19161 -1.76554,-0.28775 -0.56499,-0.0918 -1.13167,-0.172 -1.69844,-0.25173 -0.59835,-0.11596 -1.20281,-0.19072 -1.80732,-0.27346 -0.64638,-0.093 -1.29685,-0.14494 -1.9485,-0.18153 -0.73978,-0.008 -1.4794,-0.048 -2.21664,-0.10925 -0.62697,-0.0595 -1.24664,-0.17254 -1.86549,-0.28613 -0.56736,-0.098 -1.13407,-0.19916 -1.6975,-0.31778 -0.56094,-0.12812 -1.11571,-0.2809 -1.67547,-0.41398 -0.72028,-0.0858 -1.42991,-0.25503 -2.1461,-0.37725 -0.72392,-0.0853 -1.44564,-0.18687 -2.16732,-0.29631 -0.64645,-0.0943 -1.29373,-0.18268 -1.9402,-0.27675 -0.69399,-0.10797 -1.38682,-0.22333 -2.08016,-0.33541 -0.9518,-0.14837 -1.90623,-0.27923 -2.86018,-0.41293 -0.87374,-0.12311 -1.74897,-0.23534 -2.62297,-0.35647 -0.62255,-0.088 -1.24507,-0.17741 -1.86455,-0.28514 -0.49997,-0.10556 -1.00282,-0.18057 -1.49594,-0.3133 -0.40762,-0.10711 -0.80984,-0.23311 -1.20574,-0.37741 -0.41363,-0.15612 -0.81483,-0.3422 -1.21736,-0.52435 -0.38042,-0.17673 -0.7666,-0.3399 -1.15883,-0.48841 -0.49524,-0.19505 -1.01367,-0.31258 -1.51547,-0.48742 -0.59772,-0.15816 -1.19957,-0.29921 -1.80517,-0.42331 -0.40549,-0.0829 -0.8088,-0.17614 -1.21541,-0.2535 -0.13119,-0.0252 -0.26261,-0.0487 -0.3926,-0.0792 -0.0109,4.3e-4 -0.0219,8.6e-4 -0.0329,0.001 -0.18894,-0.11947 -0.37787,-0.23894 -0.5668,-0.35842 0,0 -0.60692,-0.38428 -0.60692,-0.38428 l 0,0 c -0.17093,-0.11364 -0.34186,-0.22727 -0.5128,-0.3409 8.2e-4,0.005 0.002,0.0103 0.002,0.0154 0.11128,0.009 0.22497,0.031 0.33571,0.0526 0.41065,0.0827 0.82069,0.16777 1.22935,0.25993 0.60974,0.12519 1.22543,0.2197 1.82718,0.38201 0.51949,0.11187 1.01315,0.3011 1.51705,0.46786 0.39564,0.14405 0.78755,0.29758 1.16878,0.47695 0.40055,0.18408 0.80093,0.36914 1.20929,0.53541 0.39257,0.15446 0.79331,0.28615 1.20019,0.39791 0.4865,0.13303 0.95726,0.31083 1.45903,0.3863 0.62016,0.10989 1.24274,0.2052 1.86619,0.29446 0.87959,0.12408 1.76032,0.2399 2.63959,0.36614 0.95383,0.13401 1.90841,0.26327 2.86049,0.40933 0.6916,0.10481 1.38111,0.22274 2.07198,0.33227 0.64827,0.0992 1.2987,0.18264 1.94714,0.28062 0.71561,0.10662 1.43048,0.21083 2.13984,0.35012 0.70623,0.11852 1.43111,0.21229 2.10675,0.45146 0.55973,0.12664 1.11375,0.27441 1.67029,0.41409 0.56239,0.12863 1.13039,0.22952 1.699,0.3265 0.61843,0.1131 1.23566,0.23727 1.86144,0.30376 0.73675,0.0786 1.4765,0.096 2.21476,0.15278 0.65251,0.0316 1.30485,0.0705 1.95187,0.16518 0.61076,0.0793 1.21971,0.16457 1.83272,0.21574 0.56871,0.0805 1.13784,0.15809 1.70472,0.25082 0.58857,0.0917 1.1767,0.1645 1.75417,0.31165 0.74691,0.13412 1.49663,0.25441 2.23862,0.41428 1.49395,0.33889 2.94452,0.85441 4.39644,1.33388 0.75783,0.27506 1.51103,0.56313 2.25711,0.86871 0.61045,0.26187 1.21779,0.53799 1.77053,0.91036 0.46385,0.32072 0.93677,0.62311 1.29924,1.06749 0.33323,0.37912 0.63265,0.78588 0.88359,1.22462 0.22986,0.40788 0.43656,0.82606 0.611,1.26098 0.19922,0.49007 0.37116,0.99135 0.46645,1.51319 0.10936,0.59278 0.18555,1.19062 0.16567,1.79521 -3.8e-4,0.63807 7.8e-4,1.27664 -0.0246,1.91425 -0.034,0.53782 -0.0945,1.07896 -0.33661,1.56902 -0.23962,0.43125 -0.51659,0.83815 -0.83907,1.21251 -0.30127,0.34727 -0.62476,0.67185 -0.99296,0.94923 -0.34825,0.28096 -0.70135,0.55644 -1.08073,0.79484 -0.37529,0.24525 -0.74517,0.50073 -1.13803,0.71739 -0.49294,0.25934 -1.01117,0.46584 -1.49805,0.73662 -0.59927,0.27105 -1.19199,0.56019 -1.81704,0.76911 -0.67,0.2243 -1.35027,0.41722 -2.04343,0.55663 -0.90943,0.20182 -1.82104,0.39507 -2.72157,0.63437 -0.93488,0.24247 -1.86828,0.49078 -2.80547,0.72427 -0.69554,0.16398 -1.39604,0.30404 -2.10255,0.41249 -0.77649,0.12289 -1.5524,0.24979 -2.32435,0.39899 -0.88791,0.16025 -1.77823,0.3049 -2.66515,0.47033 -0.87992,0.17787 -1.75879,0.3775 -2.593,0.71711 -0.82037,0.33013 -1.62707,0.70052 -2.39457,1.1409 -0.468,0.24523 -0.94446,0.53752 -1.47884,0.59848 -0.18208,9.7e-4 -0.36606,0.0123 -0.54252,-0.0418 -0.55714,-0.12605 -1.13019,-0.19671 -1.70026,-0.2139 -1.77382,-0.0232 -3.54831,0.0648 -5.31481,0.22409 -2.15664,0.19955 -4.29896,0.53023 -6.41131,1.01321 -1.11144,0.2542 -2.21714,0.53205 -3.3285,0.78632 -0.61786,0.13797 -1.24016,0.25569 -1.86963,0.32743 -0.88872,0.10414 -1.78053,0.17565 -2.67549,0.19503 -0.8639,0.005 -1.71879,0.11301 -2.57881,0.18971 -0.90411,0.10298 -1.80403,0.2429 -2.69008,0.45305 -1.27826,0.29997 -2.53996,0.66052 -3.78895,1.06579 -1.06692,0.33725 -2.14467,0.72192 -3.26681,0.80908 -0.51251,0.042 -1.02487,0.0466 -1.53891,0.0439 -0.0593,-5.4e-4 -0.18429,0.008 -0.22256,0.002 -0.14913,-0.0154 -0.30239,-0.0147 -0.45317,-0.008 -0.87632,0.0226 -1.75215,0.11069 -2.6244,0.19281 -1.07051,0.13972 -2.1321,0.32043 -3.17934,0.58449 -0.32835,0.0958 -0.63973,0.22117 -0.95146,0.36007 -0.51696,0.16292 -1.06107,0.18421 -1.59806,0.22781 -1.05763,0.077 -2.11658,0.13725 -3.17682,0.1634 -1.14247,0.0252 -2.28508,0.0184 -3.42777,0.0182 -0.96127,5.9e-4 -1.92254,0.001 -2.88381,3.8e-4 -0.87319,8e-5 -1.74637,7.2e-4 -2.61956,3.9e-4 -0.72086,0.002 -1.44172,0.002 -2.16257,0.005 -0.71623,0.006 -1.43245,0.0117 -2.14869,0.0147 -0.89,-0.001 -1.78001,2e-5 -2.67001,-0.002 -1.12252,0.002 -2.24509,-4e-4 -3.36757,-0.0106 -1.19298,-0.0148 -2.38681,-0.0392 -3.57631,-0.13844 -1.08805,-0.0896 -2.17423,-0.19947 -3.26195,-0.29109 -1.05917,-0.0609 -2.11906,-0.10204 -3.1799,-0.12011 -1.10791,-0.0225 -2.21304,-0.009 -3.31995,-0.0374 -1.02707,-0.007 -2.0548,0.0186 -3.08118,-0.0409 -0.92293,-0.0515 -1.84333,-0.13264 -2.75742,-0.2737 -0.94762,-0.12685 -1.8963,-0.24572 -2.84765,-0.34153 -1.17039,-0.11915 -2.34302,-0.21382 -3.51641,-0.29825 -1.14185,-0.0917 -2.2828,-0.19366 -3.42333,-0.30053 -0.98477,-0.0976 -1.97111,-0.18885 -2.96087,-0.21506 -1.03113,-0.0281 -2.06288,-0.0374 -3.09319,-0.0913 -1.02968,-0.0543 -2.0581,-0.12923 -3.08802,-0.17877 -1.02159,-0.0319 -2.04342,-0.0267 -3.06537,-0.037 -1.21963,-0.0183 -2.44006,-0.0829 -3.65408,-0.20192 -1.32663,-0.15349 -2.64517,-0.36226 -3.95657,-0.6153 -1.33083,-0.24093 -2.66269,-0.47789 -3.98663,-0.75475 -1.75697,-0.37473 -3.50349,-0.79125 -5.23686,-1.262 -0.96036,-0.26401 -1.92714,-0.50197 -2.89496,-0.737 -0.901,-0.23014 -1.79709,-0.4781 -2.68913,-0.74091 -0.99331,-0.29479 -1.98219,-0.6042 -2.97686,-0.89444 -1.04303,-0.30879 -2.08361,-0.62447 -3.11815,-0.96029 -1.09934,-0.33124 -2.20115,-0.6551 -3.29089,-1.01716 -0.77783,-0.2602 -1.55779,-0.5138 -2.33691,-0.77032 -0.70845,-0.21172 -1.42461,-0.39678 -2.1476,-0.55225 3.19377,0.6684 -0.25691,-0.0677 -0.90616,-0.12861 -1.57282,-0.25217 -3.14711,-0.49978 -4.69838,-0.86865 -0.8259,-0.18433 -1.65348,-0.39487 -2.42108,-0.75917 -0.60776,-0.29513 -1.20056,-0.61899 -1.77499,-0.97508 -0.60574,-0.36718 -1.20605,-0.74309 -1.80223,-1.1256 -0.52006,-0.3382 -1.05285,-0.66293 -1.52074,-1.07336 -0.29525,-0.27397 -0.58611,-0.55428 -0.77932,-0.91335 -0.21322,-0.42183 -0.39079,-0.85877 -0.51891,-1.31452 -0.17975,-0.62923 -0.34014,-1.26617 -0.37697,-1.92261 -0.0169,-0.53822 -0.0145,-1.07704 -0.0105,-1.61554 0.0126,-0.42111 0.0377,-0.84429 0.15012,-1.25259 0.1424,-0.47414 0.33382,-0.93007 0.57238,-1.3644 0.20083,-0.36999 0.41349,-0.73579 0.68815,-1.05701 0.23092,-0.2551 0.47613,-0.49597 0.73677,-0.72102 0.26134,-0.22501 0.52379,-0.44886 0.7944,-0.66273 0.29803,-0.22689 0.59967,-0.44908 0.90509,-0.66589 0.33894,-0.24228 0.68816,-0.4719 1.01066,-0.73584 0.31941,-0.21243 0.64316,-0.41805 0.98367,-0.59553 0.33941,-0.18248 0.67653,-0.36927 1.01755,-0.5487 0.31636,-0.16041 0.63837,-0.30897 0.96205,-0.45398 0.35421,-0.15257 0.71053,-0.30093 1.07609,-0.42449 0.45348,-0.1555 0.90307,-0.3225 1.36064,-0.46593 0.49465,-0.14895 0.98746,-0.30385 1.48388,-0.44689 0.46381,-0.12666 0.9312,-0.23818 1.4024,-0.33414 0.54894,-0.12076 1.09486,-0.25384 1.6393,-0.39352 0.60904,-0.14613 1.2194,-0.28599 1.83482,-0.40315 0.50848,-0.0977 1.01969,-0.1766 1.53221,-0.2498 0.51675,-0.0843 1.03466,-0.17314 1.54035,-0.31024 0.49921,-0.1139 0.99963,-0.22253 1.50325,-0.31542 0.50152,-0.0921 0.99632,-0.21396 1.49865,-0.30253 0.56856,-0.10918 1.13442,-0.22612 1.69668,-0.36151 0.54381,-0.11469 1.0835,-0.24644 1.6179,-0.39936 0.42229,-0.11445 0.84505,-0.22707 1.26758,-0.34053 0.45521,-0.12301 0.91101,-0.24318 1.36988,-0.35201 0.49193,-0.12794 0.98085,-0.26702 1.47003,-0.40493 0.48895,-0.1359 0.98218,-0.25553 1.47546,-0.37455 0.47958,-0.11388 0.96169,-0.21542 1.44395,-0.31714 0.3938,-0.0763 0.78642,-0.15819 1.17794,-0.2454 0.33009,-0.0686 0.66,-0.13821 0.99278,-0.1928 0.40993,-0.0703 0.81521,-0.16217 1.2175,-0.26778 0.58535,-0.1501 1.17073,-0.29997 1.75585,-0.45093 0.53075,-0.13561 1.04886,-0.31033 1.58859,-0.41024 0.44095,-0.0872 0.88097,-0.17972 1.32413,-0.25522 0.49757,-0.0962 1.0059,-0.14333 1.49896,-0.27195 0.60805,-0.12617 1.21782,-0.24299 1.8305,-0.34474 0.63333,-0.1115 1.25915,-0.26303 1.88983,-0.38923 0.52231,-0.10255 1.04539,-0.20121 1.57164,-0.28172 0.40904,-0.0668 0.81829,-0.13557 1.23046,-0.18016 0.39154,-0.0395 0.78585,-0.0421 1.17678,-0.0907 0.65809,-0.0713 1.31683,-0.13964 1.97051,-0.24555 0.8462,-0.13432 1.69157,-0.27421 2.54249,-0.37658 0.82912,-0.0977 1.65855,-0.19244 2.48892,-0.27902 0.581,-0.0658 1.16068,-0.14269 1.74,-0.22196 0.44275,-0.0526 0.88217,-0.1176 1.32725,-0.1494 0.46148,-0.061 0.92324,-0.12416 1.38845,-0.14896 0.62936,-0.0171 1.25981,-3.1e-4 1.88415,0.0888 1.31697,0.21381 2.55912,0.68889 3.78289,1.21902 0,0 -1.45948,-0.31564 -1.45948,-0.31564 z"
       inkscape:connector-curvature="0" />
    <path
       style="fill:url(#linearGradient5864);stroke:#000000;stroke-width:1px;stroke-linecap:butt;stroke-linejoin:miter;stroke-opacity:1;fill-opacity:1.0"
       d="m 480.02113,410.06184 c -17.25403,13.03762 -10.02499,32.12591 -1.47465,51.54074 -0.45295,31.85403 26.77202,40.54169 44.49964,57.17862 35.26591,10.32523 69.08249,14.25691 100.31935,6.80838 26.98573,-4.17081 46.39886,-21.58786 67.92049,-36.55843 18.95697,-16.98242 15.05198,-42.50862 15.50548,-66.40601 -3.14497,-22.90661 -12.88006,-6.81802 -20.8836,-0.97541 l -84.68376,12.15362 -96.63273,-12.52428 z"
       id="path5854"
       inkscape:connector-curvature="0"
       sodipodi:nodetypes="cccccccccc" />
    <path
       style="color:#000000;fill:#000000;fill-opacity:1;stroke:#000000;stroke-width:5;stroke-linecap:butt;stroke-linejoin:miter;stroke-miterlimit:4;stroke-opacity:1;stroke-dasharray:none;stroke-dashoffset:0;marker:none;visibility:visible;display:inline;overflow:visible;filter:url(#filter5662-0);enable-background:accumulate"
       d="m 500.623,394.21619 c -7.67616,1.74216 -18.33115,4.99215 -19.24568,14.20744 -0.57293,9.16043 11.15719,10.70193 17.78966,13.0195 1.28694,-0.0682 12.21551,2.7263 13.51508,2.73179 10.60519,1.09896 20.95817,4.21533 31.7037,3.64934 6.52591,0.31769 9.83508,0.97072 17.58618,1.83784 4.47162,1.35102 11.63027,-0.2599 18.3286,0.85738 4.65217,0.49106 1.9337,0.33276 7.68359,1.10704 4.72872,1.03601 14.83769,0.7146 22.22711,0.75513 11.88401,-1.08139 23.86094,-1.23134 35.73029,-2.48388 12.26618,-2.22927 24.94815,-3.71414 36.48118,-8.6629 6.65657,-4.18978 16.50449,-7.76532 16.46232,-17.10752 -4.37364,-6.87828 -10.86719,-8.9051 -17.52304,-12.40702 -0.20966,-0.26495 1.98366,0.5628 -1.74186,-0.27805 -5.80047,-3.33038 12.28849,4.26767 6.85028,2.61816 6.45055,2.34565 18.47691,8.3711 12.56384,16.82911 -4.5094,6.73608 -12.82409,9.97501 -19.98729,13.21513 -17.28195,4.43978 -34.95221,7.5915 -52.83467,7.84205 -14.29173,1.22887 -28.85988,1.99224 -43.04804,-0.74813 2.75991,0.38489 -5.20801,-0.64357 -2.84089,-0.35449 -7.36855,-0.52768 -15.06921,0.47897 -22.08689,-1.30211 -6.13342,-0.72564 -10.48126,-1.4573 -17.02432,-1.34548 -10.09308,0.0986 -19.81015,-2.93375 -29.79643,-3.95508 -7.80961,-1.5482 -9.35921,-2.01897 -16.89363,-3.53609 -7.44218,-2.11838 -19.07994,-6.95826 -13.66476,-16.74244 4.10029,-6.15596 12.53227,-10.09861 19.7229,-9.76014 l 0.042,0.0137 8.2e-4,-3e-4 z"
       id="path5814"
       inkscape:connector-curvature="0" />
    <path
       style="color:#000000;fill:#000000;fill-opacity:1;stroke:#000000;stroke-width:5;stroke-linecap:butt;stroke-linejoin:miter;stroke-miterlimit:4;stroke-opacity:1;stroke-dasharray:none;stroke-dashoffset:0;marker:none;visibility:visible;display:inline;overflow:visible;filter:url(#filter5662-0);enable-background:accumulate"
       d="m 479.0491,406.62594 c -13.43977,19.78075 -8.35652,46.13936 2.62926,65.80837 8.61144,18.81936 23.44078,35.41702 43.1041,42.85264 24.1849,12.32792 52.27305,17.36374 79.08212,12.33036 27.24026,-2.2959 56.24776,-9.00753 75.84709,-29.45682 14.38862,-14.46704 28.08539,-32.88204 27.61245,-54.25326 0.033,-12.39759 -2.2187,-24.86626 -7.01131,-36.27587 3.59338,1.51303 7.29024,15.79323 8.07115,22.6022 1.99473,16.19449 0.44277,33.64711 -9.35936,47.2639 -12.37562,18.32824 -29.28179,34.56684 -50.58878,41.76888 -20.53376,7.43993 -42.5717,9.17805 -64.20605,10.4087 -20.31067,0.62103 -40.77525,-3.44739 -58.94424,-12.65189 -17.41981,-7.31136 -33.51951,-19.59546 -41.59434,-37.07892 -12.3602,-20.38432 -19.86155,-46.91684 -9.44671,-69.59955 1.08543,-1.75584 2.76002,-3.22668 4.80462,-3.71874 z"
       id="path5816"
       inkscape:connector-curvature="0" />
    <path
       style="fill:#e00000;stroke:#f6d26d;stroke-width:1px;stroke-linecap:butt;stroke-linejoin:miter;stroke-opacity:1;color:#000000;fill-opacity:1;fill-rule:nonzero;stroke-miterlimit:4;stroke-dasharray:none;stroke-dashoffset:0;marker:none;visibility:visible;display:inline;overflow:visible;filter:url(#filter5881-8);enable-background:accumulate"
       d="m 674.2656,467.6166 -75.85757,74.93111 110.96717,23.83906 z"
       id="path5885"
       inkscape:connector-curvature="0" />
    <path
       style="color:#000000;fill:#7d0000;fill-opacity:1;fill-rule:nonzero;stroke:#f6d26d;stroke-width:1px;stroke-linecap:butt;stroke-linejoin:miter;stroke-miterlimit:4;stroke-opacity:1;stroke-dasharray:none;stroke-dashoffset:0;marker:none;visibility:visible;display:inline;overflow:visible;filter:url(#filter5881-8-5);enable-background:accumulate"
       d="m 663.70452,479.57516 31.37962,84.02195 37.47337,-53.60862 -63.19295,-32.18858 0,0 -3.2529,0.7023 0,0 z"
       id="path5910"
       inkscape:connector-curvature="0" />
    <path
       style="color:#000000;fill:#e00000;fill-opacity:1;fill-rule:nonzero;stroke:#f6d26d;stroke-width:1px;stroke-linecap:butt;stroke-linejoin:miter;stroke-miterlimit:4;stroke-opacity:1;stroke-dasharray:none;stroke-dashoffset:0;marker:none;visibility:visible;display:inline;overflow:visible;filter:url(#filter5995);enable-background:accumulate"
       d="m 684.66569,471.58054 -75.85757,74.93111 110.96716,23.83906 z"
       id="path5885-2"
       inkscape:connector-curvature="0"
       transform="matrix(0.47920534,0,0,0.3820392,342.41391,326.22815)" />
    <path
       style="color:#000000;fill:#7d0000;fill-opacity:1;fill-rule:nonzero;stroke:#f6d26d;stroke-width:1px;stroke-linecap:butt;stroke-linejoin:miter;stroke-miterlimit:4;stroke-opacity:1;stroke-dasharray:none;stroke-dashoffset:0;marker:none;visibility:visible;display:inline;overflow:visible;filter:url(#filter5881-8-5-1);enable-background:accumulate"
       d="m 649.20671,471.06112 31.37961,84.02195 37.47338,-53.60862 -63.19295,-32.18858 0,0 -3.25291,0.7023 0,0 z"
       id="path5910-2"
       inkscape:connector-curvature="0" />
  </g>
</svg>
