<?xml version="1.0" encoding="UTF-8" standalone="no"?>
<!-- Created with Inkscape (http://www.inkscape.org/) -->

<svg
   xmlns:dc="http://purl.org/dc/elements/1.1/"
   xmlns:cc="http://creativecommons.org/ns#"
   xmlns:rdf="http://www.w3.org/1999/02/22-rdf-syntax-ns#"
   xmlns:svg="http://www.w3.org/2000/svg"
   xmlns="http://www.w3.org/2000/svg"
   xmlns:sodipodi="http://sodipodi.sourceforge.net/DTD/sodipodi-0.dtd"
   xmlns:inkscape="http://www.inkscape.org/namespaces/inkscape"
   width="210mm"
   height="297mm"
   id="svg4153"
   version="1.1"
   inkscape:version="0.48.4 r9939"
   sodipodi:docname="bois.svg">
  <defs
     id="defs4155" />
  <sodipodi:namedview
     id="base"
     pagecolor="#ffffff"
     bordercolor="#666666"
     borderopacity="1.0"
     inkscape:pageopacity="0.0"
     inkscape:pageshadow="2"
     inkscape:zoom="1.4107734"
     inkscape:cx="268.65254"
     inkscape:cy="642.07477"
     inkscape:document-units="px"
     inkscape:current-layer="layer1"
     showgrid="false"
     inkscape:window-width="1366"
     inkscape:window-height="705"
     inkscape:window-x="-8"
     inkscape:window-y="-8"
     inkscape:window-maximized="1" />
  <metadata
     id="metadata4158">
    <rdf:RDF>
      <cc:Work
         rdf:about="">
        <dc:format>image/svg+xml</dc:format>
        <dc:type
           rdf:resource="http://purl.org/dc/dcmitype/StillImage" />
        <dc:title></dc:title>
      </cc:Work>
    </rdf:RDF>
  </metadata>
  <g
     inkscape:label="Calque 1"
     inkscape:groupmode="layer"
     id="layer1">
    <path
       style="color:#000000;fill:#ffffff;fill-opacity:1;fill-rule:nonzero;stroke:none;stroke-width:50;marker:none;visibility:visible;display:inline;overflow:visible;enable-background:accumulate"
       id="path4161"
       d="m 203.16364,442.23305 c -0.23625,-5.02807 -2.64853,-9.05969 -5.84781,-12.76814 -4.32928,-4.19707 -10.01486,-8.00362 -15.99195,-9.31213 -7.50251,-1.72585 -15.23072,-1.97976 -22.89741,-1.90069 -4.46394,0.13434 -8.91532,0.48089 -13.34689,1.02552 -0.60576,0.0635 -1.20025,0.15623 -1.78769,0.30709 -0.2397,0.0616 0.96555,0.19545 0.73481,0.106 -0.69818,-0.27067 -1.41152,-0.50048 -2.11728,-0.75071 7.07271,2.07684 14.46723,2.1236 21.76043,1.74665 12.29225,-0.99917 23.85662,-5.11345 34.81843,-10.55364 9.41656,-5.14507 15.72092,-11.16078 21.46525,-20.1171 3.31391,-5.77357 5.15288,-12.12036 5.05441,-18.76894 -0.1819,-3.36025 -1.40843,-6.41516 -3.02271,-9.31335 -0.53108,-0.70796 -0.96625,-1.67664 -1.79031,-2.10895 3.49268,1.86228 4.12966,0.9113 2.06811,1.36578 -0.94505,0.46514 -1.43974,1.4764 -1.88498,2.375 -1.46057,3.53161 -2.18756,7.31291 -2.92616,11.04589 -1.55494,8.23579 -1.91861,16.61596 -1.95361,24.97622 0.37743,15.47638 3.4081,30.71825 6.34901,45.86708 4.09332,19.93044 8.52909,39.78792 12.74128,59.69316 3.87784,17.95551 7.15489,36.02899 9.96015,54.18072 1.91789,12.4694 3.73123,24.95399 4.9317,37.51459 0.40001,6.31404 0.9982,13.32985 -2.50193,18.98347 -0.61044,0.98602 -1.42765,1.82793 -2.14147,2.7419 -9.51145,8.31266 -22.58825,7.42747 -34.39751,7.31561 -16.46633,-1.67284 -32.37599,-6.4851 -48.04855,-11.59142 -9.47247,-3.52111 -20.05954,-6.86404 -26.76398,-14.95793 -1.07649,-1.29959 -1.88664,-2.79851 -2.82996,-4.19776 -4.15384,-8.35729 -5.02765,-17.75582 -3.0879,-26.86108 0.42518,-1.99581 1.0968,-3.93105 1.6452,-5.89658 5.40293,-14.55079 15.83027,-24.31638 27.53233,-33.92946 9.51988,-7.18912 19.97019,-13.06395 31.04438,-17.49516 6.87229,-2.74987 10.16888,-3.62151 17.22552,-5.81509 15.9654,-4.42369 32.3183,-7.1862 48.52818,-10.5288 8.64012,-2.00053 17.63703,-3.67397 25.25841,-8.43539 3.15423,-2.67299 4.10152,-5.31981 2.9206,-9.25592 -0.67867,-1.38982 -1.62089,-2.73942 -3.08265,-3.41233 -0.48079,-0.22133 -2.03872,-0.56909 -1.5346,-0.40782 2.79481,0.89409 3.16953,0.32842 0.34232,1.35582 -5.75618,3.3475 -7.88017,9.56312 -9.01491,15.76359 -0.48408,8.92876 2.71532,14.78864 8.57178,21.20428 3.3081,2.81041 8.45577,6.34748 13.05881,6.15116 0.27979,-0.0119 -0.65275,-0.61124 -0.4027,-0.73732 1.05055,-0.52972 2.2928,-0.52918 3.4392,-0.79377 5.52636,-2.17872 10.10565,-6.30472 12.08089,-12.02862 0.37768,-1.09445 0.53281,-2.25342 0.79921,-3.38013 0.75449,-8.89873 -4.32148,-15.91578 -9.9591,-22.22098 -4.43508,-4.38931 -9.69825,-7.78873 -15.71471,-9.55735 -4.22348,-1.24155 -3.15,-1.73232 -4.91597,-0.62821 -5.80995,0.35938 -12.79485,0.63461 -17.46944,4.59876 -0.10197,0.35614 -0.36192,0.70224 -0.30591,1.06844 0.50981,3.33311 9.84145,5.11075 12.212,5.63809 10.03984,0.64629 18.86033,-1.85569 28.11221,-5.42491 7.96327,-3.43398 15.4248,-7.96072 21.3469,-14.33916 0.40636,-0.53846 0.85304,-1.04873 1.21907,-1.61536 0.0174,-0.0269 0.98401,-1.51357 0.61108,-1.94298 -0.11581,-0.13335 -0.66855,0.0589 -0.51125,0.13918 3.66795,1.87302 4.16145,0.14743 2.07142,2.90026 -3.44833,6.3344 -4.91721,13.71558 -4.73939,20.90795 0.0439,1.77605 0.29904,3.54057 0.44856,5.31086 1.35179,7.04546 3.93061,14.97649 10.61015,18.77697 0.97903,0.55704 2.09718,0.82281 3.14577,1.23422 -0.26765,-0.17234 -1.08499,-0.36936 -0.80296,-0.51701 7.26488,-3.80358 -0.92244,2.88854 6.34736,-2.56098 3.67014,-2.75118 5.72466,-6.51686 7.85813,-10.45097 3.5807,-8.30346 5.13647,-17.30542 5.32084,-26.3075 -0.0691,-0.94453 -0.0706,-2.87406 -0.54811,-3.89022 -0.0858,-0.18265 -0.68592,-0.40276 -0.48959,-0.35612 1.28343,0.30493 2.7713,0.30167 3.78968,1.14016 0.43178,0.35552 -0.3413,1.06893 -0.43748,1.6199 -0.15337,0.87855 -0.20616,1.77172 -0.30924,2.65758 -0.15579,7.04088 1.83333,14.00465 6.10001,19.67162 0.93407,1.24062 2.04921,2.33395 3.07382,3.50093 3.5136,3.39762 7.6265,5.33918 12.26826,6.66669 2.9346,0.83928 7.83036,-0.83302 10.59708,-1.55803 8.3393,-3.3135 14.66445,-9.48787 18.38054,-17.64733 0.72569,-1.59339 1.23756,-3.27575 1.85634,-4.91362 1.65918,-6.5432 2.73319,-15.26772 -3.44781,-19.97931 -0.97891,-0.7462 -2.17967,-1.14428 -3.26951,-1.71642 -1.29665,-0.21919 -2.57792,-0.74648 -3.88997,-0.65757 -0.31694,0.0215 0.0907,0.78419 -0.18947,0.934 -1.3408,0.71698 -2.94943,0.8092 -4.31618,1.47537 -5.26754,2.56746 -7.56578,5.97289 -10.67285,10.67893 -4.4571,8.98101 -5.38484,19.20549 -1.72072,28.66568 0.7016,1.81143 1.71748,3.48487 2.57623,5.22731 4.04075,6.27903 8.97773,10.22343 16.07092,12.49703 0.15823,0.0507 0.32971,-0.0415 0.49452,-0.0627 1.5201,-0.19544 3.04014,-0.39146 4.5602,-0.58719 1.4918,-0.58995 3.0533,-1.02748 4.4754,-1.76985 9.2908,-4.85004 14.99968,-14.78535 20.50081,-23.24452 6.65221,-10.83176 13.25988,-21.09473 22.75616,-29.65022 3.88722,-2.54047 6.24256,-3.17886 11.05215,-0.56932 1.74771,0.94825 2.45051,8.48663 2.64886,10.01366 0.69445,10.21797 0.50228,20.43934 2.05719,30.5826 1.00552,4.03256 2.06994,9.11871 5.99996,11.44793 0.69031,0.40913 1.606,0.3552 2.26682,0.81043 0.4913,0.33846 -1.15601,-0.29559 -1.73402,-0.44338 0.94496,-0.30124 1.93411,-0.4886 2.83487,-0.90373 6.29348,-2.90042 12.03296,-9.93627 16.72124,-14.91958 4.0055,-4.06685 6.5066,-8.58563 13.09756,-5.19006 0.81981,0.42235 1.47156,4.97687 1.72193,6.29828 1.2809,8.34556 2.67101,17.16381 7.80123,24.15298 0.81981,1.11687 1.84042,2.07142 2.76064,3.10713 2.2282,1.5161 3.15339,2.62408 5.9262,2.79115 0.37266,0.0225 -1.18298,-0.41303 -0.90404,-0.66116 0.91467,-0.81366 2.30731,-0.86551 3.34691,-1.51194 1.2512,-0.77801 2.31723,-1.82034 3.47585,-2.73051 0,0 0.6673,0.0895 0.6673,0.0895 l 0,0 c -0.73348,1.46282 -1.70989,4.45785 -3.8052,4.92042 -2.63206,0.58108 -7.15113,0.64521 -9.94149,-0.74914 -1.08733,-0.54334 -1.98475,-1.40387 -2.97712,-2.10581 -0.92671,-1.06054 -1.95656,-2.03913 -2.78011,-3.18162 -5.09628,-7.06988 -6.46621,-15.92968 -7.88452,-24.30203 -0.27055,-1.25474 -0.43743,-2.5364 -0.81163,-3.76422 -0.21331,-0.69992 -3.30169,-5.10132 1.90391,-2.64091 0.64196,0.30342 -1.37601,0.42565 -1.9652,0.82191 -1.54911,1.04186 -4.32332,4.04995 -5.47523,5.23101 -4.75911,5.04519 -10.3928,11.99621 -16.6492,15.13894 -0.89952,0.45185 -1.88918,0.69588 -2.83376,1.04382 -2.27821,-0.12481 -4.57738,-0.0417 -6.83461,-0.37442 -5.30039,-0.78128 -7.17293,-8.55703 -8.11581,-12.70197 -1.489,-10.19713 -1.24459,-20.47049 -2.05632,-30.72659 -0.35476,-2.44446 -0.5695,-5.16733 -1.52356,-7.50328 -0.31374,-0.76818 -1.66814,-1.37987 -1.29945,-2.12324 0.37803,-0.76222 1.72141,-0.0824 2.52786,-0.35356 1.72273,-0.57928 -8.78613,1.27573 -5.1161,1.88573 -1.0888,0.91762 -2.23343,1.77282 -3.26641,2.75286 -8.04689,7.63452 -13.62742,17.40789 -19.6134,26.62098 -5.52459,8.54325 -11.22637,18.52076 -20.43433,23.64975 -1.41611,0.7888 -2.99176,1.24885 -4.48764,1.87328 -1.52818,0.23109 -3.04,0.74927 -4.58454,0.69329 -11.29273,-0.40928 -18.54588,-4.67179 -24.69802,-13.98391 -0.8487,-1.76601 -1.8618,-3.46206 -2.54612,-5.29803 -3.59203,-9.63723 -2.70265,-20.00734 1.80159,-29.13928 0.98612,-1.51766 1.82548,-3.14149 2.95835,-4.55299 6.69124,-8.33703 14.14332,-9.2286 24.27746,-6.92396 1.08934,0.61863 2.29513,1.06669 3.26803,1.85588 6.07495,4.92784 4.97997,13.63662 3.32171,20.28392 -0.6196,1.65559 -1.13362,3.35462 -1.85881,4.96675 -3.70455,8.23525 -10.12245,14.62279 -18.457,18.10717 -1.6315,0.45247 -3.2275,1.06144 -4.89451,1.3574 -9.43875,1.6757 -19.01708,-1.40219 -26.00033,-7.72073 -1.02151,-1.18839 -2.14466,-2.29646 -3.06454,-3.56515 -4.1951,-5.78584 -6.23404,-12.85608 -6.15912,-19.95207 0.0854,-0.90771 0.12467,-1.82096 0.25633,-2.72312 0.0887,-0.60762 -0.17173,-1.58228 0.40339,-1.79747 5.6514,-2.1145 5.37139,0.74908 5.58822,4.44509 -0.28396,9.04929 -1.92332,18.11236 -5.45146,26.48112 -2.65255,5.00576 -5.55123,10.15096 -10.97443,12.6202 -1.03902,0.47308 -2.13697,0.98516 -3.27862,0.99049 -2.44571,0.0114 -4.85106,-0.62747 -7.27659,-0.94121 -1.03753,-0.44789 -2.14654,-0.75732 -3.11258,-1.34369 -6.61283,-4.01387 -9.1367,-11.96806 -10.46782,-19.09882 -0.15242,-1.78699 -0.41244,-3.56805 -0.45724,-5.36096 -0.1818,-7.27583 1.30305,-14.68819 4.59759,-21.18352 0.40525,-0.58102 0.53622,-1.54294 1.21575,-1.74305 6.90969,-2.03476 6.31995,0.89522 3.54794,4.1248 -6.06176,6.3699 -13.58172,10.96655 -21.62726,14.45224 -12.23631,4.78742 -22.74127,7.09383 -35.88069,4.33725 -2.72586,-0.62811 -12.02008,-2.36705 -12.31945,-6.31825 -0.0341,-0.44941 0.26225,-0.86241 0.39338,-1.29361 4.75812,-4.13608 11.76748,-4.52272 17.76157,-4.90508 3.44683,0.40468 8.90448,0.79829 12.60621,1.87952 6.04512,1.7657 11.27699,5.37023 15.71884,9.75047 5.69775,6.42554 10.82112,13.5871 10.02916,22.61625 -0.27493,1.15245 -0.43943,2.33697 -0.8248,3.45734 -2.01772,5.86601 -6.57237,10.1747 -12.22622,12.49446 -1.15627,0.2912 -2.27694,0.839 -3.46881,0.8736 -8.02621,0.233 -14.54246,-1.56514 -20.46146,-6.96741 -5.88342,-6.56195 -9.04328,-12.52039 -8.53488,-21.5682 1.15427,-6.32287 3.27511,-12.60676 9.00423,-16.19709 5.0136,-1.86667 10.06737,-0.91607 12.34756,3.92633 1.13296,4.11836 0.16559,6.94912 -3.11111,9.75338 -7.57217,5.08773 -16.88292,6.5127 -25.58952,8.62588 -16.20958,3.35168 -32.56045,6.11693 -48.54115,10.48698 -2.87683,0.85664 -5.77973,1.63014 -8.63048,2.56993 -14.15758,4.66729 -27.62749,11.33333 -39.50722,20.38266 -11.84841,9.63122 -21.76358,18.90319 -27.28269,33.53378 -0.54183,1.90771 -1.2106,3.78384 -1.62549,5.72311 -1.92638,9.00422 -1.03662,18.32164 3.11368,26.56381 0.93807,1.37354 1.74551,2.84608 2.8142,4.12063 6.70832,8.00055 17.25409,11.26863 26.66026,14.78276 15.65339,5.10007 31.57111,10.00465 48.06094,11.35701 7.46617,0.80991 16.88831,-0.30242 23.3488,-4.51203 1.03604,-0.67507 1.90672,-1.57507 2.86008,-2.36261 0.69969,-0.88365 1.49648,-1.69843 2.09907,-2.65094 3.51338,-5.55359 2.99259,-12.50674 2.62581,-18.75104 -1.0821,-12.67754 -2.88072,-25.27405 -4.68688,-37.86568 -2.77084,-18.25146 -5.95277,-36.43608 -9.77599,-54.49941 -4.16434,-20.02101 -8.55401,-39.9947 -12.60618,-60.03879 -2.99696,-15.21453 -6.11933,-30.52161 -6.38439,-46.08457 0.0654,-8.37971 0.44007,-16.78384 1.9944,-25.03884 0.74314,-3.80945 1.49077,-7.65846 2.93077,-11.27813 0.48009,-1.00951 1.0045,-2.03754 1.96812,-2.66956 1.5637,-0.76708 4.2938,1.14021 5.24232,1.25809 0.69402,0.64419 1.20794,1.45117 1.69136,2.25834 1.65009,2.89988 2.71731,6.04341 2.8727,9.40342 -0.0171,6.67435 -1.87443,13.02682 -5.23396,18.81075 -5.69483,8.81134 -12.35527,15.31482 -21.71034,20.28057 -10.97794,5.48058 -22.59574,9.55968 -34.8906,10.72793 -7.25628,0.40569 -14.60212,0.38401 -21.67049,-1.55323 -0.64305,-0.22379 -8.66224,-2.27867 -3.31279,-2.91096 4.50587,-0.52877 9.03899,-0.85956 13.57674,-0.90018 7.74718,-0.049 15.52278,0.29365 23.10743,2.01446 8.88865,2.50012 15.44343,4.41282 22.13458,11.10097 3.20609,3.75942 5.6747,7.83654 5.99121,12.89779 0,0 -3.35778,-0.56089 -3.35778,-0.56089 z"
       inkscape:connector-curvature="0" />
    <path
       style="fill:#000000"
       d="m 161.01549,410.01133 0,-200 145.5,0 145.5,0 0,200 0,200 -145.5,0 -145.5,0 0,-200 z m 289.5,0 0,-198.5 -144,0 -144,0 -0.25648,197.5 c -0.14107,108.625 -0.0421,198.06403 0.21991,198.75339 0.37938,0.99813 29.75849,1.20179 144.25649,1 l 143.78008,-0.25339 0,-198.5 z m -225.75307,183.4513 c -0.13581,-0.11508 -2.49693,-0.45277 -5.24693,-0.75043 -2.75,-0.29766 -6.575,-1.18568 -8.5,-1.97339 -1.925,-0.78771 -4.38739,-1.74785 -5.47198,-2.13364 -1.29652,-0.46117 -1.57873,-0.94447 -0.82391,-1.41097 0.73188,-0.45233 -0.0805,-1.51486 -2.2408,-2.931 -2.3854,-1.56367 -3.22016,-1.7818 -2.8191,-0.73667 0.31337,0.81664 1.22318,1.4848 2.0218,1.4848 0.79861,0 1.17493,0.44835 0.83626,0.99633 -0.83287,1.34761 -5.63475,-1.21778 -10.49008,-5.60428 -4.1687,-3.76618 -9.38843,-14.73241 -10.42022,-21.89205 -0.46203,-3.20605 -0.13139,-2.70983 1.66579,2.5 2.74755,7.96484 8.99161,15.37301 12.12035,14.37999 2.27835,-0.72312 3.66651,-1.95207 5.51217,-4.87999 0.89475,-1.41941 1.10756,-1.50445 0.73309,-0.29295 -0.44648,1.44449 -0.15048,1.56366 1.9245,0.77475 1.87572,-0.71315 2.45213,-0.60474 2.45213,0.46116 0,2.49025 -1.18237,4.55704 -2.60699,4.55704 -0.76616,0 -1.3999,0.5625 -1.40832,1.25 -0.0107,0.87691 -0.2346,0.91765 -0.75,0.13649 -0.42429,-0.64305 -1.57968,-0.80848 -2.73469,-0.39153 -1.71887,0.62049 -1.54317,0.82331 1.25,1.44296 1.7875,0.39654 3.25,1.05389 3.25,1.46076 0,0.40688 2.25188,1.35298 5.00418,2.10246 3.16293,0.86129 5.57917,2.24023 6.5669,3.74769 1.32734,2.02578 1.8003,2.18784 3.14007,1.07593 1.3683,-1.13559 1.49006,-1.03408 0.91873,0.76602 -0.50965,1.60577 -0.0629,2.34654 1.97544,3.27525 2.25853,1.02906 2.55019,0.98159 2.04575,-0.33294 -0.56451,-1.4711 0.74126,-2.13236 2.84893,-1.44274 0.55,0.17996 2.98701,0.34575 5.41558,0.36843 6.37464,0.0595 6.13449,2.01647 -0.39263,3.19956 -3.041,0.5512 -5.64021,0.90803 -5.77602,0.79296 z m 15.25307,-3.39228 c 0,-2.41457 0.55611,-2.65816 1.34934,-0.59105 0.30982,0.80739 0.13296,1.73395 -0.39301,2.05902 -0.52598,0.32508 -0.95633,-0.33551 -0.95633,-1.46797 z m 3.99956,0.69098 c 5.3e-4,-0.90589 3.17978,-1.04061 21.97129,-0.93103 10.25621,0.0598 14.69331,-0.2656 15.23469,-1.11729 0.58547,-0.92108 0.76741,-0.9098 0.77915,0.0483 0.01,0.81255 1.59014,1.25 4.51531,1.25 2.475,0 4.49966,0.3375 4.49925,0.75 -4.1e-4,0.4125 -10.57561,0.75 -23.50044,0.75 -12.92483,0 -23.49949,-0.3375 -23.49925,-0.75 z m 59.61364,-0.0615 c 0.78587,-0.4463 1.18572,-1.20488 0.88854,-1.68573 -0.29718,-0.48085 0.92788,-0.45319 2.72236,0.0615 4.03185,1.15632 4.03028,1.15635 3.28001,-0.0576 -0.76439,-1.23681 4.51637,-1.0041 6.21801,0.27401 0.79566,0.59763 1.7802,0.35987 2.82143,-0.68136 1.85723,-1.85724 2.03342,-1.88714 4.27219,-0.72507 0.92634,0.48083 4.06745,0.55886 6.98024,0.17338 3.73134,-0.4938 5.79942,-0.31832 7,0.59396 1.10095,0.83657 4.96691,1.30607 10.9236,1.32662 7.40659,0.0255 9.91981,-0.36149 12.78042,-1.9682 3.9099,-2.19606 7.5,-2.62353 7.5,-0.89301 0,0.65539 0.71392,0.82023 1.75,0.40406 0.9625,-0.3866 2.37904,-0.95843 3.14788,-1.27072 1.05398,-0.42811 1.2726,0.0875 0.88867,2.09594 -0.3498,1.82986 -0.0831,2.66373 0.85212,2.66373 0.74873,0 1.36133,-0.44984 1.36133,-0.99965 0,-0.6192 3.04464,-0.83384 8,-0.56397 4.4,0.23963 8,0.0566 8,-0.40672 0,-0.46333 0.9,-0.60707 2,-0.31941 1.11819,0.29241 2,0.0307 2,-0.59362 0,-1.80582 11.01768,-1.4106 13.09545,0.46975 1.89533,1.71525 2.1694,0.22965 0.46238,-2.50632 -0.66406,-1.06434 -0.47995,-1.26415 0.73518,-0.79786 1.34457,0.51596 1.46927,0.22276 0.73105,-1.71892 -0.76762,-2.01898 -0.62415,-2.27146 1.04295,-1.83551 1.06314,0.27802 1.93299,1.15457 1.93299,1.94788 0,0.79331 0.4683,1.15296 1.04068,0.79921 0.57237,-0.35375 0.76789,-1.6178 0.43449,-2.80902 -0.41967,-1.49945 -0.32108,-1.7553 0.32044,-0.83155 0.72632,1.04588 1.36603,0.77567 2.95942,-1.25 1.11805,-1.42136 2.75555,-2.58429 3.63889,-2.58429 0.9045,0 1.60608,-0.82017 1.60608,-1.87756 0,-1.03265 0.675,-2.43775 1.5,-3.12244 0.825,-0.68469 1.5,-1.85067 1.5,-2.59106 0,-0.78575 0.62446,-1.10654 1.5,-0.77057 2.56947,0.986 1.95779,9.43724 -0.97447,13.46375 -1.36096,1.86883 -2.91018,4.37187 -3.44272,5.56231 -0.53253,1.19044 -1.98372,2.48673 -3.22486,2.88066 -1.24114,0.39392 -20.63492,0.76736 -43.09728,0.82988 -35.23009,0.098 -40.97043,-0.0916 -41.78535,-1.38066 -0.81957,-1.29639 -0.94672,-1.27992 -0.96001,0.12435 -0.0135,1.43186 -1.96666,1.60497 -16.92315,1.5 -9.29931,-0.0653 -16.26484,-0.48382 -15.47896,-0.93012 z m 116.84409,-7.61944 c 0.31644,-0.512 0.16515,-1.18441 -0.33619,-1.49426 -0.50134,-0.30984 -1.16956,0.10906 -1.48493,0.9309 -0.6217,1.62013 0.88076,2.0849 1.82112,0.56336 z m 8.54271,-5.12808 c 0,-0.58246 -0.45,-0.7809 -1,-0.44098 -0.55,0.33992 -1,0.81648 -1,1.05902 0,0.24254 0.45,0.44098 1,0.44098 0.55,0 1,-0.47656 1,-1.05902 z m -135.25,12.39674 c 0.6875,-0.27741 1.8125,-0.27741 2.5,0 0.6875,0.27741 0.125,0.50439 -1.25,0.50439 -1.375,0 -1.9375,-0.22698 -1.25,-0.50439 z m 82.94385,-3.9772 c -1.17975,-1.17975 0.28721,-2.17823 2.39168,-1.6279 1.58423,0.41428 1.76373,0.74758 0.749,1.3908 -1.6169,1.02494 -2.30117,1.0766 -3.14068,0.2371 z m -44.69385,-2.86052 c 0,-1.81015 -2.65389,-2.01301 -3.27057,-0.25 -0.33313,0.95238 -0.88869,0.8889 -2.33333,-0.2666 -1.04286,-0.83412 -2.7961,-1.49075 -3.8961,-1.45915 -1.1,0.0316 -3.02297,-1.08595 -4.27327,-2.48341 -1.2503,-1.39746 -3.35182,-3.66584 -4.67004,-5.04084 -1.31823,-1.375 -3.05633,-4.11938 -3.86245,-6.09862 -3.06331,-7.52121 -10.8408,-12.35482 -14.30514,-8.89048 -1.23793,1.23793 -15.2968,1.94746 -16.0013,0.80756 -0.27821,-0.45015 -1.38337,-0.81846 -2.45592,-0.81846 -4.19628,0 -8.51022,-6.25888 -9.46652,-13.73451 -0.15722,-1.22899 -1.11374,-3.92899 -2.1256,-6 l -1.83976,-3.76549 -6.33846,0.24577 c -6.20994,0.24078 -6.36139,0.18501 -7.46924,-2.75 -0.80078,-2.1215 -1.79638,-2.99577 -3.41154,-2.99577 -1.59098,0 -2.28076,-0.58702 -2.28076,-1.94098 0,-1.06754 -0.40015,-2.18829 -0.88922,-2.49055 -0.48907,-0.30227 -1.17957,-1.79132 -1.53444,-3.30902 -1.73413,-7.41653 -2.25257,-7.91798 -7.87229,-7.61427 -7.0757,0.38239 -9.35543,-1.5381 -9.45256,-7.96304 -0.0404,-2.67492 -0.8136,-5.89109 -1.76544,-7.34378 -0.93252,-1.42319 -1.132,-2.23758 -0.44393,-1.81233 0.96102,0.59394 1.0427,0.10281 0.35372,-2.12688 -1.36912,-4.4308 -0.81857,-28.56593 0.93297,-40.89915 0.85921,-6.05 1.50883,-11.675 1.4436,-12.5 -0.20905,-2.64407 1.44407,-8 2.46922,-8 0.5454,0 0.75628,-0.9 0.46862,-2 -0.28766,-1.1 -0.17139,-2 0.25837,-2 0.42976,0 1.03445,-1.26535 1.34376,-2.81188 0.3093,-1.54653 1.49277,-3.90903 2.62993,-5.25 l 2.06755,-2.43812 -1.93284,4.66472 c -5.08771,12.27872 -7.92023,27.62702 -8.74532,47.38748 -0.69132,16.55681 -0.2107,21.12828 2.55679,24.31923 1.68819,1.9465 7.87886,3.17919 6.74395,1.34286 -0.26708,-0.43215 0.26886,-0.87845 1.19098,-0.99179 0.92212,-0.11334 3.64841,-0.48769 6.05842,-0.83189 3.01506,-0.43062 6.03801,-0.0629 9.69146,1.17897 4.23664,1.44008 5.81442,1.57479 7.80762,0.66663 2.85663,-1.30157 4.67779,-6.43097 3.85648,-10.86195 -0.59455,-3.20761 -4.94945,-9.94924 -8.14858,-12.61447 -1.14885,-0.95712 -2.07867,-2.53212 -2.06627,-3.5 0.0336,-2.62361 9.5548,8.33677 11.70519,13.47453 0.97474,2.32887 2.23556,4.12887 2.80181,4 0.56626,-0.12888 1.20911,0.21568 1.42857,0.76568 0.21946,0.55 1.01601,1.61698 1.7701,2.37108 1.16143,1.16143 1.01945,1.61091 -0.92857,2.93964 -1.26481,0.86271 -2.66481,2.16769 -3.11111,2.89996 -0.4463,0.73226 -1.2338,1.07036 -1.75,0.75134 -0.5162,-0.31903 -0.93854,-0.1035 -0.93854,0.47896 0,0.58246 -0.86594,1.92496 -1.92431,2.98333 -1.05836,1.05836 -2.4242,2.85836 -3.03518,4 -1.2997,2.42851 -4.81975,2.7099 -7.59938,0.60749 -2.95713,-2.23666 -6.10802,-1.9044 -6.81084,0.7182 -0.94889,3.54074 -0.7425,4.75 0.81069,4.75 1.67638,0 3.05995,1.8324 2.10478,2.78757 -0.35998,0.35998 -1.07315,-0.007 -1.58482,-0.81653 -0.55214,-0.87306 -0.93654,-0.99268 -0.94563,-0.29428 -0.008,0.64722 1.40719,1.88639 3.14579,2.75372 2.95573,1.47451 3.38175,1.44678 6.55716,-0.42676 4.39286,-2.59185 7.31789,-2.53012 11.67007,0.24628 3.59417,2.29284 4.90105,4.45876 2.02425,3.35483 -4.80922,-1.84547 -9.22523,-1.74106 -13.25217,0.31334 -4.41399,2.25185 -4.46635,2.33833 -3.53012,5.83183 0.57636,2.15068 3.36971,3.25011 3.36971,1.32627 0,-0.50805 2.3625,-1.3925 5.25,-1.96545 l 5.25,-1.04173 -4.9596,0.47506 c -3.00821,0.28813 -4.58204,0.11596 -4,-0.4376 1.19362,-1.13521 10.4596,-1.9004 10.4596,-0.86376 0,0.41647 0.48214,0.75721 1.07143,0.75721 1.38448,0 3.92857,2.54409 3.92857,3.92857 0,0.58929 -0.39249,1.07143 -0.87219,1.07143 -0.47971,0 -1.16401,1.8249 -1.52067,4.05532 -2.04121,12.76506 11.46852,17.94691 25.99921,9.97236 6.17394,-3.38831 8.07326,-4.75605 17.9171,-12.90253 14.53304,-12.02713 24.32564,-30.80937 20.18426,-38.71347 -1.28962,-2.46134 -2.00562,-2.75834 -6.82425,-2.83077 -7.04285,-0.10585 -11.36673,-3.01295 -12.36054,-8.31042 -0.86795,-4.6266 -1.55846,-5.83101 -2.48423,-4.33309 -0.39122,0.63301 -0.77127,-0.44395 -0.84455,-2.39324 -0.14584,-3.87945 0.0276,-4.03102 2.8716,-2.50898 1.44957,0.77579 1.93426,2.10711 1.93426,5.31291 0,5.78099 3.84483,9.65876 9.55472,9.6366 4.99486,-0.0194 6.00778,-0.69337 7.91991,-5.26974 0.85372,-2.04322 1.66014,-3.71495 1.79206,-3.71495 0.13192,0 0.167,5.9625 0.0779,13.25 -0.16263,13.30924 -0.73019,16.13102 -4.77693,23.75 -2.99331,5.63565 -10.21177,14.55003 -14.58963,18.01736 -4.11739,3.26107 -7.97803,9.41735 -7.97803,12.72204 0,1.0005 0.9,2.46776 2,3.2606 1.1,0.79284 2,2.44062 2,3.66174 0,2.47643 1.60594,4.02045 2.23107,2.14505 0.24926,-0.74777 0.65713,-0.54051 1.07396,0.54571 0.40184,1.04719 0.27459,1.50572 -0.31648,1.14042 -1.38103,-0.85352 -1.24077,1.85486 0.16907,3.2647 0.87682,0.87682 0.84712,1.53174 -0.12245,2.7 -0.86877,1.04681 -0.91941,1.54238 -0.15761,1.54238 0.61734,0 1.12244,-0.4875 1.12244,-1.08333 0,-0.59584 0.5625,-0.89584 1.25,-0.66667 0.6875,0.22917 1.25,1.048 1.25,1.81964 0,1.84537 3.3977,2.45927 4.85622,0.87744 0.86758,-0.94094 0.84194,-1.07007 -0.10622,-0.53477 -0.68919,0.3891 -1.25,0.18196 -1.25,-0.4617 0,-0.70684 0.88769,-0.95059 2.25,-0.61782 1.2375,0.30228 3.12351,-0.0989 4.19113,-0.89159 1.06762,-0.79266 2.75512,-1.4412 3.75,-1.4412 1.28113,0 1.80887,-0.7582 1.80887,-2.59879 0,-1.63324 1.2075,-3.7436 3.25,-5.68007 1.7875,-1.69471 2.69265,-2.75188 2.01145,-2.34928 -0.85305,0.50418 -1.04317,0.22288 -0.61083,-0.90377 0.44204,-1.15193 0.84229,-1.28859 1.35315,-0.46199 0.9807,1.58681 5.79065,-3.26983 7.65316,-7.72745 1.03097,-2.46745 1.2357,-5.38383 0.75239,-10.7174 -0.52293,-5.77075 -0.29183,-8.30203 1.08778,-11.9145 0.96349,-2.52284 1.51304,-5.49998 1.22123,-6.61587 -0.72163,-2.75952 1.00427,-3.5919 3.2443,-1.5647 1.33062,1.2042 2.78144,1.48486 5.2661,1.01873 2.74287,-0.51456 4.01429,-0.16105 6.35038,1.76566 3.83488,3.16286 6.1748,3.9515 8.31918,2.80386 1.17669,-0.62974 3.80101,-0.38976 7.97884,0.72963 5.4012,1.44718 6.34392,1.47631 7.12036,0.22001 1.45393,-2.35251 2.39944,1.41855 1.21067,4.82865 -0.56129,1.61011 -0.6678,4.65368 -0.24398,6.9714 0.63766,3.48708 0.43112,4.39944 -1.35597,5.98985 -4.40321,3.91859 -13.01342,7.46886 -19.34663,7.97723 -4.51113,0.36211 -6.26158,0.90018 -6.26158,1.92473 0,0.83114 -0.48618,1.12163 -1.16994,0.69904 -0.74488,-0.46036 -0.97347,-0.20931 -0.62919,0.69099 0.67693,1.77017 -2.63327,8.12097 -3.72019,7.13738 -0.43964,-0.39784 -0.53075,0.0277 -0.20247,0.94567 0.33999,0.95072 -0.24622,2.6411 -1.36211,3.92773 -1.51759,1.7498 -1.67251,2.44828 -0.68754,3.09999 0.99965,0.66144 0.93754,1.10442 -0.29053,2.07227 -0.85909,0.67705 -1.85647,2.01592 -2.21642,2.97528 -0.35995,0.95935 -2.05663,2.59699 -3.77041,3.6392 -1.76101,1.07094 -2.57754,2.07441 -1.87777,2.30766 0.68101,0.22701 -1.19442,1.64755 -4.16762,3.15676 -2.97319,1.50922 -6.53081,3.62049 -7.90581,4.69173 l -2.5,1.94769 2.30656,0.63776 c 1.48043,0.40934 2.10722,1.15723 1.75,2.08813 -0.30611,0.7977 -0.55656,1.63856 -0.55656,1.86858 0,0.23001 -0.45,0.41821 -1,0.41821 -0.55,0 -1,-0.675 -1,-1.5 z m 10.50097,-28.50307 c 0.70305,-2.21511 -1.92848,-5.73226 -2.99623,-4.0046 -0.34253,0.55422 -0.36841,1.41924 -0.0575,1.92226 0.31089,0.50302 0.0328,1.09208 -0.61803,1.30902 -1.51403,0.50467 -0.15377,2.77639 1.66245,2.77639 0.75548,0 1.65968,-0.90138 2.00934,-2.00307 z m -32.50097,0.003 c 0,-0.55 -0.47656,-1 -1.05902,-1 -0.58246,0 -0.7809,0.45 -0.44098,1 0.33992,0.55 0.81648,1 1.05902,1 0.24254,0 0.44098,-0.45 0.44098,-1 z m 39.5,-4 c 0.34907,-0.56481 -0.46994,-1 -1.88197,-1 -1.375,0 -2.77811,0.45 -3.11803,1 -0.34907,0.56481 0.46994,1 1.88197,1 1.375,0 2.77811,-0.45 3.11803,-1 z m 6.5,-9.2019 c 0,-1.65421 -0.46417,-1.85506 -3,-1.2981 -3.40248,0.74731 -4.20872,-0.98159 -0.94134,-2.01862 1.95464,-0.62038 1.97606,-0.77944 0.42401,-3.14817 -0.89905,-1.37213 -1.39457,-3.12041 -1.10115,-3.88506 0.29343,-0.76465 -0.12109,-2.04486 -0.92114,-2.84491 -0.80005,-0.80005 -1.1683,-2.2008 -0.81834,-3.11278 0.41911,-1.09221 0.8709,-1.27854 1.32368,-0.54593 1.4652,2.37074 2.67387,-3.35254 1.4629,-6.92708 l -1.17981,-3.48255 -1.7798,5.64618 c -1.50838,4.78514 -1.60805,6.50139 -0.65358,11.25408 1.00315,4.99507 0.91086,5.99133 -0.8446,9.11678 -2.42571,4.31876 -2.42568,4.35802 0.003,4.17507 1.08565,-0.0818 2.25572,-0.84131 2.60016,-1.68785 0.49283,-1.21126 0.82007,-1.03551 1.53608,0.82498 0.75277,1.956 1.16707,2.15067 2.39984,1.12756 0.8195,-0.68012 1.49,-2.11724 1.49,-3.1936 z m 2.98469,-6.58991 c 0.008,-0.7105 -0.88469,-2.25785 -1.98469,-3.43856 -2.65228,-2.84689 -2.5399,-3.43908 1,-5.26963 1.65,-0.85325 3,-1.74162 3,-1.97416 0,-1.35768 -4.91634,-5.47023 -5.46947,-4.57524 -0.35671,0.57717 -0.34191,1.0494 0.0329,1.0494 0.3748,0 0.0639,0.74538 -0.69099,1.65639 -1.47329,1.77811 -1.91002,8.34283 -0.55505,8.34332 0.44956,1.6e-4 0.53174,0.90029 0.18261,2.00029 -0.34913,1.1 -0.20694,2 0.31598,2 0.52292,0 1.22823,1.0125 1.56736,2.25 0.51437,1.87694 0.77988,2.00129 1.60132,0.75 0.54159,-0.825 0.99161,-2.08132 1.00003,-2.79181 z m 9.01531,-9.45819 c 0,-0.4125 0,-1.425 0,-2.25 0,-0.825 -0.39375,-1.5 -0.875,-1.5 -0.48125,0 -0.875,1.14375 -0.875,2.54167 0,1.39791 0.39375,2.41041 0.875,2.25 0.48125,-0.16042 0.875,-0.62917 0.875,-1.04167 z m 13.77202,-5.74344 c -1.03419,-1.656 -1.33769,-1.68203 -3.45293,-0.29606 -3.03479,1.98847 -2.93885,2.66186 0.2647,1.85783 1.65908,-0.41641 2.35627,-0.28036 1.94806,0.38013 -0.37376,0.60477 -0.0156,0.79067 0.86915,0.45116 1.18776,-0.45579 1.26594,-0.96007 0.37102,-2.39306 z m -17.77202,-1.97196 c 0,-2.35503 -0.34581,-2.75693 -2,-2.32435 -1.11819,0.29241 -2,0.0307 -2,-0.59362 0,-0.61415 -0.45,-1.11663 -1,-1.11663 -1.60469,0 -1.15076,2.72817 0.56338,3.38595 0.85986,0.32996 1.25221,1.10341 0.87189,1.71879 -0.75706,1.22495 1.48365,3.0634 2.76698,2.27026 0.43876,-0.27117 0.79775,-1.77435 0.79775,-3.3404 z m 11.04507,0.4654 c 0.26761,-0.58825 -1.50089,-1.01145 -4.29507,-1.0278 -5.2031,-0.0304 -5.8382,0.65219 -2.67081,2.87071 1.63671,1.1464 2.55074,1.21167 4.29507,0.3067 1.21873,-0.63228 2.4206,-1.59961 2.67081,-2.14961 z m -19.04507,-1.5 c 0,-0.55 -0.45,-1 -1,-1 -0.55,0 -1,0.45 -1,1 0,0.55 0.45,1 1,1 0.55,0 1,-0.45 1,-1 z m -92.39583,-25.72917 c -0.3323,-0.33229 -0.56864,0.25834 -0.52522,1.3125 0.048,1.16495 0.28494,1.4019 0.60416,0.60417 0.28887,-0.72188 0.25335,-1.58438 -0.0789,-1.91667 z m 127.89583,92.72917 c -0.33992,-0.55 -0.14148,-1 0.44098,-1 0.58246,0 1.05902,0.45 1.05902,1 0,0.55 -0.19844,1 -0.44098,1 -0.24254,0 -0.7191,-0.45 -1.05902,-1 z m -17.5,-1.39301 c 0,-0.21616 0.675,-0.65203 1.5,-0.96862 0.825,-0.31658 1.5,-0.13972 1.5,0.39301 0,0.53274 -0.675,0.96862 -1.5,0.96862 -0.825,0 -1.5,-0.17686 -1.5,-0.39301 z m 40.5,-4.60699 c -1.90836,-0.82005 -1.8969,-0.86265 0.25,-0.92971 1.2375,-0.0387 2.25,0.37971 2.25,0.92971 0,0.55 -0.1125,0.96837 -0.25,0.92971 -0.1375,-0.0387 -1.15,-0.45702 -2.25,-0.92971 z m 3.16667,-1.66667 c -1.36711,-1.3671 -0.58992,-2.04131 1.82168,-1.58031 1.36859,0.26162 2.24203,0.87422 1.94098,1.36133 -0.64473,1.04319 -2.81231,1.16934 -3.76266,0.21898 z m -6.66667,-2.83333 c 0,-0.825 0.7301,-1.5 1.62244,-1.5 1.3288,0 1.39713,0.27149 0.37756,1.5 -0.68469,0.825 -1.41479,1.5 -1.62244,1.5 -0.20766,0 -0.37756,-0.675 -0.37756,-1.5 z m -215,-3.96482 c 0,-0.25565 0.88987,-0.94106 1.97749,-1.52314 1.61335,-0.86343 1.86987,-0.77784 1.39302,0.46482 -0.51799,1.34986 -3.37051,2.24553 -3.37051,1.05832 z m -7.5,-2.19196 c -1.95087,-1.55403 -1.93859,-1.57815 0.5,-0.98185 1.375,0.33623 2.8375,0.61747 3.25,0.62498 0.4125,0.008 0.75,0.46365 0.75,1.01365 0,1.48119 -2.22346,1.15668 -4.5,-0.65678 z m 239.79868,-1.67918 c 0.40232,-1.04844 0.13635,-1.66404 -0.71895,-1.66404 -0.74663,0 -1.29501,-0.7875 -1.21862,-1.75 0.10444,-1.31589 -0.48126,-1.66654 -2.36111,-1.41354 -1.98469,0.26711 -2.24966,0.0786 -1.2855,-0.91451 0.66798,-0.68802 2.24298,-1.36443 3.5,-1.50312 1.25703,-0.13869 2.38686,-0.28966 2.51075,-0.3355 0.12389,-0.0458 -0.20248,-1.20833 -0.72525,-2.58333 -0.52277,-1.375 -0.56412,-2.5 -0.0919,-2.5 2.10681,0 2.94406,12.35529 0.92194,13.60503 -0.78665,0.48618 -0.96074,0.1779 -0.53138,-0.94099 z m -5.29868,-0.10502 c 0,-0.24254 0.45,-0.7191 1,-1.05902 0.55,-0.33992 1,-0.14148 1,0.44098 0,0.58246 -0.45,1.05902 -1,1.05902 -0.55,0 -1,-0.19844 -1,-0.44098 z m -6.4159,-1.91758 c 0.34643,-0.90279 1.03173,-1.64144 1.52289,-1.64144 1.28596,0 1.10536,0.57887 -0.62988,2.019 -1.27335,1.05678 -1.41968,0.99492 -0.89301,-0.37756 z m -234.5841,-11.64144 c 0,-1.86667 0.26667,-2.13333 1.2,-1.2 0.93333,0.93333 0.93333,1.46667 0,2.4 -0.93333,0.93333 -1.2,0.66667 -1.2,-1.2 z m 244.5,-3 c 0.33992,-0.55 1.04148,-1 1.55902,-1 0.51754,0 0.94098,0.45 0.94098,1 0,0.55 -0.70156,1 -1.55902,1 -0.85746,0 -1.2809,-0.45 -0.94098,-1 z m -245.46601,-3.45904 c -0.75655,-0.91159 -0.95118,-2.64153 -0.51871,-4.61055 0.64266,-2.926 0.80999,-3.03368 2.33846,-1.5048 1.44821,1.44861 1.4658,1.759 0.14626,2.58004 -1.2405,0.77186 -1.28228,1.28461 -0.24153,2.96384 1.4402,2.32371 0.0987,2.76827 -1.72448,0.57147 z m 245.96601,-1.04096 c 0.68469,-0.825 1.41479,-1.5 1.62244,-1.5 0.20766,0 0.37756,0.675 0.37756,1.5 0,0.825 -0.7301,1.5 -1.62244,1.5 -1.3288,0 -1.39713,-0.27149 -0.37756,-1.5 z M 275.09882,543.6344 c 0.22917,-0.20727 3.56667,-0.62933 7.41667,-0.93791 5.37962,-0.43118 6.07407,-0.35728 3,0.31923 -4.04266,0.88967 -11.18531,1.31389 -10.41667,0.61868 z m 149.91667,-8.15452 c 0,-0.80774 0.675,-1.46862 1.5,-1.46862 0.825,0 1.5,0.40186 1.5,0.89301 0,0.49116 -0.675,1.15203 -1.5,1.46862 -0.91371,0.35062 -1.5,0.002 -1.5,-0.89301 z m -245,-2.46862 c 0,-0.55 0.45,-1 1,-1 0.55,0 1,0.45 1,1 0,0.55 -0.45,1 -1,1 -0.55,0 -1,-0.45 -1,-1 z m 246,-2.01561 c -0.825,-0.52457 -1.03809,-0.96066 -0.47352,-0.96908 1.16173,-0.0173 1.3847,-9.00719 0.22352,-9.01212 -1.70281,-0.007 -0.57041,-4.42791 1.88032,-7.34044 l 2.63033,-3.12597 -0.7674,3.48161 c -0.42207,1.91489 -1.04322,6.7302 -1.38033,10.70069 -0.51727,6.0925 -0.847,7.07024 -2.11292,6.26531 z m -243.24475,-2.48432 c 0.26285,-1.375 1.10044,-2.5 1.86133,-2.5 1.83456,0 1.75299,1.48758 -0.18801,3.42857 -2.08662,2.08662 -2.23407,2.0048 -1.67332,-0.92857 z m -1.6763,-1.91667 c -0.0434,-1.05416 0.19292,-1.64479 0.52522,-1.3125 0.33229,0.33229 0.36781,1.19479 0.0789,1.91667 -0.31923,0.79773 -0.55619,0.56078 -0.60417,-0.60417 z m -2,-9 c -0.0434,-1.05416 0.19292,-1.64479 0.52522,-1.3125 0.33229,0.33229 0.36781,1.19479 0.0789,1.91667 -0.31923,0.79773 -0.55619,0.56078 -0.60417,-0.60417 z M 247.6185,514.178 c -0.28327,-0.45834 0.12038,-0.83334 0.89699,-0.83334 0.77661,0 1.18026,0.375 0.89699,0.83334 -0.28326,0.45833 -0.68691,0.83333 -0.89699,0.83333 -0.21008,0 -0.61373,-0.375 -0.89699,-0.83333 z m 177.77997,-1.74128 c 0.61436,-1.32538 1.45452,-2.4133 1.86702,-2.41759 1.04276,-0.0108 0.94599,-4.76475 -0.10533,-5.17447 -0.47043,-0.18333 -0.27966,-1.90833 0.42393,-3.83333 l 1.27924,-3.5 0.0761,5.55064 c 0.0766,5.58563 -1.46971,10.54156 -3.54094,11.34905 -0.8227,0.32074 -0.8227,-0.19947 0,-1.9743 z m -245.38298,-1.22734 c 0,-1.53742 0.44346,-1.96511 1.58385,-1.5275 0.87111,0.33428 1.20861,0.88789 0.75,1.23025 -0.45862,0.34236 -1.17135,1.02973 -1.58385,1.5275 -0.4125,0.49777 -0.75,-0.0558 -0.75,-1.23025 z m 207.47734,-1.29473 c -1.08754,-1.08643 -5.30111,-5.22163 -9.36349,-9.18933 -4.06239,-3.96769 -8.087,-8.28046 -8.9436,-9.58392 -1.52361,-2.31847 -1.79113,-2.3568 -12.31812,-1.76524 -5.91838,0.33258 -11.27143,0.72405 -11.89566,0.86993 -1.89428,0.44269 -5.00458,-4.55559 -8.00164,-12.85869 -1.56361,-4.33184 -2.8681,-6.86357 -2.89887,-5.62607 -0.10195,4.09939 -1.71903,2.33342 -2.96614,-3.23924 -1.90052,-8.49242 -1.17934,-17.86071 2.07191,-26.91466 3.76516,-10.48507 3.89419,-18.25549 0.3583,-21.57728 -2.64645,-2.48622 -8.59546,-3.85979 -17.14759,-3.95921 -6.21579,-0.0723 -7.34617,1.04503 -8.26741,8.17172 -0.55745,4.31241 -0.25955,6.24082 1.64129,10.62483 2.62335,6.05036 2.11192,7.57679 -2.90802,8.67936 -1.98287,0.43551 -3.71401,1.83437 -5.02968,4.06427 -1.1034,1.87012 -2.29922,3.38484 -2.6574,3.36606 -2.88486,-0.15129 -16.58088,-3.99584 -17.49468,-4.91085 -1.32589,-1.32765 -1.47331,-12.61648 -0.27968,-21.41715 0.56191,-4.14302 0.47661,-5.66532 -0.29089,-5.19098 -0.59728,0.36914 -1.08597,0.18496 -1.08597,-0.40929 0,-0.59425 -1.2375,-1.59947 -2.75,-2.23381 -1.5125,-0.63435 -3.875,-2.43222 -5.25,-3.99527 -1.99363,-2.26629 -3.43493,-2.8814 -7.11591,-3.03685 -3.98734,-0.1684 -4.97032,0.20836 -7.2184,2.7667 -1.43137,1.62891 -2.61671,3.22047 -2.63409,3.5368 -0.0174,0.31633 -2.47447,2.34133 -5.4602,4.5 -7.78248,5.62669 -10.69879,13.02809 -7.0396,17.86598 1.31022,1.73226 1.92685,1.46366 1.58662,-0.69113 -0.0651,-0.4125 0.30502,-0.75 0.82256,-0.75 1.79858,0 1.82076,1.51884 0.0694,4.75239 -1.31604,2.42985 -2.00922,2.93566 -2.74088,2 -2.64954,-3.38827 -4.48131,-14.75239 -2.37793,-14.75239 0.49038,0 1.16423,-1.08628 1.49746,-2.41396 0.33322,-1.32767 2.51951,-3.88344 4.85841,-5.67948 5.6938,-4.37226 7.58562,-6.82887 6.9958,-9.08432 -0.36362,-1.3905 -1.04335,-1.70786 -2.61723,-1.22197 -3.02047,0.93249 -9.60383,4.30259 -13.12603,6.71938 l -3,2.05847 1.77964,-2.05055 c 0.9788,-1.1278 3.53979,-2.84427 5.6911,-3.81437 3.62009,-1.63244 5.76276,-4.11304 4.57696,-5.29883 -0.27465,-0.27465 -1.10266,10e-4 -1.84001,0.61326 -2.27686,1.88963 -7.76438,1.82246 -8.84486,-0.10826 -0.52922,-0.94565 -1.61485,-1.71937 -2.41252,-1.71937 -0.93764,0 -1.45031,-1.03746 -1.45031,-2.9349 0,-1.6142 -0.48972,-4.2017 -1.08827,-5.75 -0.59855,-1.54831 -1.05922,-5.3801 -1.02373,-8.5151 0.072,-6.35966 2.87344,-18.8 4.23357,-18.8 1.16003,0 1.12455,0.30777 -0.5453,4.72976 -3.51522,9.30884 -2.80811,18.23181 1.87307,23.63605 l 2.48238,2.86581 5.28414,-2.94496 c 4.52482,-2.52178 5.83581,-3.98654 9.12325,-10.19337 2.1115,-3.98663 4.01543,-7.07208 4.23094,-6.85657 0.21552,0.21551 -0.97752,3.65104 -2.65119,7.63449 -3.12108,7.42839 -3.45148,11.13174 -1.06338,11.91896 1.03705,0.34185 1.19457,-0.28579 0.67055,-2.67168 -0.43257,-1.96945 -0.29215,-3.11849 0.38109,-3.11849 1.24826,0 3.15761,-4.28175 7.10226,-15.92692 l 2.85451,-8.42691 6.06805,0.24765 c 3.33744,0.13621 6.06806,-0.0567 6.06806,-0.42873 0,-0.37201 -1.125,-2.01336 -2.5,-3.64746 -1.375,-1.63409 -2.5,-3.61155 -2.5,-4.39436 0,-2.17809 -2.69779,-1.69282 -4.4433,0.79924 -0.85618,1.22237 -1.5567,1.76237 -1.5567,1.2 0,-0.56238 0.53544,-1.55795 1.18988,-2.21239 1.29931,-1.29931 1.96366,-3.60051 1.93721,-6.71012 -0.0156,-1.83134 0.0669,-1.85242 0.97764,-0.25 1.39337,2.4515 2.9482,2.19702 7.46713,-1.22218 2.63178,-1.99131 5.11456,-2.98136 7.52315,-3 4.06891,-0.0315 5.93221,1.59882 8.25438,7.22218 1.66251,4.02595 2.7257,4.56938 4.57656,2.33923 2.21314,-2.66667 2.42494,-8.12369 0.4335,-11.1687 -1.0227,-1.56375 -1.3021,-2.49971 -0.6209,-2.07992 0.8336,0.51372 1.05239,0.27817 0.66919,-0.72044 -0.31314,-0.81603 -1.32049,-1.43838 -2.23854,-1.383 -0.91806,0.0554 -3.78201,-0.87531 -6.36434,-2.06823 -5.98405,-2.76436 -12.80486,-2.95884 -12.80486,-0.36511 0,0.99211 -1.54099,3.29742 -3.42442,5.12291 l -3.42441,3.31907 1.38052,-3.8729 c 0.75929,-2.1301 1.40028,-4.45713 1.42442,-5.17118 0.0834,-2.46746 -5.78101,-3.88097 -14.95008,-3.60345 -7.48798,0.22665 -9.20341,0.5991 -10.99061,2.3863 -1.29249,1.29249 -2.82213,1.89415 -3.92539,1.54399 -1.01698,-0.32277 -2.36038,0.0923 -3.07129,0.94885 -0.695,0.83742 -1.66243,1.52258 -2.14984,1.52258 -1.22558,0 -6.8689,5.12395 -6.8689,6.23673 0,3.06427 -6.88012,5.73105 -9.10624,3.52964 -0.76657,-0.75805 -2.20019,-1.68374 -3.18583,-2.05708 -2.6121,-0.98942 -5.6606,-8.47362 -5.68597,-13.95929 -0.0121,-2.6125 -0.47196,-4.75 -1.02196,-4.75 -0.55,0 -1,-0.86786 -1,-1.92857 0,-1.06072 -0.5625,-2.52322 -1.25,-3.25 -0.71353,-0.7543 -1.3246,-4.32568 -1.42382,-8.32143 -0.0956,-3.85 0.0499,-6.2125 0.32332,-5.25 0.76962,2.70914 1.63311,2.13504 4.51997,-3.00513 4.98942,-8.88388 20.08854,-21.32388 30.71622,-25.30675 23.47649,-8.79816 38.37902,-9.00449 61.24442,-0.84794 11.47573,4.09362 14.73609,4.64362 16.58239,2.79732 0.61187,-0.61188 1.71438,-0.90791 2.45,-0.65786 1.37477,0.46731 -6.09034,4.77036 -8.27582,4.77036 -0.65615,0 -4.01799,-1.33475 -7.47077,-2.9661 -11.65021,-5.50447 -18.37913,-7.33538 -28.72415,-7.81575 -10.59228,-0.49185 -17.65303,0.54428 -29.77017,4.36861 -13.71842,4.32971 -29.04645,16.44704 -35.57707,28.12487 -3.33744,5.9679 -3.48598,6.57548 -1.97657,8.08489 0.89763,0.89763 1.63205,1.13612 1.63205,0.52998 0,-1.61329 6.33611,-10.55556 11.2141,-15.82668 7.17164,-7.74961 25.06964,-17.06115 36.42332,-18.94945 4.87406,-0.81064 17.12308,0.72749 24.00316,3.01411 5.8229,1.93526 15.72612,6.6356 16.19275,7.68552 0.18334,0.4125 1.19584,0.75 2.25,0.75 1.73974,0 2.39855,-1.08943 2.01031,-3.32433 -0.0787,-0.45338 0.27952,-0.56308 0.79617,-0.24377 0.51665,0.31931 1.0903,0.16103 1.27478,-0.35173 0.18448,-0.51276 1.68541,-1.24775 3.33541,-1.63332 l 3,-0.70102 -4.09893,4.37709 c -2.25441,2.40739 -5.55896,6.68753 -7.34346,9.5114 -2.64631,4.18768 -3.88396,5.23809 -6.71262,5.69712 -3.53416,0.57352 -12.33996,5.53165 -12.3432,6.94989 -9.9e-4,0.42972 1.46071,0.69454 3.24821,0.58847 1.7875,-0.10607 4.7125,0.14059 6.5,0.54813 4.30237,0.98091 4.11168,0.0847 -0.5,-2.34984 l -3.75,-1.9797 3.55,-0.0442 c 1.9525,-0.0243 4.05205,-0.54625 4.66566,-1.15986 0.82088,-0.82088 0.96706,0.56628 0.55324,5.25 -0.30933,3.50111 -0.93015,6.51025 -1.3796,6.68697 -0.44945,0.17672 -0.426,1.07672 0.0521,2 0.4781,0.92328 1.61222,4.57558 2.52028,8.11623 1.50788,5.87951 5.0013,11.06246 7.45632,11.06246 0.44823,0 0.59669,3.05062 0.32991,6.77915 -0.38795,5.42214 -0.16341,7.04609 1.12169,8.11263 2.02952,1.68435 2.26718,1.02623 3.03059,-8.39178 1.22425,-15.10345 6.92936,-30.63475 13.50391,-36.7624 l 3.47372,-3.2376 -2.7443,3.39256 c -6.59935,8.15823 -11.25819,21.92838 -12.30077,36.35744 -0.53412,7.3921 -0.39945,8.75 0.86776,8.75 1.17106,0 1.63815,-1.91886 2.12995,-8.75 1.12743,-15.66011 4.4601,-24.86731 12.70427,-35.09823 4.72168,-5.85955 5.25695,-7.2542 1.99166,-5.18924 -0.953,0.60267 -1.71359,0.54359 -2.15291,-0.16724 -1.01025,-1.63463 -9.01524,3.39072 -12.33572,7.74409 -2.43967,3.19857 -6.61768,12.61064 -6.36285,14.33399 0.30041,2.03164 -1.5817,7.11984 -2.34957,6.35197 -0.53288,-0.53288 -0.46384,-2.04596 0.16935,-3.71138 0.90261,-2.37403 0.85052,-2.63038 -0.33463,-1.6468 -1.14196,0.94774 -1.52076,0.57932 -2.03185,-1.97612 -3.08535,-15.42674 3.67044,-28.73504 18.55844,-36.55846 9.8332,-5.1672 16.55858,-11.88716 17.44508,-17.43101 0.61019,-3.81595 0.7776,-4.02733 1.54552,-1.95146 0.47366,1.28042 0.59012,3.773 0.2588,5.53906 -0.61801,3.29428 -0.27505,3.69399 9.205,10.72822 0.71976,0.53406 2.28891,-0.3012 4.25,-2.26229 3.04994,-3.04994 4.03715,-5.19978 2.16059,-4.7051 -2.97582,0.78446 -11.81635,-8.62365 -10.07501,-10.72184 0.49993,-0.60238 0.59721,-1.58083 0.21617,-2.17434 -1.32753,-2.06774 -14.75536,-9.93662 -23.60628,-13.83356 -10.89299,-4.79605 -13.94014,-7.26088 -16.15905,-13.07099 -2.36453,-6.19145 -1.28184,-6.55086 1.45977,-0.4846 2.54223,5.62512 4.982,7.40649 18.61145,13.58891 15.84358,7.18678 23.10732,12.79547 31.19298,24.08565 2.35702,3.29114 4.57051,5.33798 5.80833,5.37101 1.97349,0.0527 1.97427,0.0728 0.0589,1.52156 -2.59206,1.96054 -5.67738,1.9406 -4.9205,-0.0318 1.30833,-3.40944 -0.61701,-1.13997 -3.16192,3.72708 -2.45397,4.69308 -6.47648,18.59123 -6.47648,22.37677 0,0.81243 -0.92785,2.73213 -2.06188,4.26599 -2.53883,3.43395 -1.8944,6.89496 2.07503,11.14425 1.5341,1.64226 2.5086,2.98592 2.16555,2.98592 -0.34304,0 0.37642,0.70052 1.59879,1.5567 1.22238,0.85619 2.22251,2.04408 2.22251,2.63976 0,2.09343 3.09587,3.31033 7.52544,2.95803 2.46101,-0.19573 4.47456,-0.7764 4.47456,-1.29037 0,-0.51397 0.76769,-2.10613 1.70598,-3.53814 1.94112,-2.96252 7.40982,-17.80457 7.67353,-20.82598 0.096,-1.1 0.70907,-2.95333 1.36235,-4.11852 0.65327,-1.16518 0.9758,-2.33049 0.71672,-2.58957 -0.25908,-0.25908 1.66925,-1.53113 4.28518,-2.82677 2.61593,-1.29565 5.8413,-3.28034 7.16749,-4.41043 1.32619,-1.13009 2.07495,-1.4725 1.66391,-0.76091 -0.41104,0.7116 -0.31792,1.8366 0.20694,2.5 0.52485,0.66341 0.80209,3.4562 0.61608,6.2062 -0.85547,12.6479 -2.81962,18.45973 -6.86086,20.30104 -1.39553,0.63585 -2.53732,1.80807 -2.53732,2.60494 0,0.79687 -1.06439,2.28611 -2.36532,3.30942 -2.84083,2.2346 -4.41426,6.2771 -2.45207,6.29991 1.04484,0.0121 1.03227,0.19591 -0.0607,0.8882 -0.75796,0.48009 -1.0689,1.37319 -0.69098,1.98469 1.04562,1.69184 -0.59487,1.32117 -3.9309,-0.8882 -1.65,-1.09275 -4.2517,-1.98979 -5.78155,-1.99341 -4.18386,-0.01 -14.55957,3.77045 -18.41079,6.70791 -5.15139,3.92916 -5.76598,5.71955 -3.07692,8.96353 6.43418,7.76193 12.26607,13.32197 13.97333,13.32197 1.05268,0 1.644,0.43681 1.31405,0.97068 -0.96766,1.56571 4.32056,2.4081 6.05915,0.96519 2.71994,-2.25735 0.91787,-6.17072 -6.32727,-13.74033 -1.7875,-1.86755 -3.25,-3.5695 -3.25,-3.78212 0,-0.21262 1.59911,-1.05473 3.55358,-1.87136 1.95447,-0.81663 5.207,-2.84767 7.22784,-4.51342 4.0479,-3.33662 5.7501,-3.85615 4.83685,-1.47624 -0.32764,0.85381 0.0375,2.54131 0.81141,3.75 2.65568,4.14757 2.37417,8.23396 -0.89954,13.05805 -1.9091,2.81321 -2.12815,3.63955 -0.96482,3.63955 1.18946,0 1.28313,0.41465 0.44672,1.97749 -0.86343,1.61335 -0.77784,1.86987 0.46482,1.39302 0.8377,-0.32147 1.52311,-1.21134 1.52311,-1.9775 0,-0.76615 0.37396,-1.39301 0.83102,-1.39301 0.45706,0 1.4331,-1.125 2.16898,-2.5 1.52371,-2.84708 3.41212,-3.39357 2.59162,-0.75 -0.29873,0.9625 -0.8089,4.86767 -1.13369,8.67816 -0.3248,3.81049 -1.21141,8.73026 -1.97026,10.93283 -0.75884,2.20257 -1.10948,4.44192 -0.77918,4.97635 0.33029,0.53442 0.15176,0.69433 -0.39673,0.35534 -0.54849,-0.33899 -2.51099,1.40395 -4.36112,3.8732 -1.85013,2.46924 -3.91629,4.27754 -4.59147,4.01845 -1.24266,-0.47685 -6.35917,11.29255 -6.35917,14.62787 0,0.91837 -0.4683,1.95919 -1.04068,2.31294 -0.57237,0.35375 -0.78949,1.4346 -0.48248,2.40189 0.31213,0.98342 -0.33118,2.88937 -1.45932,4.32357 -1.10964,1.41067 -2.01752,3.01888 -2.01752,3.5738 0,0.55491 -0.5625,1.27143 -1.25,1.59227 -1,0.46666 -1,0.7 0,1.16666 1.8878,0.88098 1.49957,2.44967 -0.42361,1.71168 -1.29035,-0.49516 -1.51935,-0.24024 -1,1.11317 0.37049,0.96547 0.67361,1.94359 0.67361,2.17361 0,0.23001 0.75,0.41821 1.66667,0.41821 2.23869,0 1.43775,0.57362 -1.92893,1.38145 -2.68778,0.64494 -2.74999,0.56393 -2.30737,-3.00473 0.64075,-5.16604 -0.87549,-12.26629 -3.09298,-14.48378 -1.24392,-1.24391 -3.84656,-2.04554 -7.70806,-2.37413 l -5.83003,-0.4961 0.71139,7.23865 c 0.39127,3.98125 1.16653,7.80114 1.7228,8.48864 0.93154,1.1513 0.3776,1.66228 -1.48349,1.36842 -0.4125,-0.0651 -0.75,0.29902 -0.75,0.80923 0,0.51021 1.79195,1.71826 3.98211,2.68456 4.34073,1.91512 4.39386,2.63203 0.23008,3.10451 -5.55128,0.62992 -7.21219,1.34437 -7.21219,3.10233 0,0.97952 0.43229,2.21324 0.96065,2.7416 0.52836,0.52836 3.65087,8.99087 6.93891,18.80557 3.28804,9.81471 6.23825,18.10492 6.55601,18.42269 0.31777,0.31777 1.0204,0.13512 1.5614,-0.40588 1.12289,-1.12289 -1.47982,-10.51551 -7.85165,-28.33489 -4.09599,-11.45479 -4.75541,-15.02372 -1.67542,-9.06766 1.91837,3.70971 8.54419,22.77785 11.03932,31.76952 0.95388,3.4375 2.12503,6.25 2.60256,6.25 1.99201,0 0.53865,-7.50965 -4.63011,-23.92416 -3.01767,-9.58329 -5.27764,-17.6332 -5.02215,-17.88869 0.81644,-0.81644 5.41356,12.12709 10.49341,29.545 3.23831,11.10358 5.85609,14.33288 4.68345,5.77751 -0.44491,-3.24595 -6.73754,-24.47115 -10.15695,-34.25966 -0.24016,-0.6875 -0.0182,-1.25 0.49321,-1.25 0.51144,0 1.58204,2.1375 2.37912,4.75 0.79709,2.6125 2.38895,7.45 3.53748,10.75 1.14853,3.3 3.24104,9.9375 4.65001,14.75 2.34581,8.01234 4.44446,11.32234 4.43823,7 -0.003,-2.3156 -4.39418,-18.77151 -7.60499,-28.50182 -1.40687,-4.2635 -2.38461,-8.27181 -2.17276,-8.90736 0.52241,-1.56725 7.45988,18.5776 10.1264,29.4048 1.27405,5.17318 2.66448,8.74742 3.40387,8.75 2.3457,0.008 1.28337,-5.64868 -4.31844,-22.99562 -3.17806,-9.84138 -5.36238,-18.35402 -4.44485,-17.32226 0.73699,0.82875 6.20695,17.65142 10.10328,31.07226 1.15765,3.9875 2.39848,7.2509 2.75741,7.25199 0.35893,10e-4 0.75397,2.72078 0.87787,6.04374 0.15842,4.24871 -0.10688,5.83646 -0.89395,5.35002 -3.35886,-2.07589 3.73039,6.80117 10.12358,12.67661 4.1002,3.76814 7.24,7.06607 6.97734,7.32873 -0.26266,0.26267 -1.36737,-0.41133 -2.4549,-1.49777 z m -41.47734,-23.82831 c 0,-1.64737 -12.19234,-36.54437 -13.11051,-37.52501 -1.1995,-1.2811 -1.16061,5.97282 0.044,8.21357 0.51344,0.95504 3.08206,8.14893 5.70805,15.98643 2.85347,8.51643 5.29435,14.25 6.06648,14.25 0.7106,0 1.29198,-0.41625 1.29198,-0.92499 z m -50.4342,-44.12291 c 0.6635,-5.8437 7.4736,-32.45138 12.40105,-48.4521 3.91277,-12.70575 4.33231,-15.44797 2.47263,-16.1616 -0.83915,-0.32201 -1.75284,-0.35837 -2.03042,-0.0808 -0.78424,0.78424 -11.32372,41.12619 -13.48133,51.60247 -2.20423,10.70263 -2.48934,16.49379 -0.78404,15.92536 0.62903,-0.20968 1.26898,-1.48468 1.42211,-2.83334 z m -10.5658,1.54132 c 0,-4.34264 4.11132,-24.65216 8.46481,-41.81532 3.04435,-12.00205 5.53519,-22.68955 5.53519,-23.75 0,-2.79605 -2.48015,-2.36447 -3.86381,0.67234 -3.79916,8.33824 -12.97262,46.088 -13.14285,54.08418 -0.22377,10.51097 -0.11666,11.31538 1.50666,11.31538 0.825,0 1.5,-0.22796 1.5,-0.50658 z m 6.91349,-9.74342 c 4.29301,-18.30062 9.09662,-37.1135 11.04328,-43.25 2.67364,-8.42818 3.1878,-11.76906 2.07762,-13.5 -0.85517,-1.33333 -1.12777,-1.33333 -2.45343,0 -2.55503,2.56981 -15.58096,56.53529 -15.58096,64.55076 0,1.34708 0.56453,2.44924 1.25451,2.44924 0.76802,0 2.18693,-3.97481 3.65898,-10.25 z m 9.88848,7.25 c 0.50002,-4.13974 5.22553,-22.13005 6.80724,-25.91562 1.79012,-4.28437 9.39079,-33.70198 9.39079,-36.3461 0,-1.2439 -0.58456,-1.77235 -1.71891,-1.5539 -1.23081,0.23704 -2.68675,3.45238 -5.12729,11.32333 -5.25649,16.95254 -12.16091,43.35063 -13.02219,49.7885 -0.73565,5.49879 -0.66912,5.78102 1.29648,5.5 1.35963,-0.19438 2.17572,-1.15566 2.37388,-2.79621 z M 337.83504,413.183 c 0.17575,-1.19442 0.68939,-2.17167 1.14142,-2.17167 2.10099,0 6.80741,-16.57703 7.09781,-25 0.2565,-7.44 0.15488,-8 -1.45179,-8 -1.76178,0 -2.59739,2.16065 -2.64212,6.83179 -0.0458,4.7845 -3.35561,19.20994 -5.84692,25.48331 -0.61487,1.5483 -1.11795,3.4983 -1.11795,4.33333 0,2.29613 2.45347,1.01111 2.81955,-1.47676 z m 6.85657,1.57833 c 5.29428,-8.33326 10.22411,-36.25 6.4014,-36.25 -1.02605,0 -1.92112,2.92621 -3.21174,10.5 -0.98409,5.775 -2.75124,13.65 -3.927,17.5 -1.17576,3.85 -2.30385,7.5625 -2.50687,8.25 -0.20303,0.6875 0.26518,1.25 1.04046,1.25 0.77528,0 1.76696,-0.5625 2.20375,-1.25 z m 6.07452,-1 c 4.7667,-5.10897 9.40118,-23.87525 7.57716,-30.68198 -1.56323,-5.83351 -3.09902,-4.77589 -3.8149,2.62714 -0.66476,6.87434 -3.38983,19.01653 -5.90871,26.32765 -1.54967,4.49794 -0.9151,5.00856 2.14645,1.72719 z m -18.75064,0.33333 c 0,-0.50416 -0.5625,-1.14364 -1.25,-1.42105 -0.75183,-0.30337 -0.55791,-0.53585 0.48658,-0.58333 3.25223,-0.14785 7.3772,-12.82267 8.40594,-25.82895 0.44928,-5.68021 0.31347,-8.25 -0.43598,-8.25 -1.53232,0 -2.0734,1.14441 -2.65066,5.60626 -0.8733,6.75009 -4.21635,20.73753 -5.91913,24.76586 -2.03313,4.80985 -2.07064,6.62788 -0.13675,6.62788 0.825,0 1.5,-0.4125 1.5,-0.91667 z m 26.34401,-1.92051 c 1.84619,-1.92701 2.51755,-3.45081 2.09275,-4.75 -0.43084,-1.31771 -0.33892,-1.51509 0.29546,-0.63444 1.292,1.79356 3.09253,-2.43596 3.87646,-9.10597 0.49614,-4.22138 0.22764,-5.89323 -1.36784,-8.51677 -2.22412,-3.65729 -3.24084,-2.64835 -3.24084,3.21605 0,3.03201 -2.29128,13.36998 -3.68545,16.62831 -0.353,0.825 -0.68068,1.8 -0.72818,2.16667 -0.0475,0.36666 -0.42387,1.00416 -0.83637,1.41666 -0.4125,0.4125 -0.75,1.125 -0.75,1.58334 0,1.57915 1.63295,0.82589 4.34401,-2.00385 z m -26.35471,-16.46221 c 3.29727,-12.5256 3.78519,-17.70061 1.6689,-17.70061 -0.88552,0 -2.12403,3.48554 -3.64211,10.25 -1.26517,5.6375 -3.34187,13.36201 -4.61489,17.16557 -1.27302,3.80356 -2.06135,7.3253 -1.75185,7.82608 1.282,2.07432 5.52626,-6.85247 8.33995,-17.54104 z m -11.85116,15.54939 c 1.91645,-2.31596 3.66141,-5.95806 4.91086,-10.25 1.47911,-5.0808 3.95063,-18.11353 3.95083,-20.83333 2.8e-4,-3.77293 -2.28419,-1.95676 -3.64852,2.9006 -4.74035,16.87683 -7.52787,26.67637 -8.01669,28.18273 -0.31234,0.9625 -0.13514,1.75 0.39376,1.75 0.52891,0 1.6133,-0.7875 2.40976,-1.75 z m -45.09894,-7.75 c 0.0384,-2.75 0.62856,-8.71077 1.31146,-13.24615 1.52536,-10.13046 0.55753,-9.49757 -2.24743,1.46965 -2.06441,8.07174 -2.76717,17.27922 -1.42154,18.62486 1.24446,1.24446 2.28678,-1.78339 2.35751,-6.84836 z m 3.39685,5.25 c 0.66127,-3.13794 2.34282,-15.12501 3.08616,-22 1.1577,-10.70735 -2.57236,-5.04052 -4.11393,6.25 -0.99203,7.26571 -1.09778,17.99969 -0.17733,17.99986 0.40202,8e-5 0.94431,-1.01236 1.2051,-2.24986 z m 5.04072,-7.85187 c 0.75518,-4.61897 1.84584,-10.42313 2.42369,-12.89813 1.29993,-5.56769 1.34512,-7 0.22086,-7 -1.96144,0 -4.07191,9.72943 -5.50152,25.36243 -0.71716,7.8422 1.31777,3.95016 2.85697,-5.4643 z m 32.89669,6.28846 c 0.74759,-1.47763 1.68386,-4.47583 2.08062,-6.66267 0.39675,-2.18684 1.83978,-7.51646 3.20672,-11.84359 1.36694,-4.32714 2.24889,-8.10397 1.95989,-8.39297 -0.85664,-0.85665 -3.31746,2.12234 -2.86771,3.47157 0.22753,0.68259 -0.10037,1.24107 -0.72866,1.24107 -0.6283,0 -0.85206,0.46971 -0.49725,1.0438 0.35481,0.5741 0.22896,1.5866 -0.27967,2.25 -0.84428,1.1012 -4.29691,13.16629 -5.73478,20.03999 -0.71628,3.42416 0.86982,2.78813 2.86084,-1.1472 z m -27.42202,-13.56303 c 1.72095,-7.08205 2.89182,-13.11364 2.60191,-13.40354 -1.28169,-1.28169 -4.99811,11.494 -7.063,24.27998 -1.36124,8.42896 1.41409,1.66251 4.46109,-10.87644 z m -29.95144,6.50979 c 0,-1.7253 2.29051,-8.15449 5.6235,-15.78448 1.50047,-3.43493 1.84689,-8.34887 0.58858,-8.34887 -0.81533,0 -10.21208,22.8932 -10.21208,24.87957 0,0.61624 0.9,1.12043 2,1.12043 1.28571,0 2,-0.66667 2,-1.86665 z m 8.34064,-9.90931 c 2.11235,-6.44822 4.06235,-12.28654 4.33333,-12.97404 0.27098,-0.6875 -0.16034,-1.25 -0.95851,-1.25 -0.91373,0 -2.83406,3.611 -5.18504,9.75 -4.42895,11.56509 -5.41647,16.26174 -3.41126,16.22404 0.87009,-0.0164 2.80144,-4.36252 5.22148,-11.75 z m 5.10379,0.38618 c 3.71626,-11.90453 4.19604,-14.61022 2.59075,-14.61022 -1.33807,0 -2.32991,2.11438 -5.91928,12.61869 -3.43896,10.06413 -3.85332,13.38131 -1.67147,13.38131 0.96658,0 2.62069,-3.768 5,-11.38978 z m 80.55557,-17.14993 c 0,-0.16854 -1.26763,-1.57856 -2.81695,-3.13337 -1.54932,-1.5548 -3.32333,-3.72692 -3.94225,-4.82692 -1.1063,-1.96626 -1.14921,-1.96762 -2.54327,-0.0809 -1.29567,1.75356 -1.80819,1.80985 -5.94149,0.6526 -3.10999,-0.87075 -5.10668,-0.95492 -6.38977,-0.26938 -1.02645,0.54842 -6.97018,1.14773 -13.2083,1.3318 -12.99509,0.38344 -14.14558,-0.23146 -14.17328,-7.57524 -0.0113,-2.98897 -0.27084,-3.66348 -0.98469,-2.55888 -0.80407,1.24421 -0.9746,1.15895 -1,-0.5 -0.0254,-1.65895 -0.19593,-1.74421 -1,-0.5 -0.53316,0.825 -0.98105,2.4 -0.99532,3.5 -0.0143,1.1 -1.8131,4.25 -3.99742,7 l -3.97148,5 2.73211,0.58901 c 1.50266,0.32395 10.15711,0.70347 19.23211,0.84336 9.075,0.1399 20.775,0.55764 26,0.92833 8.53908,0.6058 13,0.4684 13,-0.40041 z m -62.33552,-2.12914 c -0.36786,-0.36787 0.0433,-1.45576 0.9137,-2.41753 0.87039,-0.96178 1.43387,-2.7983 1.25218,-4.08115 -0.30426,-2.1482 -0.7343,-2.30626 -5.44343,-2.00066 -4.50956,0.29265 -5.35277,0.0271 -7.14392,-2.25 -2.1721,-2.76138 -5.0908,-3.33402 -7.04301,-1.38181 -2.10529,2.10529 -1.31565,4.05252 3.43884,8.48011 4.19363,3.9053 5.12136,4.31989 9.66666,4.31989 2.76531,0 4.72685,-0.30098 4.35898,-0.66885 z m 85.32021,-8.70359 c -0.0221,-4.5039 -1.38071,-6.37371 -3.40847,-4.69081 -0.86692,0.71948 -1.57622,1.92804 -1.57622,2.68569 0,0.75766 -0.3375,1.32427 -0.75,1.25914 -1.95236,-0.30827 -1.82072,0.33722 0.61517,3.01629 3.12777,3.44004 5.1431,2.54631 5.11952,-2.27031 z m -55.89195,0.62244 c 0.051,-0.9625 0.0242,-3.55 -0.0597,-5.75 -0.22058,-5.79021 1.74758,-17.1258 4.09992,-23.61342 1.1327,-3.12389 4.04659,-7.91255 6.57031,-10.79753 2.49422,-2.85127 4.31284,-5.40623 4.04138,-5.67768 -1.11909,-1.1191 -6.97575,5.18069 -10.16002,10.92875 -4.6637,8.41862 -6.55379,15.4098 -7.27519,26.90988 -0.5422,8.64343 -0.42423,9.75 1.03945,9.75 0.90808,0 1.69279,-0.7875 1.7438,-1.75 z m 5.32436,-0.5 c 0.25036,-1.2375 0.69873,-6.975 0.99638,-12.75 0.72729,-14.11085 2.68952,-20.36615 8.07941,-25.75605 4.68064,-4.68064 4.5926,-6.39033 -0.15537,-3.01725 -6.298,4.47425 -9.90125,13.03076 -11.54914,27.42532 -1.05139,9.18399 -0.50892,16.34798 1.23788,16.34798 0.5146,0 1.14048,-1.0125 1.39084,-2.25 z m 6.71534,-12.84353 c 0.68341,-14.48863 2.01689,-19.36356 6.6077,-24.15647 2.43161,-2.53865 2.48033,-2.75 0.63404,-2.75 -2.85897,0 -7.11282,4.84768 -8.81471,10.04526 -1.97428,6.02942 -3.73826,21.98445 -2.96513,26.81932 0.4585,2.86732 1.06968,3.86169 2.26671,3.68787 1.38837,-0.2016 1.73564,-2.28793 2.27139,-13.64598 z m 10.69374,10.73389 c 0.28736,-2.50428 4.1605,-10.30331 4.17008,-8.39697 0.007,1.41074 5.19844,-3.75122 6.72464,-6.68658 1.48347,-2.85319 1.43623,-3.02722 -1.54475,-5.69073 -1.69126,-1.51114 -4.00692,-4.5742 -5.14591,-6.8068 -1.13899,-2.23261 -2.39924,-4.06542 -2.80056,-4.07293 -0.40133,-0.008 -1.74218,-0.285 -2.97968,-0.61664 -2.89284,-0.77525 -3.0371,1.608 -0.25,4.13029 1.1,0.99549 2,2.3807 2,3.07826 0,0.69756 1.12587,2.60631 2.50193,4.24166 l 2.50192,2.97337 -3.51176,5.21847 c -1.93147,2.87015 -3.79341,6.34063 -4.13765,7.71217 -0.55074,2.19433 -1.02977,2.42816 -3.99016,1.94776 -4.62785,-0.751 -4.35969,1.17092 0.63572,4.55622 3.44215,2.33268 5.43877,1.78863 5.82618,-1.58755 z m -53.40878,-1.50671 c 0.6676,-1.0802 -2.21645,-3.68407 -5.02622,-4.53795 -1.33455,-0.40556 -2.58229,-0.0703 -3.39838,0.91298 -1.07509,1.2954 -0.97383,1.79282 0.60882,2.99077 2.10232,1.59131 6.97966,1.98707 7.81578,0.6342 z m 46.37644,-4.88365 c -0.20321,-1.21023 0.30669,-1.69703 1.65316,-1.57828 1.07084,0.0944 2.51903,-0.58055 3.21819,-1.5 1.6693,-2.19525 1.65139,-3.17172 -0.0582,-3.17172 -0.76616,0 -1.64321,-0.65201 -1.94901,-1.44891 -0.43362,-1.13 -0.072,-1.26624 1.64301,-0.61896 1.55988,0.58873 2.65595,0.35756 3.77115,-0.79538 1.43102,-1.47943 1.39972,-1.91757 -0.34878,-4.88104 -1.09689,-1.85909 -2.73649,-3.25571 -3.82214,-3.25571 -1.04567,0 -1.90122,-0.45 -1.90122,-1 0,-0.55 0.7875,-1.01368 1.75,-1.03041 1.60955,-0.028 1.60181,-0.11654 -0.0964,-1.10362 -1.22771,-0.71362 -2.18057,-0.73902 -2.84378,-0.0758 -1.36711,1.36711 -0.49879,4.77807 1.12471,4.41812 1.43586,-0.31834 5.06545,2.55191 5.06545,4.00572 0,0.49722 -0.37575,0.67181 -0.835,0.38798 -0.45925,-0.28383 -2.48425,-0.01 -4.5,0.60876 -3.60183,1.10543 -3.665,1.21386 -3.665,6.29037 0,4.58171 0.5046,6.49889 1.7105,6.49889 0.20745,0 0.24495,-0.7875 0.0833,-1.75 z m 0.20616,-5.37244 c 0,-1.76626 0.24988,-1.91507 1.48899,-0.8867 1.50499,1.24904 1.18445,3.00914 -0.54801,3.00914 -0.51754,0 -0.94098,-0.9551 -0.94098,-2.12244 z m -107.86866,-1.37756 c 3.52534,-5.94315 5.22978,-9.81873 5.33055,-12.1207 0.0564,-1.28908 0.70567,-2.91428 1.44276,-3.61154 1.1161,-1.05581 1.13896,-0.87727 0.13674,1.06789 -0.66189,1.2846 -0.97843,2.56064 -0.70343,2.83564 0.275,0.275 1.05382,-0.55104 1.73072,-1.83564 0.6769,-1.28461 1.72586,-2.70741 2.33102,-3.16178 0.79274,-0.59521 0.77533,-0.95976 -0.0623,-1.30419 -1.29731,-0.53347 0.94823,-5.86968 2.47003,-5.86968 1.23656,0 4.18675,-3.17247 3.54602,-3.8132 -0.30321,-0.30321 0.50572,-0.31775 1.79762,-0.0323 1.9463,0.43004 2.09181,0.31655 0.84891,-0.66209 -1.27787,-1.00618 -1.22874,-1.09306 0.33179,-0.58674 1.00749,0.32688 2.07509,0.59433 2.37245,0.59433 0.29736,0 -0.0732,0.73961 -0.8234,1.64358 -1.0565,1.27301 -0.41669,1.16028 2.83772,-0.5 5.51636,-2.81423 14.13573,-2.84618 20.24469,-0.075 2.45479,1.11355 4.14928,1.71066 3.76554,1.32692 -1.27534,-1.27535 2.626,-3.3459 4.06076,-2.15516 1.52909,1.26904 3.48385,-0.2141 2.41881,-1.83522 -0.3896,-0.59302 -2.89343,-2.34739 -5.56407,-3.89862 -8.94431,-5.19524 -24.58653,-4.38946 -33.67412,1.73467 -7.53636,5.07874 -19.71934,23.67364 -21.3419,32.57414 -0.56992,3.12626 -0.45249,3.29729 2.05958,3 1.6976,-0.2009 3.30949,-1.40353 4.44349,-3.31527 z m 1.86866,-8.94098 c 0,-0.24254 0.45,-0.7191 1,-1.05902 0.55,-0.33992 1,-0.14148 1,0.44098 0,0.58246 -0.45,1.05902 -1,1.05902 -0.55,0 -1,-0.19844 -1,-0.44098 z m 28.27083,-22.16319 c 0.33229,-0.33229 1.19479,-0.36781 1.91667,-0.0789 0.79773,0.31922 0.56078,0.55618 -0.60417,0.60416 -1.05416,0.0434 -1.64479,-0.19292 -1.3125,-0.52522 z m -38.55035,30.66474 c 0.25979,-3.44876 7.10674,-16.37772 12.35224,-23.3245 8.47282,-11.22082 17.1499,-15.73607 30.24044,-15.73607 6.21989,0 8.27485,0.49437 14.54462,3.49908 6.99182,3.35074 10.06572,3.72106 13.64222,1.64352 0.55,-0.31949 2.0125,-0.45007 3.25,-0.29018 3.45411,0.44629 2.73299,-0.4293 -3.10401,-3.76889 -10.45321,-5.98072 -18.25445,-8.27865 -28.64599,-8.43792 -8.81608,-0.13513 -9.99879,0.0906 -16.42842,3.13534 -14.79916,7.00815 -29.60681,23.84705 -31.18765,35.46585 -0.46516,3.41882 -0.15298,4.79269 1.59127,7.0032 2.56173,3.24649 3.54575,3.45945 3.74528,0.81057 z m 74.25056,-3.09963 c -0.80907,-0.51167 -2.37104,-0.91691 -3.47104,-0.90052 -1.5163,0.0226 -1.27445,0.34735 1,1.34283 3.20977,1.40485 4.91047,1.10043 2.47104,-0.44231 z m 1.02896,-3.33594 c 0,-1.71721 -4.36606,-2.625 -12.625,-2.625 -7.65545,0 -8.68236,1.94333 -1.125,2.12895 8.54721,0.20993 10.63648,0.42419 11.37927,1.16699 1.14943,1.14943 2.37073,0.80379 2.37073,-0.67094 z m 43,0.375 c 0,-0.55 -0.7875,-0.99311 -1.75,-0.98469 -1.49555,0.0131 -1.5319,0.15626 -0.25,0.98469 1.88721,1.21961 2,1.21961 2,0 z m -43.01531,-6.25 c -0.0289,-4.24917 -1.54499,-5.1687 -10.98121,-6.66037 -4.30205,-0.68006 -5.22737,-0.5398 -6.00326,0.90996 -0.81735,1.52723 -0.0824,1.78452 6.74579,2.36172 4.21468,0.35627 8.10352,1.08822 8.64186,1.62656 1.62147,1.62147 0.18369,2.03644 -3.4475,0.99503 -5.41898,-1.55414 -13.94037,-1.27152 -13.94037,0.46235 0,1.12986 1.53756,1.43079 7.04562,1.37896 3.87509,-0.0365 7.32509,0.21317 7.66667,0.55475 1.56543,1.56543 4.28707,0.52773 4.2724,-1.62896 z m -50.93086,-9.37543 c 2.474,-2.60269 2.82715,-3.30643 1.25186,-2.49462 -1.20687,0.62194 -2.50062,1.62643 -2.875,2.23219 -0.48523,0.78512 -0.89343,0.75717 -1.42154,-0.0973 -0.47123,-0.76246 -0.92116,-0.25542 -1.23632,1.39324 -0.66451,3.47612 0.19061,3.26968 4.281,-1.03348 z m -21.27454,-7.87457 c 5.60919,-6.95749 17.22071,-17.02046 17.22071,-14.92409 0,0.40374 0.7875,0.0362 1.75,-0.81664 2.76537,-2.45043 11.13114,-4.86096 17.95547,-5.17371 3.44293,-0.15779 6.52877,-0.0166 6.85743,0.31378 1.10021,1.10592 12.38132,2.76801 12.6812,1.86836 0.16173,-0.48519 1.08619,-0.57819 2.05437,-0.20666 1.67671,0.64341 1.6758,0.74342 -0.0191,2.10564 -1.45581,1.17007 -1.2187,1.15957 1.3039,-0.0577 2.54297,-1.22715 3.7055,-1.27398 6.63384,-0.26727 1.95279,0.67134 4.32321,1.86188 5.26758,2.64564 0.94438,0.78377 2.29102,1.50927 2.99253,1.61223 0.70151,0.10296 2.23111,0.49051 3.39911,0.86122 1.25948,0.39973 2.12367,0.23966 2.12367,-0.39337 0,-0.58707 -0.40478,-1.06739 -0.89951,-1.06739 -0.49473,0 -3.22513,-1.56502 -6.06755,-3.47783 -7.9555,-5.35366 -19.70319,-8.75399 -30.53294,-8.83765 -8.28802,-0.064 -9.59781,0.21037 -16.55672,3.4686 -15.6278,7.31711 -24.39615,14.60735 -32.01109,26.61487 -1.57818,2.48851 -2.57615,4.99908 -2.21772,5.57904 0.41166,0.66607 0.82913,0.52011 1.13343,-0.39628 0.26495,-0.79791 3.38408,-5.05075 6.93139,-9.45075 z m 50.22071,-20.22086 c -1.375,-0.24667 -2.95,-0.89541 -3.5,-1.44163 -1.26273,-1.25407 6.5745,0.0115 7.95,1.28378 0.99448,0.91985 -0.005,0.9553 -4.45,0.15785 z m 22,29.73428 c 0,-1.24892 -5.37516,-3.50518 -10.18807,-4.27652 -2.58502,-0.41428 -4.04831,-0.15701 -4.8925,0.86019 -0.66244,0.79818 -1.02781,1.60264 -0.81193,1.78768 0.21587,0.18505 3.7675,0.78391 7.8925,1.33081 4.125,0.54689 7.6125,1.05962 7.75,1.13939 0.1375,0.0798 0.25,-0.29893 0.25,-0.84155 z m 21,-8.01238 c 4.40123,-4.56038 11.00038,-9.20386 12.66427,-8.9112 0.45965,0.0808 1.06073,0.0562 1.33573,-0.0547 4.39065,-1.77167 12.42071,1.15216 14.06469,5.1211 1.64512,3.97165 3.6079,2.52267 5.41291,-3.99596 0.86202,-3.11313 2.23221,-7.138 3.04486,-8.94416 1.87254,-4.16184 1.90942,-4.02129 -0.91358,-3.48164 -1.73292,0.33127 -3.48672,-0.53271 -6.3712,-3.13867 -2.18905,-1.97772 -4.28776,-3.59581 -4.66382,-3.59581 -1.23724,0 -23.20285,14.85101 -26.44464,17.87929 -1.74456,1.62967 -4.10826,5.07975 -5.25266,7.66686 -1.81086,4.09376 -1.90815,5.0263 -0.75012,7.19011 1.22119,2.28182 1.41461,2.33995 2.35209,0.70688 0.56181,-0.97866 3.04647,-3.8776 5.52147,-6.4421 z m -6.92105,3.58229 c -0.0434,-1.05416 0.19292,-1.64479 0.52522,-1.3125 0.33229,0.3323 0.36781,1.1948 0.0789,1.91667 -0.31922,0.79773 -0.55618,0.56078 -0.60416,-0.60417 z m 28.25785,-17.76509 c -3.1122,-1.50547 -3.49242,-4.32342 -0.9106,-6.74891 2.86512,-2.69164 6.06737,-2.63045 8.0171,0.15318 2.00333,2.86015 1.96421,3.36998 -0.4433,5.77749 -2.21502,2.21502 -3.45969,2.36787 -6.6632,0.81824 z m 5.4632,-1.01824 c 1.40617,-1.40617 1.61964,-5.8 0.28179,-5.8 -0.50502,0 -1.572,-0.25088 -2.37106,-0.55751 -1.44233,-0.55347 -4.71073,1.9148 -4.71073,3.55751 0,1.28431 2.96786,4 4.37143,4 0.67571,0 1.76857,-0.54 2.42857,-1.2 z m 4.12884,18.45684 c 1.31833,-2.89343 1.32854,-3.25684 0.0915,-3.25684 -0.53882,0 -1.90509,1.81398 -3.03617,4.03106 -2.00653,3.93314 -2.00876,4.00125 -0.0915,2.8039 1.08076,-0.67494 2.44704,-2.2851 3.03618,-3.57812 z m 41.57116,-10.25684 c 0.33992,-0.55 0.16803,-1 -0.38197,-1 -0.55,0 -1.27811,0.45 -1.61803,1 -0.33992,0.55 -0.16803,1 0.38197,1 0.55,0 1.27811,-0.45 1.61803,-1 z m 4.02646,-2.80687 c -0.30789,-0.30789 -1.11479,-6.4e-4 -1.79313,0.68278 -0.98026,0.98762 -0.8654,1.10248 0.5598,0.5598 0.98622,-0.37553 1.54122,-0.93469 1.23333,-1.24258 z m -100.52646,-6.19313 c 0,-0.55 -0.47656,-1 -1.05902,-1 -0.58246,0 -0.7809,0.45 -0.44098,1 0.33992,0.55 0.81648,1 1.05902,1 0.24254,0 0.44098,-0.45 0.44098,-1 z m -3,-1 c 0,-0.55 -0.7875,-0.99311 -1.75,-0.98469 -1.49555,0.0131 -1.5319,0.15626 -0.25,0.98469 1.88721,1.21961 2,1.21961 2,0 z m 67.05205,-15.75 c -1.63872,-2.81616 -5.06341,-6.57197 -5.54941,-6.08597 -0.46221,0.46221 5.28301,7.83597 6.10535,7.83597 0.25431,0 0.004,-0.7875 -0.55594,-1.75 z m 64.94795,219.96429 c 0,-0.66786 0.36313,-1.21429 0.80696,-1.21429 0.44383,0 1.32687,-1.2375 1.96233,-2.75 1.05353,-2.5076 1.10516,-2.52964 0.58572,-0.25 -0.64036,2.8103 -3.35501,6.22022 -3.35501,4.21429 z m -242,-4.00851 c 0,-0.57151 0.5625,-1.30161 1.25,-1.62245 1,-0.46666 1,-0.7 0,-1.16666 -0.6875,-0.32084 -1.25,-1.27594 -1.25,-2.12245 0,-1.25471 0.27717,-1.30908 1.5,-0.29422 1.91,1.58516 1.91,3.41484 0,5 -0.90562,0.7516 -1.5,0.83314 -1.5,0.20578 z m 248,-7.1744 c 0,-0.53273 -0.675,-0.70959 -1.5,-0.39301 -0.825,0.31659 -1.5,0.0453 -1.5,-0.60281 0,-1.74805 2.83069,-4.25823 3.99233,-3.5403 1.30756,0.80812 1.31411,5.50474 0.008,5.50474 -0.55,0 -1,-0.43588 -1,-0.96862 z m -246.566,-7.13421 c 0.20334,-4.06844 0.41387,-8.88623 0.46785,-10.70619 0.0543,-1.82954 0.52573,-3.04476 1.05448,-2.71797 0.52597,0.32507 0.70283,1.25163 0.39301,2.05902 -0.30983,0.80738 -0.0652,1.46797 0.54367,1.46797 1.53962,0 1.39846,2.99258 -0.14301,3.0318 -0.79899,0.0203 -0.65403,0.4852 0.40177,1.28842 1.82932,1.39168 1.4233,7.15323 -0.42364,6.01175 -0.64407,-0.39805 -0.84455,0.11485 -0.524,1.34062 0.28554,1.09193 -0.0791,2.80352 -0.81033,3.80354 -1.14014,1.55923 -1.27685,0.76459 -0.9598,-5.57896 z m 65.37714,5.69779 c -2.70598,-0.96627 -3.98738,-1.02119 -4.80924,-0.2061 -0.82489,0.81808 -0.94468,0.64958 -0.45416,-0.63886 0.87738,-2.3046 4.33467,-2.18862 7.45226,0.25 2.93086,2.29256 2.72319,2.349 -2.18886,0.59496 z m 182.83992,-5.35054 c -0.39331,-0.63639 -1.4317,-0.88209 -2.30753,-0.546 -1.35886,0.52144 -1.3267,0.20553 0.21921,-2.15383 l 1.81162,-2.76489 0.84138,2.27447 c 0.9692,2.62 0.54924,4.99262 -0.56468,3.19025 z m -1.20347,-10.49442 c 0.11745,-1.7875 -0.21531,-3.8125 -0.73947,-4.5 -0.6947,-0.91119 -0.34873,-1.25 1.27642,-1.25 1.62211,0 2.06409,0.4309 1.62245,1.58179 -0.33385,0.86998 -0.60699,2.89498 -0.60699,4.5 0,1.60501 -0.39734,2.91821 -0.88298,2.91821 -0.48564,0 -0.78689,-1.4625 -0.66943,-3.25 z m -106.19759,1.59923 c -1.74118,-0.71862 -1.56631,-4.01387 0.25,-4.71086 2.45104,-0.94055 4.63076,0.44173 4.30287,2.72869 -0.30353,2.11714 -2.21231,2.94816 -4.55287,1.98217 z m 2.75,-2.34923 c 0,-0.55 -0.45,-1 -1,-1 -0.55,0 -1,0.45 -1,1 0,0.55 0.45,1 1,1 0.55,0 1,-0.45 1,-1 z m -143.84211,-8 c 0,-1.375 0.22698,-1.9375 0.50439,-1.25 0.27741,0.6875 0.27741,1.8125 0,2.5 -0.27741,0.6875 -0.50439,0.125 -0.50439,-1.25 z m 2.84211,1.16052 c 0,-0.46172 1.22882,-1.39938 2.73072,-2.08369 2.72385,-1.24107 2.72598,-1.23896 0.84501,0.83949 -1.94517,2.14939 -3.57573,2.71675 -3.57573,1.2442 z m -1.98795,-5.13801 c -0.86344,-1.61335 -0.77785,-1.86987 0.46481,-1.39302 0.83773,0.32147 1.52314,0.0722 1.52314,-0.55389 0,-0.6261 -0.71126,-1.4113 -1.58057,-1.74489 -0.99391,-0.3814 -1.38747,-1.34491 -1.06034,-2.59589 0.28613,-1.09415 -0.13462,-2.9888 -0.935,-4.21034 -1.74363,-2.66111 -3.28916,-25.17715 -1.65903,-24.16968 0.55452,0.34271 1.31752,2.31558 1.69555,4.38415 0.37804,2.06858 1.34776,4.78626 2.15493,6.0393 0.80717,1.25303 1.19732,2.71553 0.867,3.25 -0.33031,0.53446 0.0588,0.97175 0.86482,0.97175 0.9494,0 1.28975,0.6717 0.96657,1.90755 -0.29466,1.12677 0.34833,2.75471 1.57093,3.97731 1.94823,1.94824 1.95689,5.7534 0.0104,4.55038 -0.49236,-0.3043 -0.89521,-0.0767 -0.89521,0.50574 0,0.58246 0.47656,1.05902 1.05902,1.05902 0.58246,0 0.79304,0.43035 0.46797,0.95633 -0.32507,0.52598 -1.25163,0.70283 -2.05902,0.39301 -1.76844,-0.67862 -1.85305,0.56585 -0.18617,2.73843 0.67001,0.87327 1.77668,1.39961 2.45927,1.16964 0.68259,-0.22997 1.87723,0.21804 2.65476,0.99557 1.21826,1.21825 0.98524,1.41369 -1.68551,1.41369 -1.70457,0 -3.27421,0.525 -3.4881,1.16666 -0.58821,1.76465 -2.02621,1.40144 -3.21018,-0.81082 z m 139.13335,-5.4626 c -1.08506,-2.5718 -0.98208,-3.28954 0.82212,-5.72985 1.59827,-2.16177 1.92408,-3.65575 1.44739,-6.63682 -0.47971,-2.99994 -0.0491,-4.93113 1.9554,-8.77015 3.88433,-7.43916 3.80987,-9.48 -0.4303,-11.79317 -4.97614,-2.71468 -8.94001,-1.68423 -8.94001,2.32403 0,1.60372 0.46858,4.14832 1.0413,5.65467 1.43942,3.78596 0.31275,7.92938 -2.69137,9.89775 -3.19837,2.09566 -4.52592,1.00563 -1.42257,-1.16805 2.18342,-1.52932 2.27065,-2.02892 1.63219,-9.34809 -0.56061,-6.42668 -0.39944,-8.00748 0.9544,-9.36132 2.32445,-2.32446 7.62693,-2.01214 11.58817,0.68255 2.92901,1.9925 3.35138,2.78593 3.0609,5.75 -0.18534,1.8912 -1.47835,5.54662 -2.87335,8.12316 -2.12805,3.93049 -2.42401,5.43388 -1.83842,9.33884 0.52218,3.48216 0.32248,5.07253 -0.79299,6.31537 -0.82001,0.91365 -1.66677,3.01117 -1.88167,4.66117 l -0.39074,3 -1.24045,-2.94009 z m -71.83951,-3.07164 -4.05415,-4.51172 3.28673,-3.58828 c 3.93449,-4.29546 7.30911,-4.62318 15.24855,-1.48082 2.90786,1.1509 6.73286,2.12389 8.5,2.1622 3.04739,0.0661 2.98029,0.1414 -1.30193,1.46171 -2.48321,0.76564 -6.90745,3.43429 -9.83166,5.93035 -2.92421,2.49606 -5.87399,4.53829 -6.55506,4.53829 -0.68108,0 -3.0627,-2.03028 -5.29248,-4.51173 z m 11.16411,-1.87666 c 1.3915,-0.91174 2.53,-2.1239 2.53,-2.69368 0,-0.56978 0.50838,-0.72177 1.12973,-0.33775 0.68475,0.4232 0.95002,0.15103 0.67348,-0.69098 -0.62254,-1.89549 -7.39984,-4.02854 -10.40408,-3.27453 -1.34518,0.33762 -3.08404,1.52509 -3.86413,2.63882 -1.241,1.77178 -1.20683,2.31171 0.27333,4.31843 1.95533,2.65093 5.65323,2.66612 9.66167,0.0397 z m 167.53,6.05506 c 0,-0.36667 0.1125,-0.8723 0.25,-1.12362 0.1375,-0.25133 -0.60625,-1.08306 -1.65278,-1.8483 -1.7825,-1.3034 -1.53505,-3.69475 0.38234,-3.69475 1.04217,0 2.45622,5.89755 1.6156,6.73817 -0.32734,0.32734 -0.59516,0.29516 -0.59516,-0.0715 z m -2,-10.16667 c 0,-0.825 -0.76101,-1.5 -1.69113,-1.5 -1.49415,0 -1.47151,-0.16059 0.19445,-1.37877 1.80338,-1.31866 1.8099,-1.49425 0.14957,-4.02824 -0.98443,-1.50242 -1.39682,-3.17843 -0.95255,-3.87124 1.67256,-2.60822 3.06743,-7.8938 2.57755,-9.76709 -0.28266,-1.08092 0.0727,-2.67221 0.78978,-3.5362 1.07503,-1.29532 1.06418,-1.71894 -0.0618,-2.41484 -1.10992,-0.68596 -0.86748,-1.93523 1.29516,-6.67378 2.59285,-5.68119 3.73515,-6.18537 1.66245,-0.73376 -0.57009,1.49945 -1.05345,5.96843 -1.07414,9.93106 -0.0211,4.04269 -0.63353,8.35341 -1.39538,9.82189 -0.74678,1.43941 -1.03447,2.81691 -0.63932,3.06113 1.16353,0.7191 1.32546,12.58984 0.17173,12.58984 -0.5645,0 -1.02637,-0.675 -1.02637,-1.5 z M 248.32291,435.62419 c 0.10592,-1.03793 1.22789,-2.26937 2.49327,-2.73653 1.46698,-0.54159 2.07975,-0.49189 1.69098,0.13714 -0.33534,0.54259 0.20435,1.00021 1.19931,1.01694 1.66768,0.028 1.65692,0.11865 -0.13772,1.15979 -1.4571,0.84532 -2.04397,0.83767 -2.33333,-0.0304 -0.57573,-1.72719 -2.00185,-1.40211 -2.58919,0.59021 -0.43908,1.48942 -0.48723,1.469 -0.32332,-0.13714 z m 7.19258,-2.61286 c -0.33992,-0.55 -0.14148,-1 0.44098,-1 0.58246,0 1.05902,0.45 1.05902,1 0,0.55 -0.19844,1 -0.44098,1 -0.24254,0 -0.7191,-0.45 -1.05902,-1 z m 164.5,0.059 c 0,-0.51754 0.45,-1.2191 1,-1.55902 0.55,-0.33992 1,0.0835 1,0.94098 0,0.85746 -0.45,1.55902 -1,1.55902 -0.55,0 -1,-0.42344 -1,-0.94098 z m -160.25,-0.7213 c 0.6875,-0.27741 1.8125,-0.27741 2.5,0 0.6875,0.27741 0.125,0.50439 -1.25,0.50439 -1.375,0 -1.9375,-0.22698 -1.25,-0.50439 z m -82.59211,-6.3377 c 0,-1.375 0.22698,-1.9375 0.50439,-1.25 0.27741,0.6875 0.27741,1.8125 0,2.5 -0.27741,0.6875 -0.50439,0.125 -0.50439,-1.25 z m 241.84211,-2 c 0,-0.55 0.19844,-1 0.44098,-1 0.24254,0 0.7191,0.45 1.05902,1 0.33992,0.55 0.14148,1 -0.44098,1 -0.58246,0 -1.05902,-0.45 -1.05902,-1 z m -0.21737,-7.30642 c 1.38442,-0.62369 2.64191,-0.66735 3.1957,-0.11095 0.55293,0.55552 -0.34743,0.96113 -2.28263,1.02832 -2.97515,0.10329 -3.03817,0.04 -0.91307,-0.91737 z m -241.58768,-3.19358 c -0.0204,-1.65 0.18706,-2.44606 0.46099,-1.76903 0.27392,0.67703 0.29059,2.02703 0.037,3 -0.25354,0.97297 -0.47766,0.41903 -0.49804,-1.23097 z m 246.80505,1.25 c 0,-0.77917 0.6875,-1.41667 1.52778,-1.41667 1.72873,0 1.47282,1.83314 -0.34028,2.4375 -0.65313,0.21771 -1.1875,-0.24166 -1.1875,-1.02083 z m 3.29591,-4.03785 c 0.43145,-1.15066 0.12638,-1.99661 -0.85594,-2.37356 -1.33493,-0.51226 -1.3085,-0.82638 0.21079,-2.50518 1.53205,-1.69289 1.54372,-1.84527 0.0989,-1.29083 -1.21021,0.4644 -1.59803,0.095 -1.48436,-1.41406 0.0846,-1.12349 0.35566,-1.84092 0.60229,-1.59429 0.63152,0.63151 3.13244,-1.57498 3.13244,-2.76366 0,-0.5415 -0.71167,-0.71145 -1.58149,-0.37767 -1.26245,0.48445 -1.16159,-0.0725 0.5,-2.76105 2.45683,-3.97523 2.65668,-6.4739 0.58149,-7.27022 -2.00325,-0.76872 -1.89017,-1.63687 0.39948,-3.06678 1.71178,-1.06903 1.91057,-0.87046 2.01165,2.00945 0.41341,11.77905 -0.0778,17.67949 -1.41113,16.94967 -0.55,-0.30106 -0.4375,0.0586 0.25,0.79933 1.70161,1.83325 1.57434,3.00839 -0.25,2.30833 -0.825,-0.31659 -1.5,-0.11496 -1.5,0.44805 0,0.56301 0.49934,1.1901 1.10965,1.39354 0.66478,0.22159 0.38926,0.9566 -0.68723,1.83333 -1.61696,1.31691 -1.72976,1.28443 -1.12651,-0.3244 z m -7.29591,-2.71215 c -1.20677,-0.77988 -1.04862,-0.97237 0.80902,-0.98469 1.28757,-0.009 2.03561,0.42706 1.69098,0.98469 -0.74319,1.2025 -0.63926,1.2025 -2.5,0 z m -242.80505,-11.5 c -0.0204,-1.65 0.18706,-2.44606 0.46099,-1.76903 0.27392,0.67703 0.29059,2.02703 0.037,3 -0.25355,0.97297 -0.47767,0.41903 -0.49805,-1.23097 z m -0.037,-5.5 c 0,-1.375 0.22697,-1.9375 0.50438,-1.25 0.27742,0.6875 0.27742,1.8125 0,2.5 -0.27741,0.6875 -0.50438,0.125 -0.50438,-1.25 z m 251.8421,-12.05902 c 0,-1.13246 0.45,-1.7809 1,-1.44098 0.55,0.33992 1,1.26648 1,2.05902 0,0.79254 -0.45,1.44098 -1,1.44098 -0.55,0 -1,-0.92656 -1,-2.05902 z M 178.29802,357.01133 c -0.0604,-11.20944 0.24002,-18.43711 0.70654,-17 0.44636,1.375 0.85643,4.46004 0.91125,6.85564 0.0718,3.13968 0.82939,5.22286 2.71354,7.46205 2.65183,3.15151 1.98277,4.60688 -1.30842,2.84613 -1.62433,-0.86899 -1.8289,-0.43294 -2.03926,4.34672 -0.20441,4.64445 0.12903,5.70102 2.65121,8.40103 1.87276,2.00479 2.38237,3.08843 1.45243,3.08843 -0.78792,0 -1.69161,-0.675 -2.00819,-1.5 -0.96613,-2.51767 -2.21458,-1.67882 -2.6045,1.75 -0.20327,1.7875 -0.41684,-5.525 -0.4746,-16.25 z m 76.07565,15.68908 c -2.78448,-4.23459 -3.56428,-5.68908 -3.05008,-5.68908 0.65132,0 5.89057,8.13467 5.4944,8.53083 -0.19103,0.19103 -1.29097,-1.08776 -2.44432,-2.84175 z m 5.31771,-1.09131 c -0.53061,-1.38275 0.0671,-2.59777 1.27797,-2.59777 0.34129,0 0.68833,0.9 0.77119,2 0.17221,2.28622 -1.24284,2.69901 -2.04916,0.59777 z m 168.46286,-2.34777 c -0.77328,-1.43897 -0.83598,-2.25 -0.17393,-2.25 0.56935,0 0.13518,-0.9 -0.96482,-2 -1.1,-1.1 -2,-2.89143 -2,-3.98095 0,-1.28454 -0.88816,-2.20386 -2.52638,-2.61503 -1.38951,-0.34874 -2.98023,-1.48211 -3.53494,-2.5186 -0.8127,-1.51854 -0.42963,-2.45044 1.97254,-4.79864 2.28021,-2.22897 2.6411,-3.04459 1.53494,-3.46907 -2.73665,-1.05015 -1.56771,-2.80332 1.43013,-2.14488 2.05477,0.4513 3.38632,0.1217 4.66201,-1.15399 1.7143,-1.71429 1.75722,-1.50751 1.07309,5.16999 -0.39195,3.82564 -1.25235,7.2988 -1.91201,7.71813 -0.84966,0.5401 -0.86609,0.76688 -0.0564,0.77773 2.22022,0.0297 3.68111,6.16375 2.50763,10.52902 -0.79886,2.97171 -0.80868,2.9753 -2.01189,0.73629 z m -2.13875,-17.25 c 0,-0.55 -0.42344,-1 -0.94098,-1 -0.51754,0 -1.2191,0.45 -1.55902,1 -0.33992,0.55 0.0835,1 0.94098,1 0.85746,0 1.55902,-0.45 1.55902,-1 z m -243.25,15.60795 c -2.71548,-2.06134 -2.20147,-3.62918 0.7422,-2.26386 1.37071,0.63575 2.49571,1.71841 2.5,2.40591 0.01,1.58791 -1.02288,1.54266 -3.2422,-0.14205 z m 237.75,-2.60795 c 0.33992,-0.55 1.06803,-1 1.61803,-1 0.55,0 0.72189,0.45 0.38197,1 -0.33992,0.55 -1.06803,1 -1.61803,1 -0.55,0 -0.72189,-0.45 -0.38197,-1 z m 4.5,-22 c 0,-0.55 0.45,-1 1,-1 0.55,0 1,0.45 1,1 0,0.55 -0.45,1 -1,1 -0.55,0 -1,-0.45 -1,-1 z m 2.75646,-6.49365 c -0.2712,-1.41871 0.10962,-2.98024 0.88343,-3.62244 1.10424,-0.91645 1.36011,-0.44734 1.36011,2.49365 0,4.1207 -1.52493,4.88794 -2.24354,1.12879 z m -1.42152,-11.17349 c 0.46373,-2.91821 0.28799,-4.31818 -0.58637,-4.67106 -0.68671,-0.27715 -0.25019,-0.53943 0.97005,-0.58285 1.54546,-0.055 2.04397,-0.53407 1.64301,-1.57895 -0.31659,-0.825 -0.10779,-1.5 0.46399,-1.5 1.30616,0 2.51822,3.63464 1.66983,5.00736 -0.34851,0.5639 -1.1178,0.72604 -1.70954,0.36033 -0.70547,-0.43601 -0.90199,0.24476 -0.57078,1.97734 0.3182,1.66456 -0.0587,3.10715 -1.01865,3.89862 -1.33715,1.10251 -1.44265,0.74607 -0.86154,-2.91079 z M 178.0459,320.56133 c -0.0222,-2.15133 0.26838,-2.65121 1.07321,-1.84638 0.79095,0.79095 0.79956,1.62674 0.0304,2.95 -0.94083,1.61863 -1.07696,1.48249 -1.10362,-1.10362 z m 249.96959,-10.60902 c 0,-1.7847 0.41658,-2.80156 1,-2.44098 0.55,0.33992 1,1.71648 1,3.05902 0,1.34254 -0.45,2.44098 -1,2.44098 -0.55,0 -1,-1.37656 -1,-3.05902 z m -249.52171,-5.03982 c -0.40373,-1.83817 -0.23264,-3.54681 0.42055,-4.2 0.80155,-0.80155 1.10116,0.0416 1.10116,3.09884 0,4.9734 -0.57917,5.39251 -1.52171,1.10116 z m 249.52171,-3.90116 c 0,-0.55 0.45,-1 1,-1 0.55,0 1,0.45 1,1 0,0.55 -0.45,1 -1,1 -0.55,0 -1,-0.45 -1,-1 z m 0.5,-5 c -0.33992,-0.55 -0.14148,-1 0.44098,-1 0.58246,0 1.05902,0.45 1.05902,1 0,0.55 -0.19844,1 -0.44098,1 -0.24254,0 -0.7191,-0.45 -1.05902,-1 z m 0.17151,-5.14813 c -0.32797,-1.25417 -0.20131,-2.52444 0.28147,-2.82281 0.48278,-0.29838 0.30442,-1.61385 -0.39637,-2.92328 -1.36694,-2.55416 -0.17846,-10.10578 1.59047,-10.10578 0.78479,0 0.96636,2.93264 0.86405,13.95583 -0.0315,3.39889 -1.61173,4.67947 -2.33962,1.89604 z m -4.21263,-1.9184 c -0.36253,-0.58659 -0.44468,-1.281 -0.18255,-1.54313 0.26212,-0.26213 0.74306,0.21781 1.06875,1.06653 0.67618,1.76211 0.0999,2.07206 -0.8862,0.4766 z m -51.25888,-1.13347 c -1.72774,-1.72774 -1.48167,-3.27866 0.28727,-1.81057 0.81799,0.67888 2.23164,0.94868 3.14144,0.59955 1.38441,-0.53124 1.44806,-0.38641 0.39029,0.88813 -1.52447,1.83687 -2.24417,1.89772 -3.819,0.32289 z M 226.62348,286.8366 c 0.39931,-0.64611 0.62322,-3.69375 0.49757,-6.77254 l -0.22846,-5.5978 7.40448,0.37391 c 4.07246,0.20565 10.51262,-0.13813 14.31145,-0.76394 19.73446,-3.25104 20.88269,-3.53862 21.22066,-5.3149 0.20286,-1.06622 -0.28179,-1.75 -1.24037,-1.75 -0.86532,0 -1.57332,-0.47656 -1.57332,-1.05902 0,-0.58246 -0.40803,-0.80683 -0.90674,-0.49862 -0.50278,0.31074 -0.63218,-0.44261 -0.29044,-1.69098 0.50095,-1.83002 0.68438,-1.92385 0.98006,-0.50138 0.67018,3.22408 1.82056,1.79317 1.40691,-1.75 -0.43282,-3.70747 0.72792,-4.50901 2.84157,-1.96221 0.70194,0.84578 2.91515,2.83582 4.91826,4.42231 3.11573,2.46771 5.06041,3.04269 13.45766,3.97904 12.71506,1.41781 20.98971,3.52099 32.09272,8.15705 l 9,3.75795 1.60691,-2.0631 c 1.13781,-1.46083 1.82155,-1.71581 2.34216,-0.87345 0.86106,1.39323 -2.62542,6.80702 -6.02695,9.35864 -2.31243,1.73463 -2.53084,1.69417 -9.32628,-1.72796 -16.15758,-8.13683 -28.46654,-11.0487 -43.59584,-10.31324 -5.5,0.26737 -8.7625,0.29397 -7.25,0.0591 1.5125,-0.23485 2.75,-0.7785 2.75,-1.20813 0,-0.42962 -5.9625,0.28956 -13.25,1.59819 -7.2875,1.30862 -16.5719,2.39562 -20.632,2.41555 -4.84816,0.0238 -7.04379,0.37445 -6.39666,1.02158 1.56152,1.56152 10.05338,1.31141 19.1124,-0.56292 4.58356,-0.94835 8.52383,-1.53418 8.75616,-1.30185 0.23233,0.23233 -2.16785,1.00073 -5.33374,1.70757 -9.45753,2.11155 -17.52513,4.95473 -21.48472,7.57164 -3.9735,2.6261 -6.35748,3.22146 -5.16345,1.28949 z m 103.39201,-3.31411 c 0,-0.26886 -3.7125,-2.36205 -8.25,-4.65153 -9.98909,-5.04019 -19.08106,-7.55873 -31.88414,-8.83214 -10.24724,-1.0192 -16.23486,-3.46402 -17.38891,-7.1001 -0.64445,-2.03048 -2.47695,-2.67488 -2.47695,-0.87102 0,1.49929 5.84162,6.64568 8.91475,7.85377 1.42189,0.55897 7.76025,1.67514 14.08525,2.48037 11.44317,1.45682 24.76025,5.3106 32.5,9.40504 4.51709,2.38961 4.5,2.38309 4.5,1.71561 z M 178.15167,273.26133 c 0.15042,-10.76891 0.60905,-9.92747 1.09011,2 0.17192,4.2625 -0.0337,7.75 -0.45686,7.75 -0.42319,0 -0.70815,-4.3875 -0.63325,-9.75 z m 159.36382,3.05736 c -1.65,-0.88691 -4.354,-2.63955 -6.0089,-3.89475 -5.26032,-3.98985 -18.12699,-9.52966 -24.78045,-10.66935 -5.46278,-0.93573 -6.35815,-1.37523 -5.95357,-2.92232 0.2619,-1.00152 0.90026,-1.82094 1.41857,-1.82094 0.51831,0 0.68349,0.41891 0.36706,0.9309 -0.81531,1.3192 0.26983,1.78242 5.95729,2.54303 3.63698,0.48638 4.59109,0.3808 3.5,-0.38732 -0.825,-0.58079 -0.9926,-1.06287 -0.37244,-1.0713 0.62015,-0.008 1.68775,0.65969 2.37244,1.48469 0.68469,0.825 1.63362,1.5 2.10874,1.5 0.47512,0 4.44124,1.97879 8.81359,4.3973 4.37235,2.41852 8.18948,4.15756 8.48249,3.86454 0.89443,-0.89442 5.59518,2.6856 5.59518,4.26121 0,0.81232 0.47656,1.47695 1.05902,1.47695 0.58246,0 0.75315,-0.4949 0.37932,-1.09977 -0.44677,-0.72289 0.0933,-0.68605 1.57608,0.10749 1.79046,0.95822 1.97006,1.3882 0.87068,2.08445 -1.78311,1.12927 -1.83943,1.12107 -5.3851,-0.78481 z m -75.75,-0.96964 c 0.6875,-0.27741 1.8125,-0.27741 2.5,0 0.6875,0.27741 0.125,0.50439 -1.25,0.50439 -1.375,0 -1.9375,-0.22698 -1.25,-0.50439 z m 166.81209,-5.58772 c -0.38144,-2.3375 -0.87565,-7.175 -1.09824,-10.75 -0.34449,-5.53269 -0.20884,-6.2425 0.91155,-4.76971 0.84858,1.1155 1.34143,4.93508 1.3871,10.75 0.039,4.96084 -0.0591,9.01971 -0.21803,9.01971 -0.15887,0 -0.60094,-1.9125 -0.98238,-4.25 z m -5.56209,-8.75 c 0,-0.55 0.45,-1 1,-1 0.55,0 1,0.45 1,1 0,0.55 -0.45,1 -1,1 -0.55,0 -1,-0.45 -1,-1 z m -13,-4.44098 c 0,-0.24254 0.45,-0.7191 1,-1.05902 0.55,-0.33992 1,-0.14148 1,0.44098 0,0.58246 -0.45,1.05902 -1,1.05902 -0.55,0 -1,-0.19844 -1,-0.44098 z m -82,-1.55902 c -0.90129,-0.58246 -1.02463,-0.97549 -0.30902,-0.98469 0.65504,-0.008 1.4691,0.43469 1.80902,0.98469 0.7673,1.24152 0.42112,1.24152 -1.5,0 z m 93,-1.5 c 0,-0.825 0.45,-1.5 1,-1.5 0.55,0 1,0.675 1,1.5 0,0.825 -0.45,1.5 -1,1.5 -0.55,0 -1,-0.675 -1,-1.5 z m -238.92105,-1.91667 c -0.0434,-1.05416 0.19292,-1.64479 0.52522,-1.3125 0.33229,0.3323 0.36781,1.1948 0.0789,1.91667 -0.31923,0.79773 -0.55619,0.56078 -0.60417,-0.60417 z m 119.92105,-0.0243 c 0,-0.85746 0.45,-1.55902 1,-1.55902 0.55,0 1,0.42344 1,0.94098 0,0.51754 -0.45,1.2191 -1,1.55902 -0.55,0.33992 -1,-0.0835 -1,-0.94098 z m -116.75,-4.50258 c -2.28026,-1.90227 -2.86536,-3.08222 -1.5,-3.02502 0.4125,0.0173 1.55851,1.14229 2.54668,2.5 2.13541,2.93397 1.95151,3.02621 -1.04668,0.52502 z m 241.82895,-0.47311 c -0.0434,-1.05416 0.19293,-1.64479 0.52522,-1.3125 0.33229,0.3323 0.36781,1.1948 0.0789,1.91667 -0.31922,0.79773 -0.55618,0.56078 -0.60416,-0.60417 z m -123,-1 c -0.0434,-1.05416 0.19292,-1.64479 0.52522,-1.3125 0.33229,0.3323 0.36781,1.1948 0.0789,1.91667 -0.31922,0.79773 -0.55618,0.56078 -0.60416,-0.60417 z m 107.92105,-3.02431 c 0,-0.24254 0.45,-0.7191 1,-1.05902 0.55,-0.33992 1,-0.14148 1,0.44098 0,0.58246 -0.45,1.05902 -1,1.05902 -0.55,0 -1,-0.19844 -1,-0.44098 z m -225,-2.44099 c 0,-0.55 0.45,-1.27811 1,-1.61803 0.55,-0.33992 1,-0.16803 1,0.38197 0,0.55 -0.45,1.27811 -1,1.61803 -0.55,0.33992 -1,0.16803 -1,-0.38197 z m 223,-3.55901 c 0,-0.24254 0.45,-0.7191 1,-1.05902 0.55,-0.33992 1,-0.14148 1,0.44098 0,0.58246 -0.45,1.05902 -1,1.05902 -0.55,0 -1,-0.19844 -1,-0.44098 z m -209.5,-3.55902 c -0.33992,-0.55 -0.14148,-1 0.44098,-1 0.58246,0 1.05902,0.45 1.05902,1 0,0.55 -0.19844,1 -0.44098,1 -0.24254,0 -0.7191,-0.45 -1.05902,-1 z m 11.97301,-2.95633 c 0.32507,-0.52597 1.25163,-0.70283 2.05901,-0.39301 2.06712,0.79323 1.82353,1.34934 -0.59104,1.34934 -1.13246,0 -1.79305,-0.43035 -1.46797,-0.95633 z m 53.02699,-1.04367 c -0.33992,-0.55 -0.14148,-1 0.44098,-1 0.58246,0 1.05902,0.45 1.05902,1 0,0.55 -0.19844,1 -0.44098,1 -0.24254,0 -0.7191,-0.45 -1.05902,-1 z"
       id="path4910"
       inkscape:connector-curvature="0" />
  </g>
</svg>
